%TF.GenerationSoftware,KiCad,Pcbnew,9.0.7*%
%TF.CreationDate,2026-01-12T11:14:28+00:00*%
%TF.ProjectId,DeltaBot,44656c74-6142-46f7-942e-6b696361645f,rev?*%
%TF.SameCoordinates,Original*%
%TF.FileFunction,Drillmap*%
%TF.FilePolarity,Positive*%
%FSLAX45Y45*%
G04 Gerber Fmt 4.5, Leading zero omitted, Abs format (unit mm)*
G04 Created by KiCad (PCBNEW 9.0.7) date 2026-01-12 11:14:28*
%MOMM*%
%LPD*%
G01*
G04 APERTURE LIST*
%ADD10C,0.050000*%
%ADD11C,0.200000*%
%ADD12C,0.250000*%
%ADD13C,0.300000*%
%ADD14C,0.330200*%
%ADD15C,0.350000*%
%ADD16C,0.400000*%
G04 APERTURE END LIST*
D10*
X4200000Y-12810000D02*
X14200000Y-12810000D01*
X14200000Y-15350000D01*
X4200000Y-15350000D01*
X4200000Y-12810000D01*
X3630000Y-5350000D02*
X21390000Y-5350000D01*
X21390000Y-15350000D01*
X3630000Y-15350000D01*
X3630000Y-5350000D01*
D11*
D12*
X15495000Y-8285000D02*
X15745000Y-8535000D01*
X15745000Y-8285000D02*
X15495000Y-8535000D01*
X15495000Y-12585000D02*
X15745000Y-12835000D01*
X15745000Y-12585000D02*
X15495000Y-12835000D01*
X19795000Y-8285000D02*
X20045000Y-8535000D01*
X20045000Y-8285000D02*
X19795000Y-8535000D01*
X19795000Y-12585000D02*
X20045000Y-12835000D01*
X20045000Y-12585000D02*
X19795000Y-12835000D01*
D13*
X18415000Y-9340000D02*
G75*
G02*
X18115000Y-9340000I-150000J0D01*
G01*
X18115000Y-9340000D02*
G75*
G02*
X18415000Y-9340000I150000J0D01*
G01*
D14*
X16050420Y-10165980D02*
X16050420Y-10496180D01*
X15885320Y-10331080D02*
X16215520Y-10331080D01*
X16050420Y-13086980D02*
X16050420Y-13417180D01*
X15885320Y-13252080D02*
X16215520Y-13252080D01*
X18717420Y-10165980D02*
X18717420Y-10496180D01*
X18552320Y-10331080D02*
X18882520Y-10331080D01*
X18717420Y-13086980D02*
X18717420Y-13417180D01*
X18552320Y-13252080D02*
X18882520Y-13252080D01*
D15*
X6173745Y-6123745D02*
X6173745Y-5876255D01*
X5926255Y-5876255D01*
X5926255Y-6123745D01*
X6173745Y-6123745D01*
X6173745Y-12173745D02*
X6173745Y-11926255D01*
X5926255Y-11926255D01*
X5926255Y-12173745D01*
X6173745Y-12173745D01*
X15373745Y-6173745D02*
X15373745Y-5926255D01*
X15126255Y-5926255D01*
X15126255Y-6173745D01*
X15373745Y-6173745D01*
X15373745Y-12173745D02*
X15373745Y-11926255D01*
X15126255Y-11926255D01*
X15126255Y-12173745D01*
X15373745Y-12173745D01*
X20823745Y-6723745D02*
X20823745Y-6476255D01*
X20576255Y-6476255D01*
X20576255Y-6723745D01*
X20823745Y-6723745D01*
X20823745Y-7973745D02*
X20823745Y-7726255D01*
X20576255Y-7726255D01*
X20576255Y-7973745D01*
X20823745Y-7973745D01*
X20823745Y-13133745D02*
X20823745Y-12886255D01*
X20576255Y-12886255D01*
X20576255Y-13133745D01*
X20823745Y-13133745D01*
X20823745Y-14383745D02*
X20823745Y-14136255D01*
X20576255Y-14136255D01*
X20576255Y-14383745D01*
X20823745Y-14383745D01*
D16*
X4562500Y-7470000D02*
X4762500Y-7270000D01*
X4562500Y-7070000D01*
X4362500Y-7270000D01*
X4562500Y-7470000D01*
X4562500Y-12370000D02*
X4762500Y-12170000D01*
X4562500Y-11970000D01*
X4362500Y-12170000D01*
X4562500Y-12370000D01*
X13947500Y-7470000D02*
X14147500Y-7270000D01*
X13947500Y-7070000D01*
X13747500Y-7270000D01*
X13947500Y-7470000D01*
X13947500Y-12370000D02*
X14147500Y-12170000D01*
X13947500Y-11970000D01*
X13747500Y-12170000D01*
X13947500Y-12370000D01*
D11*
X3888277Y-15663984D02*
X3888277Y-15463984D01*
X3888277Y-15463984D02*
X3935896Y-15463984D01*
X3935896Y-15463984D02*
X3964467Y-15473508D01*
X3964467Y-15473508D02*
X3983515Y-15492555D01*
X3983515Y-15492555D02*
X3993039Y-15511603D01*
X3993039Y-15511603D02*
X4002562Y-15549698D01*
X4002562Y-15549698D02*
X4002562Y-15578269D01*
X4002562Y-15578269D02*
X3993039Y-15616365D01*
X3993039Y-15616365D02*
X3983515Y-15635412D01*
X3983515Y-15635412D02*
X3964467Y-15654460D01*
X3964467Y-15654460D02*
X3935896Y-15663984D01*
X3935896Y-15663984D02*
X3888277Y-15663984D01*
X4088277Y-15663984D02*
X4088277Y-15530650D01*
X4088277Y-15568746D02*
X4097801Y-15549698D01*
X4097801Y-15549698D02*
X4107324Y-15540174D01*
X4107324Y-15540174D02*
X4126372Y-15530650D01*
X4126372Y-15530650D02*
X4145420Y-15530650D01*
X4212086Y-15663984D02*
X4212086Y-15530650D01*
X4212086Y-15463984D02*
X4202563Y-15473508D01*
X4202563Y-15473508D02*
X4212086Y-15483031D01*
X4212086Y-15483031D02*
X4221610Y-15473508D01*
X4221610Y-15473508D02*
X4212086Y-15463984D01*
X4212086Y-15463984D02*
X4212086Y-15483031D01*
X4335896Y-15663984D02*
X4316848Y-15654460D01*
X4316848Y-15654460D02*
X4307324Y-15635412D01*
X4307324Y-15635412D02*
X4307324Y-15463984D01*
X4440658Y-15663984D02*
X4421610Y-15654460D01*
X4421610Y-15654460D02*
X4412086Y-15635412D01*
X4412086Y-15635412D02*
X4412086Y-15463984D01*
X4669229Y-15663984D02*
X4669229Y-15463984D01*
X4669229Y-15463984D02*
X4735896Y-15606841D01*
X4735896Y-15606841D02*
X4802563Y-15463984D01*
X4802563Y-15463984D02*
X4802563Y-15663984D01*
X4983515Y-15663984D02*
X4983515Y-15559222D01*
X4983515Y-15559222D02*
X4973991Y-15540174D01*
X4973991Y-15540174D02*
X4954944Y-15530650D01*
X4954944Y-15530650D02*
X4916848Y-15530650D01*
X4916848Y-15530650D02*
X4897801Y-15540174D01*
X4983515Y-15654460D02*
X4964467Y-15663984D01*
X4964467Y-15663984D02*
X4916848Y-15663984D01*
X4916848Y-15663984D02*
X4897801Y-15654460D01*
X4897801Y-15654460D02*
X4888277Y-15635412D01*
X4888277Y-15635412D02*
X4888277Y-15616365D01*
X4888277Y-15616365D02*
X4897801Y-15597317D01*
X4897801Y-15597317D02*
X4916848Y-15587793D01*
X4916848Y-15587793D02*
X4964467Y-15587793D01*
X4964467Y-15587793D02*
X4983515Y-15578269D01*
X5078753Y-15530650D02*
X5078753Y-15730650D01*
X5078753Y-15540174D02*
X5097801Y-15530650D01*
X5097801Y-15530650D02*
X5135896Y-15530650D01*
X5135896Y-15530650D02*
X5154944Y-15540174D01*
X5154944Y-15540174D02*
X5164467Y-15549698D01*
X5164467Y-15549698D02*
X5173991Y-15568746D01*
X5173991Y-15568746D02*
X5173991Y-15625888D01*
X5173991Y-15625888D02*
X5164467Y-15644936D01*
X5164467Y-15644936D02*
X5154944Y-15654460D01*
X5154944Y-15654460D02*
X5135896Y-15663984D01*
X5135896Y-15663984D02*
X5097801Y-15663984D01*
X5097801Y-15663984D02*
X5078753Y-15654460D01*
X5259705Y-15644936D02*
X5269229Y-15654460D01*
X5269229Y-15654460D02*
X5259705Y-15663984D01*
X5259705Y-15663984D02*
X5250182Y-15654460D01*
X5250182Y-15654460D02*
X5259705Y-15644936D01*
X5259705Y-15644936D02*
X5259705Y-15663984D01*
X5259705Y-15540174D02*
X5269229Y-15549698D01*
X5269229Y-15549698D02*
X5259705Y-15559222D01*
X5259705Y-15559222D02*
X5250182Y-15549698D01*
X5250182Y-15549698D02*
X5259705Y-15540174D01*
X5259705Y-15540174D02*
X5259705Y-15559222D01*
X3427500Y-15892500D02*
X3627500Y-16092500D01*
X3627500Y-15892500D02*
X3427500Y-16092500D01*
X3878753Y-15903031D02*
X3888277Y-15893508D01*
X3888277Y-15893508D02*
X3907324Y-15883984D01*
X3907324Y-15883984D02*
X3954943Y-15883984D01*
X3954943Y-15883984D02*
X3973991Y-15893508D01*
X3973991Y-15893508D02*
X3983515Y-15903031D01*
X3983515Y-15903031D02*
X3993039Y-15922079D01*
X3993039Y-15922079D02*
X3993039Y-15941127D01*
X3993039Y-15941127D02*
X3983515Y-15969698D01*
X3983515Y-15969698D02*
X3869229Y-16083984D01*
X3869229Y-16083984D02*
X3993039Y-16083984D01*
X4078753Y-16064936D02*
X4088277Y-16074460D01*
X4088277Y-16074460D02*
X4078753Y-16083984D01*
X4078753Y-16083984D02*
X4069229Y-16074460D01*
X4069229Y-16074460D02*
X4078753Y-16064936D01*
X4078753Y-16064936D02*
X4078753Y-16083984D01*
X4269229Y-15883984D02*
X4173991Y-15883984D01*
X4173991Y-15883984D02*
X4164467Y-15979222D01*
X4164467Y-15979222D02*
X4173991Y-15969698D01*
X4173991Y-15969698D02*
X4193039Y-15960174D01*
X4193039Y-15960174D02*
X4240658Y-15960174D01*
X4240658Y-15960174D02*
X4259705Y-15969698D01*
X4259705Y-15969698D02*
X4269229Y-15979222D01*
X4269229Y-15979222D02*
X4278753Y-15998269D01*
X4278753Y-15998269D02*
X4278753Y-16045888D01*
X4278753Y-16045888D02*
X4269229Y-16064936D01*
X4269229Y-16064936D02*
X4259705Y-16074460D01*
X4259705Y-16074460D02*
X4240658Y-16083984D01*
X4240658Y-16083984D02*
X4193039Y-16083984D01*
X4193039Y-16083984D02*
X4173991Y-16074460D01*
X4173991Y-16074460D02*
X4164467Y-16064936D01*
X4402563Y-15883984D02*
X4421610Y-15883984D01*
X4421610Y-15883984D02*
X4440658Y-15893508D01*
X4440658Y-15893508D02*
X4450182Y-15903031D01*
X4450182Y-15903031D02*
X4459705Y-15922079D01*
X4459705Y-15922079D02*
X4469229Y-15960174D01*
X4469229Y-15960174D02*
X4469229Y-16007793D01*
X4469229Y-16007793D02*
X4459705Y-16045888D01*
X4459705Y-16045888D02*
X4450182Y-16064936D01*
X4450182Y-16064936D02*
X4440658Y-16074460D01*
X4440658Y-16074460D02*
X4421610Y-16083984D01*
X4421610Y-16083984D02*
X4402563Y-16083984D01*
X4402563Y-16083984D02*
X4383515Y-16074460D01*
X4383515Y-16074460D02*
X4373991Y-16064936D01*
X4373991Y-16064936D02*
X4364467Y-16045888D01*
X4364467Y-16045888D02*
X4354944Y-16007793D01*
X4354944Y-16007793D02*
X4354944Y-15960174D01*
X4354944Y-15960174D02*
X4364467Y-15922079D01*
X4364467Y-15922079D02*
X4373991Y-15903031D01*
X4373991Y-15903031D02*
X4383515Y-15893508D01*
X4383515Y-15893508D02*
X4402563Y-15883984D01*
X4593039Y-15883984D02*
X4612086Y-15883984D01*
X4612086Y-15883984D02*
X4631134Y-15893508D01*
X4631134Y-15893508D02*
X4640658Y-15903031D01*
X4640658Y-15903031D02*
X4650182Y-15922079D01*
X4650182Y-15922079D02*
X4659705Y-15960174D01*
X4659705Y-15960174D02*
X4659705Y-16007793D01*
X4659705Y-16007793D02*
X4650182Y-16045888D01*
X4650182Y-16045888D02*
X4640658Y-16064936D01*
X4640658Y-16064936D02*
X4631134Y-16074460D01*
X4631134Y-16074460D02*
X4612086Y-16083984D01*
X4612086Y-16083984D02*
X4593039Y-16083984D01*
X4593039Y-16083984D02*
X4573991Y-16074460D01*
X4573991Y-16074460D02*
X4564467Y-16064936D01*
X4564467Y-16064936D02*
X4554944Y-16045888D01*
X4554944Y-16045888D02*
X4545420Y-16007793D01*
X4545420Y-16007793D02*
X4545420Y-15960174D01*
X4545420Y-15960174D02*
X4554944Y-15922079D01*
X4554944Y-15922079D02*
X4564467Y-15903031D01*
X4564467Y-15903031D02*
X4573991Y-15893508D01*
X4573991Y-15893508D02*
X4593039Y-15883984D01*
X4745420Y-16083984D02*
X4745420Y-15950650D01*
X4745420Y-15969698D02*
X4754944Y-15960174D01*
X4754944Y-15960174D02*
X4773991Y-15950650D01*
X4773991Y-15950650D02*
X4802563Y-15950650D01*
X4802563Y-15950650D02*
X4821610Y-15960174D01*
X4821610Y-15960174D02*
X4831134Y-15979222D01*
X4831134Y-15979222D02*
X4831134Y-16083984D01*
X4831134Y-15979222D02*
X4840658Y-15960174D01*
X4840658Y-15960174D02*
X4859705Y-15950650D01*
X4859705Y-15950650D02*
X4888277Y-15950650D01*
X4888277Y-15950650D02*
X4907325Y-15960174D01*
X4907325Y-15960174D02*
X4916848Y-15979222D01*
X4916848Y-15979222D02*
X4916848Y-16083984D01*
X5012086Y-16083984D02*
X5012086Y-15950650D01*
X5012086Y-15969698D02*
X5021610Y-15960174D01*
X5021610Y-15960174D02*
X5040658Y-15950650D01*
X5040658Y-15950650D02*
X5069229Y-15950650D01*
X5069229Y-15950650D02*
X5088277Y-15960174D01*
X5088277Y-15960174D02*
X5097801Y-15979222D01*
X5097801Y-15979222D02*
X5097801Y-16083984D01*
X5097801Y-15979222D02*
X5107325Y-15960174D01*
X5107325Y-15960174D02*
X5126372Y-15950650D01*
X5126372Y-15950650D02*
X5154944Y-15950650D01*
X5154944Y-15950650D02*
X5173991Y-15960174D01*
X5173991Y-15960174D02*
X5183515Y-15979222D01*
X5183515Y-15979222D02*
X5183515Y-16083984D01*
X5573991Y-15874460D02*
X5402563Y-16131603D01*
X5831134Y-15883984D02*
X5850182Y-15883984D01*
X5850182Y-15883984D02*
X5869229Y-15893508D01*
X5869229Y-15893508D02*
X5878753Y-15903031D01*
X5878753Y-15903031D02*
X5888277Y-15922079D01*
X5888277Y-15922079D02*
X5897801Y-15960174D01*
X5897801Y-15960174D02*
X5897801Y-16007793D01*
X5897801Y-16007793D02*
X5888277Y-16045888D01*
X5888277Y-16045888D02*
X5878753Y-16064936D01*
X5878753Y-16064936D02*
X5869229Y-16074460D01*
X5869229Y-16074460D02*
X5850182Y-16083984D01*
X5850182Y-16083984D02*
X5831134Y-16083984D01*
X5831134Y-16083984D02*
X5812086Y-16074460D01*
X5812086Y-16074460D02*
X5802563Y-16064936D01*
X5802563Y-16064936D02*
X5793039Y-16045888D01*
X5793039Y-16045888D02*
X5783515Y-16007793D01*
X5783515Y-16007793D02*
X5783515Y-15960174D01*
X5783515Y-15960174D02*
X5793039Y-15922079D01*
X5793039Y-15922079D02*
X5802563Y-15903031D01*
X5802563Y-15903031D02*
X5812086Y-15893508D01*
X5812086Y-15893508D02*
X5831134Y-15883984D01*
X5983515Y-16064936D02*
X5993039Y-16074460D01*
X5993039Y-16074460D02*
X5983515Y-16083984D01*
X5983515Y-16083984D02*
X5973991Y-16074460D01*
X5973991Y-16074460D02*
X5983515Y-16064936D01*
X5983515Y-16064936D02*
X5983515Y-16083984D01*
X6116848Y-15883984D02*
X6135896Y-15883984D01*
X6135896Y-15883984D02*
X6154944Y-15893508D01*
X6154944Y-15893508D02*
X6164467Y-15903031D01*
X6164467Y-15903031D02*
X6173991Y-15922079D01*
X6173991Y-15922079D02*
X6183515Y-15960174D01*
X6183515Y-15960174D02*
X6183515Y-16007793D01*
X6183515Y-16007793D02*
X6173991Y-16045888D01*
X6173991Y-16045888D02*
X6164467Y-16064936D01*
X6164467Y-16064936D02*
X6154944Y-16074460D01*
X6154944Y-16074460D02*
X6135896Y-16083984D01*
X6135896Y-16083984D02*
X6116848Y-16083984D01*
X6116848Y-16083984D02*
X6097801Y-16074460D01*
X6097801Y-16074460D02*
X6088277Y-16064936D01*
X6088277Y-16064936D02*
X6078753Y-16045888D01*
X6078753Y-16045888D02*
X6069229Y-16007793D01*
X6069229Y-16007793D02*
X6069229Y-15960174D01*
X6069229Y-15960174D02*
X6078753Y-15922079D01*
X6078753Y-15922079D02*
X6088277Y-15903031D01*
X6088277Y-15903031D02*
X6097801Y-15893508D01*
X6097801Y-15893508D02*
X6116848Y-15883984D01*
X6278753Y-16083984D02*
X6316848Y-16083984D01*
X6316848Y-16083984D02*
X6335896Y-16074460D01*
X6335896Y-16074460D02*
X6345420Y-16064936D01*
X6345420Y-16064936D02*
X6364467Y-16036365D01*
X6364467Y-16036365D02*
X6373991Y-15998269D01*
X6373991Y-15998269D02*
X6373991Y-15922079D01*
X6373991Y-15922079D02*
X6364467Y-15903031D01*
X6364467Y-15903031D02*
X6354944Y-15893508D01*
X6354944Y-15893508D02*
X6335896Y-15883984D01*
X6335896Y-15883984D02*
X6297801Y-15883984D01*
X6297801Y-15883984D02*
X6278753Y-15893508D01*
X6278753Y-15893508D02*
X6269229Y-15903031D01*
X6269229Y-15903031D02*
X6259706Y-15922079D01*
X6259706Y-15922079D02*
X6259706Y-15969698D01*
X6259706Y-15969698D02*
X6269229Y-15988746D01*
X6269229Y-15988746D02*
X6278753Y-15998269D01*
X6278753Y-15998269D02*
X6297801Y-16007793D01*
X6297801Y-16007793D02*
X6335896Y-16007793D01*
X6335896Y-16007793D02*
X6354944Y-15998269D01*
X6354944Y-15998269D02*
X6364467Y-15988746D01*
X6364467Y-15988746D02*
X6373991Y-15969698D01*
X6488277Y-15969698D02*
X6469229Y-15960174D01*
X6469229Y-15960174D02*
X6459706Y-15950650D01*
X6459706Y-15950650D02*
X6450182Y-15931603D01*
X6450182Y-15931603D02*
X6450182Y-15922079D01*
X6450182Y-15922079D02*
X6459706Y-15903031D01*
X6459706Y-15903031D02*
X6469229Y-15893508D01*
X6469229Y-15893508D02*
X6488277Y-15883984D01*
X6488277Y-15883984D02*
X6526372Y-15883984D01*
X6526372Y-15883984D02*
X6545420Y-15893508D01*
X6545420Y-15893508D02*
X6554944Y-15903031D01*
X6554944Y-15903031D02*
X6564467Y-15922079D01*
X6564467Y-15922079D02*
X6564467Y-15931603D01*
X6564467Y-15931603D02*
X6554944Y-15950650D01*
X6554944Y-15950650D02*
X6545420Y-15960174D01*
X6545420Y-15960174D02*
X6526372Y-15969698D01*
X6526372Y-15969698D02*
X6488277Y-15969698D01*
X6488277Y-15969698D02*
X6469229Y-15979222D01*
X6469229Y-15979222D02*
X6459706Y-15988746D01*
X6459706Y-15988746D02*
X6450182Y-16007793D01*
X6450182Y-16007793D02*
X6450182Y-16045888D01*
X6450182Y-16045888D02*
X6459706Y-16064936D01*
X6459706Y-16064936D02*
X6469229Y-16074460D01*
X6469229Y-16074460D02*
X6488277Y-16083984D01*
X6488277Y-16083984D02*
X6526372Y-16083984D01*
X6526372Y-16083984D02*
X6545420Y-16074460D01*
X6545420Y-16074460D02*
X6554944Y-16064936D01*
X6554944Y-16064936D02*
X6564467Y-16045888D01*
X6564467Y-16045888D02*
X6564467Y-16007793D01*
X6564467Y-16007793D02*
X6554944Y-15988746D01*
X6554944Y-15988746D02*
X6545420Y-15979222D01*
X6545420Y-15979222D02*
X6526372Y-15969698D01*
X6735896Y-15950650D02*
X6735896Y-16083984D01*
X6688277Y-15874460D02*
X6640658Y-16017317D01*
X6640658Y-16017317D02*
X6764467Y-16017317D01*
X6831134Y-15883984D02*
X6831134Y-15922079D01*
X6907325Y-15883984D02*
X6907325Y-15922079D01*
X7202563Y-16160174D02*
X7193039Y-16150650D01*
X7193039Y-16150650D02*
X7173991Y-16122079D01*
X7173991Y-16122079D02*
X7164468Y-16103031D01*
X7164468Y-16103031D02*
X7154944Y-16074460D01*
X7154944Y-16074460D02*
X7145420Y-16026841D01*
X7145420Y-16026841D02*
X7145420Y-15988746D01*
X7145420Y-15988746D02*
X7154944Y-15941127D01*
X7154944Y-15941127D02*
X7164468Y-15912555D01*
X7164468Y-15912555D02*
X7173991Y-15893508D01*
X7173991Y-15893508D02*
X7193039Y-15864936D01*
X7193039Y-15864936D02*
X7202563Y-15855412D01*
X7364468Y-15950650D02*
X7364468Y-16083984D01*
X7316848Y-15874460D02*
X7269229Y-16017317D01*
X7269229Y-16017317D02*
X7393039Y-16017317D01*
X7621610Y-16083984D02*
X7621610Y-15883984D01*
X7707325Y-16083984D02*
X7707325Y-15979222D01*
X7707325Y-15979222D02*
X7697801Y-15960174D01*
X7697801Y-15960174D02*
X7678753Y-15950650D01*
X7678753Y-15950650D02*
X7650182Y-15950650D01*
X7650182Y-15950650D02*
X7631134Y-15960174D01*
X7631134Y-15960174D02*
X7621610Y-15969698D01*
X7831134Y-16083984D02*
X7812087Y-16074460D01*
X7812087Y-16074460D02*
X7802563Y-16064936D01*
X7802563Y-16064936D02*
X7793039Y-16045888D01*
X7793039Y-16045888D02*
X7793039Y-15988746D01*
X7793039Y-15988746D02*
X7802563Y-15969698D01*
X7802563Y-15969698D02*
X7812087Y-15960174D01*
X7812087Y-15960174D02*
X7831134Y-15950650D01*
X7831134Y-15950650D02*
X7859706Y-15950650D01*
X7859706Y-15950650D02*
X7878753Y-15960174D01*
X7878753Y-15960174D02*
X7888277Y-15969698D01*
X7888277Y-15969698D02*
X7897801Y-15988746D01*
X7897801Y-15988746D02*
X7897801Y-16045888D01*
X7897801Y-16045888D02*
X7888277Y-16064936D01*
X7888277Y-16064936D02*
X7878753Y-16074460D01*
X7878753Y-16074460D02*
X7859706Y-16083984D01*
X7859706Y-16083984D02*
X7831134Y-16083984D01*
X8012087Y-16083984D02*
X7993039Y-16074460D01*
X7993039Y-16074460D02*
X7983515Y-16055412D01*
X7983515Y-16055412D02*
X7983515Y-15883984D01*
X8164468Y-16074460D02*
X8145420Y-16083984D01*
X8145420Y-16083984D02*
X8107325Y-16083984D01*
X8107325Y-16083984D02*
X8088277Y-16074460D01*
X8088277Y-16074460D02*
X8078753Y-16055412D01*
X8078753Y-16055412D02*
X8078753Y-15979222D01*
X8078753Y-15979222D02*
X8088277Y-15960174D01*
X8088277Y-15960174D02*
X8107325Y-15950650D01*
X8107325Y-15950650D02*
X8145420Y-15950650D01*
X8145420Y-15950650D02*
X8164468Y-15960174D01*
X8164468Y-15960174D02*
X8173991Y-15979222D01*
X8173991Y-15979222D02*
X8173991Y-15998269D01*
X8173991Y-15998269D02*
X8078753Y-16017317D01*
X8250182Y-16074460D02*
X8269230Y-16083984D01*
X8269230Y-16083984D02*
X8307325Y-16083984D01*
X8307325Y-16083984D02*
X8326372Y-16074460D01*
X8326372Y-16074460D02*
X8335896Y-16055412D01*
X8335896Y-16055412D02*
X8335896Y-16045888D01*
X8335896Y-16045888D02*
X8326372Y-16026841D01*
X8326372Y-16026841D02*
X8307325Y-16017317D01*
X8307325Y-16017317D02*
X8278753Y-16017317D01*
X8278753Y-16017317D02*
X8259706Y-16007793D01*
X8259706Y-16007793D02*
X8250182Y-15988746D01*
X8250182Y-15988746D02*
X8250182Y-15979222D01*
X8250182Y-15979222D02*
X8259706Y-15960174D01*
X8259706Y-15960174D02*
X8278753Y-15950650D01*
X8278753Y-15950650D02*
X8307325Y-15950650D01*
X8307325Y-15950650D02*
X8326372Y-15960174D01*
X8402563Y-16160174D02*
X8412087Y-16150650D01*
X8412087Y-16150650D02*
X8431134Y-16122079D01*
X8431134Y-16122079D02*
X8440658Y-16103031D01*
X8440658Y-16103031D02*
X8450182Y-16074460D01*
X8450182Y-16074460D02*
X8459706Y-16026841D01*
X8459706Y-16026841D02*
X8459706Y-15988746D01*
X8459706Y-15988746D02*
X8450182Y-15941127D01*
X8450182Y-15941127D02*
X8440658Y-15912555D01*
X8440658Y-15912555D02*
X8431134Y-15893508D01*
X8431134Y-15893508D02*
X8412087Y-15864936D01*
X8412087Y-15864936D02*
X8402563Y-15855412D01*
X8764468Y-16160174D02*
X8754944Y-16150650D01*
X8754944Y-16150650D02*
X8735896Y-16122079D01*
X8735896Y-16122079D02*
X8726373Y-16103031D01*
X8726373Y-16103031D02*
X8716849Y-16074460D01*
X8716849Y-16074460D02*
X8707325Y-16026841D01*
X8707325Y-16026841D02*
X8707325Y-15988746D01*
X8707325Y-15988746D02*
X8716849Y-15941127D01*
X8716849Y-15941127D02*
X8726373Y-15912555D01*
X8726373Y-15912555D02*
X8735896Y-15893508D01*
X8735896Y-15893508D02*
X8754944Y-15864936D01*
X8754944Y-15864936D02*
X8764468Y-15855412D01*
X8840658Y-15950650D02*
X8840658Y-16083984D01*
X8840658Y-15969698D02*
X8850182Y-15960174D01*
X8850182Y-15960174D02*
X8869230Y-15950650D01*
X8869230Y-15950650D02*
X8897801Y-15950650D01*
X8897801Y-15950650D02*
X8916849Y-15960174D01*
X8916849Y-15960174D02*
X8926373Y-15979222D01*
X8926373Y-15979222D02*
X8926373Y-16083984D01*
X9050182Y-16083984D02*
X9031134Y-16074460D01*
X9031134Y-16074460D02*
X9021611Y-16064936D01*
X9021611Y-16064936D02*
X9012087Y-16045888D01*
X9012087Y-16045888D02*
X9012087Y-15988746D01*
X9012087Y-15988746D02*
X9021611Y-15969698D01*
X9021611Y-15969698D02*
X9031134Y-15960174D01*
X9031134Y-15960174D02*
X9050182Y-15950650D01*
X9050182Y-15950650D02*
X9078754Y-15950650D01*
X9078754Y-15950650D02*
X9097801Y-15960174D01*
X9097801Y-15960174D02*
X9107325Y-15969698D01*
X9107325Y-15969698D02*
X9116849Y-15988746D01*
X9116849Y-15988746D02*
X9116849Y-16045888D01*
X9116849Y-16045888D02*
X9107325Y-16064936D01*
X9107325Y-16064936D02*
X9097801Y-16074460D01*
X9097801Y-16074460D02*
X9078754Y-16083984D01*
X9078754Y-16083984D02*
X9050182Y-16083984D01*
X9173992Y-15950650D02*
X9250182Y-15950650D01*
X9202563Y-15883984D02*
X9202563Y-16055412D01*
X9202563Y-16055412D02*
X9212087Y-16074460D01*
X9212087Y-16074460D02*
X9231134Y-16083984D01*
X9231134Y-16083984D02*
X9250182Y-16083984D01*
X9469230Y-15950650D02*
X9469230Y-16150650D01*
X9469230Y-15960174D02*
X9488277Y-15950650D01*
X9488277Y-15950650D02*
X9526373Y-15950650D01*
X9526373Y-15950650D02*
X9545420Y-15960174D01*
X9545420Y-15960174D02*
X9554944Y-15969698D01*
X9554944Y-15969698D02*
X9564468Y-15988746D01*
X9564468Y-15988746D02*
X9564468Y-16045888D01*
X9564468Y-16045888D02*
X9554944Y-16064936D01*
X9554944Y-16064936D02*
X9545420Y-16074460D01*
X9545420Y-16074460D02*
X9526373Y-16083984D01*
X9526373Y-16083984D02*
X9488277Y-16083984D01*
X9488277Y-16083984D02*
X9469230Y-16074460D01*
X9678754Y-16083984D02*
X9659706Y-16074460D01*
X9659706Y-16074460D02*
X9650182Y-16055412D01*
X9650182Y-16055412D02*
X9650182Y-15883984D01*
X9840658Y-16083984D02*
X9840658Y-15979222D01*
X9840658Y-15979222D02*
X9831135Y-15960174D01*
X9831135Y-15960174D02*
X9812087Y-15950650D01*
X9812087Y-15950650D02*
X9773992Y-15950650D01*
X9773992Y-15950650D02*
X9754944Y-15960174D01*
X9840658Y-16074460D02*
X9821611Y-16083984D01*
X9821611Y-16083984D02*
X9773992Y-16083984D01*
X9773992Y-16083984D02*
X9754944Y-16074460D01*
X9754944Y-16074460D02*
X9745420Y-16055412D01*
X9745420Y-16055412D02*
X9745420Y-16036365D01*
X9745420Y-16036365D02*
X9754944Y-16017317D01*
X9754944Y-16017317D02*
X9773992Y-16007793D01*
X9773992Y-16007793D02*
X9821611Y-16007793D01*
X9821611Y-16007793D02*
X9840658Y-15998269D01*
X9907325Y-15950650D02*
X9983515Y-15950650D01*
X9935896Y-15883984D02*
X9935896Y-16055412D01*
X9935896Y-16055412D02*
X9945420Y-16074460D01*
X9945420Y-16074460D02*
X9964468Y-16083984D01*
X9964468Y-16083984D02*
X9983515Y-16083984D01*
X10126373Y-16074460D02*
X10107325Y-16083984D01*
X10107325Y-16083984D02*
X10069230Y-16083984D01*
X10069230Y-16083984D02*
X10050182Y-16074460D01*
X10050182Y-16074460D02*
X10040658Y-16055412D01*
X10040658Y-16055412D02*
X10040658Y-15979222D01*
X10040658Y-15979222D02*
X10050182Y-15960174D01*
X10050182Y-15960174D02*
X10069230Y-15950650D01*
X10069230Y-15950650D02*
X10107325Y-15950650D01*
X10107325Y-15950650D02*
X10126373Y-15960174D01*
X10126373Y-15960174D02*
X10135896Y-15979222D01*
X10135896Y-15979222D02*
X10135896Y-15998269D01*
X10135896Y-15998269D02*
X10040658Y-16017317D01*
X10307325Y-16083984D02*
X10307325Y-15883984D01*
X10307325Y-16074460D02*
X10288277Y-16083984D01*
X10288277Y-16083984D02*
X10250182Y-16083984D01*
X10250182Y-16083984D02*
X10231135Y-16074460D01*
X10231135Y-16074460D02*
X10221611Y-16064936D01*
X10221611Y-16064936D02*
X10212087Y-16045888D01*
X10212087Y-16045888D02*
X10212087Y-15988746D01*
X10212087Y-15988746D02*
X10221611Y-15969698D01*
X10221611Y-15969698D02*
X10231135Y-15960174D01*
X10231135Y-15960174D02*
X10250182Y-15950650D01*
X10250182Y-15950650D02*
X10288277Y-15950650D01*
X10288277Y-15950650D02*
X10307325Y-15960174D01*
X10383516Y-16160174D02*
X10393039Y-16150650D01*
X10393039Y-16150650D02*
X10412087Y-16122079D01*
X10412087Y-16122079D02*
X10421611Y-16103031D01*
X10421611Y-16103031D02*
X10431135Y-16074460D01*
X10431135Y-16074460D02*
X10440658Y-16026841D01*
X10440658Y-16026841D02*
X10440658Y-15988746D01*
X10440658Y-15988746D02*
X10431135Y-15941127D01*
X10431135Y-15941127D02*
X10421611Y-15912555D01*
X10421611Y-15912555D02*
X10412087Y-15893508D01*
X10412087Y-15893508D02*
X10393039Y-15864936D01*
X10393039Y-15864936D02*
X10383516Y-15855412D01*
X3627500Y-16312500D02*
G75*
G02*
X3427500Y-16312500I-100000J0D01*
G01*
X3427500Y-16312500D02*
G75*
G02*
X3627500Y-16312500I100000J0D01*
G01*
X3869229Y-16203984D02*
X3993039Y-16203984D01*
X3993039Y-16203984D02*
X3926372Y-16280174D01*
X3926372Y-16280174D02*
X3954943Y-16280174D01*
X3954943Y-16280174D02*
X3973991Y-16289698D01*
X3973991Y-16289698D02*
X3983515Y-16299222D01*
X3983515Y-16299222D02*
X3993039Y-16318269D01*
X3993039Y-16318269D02*
X3993039Y-16365888D01*
X3993039Y-16365888D02*
X3983515Y-16384936D01*
X3983515Y-16384936D02*
X3973991Y-16394460D01*
X3973991Y-16394460D02*
X3954943Y-16403984D01*
X3954943Y-16403984D02*
X3897801Y-16403984D01*
X3897801Y-16403984D02*
X3878753Y-16394460D01*
X3878753Y-16394460D02*
X3869229Y-16384936D01*
X4078753Y-16384936D02*
X4088277Y-16394460D01*
X4088277Y-16394460D02*
X4078753Y-16403984D01*
X4078753Y-16403984D02*
X4069229Y-16394460D01*
X4069229Y-16394460D02*
X4078753Y-16384936D01*
X4078753Y-16384936D02*
X4078753Y-16403984D01*
X4212086Y-16203984D02*
X4231134Y-16203984D01*
X4231134Y-16203984D02*
X4250182Y-16213508D01*
X4250182Y-16213508D02*
X4259705Y-16223031D01*
X4259705Y-16223031D02*
X4269229Y-16242079D01*
X4269229Y-16242079D02*
X4278753Y-16280174D01*
X4278753Y-16280174D02*
X4278753Y-16327793D01*
X4278753Y-16327793D02*
X4269229Y-16365888D01*
X4269229Y-16365888D02*
X4259705Y-16384936D01*
X4259705Y-16384936D02*
X4250182Y-16394460D01*
X4250182Y-16394460D02*
X4231134Y-16403984D01*
X4231134Y-16403984D02*
X4212086Y-16403984D01*
X4212086Y-16403984D02*
X4193039Y-16394460D01*
X4193039Y-16394460D02*
X4183515Y-16384936D01*
X4183515Y-16384936D02*
X4173991Y-16365888D01*
X4173991Y-16365888D02*
X4164467Y-16327793D01*
X4164467Y-16327793D02*
X4164467Y-16280174D01*
X4164467Y-16280174D02*
X4173991Y-16242079D01*
X4173991Y-16242079D02*
X4183515Y-16223031D01*
X4183515Y-16223031D02*
X4193039Y-16213508D01*
X4193039Y-16213508D02*
X4212086Y-16203984D01*
X4402563Y-16203984D02*
X4421610Y-16203984D01*
X4421610Y-16203984D02*
X4440658Y-16213508D01*
X4440658Y-16213508D02*
X4450182Y-16223031D01*
X4450182Y-16223031D02*
X4459705Y-16242079D01*
X4459705Y-16242079D02*
X4469229Y-16280174D01*
X4469229Y-16280174D02*
X4469229Y-16327793D01*
X4469229Y-16327793D02*
X4459705Y-16365888D01*
X4459705Y-16365888D02*
X4450182Y-16384936D01*
X4450182Y-16384936D02*
X4440658Y-16394460D01*
X4440658Y-16394460D02*
X4421610Y-16403984D01*
X4421610Y-16403984D02*
X4402563Y-16403984D01*
X4402563Y-16403984D02*
X4383515Y-16394460D01*
X4383515Y-16394460D02*
X4373991Y-16384936D01*
X4373991Y-16384936D02*
X4364467Y-16365888D01*
X4364467Y-16365888D02*
X4354944Y-16327793D01*
X4354944Y-16327793D02*
X4354944Y-16280174D01*
X4354944Y-16280174D02*
X4364467Y-16242079D01*
X4364467Y-16242079D02*
X4373991Y-16223031D01*
X4373991Y-16223031D02*
X4383515Y-16213508D01*
X4383515Y-16213508D02*
X4402563Y-16203984D01*
X4593039Y-16203984D02*
X4612086Y-16203984D01*
X4612086Y-16203984D02*
X4631134Y-16213508D01*
X4631134Y-16213508D02*
X4640658Y-16223031D01*
X4640658Y-16223031D02*
X4650182Y-16242079D01*
X4650182Y-16242079D02*
X4659705Y-16280174D01*
X4659705Y-16280174D02*
X4659705Y-16327793D01*
X4659705Y-16327793D02*
X4650182Y-16365888D01*
X4650182Y-16365888D02*
X4640658Y-16384936D01*
X4640658Y-16384936D02*
X4631134Y-16394460D01*
X4631134Y-16394460D02*
X4612086Y-16403984D01*
X4612086Y-16403984D02*
X4593039Y-16403984D01*
X4593039Y-16403984D02*
X4573991Y-16394460D01*
X4573991Y-16394460D02*
X4564467Y-16384936D01*
X4564467Y-16384936D02*
X4554944Y-16365888D01*
X4554944Y-16365888D02*
X4545420Y-16327793D01*
X4545420Y-16327793D02*
X4545420Y-16280174D01*
X4545420Y-16280174D02*
X4554944Y-16242079D01*
X4554944Y-16242079D02*
X4564467Y-16223031D01*
X4564467Y-16223031D02*
X4573991Y-16213508D01*
X4573991Y-16213508D02*
X4593039Y-16203984D01*
X4745420Y-16403984D02*
X4745420Y-16270650D01*
X4745420Y-16289698D02*
X4754944Y-16280174D01*
X4754944Y-16280174D02*
X4773991Y-16270650D01*
X4773991Y-16270650D02*
X4802563Y-16270650D01*
X4802563Y-16270650D02*
X4821610Y-16280174D01*
X4821610Y-16280174D02*
X4831134Y-16299222D01*
X4831134Y-16299222D02*
X4831134Y-16403984D01*
X4831134Y-16299222D02*
X4840658Y-16280174D01*
X4840658Y-16280174D02*
X4859705Y-16270650D01*
X4859705Y-16270650D02*
X4888277Y-16270650D01*
X4888277Y-16270650D02*
X4907325Y-16280174D01*
X4907325Y-16280174D02*
X4916848Y-16299222D01*
X4916848Y-16299222D02*
X4916848Y-16403984D01*
X5012086Y-16403984D02*
X5012086Y-16270650D01*
X5012086Y-16289698D02*
X5021610Y-16280174D01*
X5021610Y-16280174D02*
X5040658Y-16270650D01*
X5040658Y-16270650D02*
X5069229Y-16270650D01*
X5069229Y-16270650D02*
X5088277Y-16280174D01*
X5088277Y-16280174D02*
X5097801Y-16299222D01*
X5097801Y-16299222D02*
X5097801Y-16403984D01*
X5097801Y-16299222D02*
X5107325Y-16280174D01*
X5107325Y-16280174D02*
X5126372Y-16270650D01*
X5126372Y-16270650D02*
X5154944Y-16270650D01*
X5154944Y-16270650D02*
X5173991Y-16280174D01*
X5173991Y-16280174D02*
X5183515Y-16299222D01*
X5183515Y-16299222D02*
X5183515Y-16403984D01*
X5573991Y-16194460D02*
X5402563Y-16451603D01*
X5831134Y-16203984D02*
X5850182Y-16203984D01*
X5850182Y-16203984D02*
X5869229Y-16213508D01*
X5869229Y-16213508D02*
X5878753Y-16223031D01*
X5878753Y-16223031D02*
X5888277Y-16242079D01*
X5888277Y-16242079D02*
X5897801Y-16280174D01*
X5897801Y-16280174D02*
X5897801Y-16327793D01*
X5897801Y-16327793D02*
X5888277Y-16365888D01*
X5888277Y-16365888D02*
X5878753Y-16384936D01*
X5878753Y-16384936D02*
X5869229Y-16394460D01*
X5869229Y-16394460D02*
X5850182Y-16403984D01*
X5850182Y-16403984D02*
X5831134Y-16403984D01*
X5831134Y-16403984D02*
X5812086Y-16394460D01*
X5812086Y-16394460D02*
X5802563Y-16384936D01*
X5802563Y-16384936D02*
X5793039Y-16365888D01*
X5793039Y-16365888D02*
X5783515Y-16327793D01*
X5783515Y-16327793D02*
X5783515Y-16280174D01*
X5783515Y-16280174D02*
X5793039Y-16242079D01*
X5793039Y-16242079D02*
X5802563Y-16223031D01*
X5802563Y-16223031D02*
X5812086Y-16213508D01*
X5812086Y-16213508D02*
X5831134Y-16203984D01*
X5983515Y-16384936D02*
X5993039Y-16394460D01*
X5993039Y-16394460D02*
X5983515Y-16403984D01*
X5983515Y-16403984D02*
X5973991Y-16394460D01*
X5973991Y-16394460D02*
X5983515Y-16384936D01*
X5983515Y-16384936D02*
X5983515Y-16403984D01*
X6183515Y-16403984D02*
X6069229Y-16403984D01*
X6126372Y-16403984D02*
X6126372Y-16203984D01*
X6126372Y-16203984D02*
X6107325Y-16232555D01*
X6107325Y-16232555D02*
X6088277Y-16251603D01*
X6088277Y-16251603D02*
X6069229Y-16261127D01*
X6373991Y-16403984D02*
X6259706Y-16403984D01*
X6316848Y-16403984D02*
X6316848Y-16203984D01*
X6316848Y-16203984D02*
X6297801Y-16232555D01*
X6297801Y-16232555D02*
X6278753Y-16251603D01*
X6278753Y-16251603D02*
X6259706Y-16261127D01*
X6488277Y-16289698D02*
X6469229Y-16280174D01*
X6469229Y-16280174D02*
X6459706Y-16270650D01*
X6459706Y-16270650D02*
X6450182Y-16251603D01*
X6450182Y-16251603D02*
X6450182Y-16242079D01*
X6450182Y-16242079D02*
X6459706Y-16223031D01*
X6459706Y-16223031D02*
X6469229Y-16213508D01*
X6469229Y-16213508D02*
X6488277Y-16203984D01*
X6488277Y-16203984D02*
X6526372Y-16203984D01*
X6526372Y-16203984D02*
X6545420Y-16213508D01*
X6545420Y-16213508D02*
X6554944Y-16223031D01*
X6554944Y-16223031D02*
X6564467Y-16242079D01*
X6564467Y-16242079D02*
X6564467Y-16251603D01*
X6564467Y-16251603D02*
X6554944Y-16270650D01*
X6554944Y-16270650D02*
X6545420Y-16280174D01*
X6545420Y-16280174D02*
X6526372Y-16289698D01*
X6526372Y-16289698D02*
X6488277Y-16289698D01*
X6488277Y-16289698D02*
X6469229Y-16299222D01*
X6469229Y-16299222D02*
X6459706Y-16308746D01*
X6459706Y-16308746D02*
X6450182Y-16327793D01*
X6450182Y-16327793D02*
X6450182Y-16365888D01*
X6450182Y-16365888D02*
X6459706Y-16384936D01*
X6459706Y-16384936D02*
X6469229Y-16394460D01*
X6469229Y-16394460D02*
X6488277Y-16403984D01*
X6488277Y-16403984D02*
X6526372Y-16403984D01*
X6526372Y-16403984D02*
X6545420Y-16394460D01*
X6545420Y-16394460D02*
X6554944Y-16384936D01*
X6554944Y-16384936D02*
X6564467Y-16365888D01*
X6564467Y-16365888D02*
X6564467Y-16327793D01*
X6564467Y-16327793D02*
X6554944Y-16308746D01*
X6554944Y-16308746D02*
X6545420Y-16299222D01*
X6545420Y-16299222D02*
X6526372Y-16289698D01*
X6754944Y-16403984D02*
X6640658Y-16403984D01*
X6697801Y-16403984D02*
X6697801Y-16203984D01*
X6697801Y-16203984D02*
X6678753Y-16232555D01*
X6678753Y-16232555D02*
X6659706Y-16251603D01*
X6659706Y-16251603D02*
X6640658Y-16261127D01*
X6831134Y-16203984D02*
X6831134Y-16242079D01*
X6907325Y-16203984D02*
X6907325Y-16242079D01*
X7202563Y-16480174D02*
X7193039Y-16470650D01*
X7193039Y-16470650D02*
X7173991Y-16442079D01*
X7173991Y-16442079D02*
X7164468Y-16423031D01*
X7164468Y-16423031D02*
X7154944Y-16394460D01*
X7154944Y-16394460D02*
X7145420Y-16346841D01*
X7145420Y-16346841D02*
X7145420Y-16308746D01*
X7145420Y-16308746D02*
X7154944Y-16261127D01*
X7154944Y-16261127D02*
X7164468Y-16232555D01*
X7164468Y-16232555D02*
X7173991Y-16213508D01*
X7173991Y-16213508D02*
X7193039Y-16184936D01*
X7193039Y-16184936D02*
X7202563Y-16175412D01*
X7383515Y-16403984D02*
X7269229Y-16403984D01*
X7326372Y-16403984D02*
X7326372Y-16203984D01*
X7326372Y-16203984D02*
X7307325Y-16232555D01*
X7307325Y-16232555D02*
X7288277Y-16251603D01*
X7288277Y-16251603D02*
X7269229Y-16261127D01*
X7621610Y-16403984D02*
X7621610Y-16203984D01*
X7707325Y-16403984D02*
X7707325Y-16299222D01*
X7707325Y-16299222D02*
X7697801Y-16280174D01*
X7697801Y-16280174D02*
X7678753Y-16270650D01*
X7678753Y-16270650D02*
X7650182Y-16270650D01*
X7650182Y-16270650D02*
X7631134Y-16280174D01*
X7631134Y-16280174D02*
X7621610Y-16289698D01*
X7831134Y-16403984D02*
X7812087Y-16394460D01*
X7812087Y-16394460D02*
X7802563Y-16384936D01*
X7802563Y-16384936D02*
X7793039Y-16365888D01*
X7793039Y-16365888D02*
X7793039Y-16308746D01*
X7793039Y-16308746D02*
X7802563Y-16289698D01*
X7802563Y-16289698D02*
X7812087Y-16280174D01*
X7812087Y-16280174D02*
X7831134Y-16270650D01*
X7831134Y-16270650D02*
X7859706Y-16270650D01*
X7859706Y-16270650D02*
X7878753Y-16280174D01*
X7878753Y-16280174D02*
X7888277Y-16289698D01*
X7888277Y-16289698D02*
X7897801Y-16308746D01*
X7897801Y-16308746D02*
X7897801Y-16365888D01*
X7897801Y-16365888D02*
X7888277Y-16384936D01*
X7888277Y-16384936D02*
X7878753Y-16394460D01*
X7878753Y-16394460D02*
X7859706Y-16403984D01*
X7859706Y-16403984D02*
X7831134Y-16403984D01*
X8012087Y-16403984D02*
X7993039Y-16394460D01*
X7993039Y-16394460D02*
X7983515Y-16375412D01*
X7983515Y-16375412D02*
X7983515Y-16203984D01*
X8164468Y-16394460D02*
X8145420Y-16403984D01*
X8145420Y-16403984D02*
X8107325Y-16403984D01*
X8107325Y-16403984D02*
X8088277Y-16394460D01*
X8088277Y-16394460D02*
X8078753Y-16375412D01*
X8078753Y-16375412D02*
X8078753Y-16299222D01*
X8078753Y-16299222D02*
X8088277Y-16280174D01*
X8088277Y-16280174D02*
X8107325Y-16270650D01*
X8107325Y-16270650D02*
X8145420Y-16270650D01*
X8145420Y-16270650D02*
X8164468Y-16280174D01*
X8164468Y-16280174D02*
X8173991Y-16299222D01*
X8173991Y-16299222D02*
X8173991Y-16318269D01*
X8173991Y-16318269D02*
X8078753Y-16337317D01*
X8240658Y-16480174D02*
X8250182Y-16470650D01*
X8250182Y-16470650D02*
X8269230Y-16442079D01*
X8269230Y-16442079D02*
X8278753Y-16423031D01*
X8278753Y-16423031D02*
X8288277Y-16394460D01*
X8288277Y-16394460D02*
X8297801Y-16346841D01*
X8297801Y-16346841D02*
X8297801Y-16308746D01*
X8297801Y-16308746D02*
X8288277Y-16261127D01*
X8288277Y-16261127D02*
X8278753Y-16232555D01*
X8278753Y-16232555D02*
X8269230Y-16213508D01*
X8269230Y-16213508D02*
X8250182Y-16184936D01*
X8250182Y-16184936D02*
X8240658Y-16175412D01*
X8602563Y-16480174D02*
X8593039Y-16470650D01*
X8593039Y-16470650D02*
X8573992Y-16442079D01*
X8573992Y-16442079D02*
X8564468Y-16423031D01*
X8564468Y-16423031D02*
X8554944Y-16394460D01*
X8554944Y-16394460D02*
X8545420Y-16346841D01*
X8545420Y-16346841D02*
X8545420Y-16308746D01*
X8545420Y-16308746D02*
X8554944Y-16261127D01*
X8554944Y-16261127D02*
X8564468Y-16232555D01*
X8564468Y-16232555D02*
X8573992Y-16213508D01*
X8573992Y-16213508D02*
X8593039Y-16184936D01*
X8593039Y-16184936D02*
X8602563Y-16175412D01*
X8678753Y-16270650D02*
X8678753Y-16403984D01*
X8678753Y-16289698D02*
X8688277Y-16280174D01*
X8688277Y-16280174D02*
X8707325Y-16270650D01*
X8707325Y-16270650D02*
X8735896Y-16270650D01*
X8735896Y-16270650D02*
X8754944Y-16280174D01*
X8754944Y-16280174D02*
X8764468Y-16299222D01*
X8764468Y-16299222D02*
X8764468Y-16403984D01*
X8888277Y-16403984D02*
X8869230Y-16394460D01*
X8869230Y-16394460D02*
X8859706Y-16384936D01*
X8859706Y-16384936D02*
X8850182Y-16365888D01*
X8850182Y-16365888D02*
X8850182Y-16308746D01*
X8850182Y-16308746D02*
X8859706Y-16289698D01*
X8859706Y-16289698D02*
X8869230Y-16280174D01*
X8869230Y-16280174D02*
X8888277Y-16270650D01*
X8888277Y-16270650D02*
X8916849Y-16270650D01*
X8916849Y-16270650D02*
X8935896Y-16280174D01*
X8935896Y-16280174D02*
X8945420Y-16289698D01*
X8945420Y-16289698D02*
X8954944Y-16308746D01*
X8954944Y-16308746D02*
X8954944Y-16365888D01*
X8954944Y-16365888D02*
X8945420Y-16384936D01*
X8945420Y-16384936D02*
X8935896Y-16394460D01*
X8935896Y-16394460D02*
X8916849Y-16403984D01*
X8916849Y-16403984D02*
X8888277Y-16403984D01*
X9012087Y-16270650D02*
X9088277Y-16270650D01*
X9040658Y-16203984D02*
X9040658Y-16375412D01*
X9040658Y-16375412D02*
X9050182Y-16394460D01*
X9050182Y-16394460D02*
X9069230Y-16403984D01*
X9069230Y-16403984D02*
X9088277Y-16403984D01*
X9307325Y-16270650D02*
X9307325Y-16470650D01*
X9307325Y-16280174D02*
X9326373Y-16270650D01*
X9326373Y-16270650D02*
X9364468Y-16270650D01*
X9364468Y-16270650D02*
X9383515Y-16280174D01*
X9383515Y-16280174D02*
X9393039Y-16289698D01*
X9393039Y-16289698D02*
X9402563Y-16308746D01*
X9402563Y-16308746D02*
X9402563Y-16365888D01*
X9402563Y-16365888D02*
X9393039Y-16384936D01*
X9393039Y-16384936D02*
X9383515Y-16394460D01*
X9383515Y-16394460D02*
X9364468Y-16403984D01*
X9364468Y-16403984D02*
X9326373Y-16403984D01*
X9326373Y-16403984D02*
X9307325Y-16394460D01*
X9516849Y-16403984D02*
X9497801Y-16394460D01*
X9497801Y-16394460D02*
X9488277Y-16375412D01*
X9488277Y-16375412D02*
X9488277Y-16203984D01*
X9678754Y-16403984D02*
X9678754Y-16299222D01*
X9678754Y-16299222D02*
X9669230Y-16280174D01*
X9669230Y-16280174D02*
X9650182Y-16270650D01*
X9650182Y-16270650D02*
X9612087Y-16270650D01*
X9612087Y-16270650D02*
X9593039Y-16280174D01*
X9678754Y-16394460D02*
X9659706Y-16403984D01*
X9659706Y-16403984D02*
X9612087Y-16403984D01*
X9612087Y-16403984D02*
X9593039Y-16394460D01*
X9593039Y-16394460D02*
X9583515Y-16375412D01*
X9583515Y-16375412D02*
X9583515Y-16356365D01*
X9583515Y-16356365D02*
X9593039Y-16337317D01*
X9593039Y-16337317D02*
X9612087Y-16327793D01*
X9612087Y-16327793D02*
X9659706Y-16327793D01*
X9659706Y-16327793D02*
X9678754Y-16318269D01*
X9745420Y-16270650D02*
X9821611Y-16270650D01*
X9773992Y-16203984D02*
X9773992Y-16375412D01*
X9773992Y-16375412D02*
X9783515Y-16394460D01*
X9783515Y-16394460D02*
X9802563Y-16403984D01*
X9802563Y-16403984D02*
X9821611Y-16403984D01*
X9964468Y-16394460D02*
X9945420Y-16403984D01*
X9945420Y-16403984D02*
X9907325Y-16403984D01*
X9907325Y-16403984D02*
X9888277Y-16394460D01*
X9888277Y-16394460D02*
X9878754Y-16375412D01*
X9878754Y-16375412D02*
X9878754Y-16299222D01*
X9878754Y-16299222D02*
X9888277Y-16280174D01*
X9888277Y-16280174D02*
X9907325Y-16270650D01*
X9907325Y-16270650D02*
X9945420Y-16270650D01*
X9945420Y-16270650D02*
X9964468Y-16280174D01*
X9964468Y-16280174D02*
X9973992Y-16299222D01*
X9973992Y-16299222D02*
X9973992Y-16318269D01*
X9973992Y-16318269D02*
X9878754Y-16337317D01*
X10145420Y-16403984D02*
X10145420Y-16203984D01*
X10145420Y-16394460D02*
X10126373Y-16403984D01*
X10126373Y-16403984D02*
X10088277Y-16403984D01*
X10088277Y-16403984D02*
X10069230Y-16394460D01*
X10069230Y-16394460D02*
X10059706Y-16384936D01*
X10059706Y-16384936D02*
X10050182Y-16365888D01*
X10050182Y-16365888D02*
X10050182Y-16308746D01*
X10050182Y-16308746D02*
X10059706Y-16289698D01*
X10059706Y-16289698D02*
X10069230Y-16280174D01*
X10069230Y-16280174D02*
X10088277Y-16270650D01*
X10088277Y-16270650D02*
X10126373Y-16270650D01*
X10126373Y-16270650D02*
X10145420Y-16280174D01*
X10221611Y-16480174D02*
X10231135Y-16470650D01*
X10231135Y-16470650D02*
X10250182Y-16442079D01*
X10250182Y-16442079D02*
X10259706Y-16423031D01*
X10259706Y-16423031D02*
X10269230Y-16394460D01*
X10269230Y-16394460D02*
X10278754Y-16346841D01*
X10278754Y-16346841D02*
X10278754Y-16308746D01*
X10278754Y-16308746D02*
X10269230Y-16261127D01*
X10269230Y-16261127D02*
X10259706Y-16232555D01*
X10259706Y-16232555D02*
X10250182Y-16213508D01*
X10250182Y-16213508D02*
X10231135Y-16184936D01*
X10231135Y-16184936D02*
X10221611Y-16175412D01*
X3527500Y-16532500D02*
X3527500Y-16732500D01*
X3427500Y-16632500D02*
X3627500Y-16632500D01*
X3869229Y-16523984D02*
X3993039Y-16523984D01*
X3993039Y-16523984D02*
X3926372Y-16600174D01*
X3926372Y-16600174D02*
X3954943Y-16600174D01*
X3954943Y-16600174D02*
X3973991Y-16609698D01*
X3973991Y-16609698D02*
X3983515Y-16619222D01*
X3983515Y-16619222D02*
X3993039Y-16638269D01*
X3993039Y-16638269D02*
X3993039Y-16685888D01*
X3993039Y-16685888D02*
X3983515Y-16704936D01*
X3983515Y-16704936D02*
X3973991Y-16714460D01*
X3973991Y-16714460D02*
X3954943Y-16723984D01*
X3954943Y-16723984D02*
X3897801Y-16723984D01*
X3897801Y-16723984D02*
X3878753Y-16714460D01*
X3878753Y-16714460D02*
X3869229Y-16704936D01*
X4078753Y-16704936D02*
X4088277Y-16714460D01*
X4088277Y-16714460D02*
X4078753Y-16723984D01*
X4078753Y-16723984D02*
X4069229Y-16714460D01*
X4069229Y-16714460D02*
X4078753Y-16704936D01*
X4078753Y-16704936D02*
X4078753Y-16723984D01*
X4154943Y-16523984D02*
X4278753Y-16523984D01*
X4278753Y-16523984D02*
X4212086Y-16600174D01*
X4212086Y-16600174D02*
X4240658Y-16600174D01*
X4240658Y-16600174D02*
X4259705Y-16609698D01*
X4259705Y-16609698D02*
X4269229Y-16619222D01*
X4269229Y-16619222D02*
X4278753Y-16638269D01*
X4278753Y-16638269D02*
X4278753Y-16685888D01*
X4278753Y-16685888D02*
X4269229Y-16704936D01*
X4269229Y-16704936D02*
X4259705Y-16714460D01*
X4259705Y-16714460D02*
X4240658Y-16723984D01*
X4240658Y-16723984D02*
X4183515Y-16723984D01*
X4183515Y-16723984D02*
X4164467Y-16714460D01*
X4164467Y-16714460D02*
X4154943Y-16704936D01*
X4402563Y-16523984D02*
X4421610Y-16523984D01*
X4421610Y-16523984D02*
X4440658Y-16533508D01*
X4440658Y-16533508D02*
X4450182Y-16543031D01*
X4450182Y-16543031D02*
X4459705Y-16562079D01*
X4459705Y-16562079D02*
X4469229Y-16600174D01*
X4469229Y-16600174D02*
X4469229Y-16647793D01*
X4469229Y-16647793D02*
X4459705Y-16685888D01*
X4459705Y-16685888D02*
X4450182Y-16704936D01*
X4450182Y-16704936D02*
X4440658Y-16714460D01*
X4440658Y-16714460D02*
X4421610Y-16723984D01*
X4421610Y-16723984D02*
X4402563Y-16723984D01*
X4402563Y-16723984D02*
X4383515Y-16714460D01*
X4383515Y-16714460D02*
X4373991Y-16704936D01*
X4373991Y-16704936D02*
X4364467Y-16685888D01*
X4364467Y-16685888D02*
X4354944Y-16647793D01*
X4354944Y-16647793D02*
X4354944Y-16600174D01*
X4354944Y-16600174D02*
X4364467Y-16562079D01*
X4364467Y-16562079D02*
X4373991Y-16543031D01*
X4373991Y-16543031D02*
X4383515Y-16533508D01*
X4383515Y-16533508D02*
X4402563Y-16523984D01*
X4545420Y-16543031D02*
X4554944Y-16533508D01*
X4554944Y-16533508D02*
X4573991Y-16523984D01*
X4573991Y-16523984D02*
X4621610Y-16523984D01*
X4621610Y-16523984D02*
X4640658Y-16533508D01*
X4640658Y-16533508D02*
X4650182Y-16543031D01*
X4650182Y-16543031D02*
X4659705Y-16562079D01*
X4659705Y-16562079D02*
X4659705Y-16581127D01*
X4659705Y-16581127D02*
X4650182Y-16609698D01*
X4650182Y-16609698D02*
X4535896Y-16723984D01*
X4535896Y-16723984D02*
X4659705Y-16723984D01*
X4745420Y-16723984D02*
X4745420Y-16590650D01*
X4745420Y-16609698D02*
X4754944Y-16600174D01*
X4754944Y-16600174D02*
X4773991Y-16590650D01*
X4773991Y-16590650D02*
X4802563Y-16590650D01*
X4802563Y-16590650D02*
X4821610Y-16600174D01*
X4821610Y-16600174D02*
X4831134Y-16619222D01*
X4831134Y-16619222D02*
X4831134Y-16723984D01*
X4831134Y-16619222D02*
X4840658Y-16600174D01*
X4840658Y-16600174D02*
X4859705Y-16590650D01*
X4859705Y-16590650D02*
X4888277Y-16590650D01*
X4888277Y-16590650D02*
X4907325Y-16600174D01*
X4907325Y-16600174D02*
X4916848Y-16619222D01*
X4916848Y-16619222D02*
X4916848Y-16723984D01*
X5012086Y-16723984D02*
X5012086Y-16590650D01*
X5012086Y-16609698D02*
X5021610Y-16600174D01*
X5021610Y-16600174D02*
X5040658Y-16590650D01*
X5040658Y-16590650D02*
X5069229Y-16590650D01*
X5069229Y-16590650D02*
X5088277Y-16600174D01*
X5088277Y-16600174D02*
X5097801Y-16619222D01*
X5097801Y-16619222D02*
X5097801Y-16723984D01*
X5097801Y-16619222D02*
X5107325Y-16600174D01*
X5107325Y-16600174D02*
X5126372Y-16590650D01*
X5126372Y-16590650D02*
X5154944Y-16590650D01*
X5154944Y-16590650D02*
X5173991Y-16600174D01*
X5173991Y-16600174D02*
X5183515Y-16619222D01*
X5183515Y-16619222D02*
X5183515Y-16723984D01*
X5573991Y-16514460D02*
X5402563Y-16771603D01*
X5831134Y-16523984D02*
X5850182Y-16523984D01*
X5850182Y-16523984D02*
X5869229Y-16533508D01*
X5869229Y-16533508D02*
X5878753Y-16543031D01*
X5878753Y-16543031D02*
X5888277Y-16562079D01*
X5888277Y-16562079D02*
X5897801Y-16600174D01*
X5897801Y-16600174D02*
X5897801Y-16647793D01*
X5897801Y-16647793D02*
X5888277Y-16685888D01*
X5888277Y-16685888D02*
X5878753Y-16704936D01*
X5878753Y-16704936D02*
X5869229Y-16714460D01*
X5869229Y-16714460D02*
X5850182Y-16723984D01*
X5850182Y-16723984D02*
X5831134Y-16723984D01*
X5831134Y-16723984D02*
X5812086Y-16714460D01*
X5812086Y-16714460D02*
X5802563Y-16704936D01*
X5802563Y-16704936D02*
X5793039Y-16685888D01*
X5793039Y-16685888D02*
X5783515Y-16647793D01*
X5783515Y-16647793D02*
X5783515Y-16600174D01*
X5783515Y-16600174D02*
X5793039Y-16562079D01*
X5793039Y-16562079D02*
X5802563Y-16543031D01*
X5802563Y-16543031D02*
X5812086Y-16533508D01*
X5812086Y-16533508D02*
X5831134Y-16523984D01*
X5983515Y-16704936D02*
X5993039Y-16714460D01*
X5993039Y-16714460D02*
X5983515Y-16723984D01*
X5983515Y-16723984D02*
X5973991Y-16714460D01*
X5973991Y-16714460D02*
X5983515Y-16704936D01*
X5983515Y-16704936D02*
X5983515Y-16723984D01*
X6183515Y-16723984D02*
X6069229Y-16723984D01*
X6126372Y-16723984D02*
X6126372Y-16523984D01*
X6126372Y-16523984D02*
X6107325Y-16552555D01*
X6107325Y-16552555D02*
X6088277Y-16571603D01*
X6088277Y-16571603D02*
X6069229Y-16581127D01*
X6250182Y-16523984D02*
X6373991Y-16523984D01*
X6373991Y-16523984D02*
X6307325Y-16600174D01*
X6307325Y-16600174D02*
X6335896Y-16600174D01*
X6335896Y-16600174D02*
X6354944Y-16609698D01*
X6354944Y-16609698D02*
X6364467Y-16619222D01*
X6364467Y-16619222D02*
X6373991Y-16638269D01*
X6373991Y-16638269D02*
X6373991Y-16685888D01*
X6373991Y-16685888D02*
X6364467Y-16704936D01*
X6364467Y-16704936D02*
X6354944Y-16714460D01*
X6354944Y-16714460D02*
X6335896Y-16723984D01*
X6335896Y-16723984D02*
X6278753Y-16723984D01*
X6278753Y-16723984D02*
X6259706Y-16714460D01*
X6259706Y-16714460D02*
X6250182Y-16704936D01*
X6497801Y-16523984D02*
X6516848Y-16523984D01*
X6516848Y-16523984D02*
X6535896Y-16533508D01*
X6535896Y-16533508D02*
X6545420Y-16543031D01*
X6545420Y-16543031D02*
X6554944Y-16562079D01*
X6554944Y-16562079D02*
X6564467Y-16600174D01*
X6564467Y-16600174D02*
X6564467Y-16647793D01*
X6564467Y-16647793D02*
X6554944Y-16685888D01*
X6554944Y-16685888D02*
X6545420Y-16704936D01*
X6545420Y-16704936D02*
X6535896Y-16714460D01*
X6535896Y-16714460D02*
X6516848Y-16723984D01*
X6516848Y-16723984D02*
X6497801Y-16723984D01*
X6497801Y-16723984D02*
X6478753Y-16714460D01*
X6478753Y-16714460D02*
X6469229Y-16704936D01*
X6469229Y-16704936D02*
X6459706Y-16685888D01*
X6459706Y-16685888D02*
X6450182Y-16647793D01*
X6450182Y-16647793D02*
X6450182Y-16600174D01*
X6450182Y-16600174D02*
X6459706Y-16562079D01*
X6459706Y-16562079D02*
X6469229Y-16543031D01*
X6469229Y-16543031D02*
X6478753Y-16533508D01*
X6478753Y-16533508D02*
X6497801Y-16523984D01*
X6688277Y-16523984D02*
X6707325Y-16523984D01*
X6707325Y-16523984D02*
X6726372Y-16533508D01*
X6726372Y-16533508D02*
X6735896Y-16543031D01*
X6735896Y-16543031D02*
X6745420Y-16562079D01*
X6745420Y-16562079D02*
X6754944Y-16600174D01*
X6754944Y-16600174D02*
X6754944Y-16647793D01*
X6754944Y-16647793D02*
X6745420Y-16685888D01*
X6745420Y-16685888D02*
X6735896Y-16704936D01*
X6735896Y-16704936D02*
X6726372Y-16714460D01*
X6726372Y-16714460D02*
X6707325Y-16723984D01*
X6707325Y-16723984D02*
X6688277Y-16723984D01*
X6688277Y-16723984D02*
X6669229Y-16714460D01*
X6669229Y-16714460D02*
X6659706Y-16704936D01*
X6659706Y-16704936D02*
X6650182Y-16685888D01*
X6650182Y-16685888D02*
X6640658Y-16647793D01*
X6640658Y-16647793D02*
X6640658Y-16600174D01*
X6640658Y-16600174D02*
X6650182Y-16562079D01*
X6650182Y-16562079D02*
X6659706Y-16543031D01*
X6659706Y-16543031D02*
X6669229Y-16533508D01*
X6669229Y-16533508D02*
X6688277Y-16523984D01*
X6831134Y-16523984D02*
X6831134Y-16562079D01*
X6907325Y-16523984D02*
X6907325Y-16562079D01*
X7202563Y-16800174D02*
X7193039Y-16790650D01*
X7193039Y-16790650D02*
X7173991Y-16762079D01*
X7173991Y-16762079D02*
X7164468Y-16743031D01*
X7164468Y-16743031D02*
X7154944Y-16714460D01*
X7154944Y-16714460D02*
X7145420Y-16666841D01*
X7145420Y-16666841D02*
X7145420Y-16628746D01*
X7145420Y-16628746D02*
X7154944Y-16581127D01*
X7154944Y-16581127D02*
X7164468Y-16552555D01*
X7164468Y-16552555D02*
X7173991Y-16533508D01*
X7173991Y-16533508D02*
X7193039Y-16504936D01*
X7193039Y-16504936D02*
X7202563Y-16495412D01*
X7364468Y-16590650D02*
X7364468Y-16723984D01*
X7316848Y-16514460D02*
X7269229Y-16657317D01*
X7269229Y-16657317D02*
X7393039Y-16657317D01*
X7621610Y-16723984D02*
X7621610Y-16523984D01*
X7707325Y-16723984D02*
X7707325Y-16619222D01*
X7707325Y-16619222D02*
X7697801Y-16600174D01*
X7697801Y-16600174D02*
X7678753Y-16590650D01*
X7678753Y-16590650D02*
X7650182Y-16590650D01*
X7650182Y-16590650D02*
X7631134Y-16600174D01*
X7631134Y-16600174D02*
X7621610Y-16609698D01*
X7831134Y-16723984D02*
X7812087Y-16714460D01*
X7812087Y-16714460D02*
X7802563Y-16704936D01*
X7802563Y-16704936D02*
X7793039Y-16685888D01*
X7793039Y-16685888D02*
X7793039Y-16628746D01*
X7793039Y-16628746D02*
X7802563Y-16609698D01*
X7802563Y-16609698D02*
X7812087Y-16600174D01*
X7812087Y-16600174D02*
X7831134Y-16590650D01*
X7831134Y-16590650D02*
X7859706Y-16590650D01*
X7859706Y-16590650D02*
X7878753Y-16600174D01*
X7878753Y-16600174D02*
X7888277Y-16609698D01*
X7888277Y-16609698D02*
X7897801Y-16628746D01*
X7897801Y-16628746D02*
X7897801Y-16685888D01*
X7897801Y-16685888D02*
X7888277Y-16704936D01*
X7888277Y-16704936D02*
X7878753Y-16714460D01*
X7878753Y-16714460D02*
X7859706Y-16723984D01*
X7859706Y-16723984D02*
X7831134Y-16723984D01*
X8012087Y-16723984D02*
X7993039Y-16714460D01*
X7993039Y-16714460D02*
X7983515Y-16695412D01*
X7983515Y-16695412D02*
X7983515Y-16523984D01*
X8164468Y-16714460D02*
X8145420Y-16723984D01*
X8145420Y-16723984D02*
X8107325Y-16723984D01*
X8107325Y-16723984D02*
X8088277Y-16714460D01*
X8088277Y-16714460D02*
X8078753Y-16695412D01*
X8078753Y-16695412D02*
X8078753Y-16619222D01*
X8078753Y-16619222D02*
X8088277Y-16600174D01*
X8088277Y-16600174D02*
X8107325Y-16590650D01*
X8107325Y-16590650D02*
X8145420Y-16590650D01*
X8145420Y-16590650D02*
X8164468Y-16600174D01*
X8164468Y-16600174D02*
X8173991Y-16619222D01*
X8173991Y-16619222D02*
X8173991Y-16638269D01*
X8173991Y-16638269D02*
X8078753Y-16657317D01*
X8250182Y-16714460D02*
X8269230Y-16723984D01*
X8269230Y-16723984D02*
X8307325Y-16723984D01*
X8307325Y-16723984D02*
X8326372Y-16714460D01*
X8326372Y-16714460D02*
X8335896Y-16695412D01*
X8335896Y-16695412D02*
X8335896Y-16685888D01*
X8335896Y-16685888D02*
X8326372Y-16666841D01*
X8326372Y-16666841D02*
X8307325Y-16657317D01*
X8307325Y-16657317D02*
X8278753Y-16657317D01*
X8278753Y-16657317D02*
X8259706Y-16647793D01*
X8259706Y-16647793D02*
X8250182Y-16628746D01*
X8250182Y-16628746D02*
X8250182Y-16619222D01*
X8250182Y-16619222D02*
X8259706Y-16600174D01*
X8259706Y-16600174D02*
X8278753Y-16590650D01*
X8278753Y-16590650D02*
X8307325Y-16590650D01*
X8307325Y-16590650D02*
X8326372Y-16600174D01*
X8402563Y-16800174D02*
X8412087Y-16790650D01*
X8412087Y-16790650D02*
X8431134Y-16762079D01*
X8431134Y-16762079D02*
X8440658Y-16743031D01*
X8440658Y-16743031D02*
X8450182Y-16714460D01*
X8450182Y-16714460D02*
X8459706Y-16666841D01*
X8459706Y-16666841D02*
X8459706Y-16628746D01*
X8459706Y-16628746D02*
X8450182Y-16581127D01*
X8450182Y-16581127D02*
X8440658Y-16552555D01*
X8440658Y-16552555D02*
X8431134Y-16533508D01*
X8431134Y-16533508D02*
X8412087Y-16504936D01*
X8412087Y-16504936D02*
X8402563Y-16495412D01*
X8764468Y-16800174D02*
X8754944Y-16790650D01*
X8754944Y-16790650D02*
X8735896Y-16762079D01*
X8735896Y-16762079D02*
X8726373Y-16743031D01*
X8726373Y-16743031D02*
X8716849Y-16714460D01*
X8716849Y-16714460D02*
X8707325Y-16666841D01*
X8707325Y-16666841D02*
X8707325Y-16628746D01*
X8707325Y-16628746D02*
X8716849Y-16581127D01*
X8716849Y-16581127D02*
X8726373Y-16552555D01*
X8726373Y-16552555D02*
X8735896Y-16533508D01*
X8735896Y-16533508D02*
X8754944Y-16504936D01*
X8754944Y-16504936D02*
X8764468Y-16495412D01*
X8840658Y-16590650D02*
X8840658Y-16723984D01*
X8840658Y-16609698D02*
X8850182Y-16600174D01*
X8850182Y-16600174D02*
X8869230Y-16590650D01*
X8869230Y-16590650D02*
X8897801Y-16590650D01*
X8897801Y-16590650D02*
X8916849Y-16600174D01*
X8916849Y-16600174D02*
X8926373Y-16619222D01*
X8926373Y-16619222D02*
X8926373Y-16723984D01*
X9050182Y-16723984D02*
X9031134Y-16714460D01*
X9031134Y-16714460D02*
X9021611Y-16704936D01*
X9021611Y-16704936D02*
X9012087Y-16685888D01*
X9012087Y-16685888D02*
X9012087Y-16628746D01*
X9012087Y-16628746D02*
X9021611Y-16609698D01*
X9021611Y-16609698D02*
X9031134Y-16600174D01*
X9031134Y-16600174D02*
X9050182Y-16590650D01*
X9050182Y-16590650D02*
X9078754Y-16590650D01*
X9078754Y-16590650D02*
X9097801Y-16600174D01*
X9097801Y-16600174D02*
X9107325Y-16609698D01*
X9107325Y-16609698D02*
X9116849Y-16628746D01*
X9116849Y-16628746D02*
X9116849Y-16685888D01*
X9116849Y-16685888D02*
X9107325Y-16704936D01*
X9107325Y-16704936D02*
X9097801Y-16714460D01*
X9097801Y-16714460D02*
X9078754Y-16723984D01*
X9078754Y-16723984D02*
X9050182Y-16723984D01*
X9173992Y-16590650D02*
X9250182Y-16590650D01*
X9202563Y-16523984D02*
X9202563Y-16695412D01*
X9202563Y-16695412D02*
X9212087Y-16714460D01*
X9212087Y-16714460D02*
X9231134Y-16723984D01*
X9231134Y-16723984D02*
X9250182Y-16723984D01*
X9469230Y-16590650D02*
X9469230Y-16790650D01*
X9469230Y-16600174D02*
X9488277Y-16590650D01*
X9488277Y-16590650D02*
X9526373Y-16590650D01*
X9526373Y-16590650D02*
X9545420Y-16600174D01*
X9545420Y-16600174D02*
X9554944Y-16609698D01*
X9554944Y-16609698D02*
X9564468Y-16628746D01*
X9564468Y-16628746D02*
X9564468Y-16685888D01*
X9564468Y-16685888D02*
X9554944Y-16704936D01*
X9554944Y-16704936D02*
X9545420Y-16714460D01*
X9545420Y-16714460D02*
X9526373Y-16723984D01*
X9526373Y-16723984D02*
X9488277Y-16723984D01*
X9488277Y-16723984D02*
X9469230Y-16714460D01*
X9678754Y-16723984D02*
X9659706Y-16714460D01*
X9659706Y-16714460D02*
X9650182Y-16695412D01*
X9650182Y-16695412D02*
X9650182Y-16523984D01*
X9840658Y-16723984D02*
X9840658Y-16619222D01*
X9840658Y-16619222D02*
X9831135Y-16600174D01*
X9831135Y-16600174D02*
X9812087Y-16590650D01*
X9812087Y-16590650D02*
X9773992Y-16590650D01*
X9773992Y-16590650D02*
X9754944Y-16600174D01*
X9840658Y-16714460D02*
X9821611Y-16723984D01*
X9821611Y-16723984D02*
X9773992Y-16723984D01*
X9773992Y-16723984D02*
X9754944Y-16714460D01*
X9754944Y-16714460D02*
X9745420Y-16695412D01*
X9745420Y-16695412D02*
X9745420Y-16676365D01*
X9745420Y-16676365D02*
X9754944Y-16657317D01*
X9754944Y-16657317D02*
X9773992Y-16647793D01*
X9773992Y-16647793D02*
X9821611Y-16647793D01*
X9821611Y-16647793D02*
X9840658Y-16638269D01*
X9907325Y-16590650D02*
X9983515Y-16590650D01*
X9935896Y-16523984D02*
X9935896Y-16695412D01*
X9935896Y-16695412D02*
X9945420Y-16714460D01*
X9945420Y-16714460D02*
X9964468Y-16723984D01*
X9964468Y-16723984D02*
X9983515Y-16723984D01*
X10126373Y-16714460D02*
X10107325Y-16723984D01*
X10107325Y-16723984D02*
X10069230Y-16723984D01*
X10069230Y-16723984D02*
X10050182Y-16714460D01*
X10050182Y-16714460D02*
X10040658Y-16695412D01*
X10040658Y-16695412D02*
X10040658Y-16619222D01*
X10040658Y-16619222D02*
X10050182Y-16600174D01*
X10050182Y-16600174D02*
X10069230Y-16590650D01*
X10069230Y-16590650D02*
X10107325Y-16590650D01*
X10107325Y-16590650D02*
X10126373Y-16600174D01*
X10126373Y-16600174D02*
X10135896Y-16619222D01*
X10135896Y-16619222D02*
X10135896Y-16638269D01*
X10135896Y-16638269D02*
X10040658Y-16657317D01*
X10307325Y-16723984D02*
X10307325Y-16523984D01*
X10307325Y-16714460D02*
X10288277Y-16723984D01*
X10288277Y-16723984D02*
X10250182Y-16723984D01*
X10250182Y-16723984D02*
X10231135Y-16714460D01*
X10231135Y-16714460D02*
X10221611Y-16704936D01*
X10221611Y-16704936D02*
X10212087Y-16685888D01*
X10212087Y-16685888D02*
X10212087Y-16628746D01*
X10212087Y-16628746D02*
X10221611Y-16609698D01*
X10221611Y-16609698D02*
X10231135Y-16600174D01*
X10231135Y-16600174D02*
X10250182Y-16590650D01*
X10250182Y-16590650D02*
X10288277Y-16590650D01*
X10288277Y-16590650D02*
X10307325Y-16600174D01*
X10383516Y-16800174D02*
X10393039Y-16790650D01*
X10393039Y-16790650D02*
X10412087Y-16762079D01*
X10412087Y-16762079D02*
X10421611Y-16743031D01*
X10421611Y-16743031D02*
X10431135Y-16714460D01*
X10431135Y-16714460D02*
X10440658Y-16666841D01*
X10440658Y-16666841D02*
X10440658Y-16628746D01*
X10440658Y-16628746D02*
X10431135Y-16581127D01*
X10431135Y-16581127D02*
X10421611Y-16552555D01*
X10421611Y-16552555D02*
X10412087Y-16533508D01*
X10412087Y-16533508D02*
X10393039Y-16504936D01*
X10393039Y-16504936D02*
X10383516Y-16495412D01*
X3598211Y-17023211D02*
X3598211Y-16881789D01*
X3456789Y-16881789D01*
X3456789Y-17023211D01*
X3598211Y-17023211D01*
X3869229Y-16843984D02*
X3993039Y-16843984D01*
X3993039Y-16843984D02*
X3926372Y-16920174D01*
X3926372Y-16920174D02*
X3954943Y-16920174D01*
X3954943Y-16920174D02*
X3973991Y-16929698D01*
X3973991Y-16929698D02*
X3983515Y-16939222D01*
X3983515Y-16939222D02*
X3993039Y-16958270D01*
X3993039Y-16958270D02*
X3993039Y-17005889D01*
X3993039Y-17005889D02*
X3983515Y-17024936D01*
X3983515Y-17024936D02*
X3973991Y-17034460D01*
X3973991Y-17034460D02*
X3954943Y-17043984D01*
X3954943Y-17043984D02*
X3897801Y-17043984D01*
X3897801Y-17043984D02*
X3878753Y-17034460D01*
X3878753Y-17034460D02*
X3869229Y-17024936D01*
X4078753Y-17024936D02*
X4088277Y-17034460D01*
X4088277Y-17034460D02*
X4078753Y-17043984D01*
X4078753Y-17043984D02*
X4069229Y-17034460D01*
X4069229Y-17034460D02*
X4078753Y-17024936D01*
X4078753Y-17024936D02*
X4078753Y-17043984D01*
X4269229Y-16843984D02*
X4173991Y-16843984D01*
X4173991Y-16843984D02*
X4164467Y-16939222D01*
X4164467Y-16939222D02*
X4173991Y-16929698D01*
X4173991Y-16929698D02*
X4193039Y-16920174D01*
X4193039Y-16920174D02*
X4240658Y-16920174D01*
X4240658Y-16920174D02*
X4259705Y-16929698D01*
X4259705Y-16929698D02*
X4269229Y-16939222D01*
X4269229Y-16939222D02*
X4278753Y-16958270D01*
X4278753Y-16958270D02*
X4278753Y-17005889D01*
X4278753Y-17005889D02*
X4269229Y-17024936D01*
X4269229Y-17024936D02*
X4259705Y-17034460D01*
X4259705Y-17034460D02*
X4240658Y-17043984D01*
X4240658Y-17043984D02*
X4193039Y-17043984D01*
X4193039Y-17043984D02*
X4173991Y-17034460D01*
X4173991Y-17034460D02*
X4164467Y-17024936D01*
X4402563Y-16843984D02*
X4421610Y-16843984D01*
X4421610Y-16843984D02*
X4440658Y-16853508D01*
X4440658Y-16853508D02*
X4450182Y-16863031D01*
X4450182Y-16863031D02*
X4459705Y-16882079D01*
X4459705Y-16882079D02*
X4469229Y-16920174D01*
X4469229Y-16920174D02*
X4469229Y-16967793D01*
X4469229Y-16967793D02*
X4459705Y-17005889D01*
X4459705Y-17005889D02*
X4450182Y-17024936D01*
X4450182Y-17024936D02*
X4440658Y-17034460D01*
X4440658Y-17034460D02*
X4421610Y-17043984D01*
X4421610Y-17043984D02*
X4402563Y-17043984D01*
X4402563Y-17043984D02*
X4383515Y-17034460D01*
X4383515Y-17034460D02*
X4373991Y-17024936D01*
X4373991Y-17024936D02*
X4364467Y-17005889D01*
X4364467Y-17005889D02*
X4354944Y-16967793D01*
X4354944Y-16967793D02*
X4354944Y-16920174D01*
X4354944Y-16920174D02*
X4364467Y-16882079D01*
X4364467Y-16882079D02*
X4373991Y-16863031D01*
X4373991Y-16863031D02*
X4383515Y-16853508D01*
X4383515Y-16853508D02*
X4402563Y-16843984D01*
X4593039Y-16843984D02*
X4612086Y-16843984D01*
X4612086Y-16843984D02*
X4631134Y-16853508D01*
X4631134Y-16853508D02*
X4640658Y-16863031D01*
X4640658Y-16863031D02*
X4650182Y-16882079D01*
X4650182Y-16882079D02*
X4659705Y-16920174D01*
X4659705Y-16920174D02*
X4659705Y-16967793D01*
X4659705Y-16967793D02*
X4650182Y-17005889D01*
X4650182Y-17005889D02*
X4640658Y-17024936D01*
X4640658Y-17024936D02*
X4631134Y-17034460D01*
X4631134Y-17034460D02*
X4612086Y-17043984D01*
X4612086Y-17043984D02*
X4593039Y-17043984D01*
X4593039Y-17043984D02*
X4573991Y-17034460D01*
X4573991Y-17034460D02*
X4564467Y-17024936D01*
X4564467Y-17024936D02*
X4554944Y-17005889D01*
X4554944Y-17005889D02*
X4545420Y-16967793D01*
X4545420Y-16967793D02*
X4545420Y-16920174D01*
X4545420Y-16920174D02*
X4554944Y-16882079D01*
X4554944Y-16882079D02*
X4564467Y-16863031D01*
X4564467Y-16863031D02*
X4573991Y-16853508D01*
X4573991Y-16853508D02*
X4593039Y-16843984D01*
X4745420Y-17043984D02*
X4745420Y-16910650D01*
X4745420Y-16929698D02*
X4754944Y-16920174D01*
X4754944Y-16920174D02*
X4773991Y-16910650D01*
X4773991Y-16910650D02*
X4802563Y-16910650D01*
X4802563Y-16910650D02*
X4821610Y-16920174D01*
X4821610Y-16920174D02*
X4831134Y-16939222D01*
X4831134Y-16939222D02*
X4831134Y-17043984D01*
X4831134Y-16939222D02*
X4840658Y-16920174D01*
X4840658Y-16920174D02*
X4859705Y-16910650D01*
X4859705Y-16910650D02*
X4888277Y-16910650D01*
X4888277Y-16910650D02*
X4907325Y-16920174D01*
X4907325Y-16920174D02*
X4916848Y-16939222D01*
X4916848Y-16939222D02*
X4916848Y-17043984D01*
X5012086Y-17043984D02*
X5012086Y-16910650D01*
X5012086Y-16929698D02*
X5021610Y-16920174D01*
X5021610Y-16920174D02*
X5040658Y-16910650D01*
X5040658Y-16910650D02*
X5069229Y-16910650D01*
X5069229Y-16910650D02*
X5088277Y-16920174D01*
X5088277Y-16920174D02*
X5097801Y-16939222D01*
X5097801Y-16939222D02*
X5097801Y-17043984D01*
X5097801Y-16939222D02*
X5107325Y-16920174D01*
X5107325Y-16920174D02*
X5126372Y-16910650D01*
X5126372Y-16910650D02*
X5154944Y-16910650D01*
X5154944Y-16910650D02*
X5173991Y-16920174D01*
X5173991Y-16920174D02*
X5183515Y-16939222D01*
X5183515Y-16939222D02*
X5183515Y-17043984D01*
X5573991Y-16834460D02*
X5402563Y-17091603D01*
X5831134Y-16843984D02*
X5850182Y-16843984D01*
X5850182Y-16843984D02*
X5869229Y-16853508D01*
X5869229Y-16853508D02*
X5878753Y-16863031D01*
X5878753Y-16863031D02*
X5888277Y-16882079D01*
X5888277Y-16882079D02*
X5897801Y-16920174D01*
X5897801Y-16920174D02*
X5897801Y-16967793D01*
X5897801Y-16967793D02*
X5888277Y-17005889D01*
X5888277Y-17005889D02*
X5878753Y-17024936D01*
X5878753Y-17024936D02*
X5869229Y-17034460D01*
X5869229Y-17034460D02*
X5850182Y-17043984D01*
X5850182Y-17043984D02*
X5831134Y-17043984D01*
X5831134Y-17043984D02*
X5812086Y-17034460D01*
X5812086Y-17034460D02*
X5802563Y-17024936D01*
X5802563Y-17024936D02*
X5793039Y-17005889D01*
X5793039Y-17005889D02*
X5783515Y-16967793D01*
X5783515Y-16967793D02*
X5783515Y-16920174D01*
X5783515Y-16920174D02*
X5793039Y-16882079D01*
X5793039Y-16882079D02*
X5802563Y-16863031D01*
X5802563Y-16863031D02*
X5812086Y-16853508D01*
X5812086Y-16853508D02*
X5831134Y-16843984D01*
X5983515Y-17024936D02*
X5993039Y-17034460D01*
X5993039Y-17034460D02*
X5983515Y-17043984D01*
X5983515Y-17043984D02*
X5973991Y-17034460D01*
X5973991Y-17034460D02*
X5983515Y-17024936D01*
X5983515Y-17024936D02*
X5983515Y-17043984D01*
X6183515Y-17043984D02*
X6069229Y-17043984D01*
X6126372Y-17043984D02*
X6126372Y-16843984D01*
X6126372Y-16843984D02*
X6107325Y-16872555D01*
X6107325Y-16872555D02*
X6088277Y-16891603D01*
X6088277Y-16891603D02*
X6069229Y-16901127D01*
X6250182Y-16843984D02*
X6373991Y-16843984D01*
X6373991Y-16843984D02*
X6307325Y-16920174D01*
X6307325Y-16920174D02*
X6335896Y-16920174D01*
X6335896Y-16920174D02*
X6354944Y-16929698D01*
X6354944Y-16929698D02*
X6364467Y-16939222D01*
X6364467Y-16939222D02*
X6373991Y-16958270D01*
X6373991Y-16958270D02*
X6373991Y-17005889D01*
X6373991Y-17005889D02*
X6364467Y-17024936D01*
X6364467Y-17024936D02*
X6354944Y-17034460D01*
X6354944Y-17034460D02*
X6335896Y-17043984D01*
X6335896Y-17043984D02*
X6278753Y-17043984D01*
X6278753Y-17043984D02*
X6259706Y-17034460D01*
X6259706Y-17034460D02*
X6250182Y-17024936D01*
X6440658Y-16843984D02*
X6573991Y-16843984D01*
X6573991Y-16843984D02*
X6488277Y-17043984D01*
X6678753Y-16929698D02*
X6659706Y-16920174D01*
X6659706Y-16920174D02*
X6650182Y-16910650D01*
X6650182Y-16910650D02*
X6640658Y-16891603D01*
X6640658Y-16891603D02*
X6640658Y-16882079D01*
X6640658Y-16882079D02*
X6650182Y-16863031D01*
X6650182Y-16863031D02*
X6659706Y-16853508D01*
X6659706Y-16853508D02*
X6678753Y-16843984D01*
X6678753Y-16843984D02*
X6716848Y-16843984D01*
X6716848Y-16843984D02*
X6735896Y-16853508D01*
X6735896Y-16853508D02*
X6745420Y-16863031D01*
X6745420Y-16863031D02*
X6754944Y-16882079D01*
X6754944Y-16882079D02*
X6754944Y-16891603D01*
X6754944Y-16891603D02*
X6745420Y-16910650D01*
X6745420Y-16910650D02*
X6735896Y-16920174D01*
X6735896Y-16920174D02*
X6716848Y-16929698D01*
X6716848Y-16929698D02*
X6678753Y-16929698D01*
X6678753Y-16929698D02*
X6659706Y-16939222D01*
X6659706Y-16939222D02*
X6650182Y-16948746D01*
X6650182Y-16948746D02*
X6640658Y-16967793D01*
X6640658Y-16967793D02*
X6640658Y-17005889D01*
X6640658Y-17005889D02*
X6650182Y-17024936D01*
X6650182Y-17024936D02*
X6659706Y-17034460D01*
X6659706Y-17034460D02*
X6678753Y-17043984D01*
X6678753Y-17043984D02*
X6716848Y-17043984D01*
X6716848Y-17043984D02*
X6735896Y-17034460D01*
X6735896Y-17034460D02*
X6745420Y-17024936D01*
X6745420Y-17024936D02*
X6754944Y-17005889D01*
X6754944Y-17005889D02*
X6754944Y-16967793D01*
X6754944Y-16967793D02*
X6745420Y-16948746D01*
X6745420Y-16948746D02*
X6735896Y-16939222D01*
X6735896Y-16939222D02*
X6716848Y-16929698D01*
X6831134Y-16843984D02*
X6831134Y-16882079D01*
X6907325Y-16843984D02*
X6907325Y-16882079D01*
X7202563Y-17120174D02*
X7193039Y-17110650D01*
X7193039Y-17110650D02*
X7173991Y-17082079D01*
X7173991Y-17082079D02*
X7164468Y-17063031D01*
X7164468Y-17063031D02*
X7154944Y-17034460D01*
X7154944Y-17034460D02*
X7145420Y-16986841D01*
X7145420Y-16986841D02*
X7145420Y-16948746D01*
X7145420Y-16948746D02*
X7154944Y-16901127D01*
X7154944Y-16901127D02*
X7164468Y-16872555D01*
X7164468Y-16872555D02*
X7173991Y-16853508D01*
X7173991Y-16853508D02*
X7193039Y-16824936D01*
X7193039Y-16824936D02*
X7202563Y-16815412D01*
X7307325Y-16929698D02*
X7288277Y-16920174D01*
X7288277Y-16920174D02*
X7278753Y-16910650D01*
X7278753Y-16910650D02*
X7269229Y-16891603D01*
X7269229Y-16891603D02*
X7269229Y-16882079D01*
X7269229Y-16882079D02*
X7278753Y-16863031D01*
X7278753Y-16863031D02*
X7288277Y-16853508D01*
X7288277Y-16853508D02*
X7307325Y-16843984D01*
X7307325Y-16843984D02*
X7345420Y-16843984D01*
X7345420Y-16843984D02*
X7364468Y-16853508D01*
X7364468Y-16853508D02*
X7373991Y-16863031D01*
X7373991Y-16863031D02*
X7383515Y-16882079D01*
X7383515Y-16882079D02*
X7383515Y-16891603D01*
X7383515Y-16891603D02*
X7373991Y-16910650D01*
X7373991Y-16910650D02*
X7364468Y-16920174D01*
X7364468Y-16920174D02*
X7345420Y-16929698D01*
X7345420Y-16929698D02*
X7307325Y-16929698D01*
X7307325Y-16929698D02*
X7288277Y-16939222D01*
X7288277Y-16939222D02*
X7278753Y-16948746D01*
X7278753Y-16948746D02*
X7269229Y-16967793D01*
X7269229Y-16967793D02*
X7269229Y-17005889D01*
X7269229Y-17005889D02*
X7278753Y-17024936D01*
X7278753Y-17024936D02*
X7288277Y-17034460D01*
X7288277Y-17034460D02*
X7307325Y-17043984D01*
X7307325Y-17043984D02*
X7345420Y-17043984D01*
X7345420Y-17043984D02*
X7364468Y-17034460D01*
X7364468Y-17034460D02*
X7373991Y-17024936D01*
X7373991Y-17024936D02*
X7383515Y-17005889D01*
X7383515Y-17005889D02*
X7383515Y-16967793D01*
X7383515Y-16967793D02*
X7373991Y-16948746D01*
X7373991Y-16948746D02*
X7364468Y-16939222D01*
X7364468Y-16939222D02*
X7345420Y-16929698D01*
X7621610Y-17043984D02*
X7621610Y-16843984D01*
X7707325Y-17043984D02*
X7707325Y-16939222D01*
X7707325Y-16939222D02*
X7697801Y-16920174D01*
X7697801Y-16920174D02*
X7678753Y-16910650D01*
X7678753Y-16910650D02*
X7650182Y-16910650D01*
X7650182Y-16910650D02*
X7631134Y-16920174D01*
X7631134Y-16920174D02*
X7621610Y-16929698D01*
X7831134Y-17043984D02*
X7812087Y-17034460D01*
X7812087Y-17034460D02*
X7802563Y-17024936D01*
X7802563Y-17024936D02*
X7793039Y-17005889D01*
X7793039Y-17005889D02*
X7793039Y-16948746D01*
X7793039Y-16948746D02*
X7802563Y-16929698D01*
X7802563Y-16929698D02*
X7812087Y-16920174D01*
X7812087Y-16920174D02*
X7831134Y-16910650D01*
X7831134Y-16910650D02*
X7859706Y-16910650D01*
X7859706Y-16910650D02*
X7878753Y-16920174D01*
X7878753Y-16920174D02*
X7888277Y-16929698D01*
X7888277Y-16929698D02*
X7897801Y-16948746D01*
X7897801Y-16948746D02*
X7897801Y-17005889D01*
X7897801Y-17005889D02*
X7888277Y-17024936D01*
X7888277Y-17024936D02*
X7878753Y-17034460D01*
X7878753Y-17034460D02*
X7859706Y-17043984D01*
X7859706Y-17043984D02*
X7831134Y-17043984D01*
X8012087Y-17043984D02*
X7993039Y-17034460D01*
X7993039Y-17034460D02*
X7983515Y-17015412D01*
X7983515Y-17015412D02*
X7983515Y-16843984D01*
X8164468Y-17034460D02*
X8145420Y-17043984D01*
X8145420Y-17043984D02*
X8107325Y-17043984D01*
X8107325Y-17043984D02*
X8088277Y-17034460D01*
X8088277Y-17034460D02*
X8078753Y-17015412D01*
X8078753Y-17015412D02*
X8078753Y-16939222D01*
X8078753Y-16939222D02*
X8088277Y-16920174D01*
X8088277Y-16920174D02*
X8107325Y-16910650D01*
X8107325Y-16910650D02*
X8145420Y-16910650D01*
X8145420Y-16910650D02*
X8164468Y-16920174D01*
X8164468Y-16920174D02*
X8173991Y-16939222D01*
X8173991Y-16939222D02*
X8173991Y-16958270D01*
X8173991Y-16958270D02*
X8078753Y-16977317D01*
X8250182Y-17034460D02*
X8269230Y-17043984D01*
X8269230Y-17043984D02*
X8307325Y-17043984D01*
X8307325Y-17043984D02*
X8326372Y-17034460D01*
X8326372Y-17034460D02*
X8335896Y-17015412D01*
X8335896Y-17015412D02*
X8335896Y-17005889D01*
X8335896Y-17005889D02*
X8326372Y-16986841D01*
X8326372Y-16986841D02*
X8307325Y-16977317D01*
X8307325Y-16977317D02*
X8278753Y-16977317D01*
X8278753Y-16977317D02*
X8259706Y-16967793D01*
X8259706Y-16967793D02*
X8250182Y-16948746D01*
X8250182Y-16948746D02*
X8250182Y-16939222D01*
X8250182Y-16939222D02*
X8259706Y-16920174D01*
X8259706Y-16920174D02*
X8278753Y-16910650D01*
X8278753Y-16910650D02*
X8307325Y-16910650D01*
X8307325Y-16910650D02*
X8326372Y-16920174D01*
X8402563Y-17120174D02*
X8412087Y-17110650D01*
X8412087Y-17110650D02*
X8431134Y-17082079D01*
X8431134Y-17082079D02*
X8440658Y-17063031D01*
X8440658Y-17063031D02*
X8450182Y-17034460D01*
X8450182Y-17034460D02*
X8459706Y-16986841D01*
X8459706Y-16986841D02*
X8459706Y-16948746D01*
X8459706Y-16948746D02*
X8450182Y-16901127D01*
X8450182Y-16901127D02*
X8440658Y-16872555D01*
X8440658Y-16872555D02*
X8431134Y-16853508D01*
X8431134Y-16853508D02*
X8412087Y-16824936D01*
X8412087Y-16824936D02*
X8402563Y-16815412D01*
X8764468Y-17120174D02*
X8754944Y-17110650D01*
X8754944Y-17110650D02*
X8735896Y-17082079D01*
X8735896Y-17082079D02*
X8726373Y-17063031D01*
X8726373Y-17063031D02*
X8716849Y-17034460D01*
X8716849Y-17034460D02*
X8707325Y-16986841D01*
X8707325Y-16986841D02*
X8707325Y-16948746D01*
X8707325Y-16948746D02*
X8716849Y-16901127D01*
X8716849Y-16901127D02*
X8726373Y-16872555D01*
X8726373Y-16872555D02*
X8735896Y-16853508D01*
X8735896Y-16853508D02*
X8754944Y-16824936D01*
X8754944Y-16824936D02*
X8764468Y-16815412D01*
X8840658Y-16910650D02*
X8840658Y-17043984D01*
X8840658Y-16929698D02*
X8850182Y-16920174D01*
X8850182Y-16920174D02*
X8869230Y-16910650D01*
X8869230Y-16910650D02*
X8897801Y-16910650D01*
X8897801Y-16910650D02*
X8916849Y-16920174D01*
X8916849Y-16920174D02*
X8926373Y-16939222D01*
X8926373Y-16939222D02*
X8926373Y-17043984D01*
X9050182Y-17043984D02*
X9031134Y-17034460D01*
X9031134Y-17034460D02*
X9021611Y-17024936D01*
X9021611Y-17024936D02*
X9012087Y-17005889D01*
X9012087Y-17005889D02*
X9012087Y-16948746D01*
X9012087Y-16948746D02*
X9021611Y-16929698D01*
X9021611Y-16929698D02*
X9031134Y-16920174D01*
X9031134Y-16920174D02*
X9050182Y-16910650D01*
X9050182Y-16910650D02*
X9078754Y-16910650D01*
X9078754Y-16910650D02*
X9097801Y-16920174D01*
X9097801Y-16920174D02*
X9107325Y-16929698D01*
X9107325Y-16929698D02*
X9116849Y-16948746D01*
X9116849Y-16948746D02*
X9116849Y-17005889D01*
X9116849Y-17005889D02*
X9107325Y-17024936D01*
X9107325Y-17024936D02*
X9097801Y-17034460D01*
X9097801Y-17034460D02*
X9078754Y-17043984D01*
X9078754Y-17043984D02*
X9050182Y-17043984D01*
X9173992Y-16910650D02*
X9250182Y-16910650D01*
X9202563Y-16843984D02*
X9202563Y-17015412D01*
X9202563Y-17015412D02*
X9212087Y-17034460D01*
X9212087Y-17034460D02*
X9231134Y-17043984D01*
X9231134Y-17043984D02*
X9250182Y-17043984D01*
X9469230Y-16910650D02*
X9469230Y-17110650D01*
X9469230Y-16920174D02*
X9488277Y-16910650D01*
X9488277Y-16910650D02*
X9526373Y-16910650D01*
X9526373Y-16910650D02*
X9545420Y-16920174D01*
X9545420Y-16920174D02*
X9554944Y-16929698D01*
X9554944Y-16929698D02*
X9564468Y-16948746D01*
X9564468Y-16948746D02*
X9564468Y-17005889D01*
X9564468Y-17005889D02*
X9554944Y-17024936D01*
X9554944Y-17024936D02*
X9545420Y-17034460D01*
X9545420Y-17034460D02*
X9526373Y-17043984D01*
X9526373Y-17043984D02*
X9488277Y-17043984D01*
X9488277Y-17043984D02*
X9469230Y-17034460D01*
X9678754Y-17043984D02*
X9659706Y-17034460D01*
X9659706Y-17034460D02*
X9650182Y-17015412D01*
X9650182Y-17015412D02*
X9650182Y-16843984D01*
X9840658Y-17043984D02*
X9840658Y-16939222D01*
X9840658Y-16939222D02*
X9831135Y-16920174D01*
X9831135Y-16920174D02*
X9812087Y-16910650D01*
X9812087Y-16910650D02*
X9773992Y-16910650D01*
X9773992Y-16910650D02*
X9754944Y-16920174D01*
X9840658Y-17034460D02*
X9821611Y-17043984D01*
X9821611Y-17043984D02*
X9773992Y-17043984D01*
X9773992Y-17043984D02*
X9754944Y-17034460D01*
X9754944Y-17034460D02*
X9745420Y-17015412D01*
X9745420Y-17015412D02*
X9745420Y-16996365D01*
X9745420Y-16996365D02*
X9754944Y-16977317D01*
X9754944Y-16977317D02*
X9773992Y-16967793D01*
X9773992Y-16967793D02*
X9821611Y-16967793D01*
X9821611Y-16967793D02*
X9840658Y-16958270D01*
X9907325Y-16910650D02*
X9983515Y-16910650D01*
X9935896Y-16843984D02*
X9935896Y-17015412D01*
X9935896Y-17015412D02*
X9945420Y-17034460D01*
X9945420Y-17034460D02*
X9964468Y-17043984D01*
X9964468Y-17043984D02*
X9983515Y-17043984D01*
X10126373Y-17034460D02*
X10107325Y-17043984D01*
X10107325Y-17043984D02*
X10069230Y-17043984D01*
X10069230Y-17043984D02*
X10050182Y-17034460D01*
X10050182Y-17034460D02*
X10040658Y-17015412D01*
X10040658Y-17015412D02*
X10040658Y-16939222D01*
X10040658Y-16939222D02*
X10050182Y-16920174D01*
X10050182Y-16920174D02*
X10069230Y-16910650D01*
X10069230Y-16910650D02*
X10107325Y-16910650D01*
X10107325Y-16910650D02*
X10126373Y-16920174D01*
X10126373Y-16920174D02*
X10135896Y-16939222D01*
X10135896Y-16939222D02*
X10135896Y-16958270D01*
X10135896Y-16958270D02*
X10040658Y-16977317D01*
X10307325Y-17043984D02*
X10307325Y-16843984D01*
X10307325Y-17034460D02*
X10288277Y-17043984D01*
X10288277Y-17043984D02*
X10250182Y-17043984D01*
X10250182Y-17043984D02*
X10231135Y-17034460D01*
X10231135Y-17034460D02*
X10221611Y-17024936D01*
X10221611Y-17024936D02*
X10212087Y-17005889D01*
X10212087Y-17005889D02*
X10212087Y-16948746D01*
X10212087Y-16948746D02*
X10221611Y-16929698D01*
X10221611Y-16929698D02*
X10231135Y-16920174D01*
X10231135Y-16920174D02*
X10250182Y-16910650D01*
X10250182Y-16910650D02*
X10288277Y-16910650D01*
X10288277Y-16910650D02*
X10307325Y-16920174D01*
X10383516Y-17120174D02*
X10393039Y-17110650D01*
X10393039Y-17110650D02*
X10412087Y-17082079D01*
X10412087Y-17082079D02*
X10421611Y-17063031D01*
X10421611Y-17063031D02*
X10431135Y-17034460D01*
X10431135Y-17034460D02*
X10440658Y-16986841D01*
X10440658Y-16986841D02*
X10440658Y-16948746D01*
X10440658Y-16948746D02*
X10431135Y-16901127D01*
X10431135Y-16901127D02*
X10421611Y-16872555D01*
X10421611Y-16872555D02*
X10412087Y-16853508D01*
X10412087Y-16853508D02*
X10393039Y-16824936D01*
X10393039Y-16824936D02*
X10383516Y-16815412D01*
X3527500Y-17372500D02*
X3627500Y-17272500D01*
X3527500Y-17172500D01*
X3427500Y-17272500D01*
X3527500Y-17372500D01*
X3973991Y-17230650D02*
X3973991Y-17363984D01*
X3926372Y-17154460D02*
X3878753Y-17297317D01*
X3878753Y-17297317D02*
X4002562Y-17297317D01*
X4078753Y-17344936D02*
X4088277Y-17354460D01*
X4088277Y-17354460D02*
X4078753Y-17363984D01*
X4078753Y-17363984D02*
X4069229Y-17354460D01*
X4069229Y-17354460D02*
X4078753Y-17344936D01*
X4078753Y-17344936D02*
X4078753Y-17363984D01*
X4212086Y-17163984D02*
X4231134Y-17163984D01*
X4231134Y-17163984D02*
X4250182Y-17173508D01*
X4250182Y-17173508D02*
X4259705Y-17183031D01*
X4259705Y-17183031D02*
X4269229Y-17202079D01*
X4269229Y-17202079D02*
X4278753Y-17240174D01*
X4278753Y-17240174D02*
X4278753Y-17287793D01*
X4278753Y-17287793D02*
X4269229Y-17325889D01*
X4269229Y-17325889D02*
X4259705Y-17344936D01*
X4259705Y-17344936D02*
X4250182Y-17354460D01*
X4250182Y-17354460D02*
X4231134Y-17363984D01*
X4231134Y-17363984D02*
X4212086Y-17363984D01*
X4212086Y-17363984D02*
X4193039Y-17354460D01*
X4193039Y-17354460D02*
X4183515Y-17344936D01*
X4183515Y-17344936D02*
X4173991Y-17325889D01*
X4173991Y-17325889D02*
X4164467Y-17287793D01*
X4164467Y-17287793D02*
X4164467Y-17240174D01*
X4164467Y-17240174D02*
X4173991Y-17202079D01*
X4173991Y-17202079D02*
X4183515Y-17183031D01*
X4183515Y-17183031D02*
X4193039Y-17173508D01*
X4193039Y-17173508D02*
X4212086Y-17163984D01*
X4402563Y-17163984D02*
X4421610Y-17163984D01*
X4421610Y-17163984D02*
X4440658Y-17173508D01*
X4440658Y-17173508D02*
X4450182Y-17183031D01*
X4450182Y-17183031D02*
X4459705Y-17202079D01*
X4459705Y-17202079D02*
X4469229Y-17240174D01*
X4469229Y-17240174D02*
X4469229Y-17287793D01*
X4469229Y-17287793D02*
X4459705Y-17325889D01*
X4459705Y-17325889D02*
X4450182Y-17344936D01*
X4450182Y-17344936D02*
X4440658Y-17354460D01*
X4440658Y-17354460D02*
X4421610Y-17363984D01*
X4421610Y-17363984D02*
X4402563Y-17363984D01*
X4402563Y-17363984D02*
X4383515Y-17354460D01*
X4383515Y-17354460D02*
X4373991Y-17344936D01*
X4373991Y-17344936D02*
X4364467Y-17325889D01*
X4364467Y-17325889D02*
X4354944Y-17287793D01*
X4354944Y-17287793D02*
X4354944Y-17240174D01*
X4354944Y-17240174D02*
X4364467Y-17202079D01*
X4364467Y-17202079D02*
X4373991Y-17183031D01*
X4373991Y-17183031D02*
X4383515Y-17173508D01*
X4383515Y-17173508D02*
X4402563Y-17163984D01*
X4593039Y-17163984D02*
X4612086Y-17163984D01*
X4612086Y-17163984D02*
X4631134Y-17173508D01*
X4631134Y-17173508D02*
X4640658Y-17183031D01*
X4640658Y-17183031D02*
X4650182Y-17202079D01*
X4650182Y-17202079D02*
X4659705Y-17240174D01*
X4659705Y-17240174D02*
X4659705Y-17287793D01*
X4659705Y-17287793D02*
X4650182Y-17325889D01*
X4650182Y-17325889D02*
X4640658Y-17344936D01*
X4640658Y-17344936D02*
X4631134Y-17354460D01*
X4631134Y-17354460D02*
X4612086Y-17363984D01*
X4612086Y-17363984D02*
X4593039Y-17363984D01*
X4593039Y-17363984D02*
X4573991Y-17354460D01*
X4573991Y-17354460D02*
X4564467Y-17344936D01*
X4564467Y-17344936D02*
X4554944Y-17325889D01*
X4554944Y-17325889D02*
X4545420Y-17287793D01*
X4545420Y-17287793D02*
X4545420Y-17240174D01*
X4545420Y-17240174D02*
X4554944Y-17202079D01*
X4554944Y-17202079D02*
X4564467Y-17183031D01*
X4564467Y-17183031D02*
X4573991Y-17173508D01*
X4573991Y-17173508D02*
X4593039Y-17163984D01*
X4745420Y-17363984D02*
X4745420Y-17230650D01*
X4745420Y-17249698D02*
X4754944Y-17240174D01*
X4754944Y-17240174D02*
X4773991Y-17230650D01*
X4773991Y-17230650D02*
X4802563Y-17230650D01*
X4802563Y-17230650D02*
X4821610Y-17240174D01*
X4821610Y-17240174D02*
X4831134Y-17259222D01*
X4831134Y-17259222D02*
X4831134Y-17363984D01*
X4831134Y-17259222D02*
X4840658Y-17240174D01*
X4840658Y-17240174D02*
X4859705Y-17230650D01*
X4859705Y-17230650D02*
X4888277Y-17230650D01*
X4888277Y-17230650D02*
X4907325Y-17240174D01*
X4907325Y-17240174D02*
X4916848Y-17259222D01*
X4916848Y-17259222D02*
X4916848Y-17363984D01*
X5012086Y-17363984D02*
X5012086Y-17230650D01*
X5012086Y-17249698D02*
X5021610Y-17240174D01*
X5021610Y-17240174D02*
X5040658Y-17230650D01*
X5040658Y-17230650D02*
X5069229Y-17230650D01*
X5069229Y-17230650D02*
X5088277Y-17240174D01*
X5088277Y-17240174D02*
X5097801Y-17259222D01*
X5097801Y-17259222D02*
X5097801Y-17363984D01*
X5097801Y-17259222D02*
X5107325Y-17240174D01*
X5107325Y-17240174D02*
X5126372Y-17230650D01*
X5126372Y-17230650D02*
X5154944Y-17230650D01*
X5154944Y-17230650D02*
X5173991Y-17240174D01*
X5173991Y-17240174D02*
X5183515Y-17259222D01*
X5183515Y-17259222D02*
X5183515Y-17363984D01*
X5573991Y-17154460D02*
X5402563Y-17411603D01*
X5831134Y-17163984D02*
X5850182Y-17163984D01*
X5850182Y-17163984D02*
X5869229Y-17173508D01*
X5869229Y-17173508D02*
X5878753Y-17183031D01*
X5878753Y-17183031D02*
X5888277Y-17202079D01*
X5888277Y-17202079D02*
X5897801Y-17240174D01*
X5897801Y-17240174D02*
X5897801Y-17287793D01*
X5897801Y-17287793D02*
X5888277Y-17325889D01*
X5888277Y-17325889D02*
X5878753Y-17344936D01*
X5878753Y-17344936D02*
X5869229Y-17354460D01*
X5869229Y-17354460D02*
X5850182Y-17363984D01*
X5850182Y-17363984D02*
X5831134Y-17363984D01*
X5831134Y-17363984D02*
X5812086Y-17354460D01*
X5812086Y-17354460D02*
X5802563Y-17344936D01*
X5802563Y-17344936D02*
X5793039Y-17325889D01*
X5793039Y-17325889D02*
X5783515Y-17287793D01*
X5783515Y-17287793D02*
X5783515Y-17240174D01*
X5783515Y-17240174D02*
X5793039Y-17202079D01*
X5793039Y-17202079D02*
X5802563Y-17183031D01*
X5802563Y-17183031D02*
X5812086Y-17173508D01*
X5812086Y-17173508D02*
X5831134Y-17163984D01*
X5983515Y-17344936D02*
X5993039Y-17354460D01*
X5993039Y-17354460D02*
X5983515Y-17363984D01*
X5983515Y-17363984D02*
X5973991Y-17354460D01*
X5973991Y-17354460D02*
X5983515Y-17344936D01*
X5983515Y-17344936D02*
X5983515Y-17363984D01*
X6183515Y-17363984D02*
X6069229Y-17363984D01*
X6126372Y-17363984D02*
X6126372Y-17163984D01*
X6126372Y-17163984D02*
X6107325Y-17192555D01*
X6107325Y-17192555D02*
X6088277Y-17211603D01*
X6088277Y-17211603D02*
X6069229Y-17221127D01*
X6364467Y-17163984D02*
X6269229Y-17163984D01*
X6269229Y-17163984D02*
X6259706Y-17259222D01*
X6259706Y-17259222D02*
X6269229Y-17249698D01*
X6269229Y-17249698D02*
X6288277Y-17240174D01*
X6288277Y-17240174D02*
X6335896Y-17240174D01*
X6335896Y-17240174D02*
X6354944Y-17249698D01*
X6354944Y-17249698D02*
X6364467Y-17259222D01*
X6364467Y-17259222D02*
X6373991Y-17278270D01*
X6373991Y-17278270D02*
X6373991Y-17325889D01*
X6373991Y-17325889D02*
X6364467Y-17344936D01*
X6364467Y-17344936D02*
X6354944Y-17354460D01*
X6354944Y-17354460D02*
X6335896Y-17363984D01*
X6335896Y-17363984D02*
X6288277Y-17363984D01*
X6288277Y-17363984D02*
X6269229Y-17354460D01*
X6269229Y-17354460D02*
X6259706Y-17344936D01*
X6440658Y-17163984D02*
X6573991Y-17163984D01*
X6573991Y-17163984D02*
X6488277Y-17363984D01*
X6745420Y-17163984D02*
X6650182Y-17163984D01*
X6650182Y-17163984D02*
X6640658Y-17259222D01*
X6640658Y-17259222D02*
X6650182Y-17249698D01*
X6650182Y-17249698D02*
X6669229Y-17240174D01*
X6669229Y-17240174D02*
X6716848Y-17240174D01*
X6716848Y-17240174D02*
X6735896Y-17249698D01*
X6735896Y-17249698D02*
X6745420Y-17259222D01*
X6745420Y-17259222D02*
X6754944Y-17278270D01*
X6754944Y-17278270D02*
X6754944Y-17325889D01*
X6754944Y-17325889D02*
X6745420Y-17344936D01*
X6745420Y-17344936D02*
X6735896Y-17354460D01*
X6735896Y-17354460D02*
X6716848Y-17363984D01*
X6716848Y-17363984D02*
X6669229Y-17363984D01*
X6669229Y-17363984D02*
X6650182Y-17354460D01*
X6650182Y-17354460D02*
X6640658Y-17344936D01*
X6831134Y-17163984D02*
X6831134Y-17202079D01*
X6907325Y-17163984D02*
X6907325Y-17202079D01*
X7202563Y-17440174D02*
X7193039Y-17430650D01*
X7193039Y-17430650D02*
X7173991Y-17402079D01*
X7173991Y-17402079D02*
X7164468Y-17383031D01*
X7164468Y-17383031D02*
X7154944Y-17354460D01*
X7154944Y-17354460D02*
X7145420Y-17306841D01*
X7145420Y-17306841D02*
X7145420Y-17268746D01*
X7145420Y-17268746D02*
X7154944Y-17221127D01*
X7154944Y-17221127D02*
X7164468Y-17192555D01*
X7164468Y-17192555D02*
X7173991Y-17173508D01*
X7173991Y-17173508D02*
X7193039Y-17144936D01*
X7193039Y-17144936D02*
X7202563Y-17135412D01*
X7364468Y-17230650D02*
X7364468Y-17363984D01*
X7316848Y-17154460D02*
X7269229Y-17297317D01*
X7269229Y-17297317D02*
X7393039Y-17297317D01*
X7621610Y-17363984D02*
X7621610Y-17163984D01*
X7707325Y-17363984D02*
X7707325Y-17259222D01*
X7707325Y-17259222D02*
X7697801Y-17240174D01*
X7697801Y-17240174D02*
X7678753Y-17230650D01*
X7678753Y-17230650D02*
X7650182Y-17230650D01*
X7650182Y-17230650D02*
X7631134Y-17240174D01*
X7631134Y-17240174D02*
X7621610Y-17249698D01*
X7831134Y-17363984D02*
X7812087Y-17354460D01*
X7812087Y-17354460D02*
X7802563Y-17344936D01*
X7802563Y-17344936D02*
X7793039Y-17325889D01*
X7793039Y-17325889D02*
X7793039Y-17268746D01*
X7793039Y-17268746D02*
X7802563Y-17249698D01*
X7802563Y-17249698D02*
X7812087Y-17240174D01*
X7812087Y-17240174D02*
X7831134Y-17230650D01*
X7831134Y-17230650D02*
X7859706Y-17230650D01*
X7859706Y-17230650D02*
X7878753Y-17240174D01*
X7878753Y-17240174D02*
X7888277Y-17249698D01*
X7888277Y-17249698D02*
X7897801Y-17268746D01*
X7897801Y-17268746D02*
X7897801Y-17325889D01*
X7897801Y-17325889D02*
X7888277Y-17344936D01*
X7888277Y-17344936D02*
X7878753Y-17354460D01*
X7878753Y-17354460D02*
X7859706Y-17363984D01*
X7859706Y-17363984D02*
X7831134Y-17363984D01*
X8012087Y-17363984D02*
X7993039Y-17354460D01*
X7993039Y-17354460D02*
X7983515Y-17335412D01*
X7983515Y-17335412D02*
X7983515Y-17163984D01*
X8164468Y-17354460D02*
X8145420Y-17363984D01*
X8145420Y-17363984D02*
X8107325Y-17363984D01*
X8107325Y-17363984D02*
X8088277Y-17354460D01*
X8088277Y-17354460D02*
X8078753Y-17335412D01*
X8078753Y-17335412D02*
X8078753Y-17259222D01*
X8078753Y-17259222D02*
X8088277Y-17240174D01*
X8088277Y-17240174D02*
X8107325Y-17230650D01*
X8107325Y-17230650D02*
X8145420Y-17230650D01*
X8145420Y-17230650D02*
X8164468Y-17240174D01*
X8164468Y-17240174D02*
X8173991Y-17259222D01*
X8173991Y-17259222D02*
X8173991Y-17278270D01*
X8173991Y-17278270D02*
X8078753Y-17297317D01*
X8250182Y-17354460D02*
X8269230Y-17363984D01*
X8269230Y-17363984D02*
X8307325Y-17363984D01*
X8307325Y-17363984D02*
X8326372Y-17354460D01*
X8326372Y-17354460D02*
X8335896Y-17335412D01*
X8335896Y-17335412D02*
X8335896Y-17325889D01*
X8335896Y-17325889D02*
X8326372Y-17306841D01*
X8326372Y-17306841D02*
X8307325Y-17297317D01*
X8307325Y-17297317D02*
X8278753Y-17297317D01*
X8278753Y-17297317D02*
X8259706Y-17287793D01*
X8259706Y-17287793D02*
X8250182Y-17268746D01*
X8250182Y-17268746D02*
X8250182Y-17259222D01*
X8250182Y-17259222D02*
X8259706Y-17240174D01*
X8259706Y-17240174D02*
X8278753Y-17230650D01*
X8278753Y-17230650D02*
X8307325Y-17230650D01*
X8307325Y-17230650D02*
X8326372Y-17240174D01*
X8402563Y-17440174D02*
X8412087Y-17430650D01*
X8412087Y-17430650D02*
X8431134Y-17402079D01*
X8431134Y-17402079D02*
X8440658Y-17383031D01*
X8440658Y-17383031D02*
X8450182Y-17354460D01*
X8450182Y-17354460D02*
X8459706Y-17306841D01*
X8459706Y-17306841D02*
X8459706Y-17268746D01*
X8459706Y-17268746D02*
X8450182Y-17221127D01*
X8450182Y-17221127D02*
X8440658Y-17192555D01*
X8440658Y-17192555D02*
X8431134Y-17173508D01*
X8431134Y-17173508D02*
X8412087Y-17144936D01*
X8412087Y-17144936D02*
X8402563Y-17135412D01*
X8764468Y-17440174D02*
X8754944Y-17430650D01*
X8754944Y-17430650D02*
X8735896Y-17402079D01*
X8735896Y-17402079D02*
X8726373Y-17383031D01*
X8726373Y-17383031D02*
X8716849Y-17354460D01*
X8716849Y-17354460D02*
X8707325Y-17306841D01*
X8707325Y-17306841D02*
X8707325Y-17268746D01*
X8707325Y-17268746D02*
X8716849Y-17221127D01*
X8716849Y-17221127D02*
X8726373Y-17192555D01*
X8726373Y-17192555D02*
X8735896Y-17173508D01*
X8735896Y-17173508D02*
X8754944Y-17144936D01*
X8754944Y-17144936D02*
X8764468Y-17135412D01*
X8840658Y-17230650D02*
X8840658Y-17363984D01*
X8840658Y-17249698D02*
X8850182Y-17240174D01*
X8850182Y-17240174D02*
X8869230Y-17230650D01*
X8869230Y-17230650D02*
X8897801Y-17230650D01*
X8897801Y-17230650D02*
X8916849Y-17240174D01*
X8916849Y-17240174D02*
X8926373Y-17259222D01*
X8926373Y-17259222D02*
X8926373Y-17363984D01*
X9050182Y-17363984D02*
X9031134Y-17354460D01*
X9031134Y-17354460D02*
X9021611Y-17344936D01*
X9021611Y-17344936D02*
X9012087Y-17325889D01*
X9012087Y-17325889D02*
X9012087Y-17268746D01*
X9012087Y-17268746D02*
X9021611Y-17249698D01*
X9021611Y-17249698D02*
X9031134Y-17240174D01*
X9031134Y-17240174D02*
X9050182Y-17230650D01*
X9050182Y-17230650D02*
X9078754Y-17230650D01*
X9078754Y-17230650D02*
X9097801Y-17240174D01*
X9097801Y-17240174D02*
X9107325Y-17249698D01*
X9107325Y-17249698D02*
X9116849Y-17268746D01*
X9116849Y-17268746D02*
X9116849Y-17325889D01*
X9116849Y-17325889D02*
X9107325Y-17344936D01*
X9107325Y-17344936D02*
X9097801Y-17354460D01*
X9097801Y-17354460D02*
X9078754Y-17363984D01*
X9078754Y-17363984D02*
X9050182Y-17363984D01*
X9173992Y-17230650D02*
X9250182Y-17230650D01*
X9202563Y-17163984D02*
X9202563Y-17335412D01*
X9202563Y-17335412D02*
X9212087Y-17354460D01*
X9212087Y-17354460D02*
X9231134Y-17363984D01*
X9231134Y-17363984D02*
X9250182Y-17363984D01*
X9469230Y-17230650D02*
X9469230Y-17430650D01*
X9469230Y-17240174D02*
X9488277Y-17230650D01*
X9488277Y-17230650D02*
X9526373Y-17230650D01*
X9526373Y-17230650D02*
X9545420Y-17240174D01*
X9545420Y-17240174D02*
X9554944Y-17249698D01*
X9554944Y-17249698D02*
X9564468Y-17268746D01*
X9564468Y-17268746D02*
X9564468Y-17325889D01*
X9564468Y-17325889D02*
X9554944Y-17344936D01*
X9554944Y-17344936D02*
X9545420Y-17354460D01*
X9545420Y-17354460D02*
X9526373Y-17363984D01*
X9526373Y-17363984D02*
X9488277Y-17363984D01*
X9488277Y-17363984D02*
X9469230Y-17354460D01*
X9678754Y-17363984D02*
X9659706Y-17354460D01*
X9659706Y-17354460D02*
X9650182Y-17335412D01*
X9650182Y-17335412D02*
X9650182Y-17163984D01*
X9840658Y-17363984D02*
X9840658Y-17259222D01*
X9840658Y-17259222D02*
X9831135Y-17240174D01*
X9831135Y-17240174D02*
X9812087Y-17230650D01*
X9812087Y-17230650D02*
X9773992Y-17230650D01*
X9773992Y-17230650D02*
X9754944Y-17240174D01*
X9840658Y-17354460D02*
X9821611Y-17363984D01*
X9821611Y-17363984D02*
X9773992Y-17363984D01*
X9773992Y-17363984D02*
X9754944Y-17354460D01*
X9754944Y-17354460D02*
X9745420Y-17335412D01*
X9745420Y-17335412D02*
X9745420Y-17316365D01*
X9745420Y-17316365D02*
X9754944Y-17297317D01*
X9754944Y-17297317D02*
X9773992Y-17287793D01*
X9773992Y-17287793D02*
X9821611Y-17287793D01*
X9821611Y-17287793D02*
X9840658Y-17278270D01*
X9907325Y-17230650D02*
X9983515Y-17230650D01*
X9935896Y-17163984D02*
X9935896Y-17335412D01*
X9935896Y-17335412D02*
X9945420Y-17354460D01*
X9945420Y-17354460D02*
X9964468Y-17363984D01*
X9964468Y-17363984D02*
X9983515Y-17363984D01*
X10126373Y-17354460D02*
X10107325Y-17363984D01*
X10107325Y-17363984D02*
X10069230Y-17363984D01*
X10069230Y-17363984D02*
X10050182Y-17354460D01*
X10050182Y-17354460D02*
X10040658Y-17335412D01*
X10040658Y-17335412D02*
X10040658Y-17259222D01*
X10040658Y-17259222D02*
X10050182Y-17240174D01*
X10050182Y-17240174D02*
X10069230Y-17230650D01*
X10069230Y-17230650D02*
X10107325Y-17230650D01*
X10107325Y-17230650D02*
X10126373Y-17240174D01*
X10126373Y-17240174D02*
X10135896Y-17259222D01*
X10135896Y-17259222D02*
X10135896Y-17278270D01*
X10135896Y-17278270D02*
X10040658Y-17297317D01*
X10307325Y-17363984D02*
X10307325Y-17163984D01*
X10307325Y-17354460D02*
X10288277Y-17363984D01*
X10288277Y-17363984D02*
X10250182Y-17363984D01*
X10250182Y-17363984D02*
X10231135Y-17354460D01*
X10231135Y-17354460D02*
X10221611Y-17344936D01*
X10221611Y-17344936D02*
X10212087Y-17325889D01*
X10212087Y-17325889D02*
X10212087Y-17268746D01*
X10212087Y-17268746D02*
X10221611Y-17249698D01*
X10221611Y-17249698D02*
X10231135Y-17240174D01*
X10231135Y-17240174D02*
X10250182Y-17230650D01*
X10250182Y-17230650D02*
X10288277Y-17230650D01*
X10288277Y-17230650D02*
X10307325Y-17240174D01*
X10383516Y-17440174D02*
X10393039Y-17430650D01*
X10393039Y-17430650D02*
X10412087Y-17402079D01*
X10412087Y-17402079D02*
X10421611Y-17383031D01*
X10421611Y-17383031D02*
X10431135Y-17354460D01*
X10431135Y-17354460D02*
X10440658Y-17306841D01*
X10440658Y-17306841D02*
X10440658Y-17268746D01*
X10440658Y-17268746D02*
X10431135Y-17221127D01*
X10431135Y-17221127D02*
X10421611Y-17192555D01*
X10421611Y-17192555D02*
X10412087Y-17173508D01*
X10412087Y-17173508D02*
X10393039Y-17144936D01*
X10393039Y-17144936D02*
X10383516Y-17135412D01*
M02*
