%TF.GenerationSoftware,KiCad,Pcbnew,9.0.7*%
%TF.CreationDate,2026-01-12T11:14:35+00:00*%
%TF.ProjectId,DeltaBot,44656c74-6142-46f7-942e-6b696361645f,rev?*%
%TF.SameCoordinates,Original*%
%TF.FileFunction,Copper,L1,Top*%
%TF.FilePolarity,Positive*%
%FSLAX46Y46*%
G04 Gerber Fmt 4.6, Leading zero omitted, Abs format (unit mm)*
G04 Created by KiCad (PCBNEW 9.0.7) date 2026-01-12 11:14:35*
%MOMM*%
%LPD*%
G01*
G04 APERTURE LIST*
G04 Aperture macros list*
%AMRoundRect*
0 Rectangle with rounded corners*
0 $1 Rounding radius*
0 $2 $3 $4 $5 $6 $7 $8 $9 X,Y pos of 4 corners*
0 Add a 4 corners polygon primitive as box body*
4,1,4,$2,$3,$4,$5,$6,$7,$8,$9,$2,$3,0*
0 Add four circle primitives for the rounded corners*
1,1,$1+$1,$2,$3*
1,1,$1+$1,$4,$5*
1,1,$1+$1,$6,$7*
1,1,$1+$1,$8,$9*
0 Add four rect primitives between the rounded corners*
20,1,$1+$1,$2,$3,$4,$5,0*
20,1,$1+$1,$4,$5,$6,$7,0*
20,1,$1+$1,$6,$7,$8,$9,0*
20,1,$1+$1,$8,$9,$2,$3,0*%
G04 Aperture macros list end*
%TA.AperFunction,Conductor*%
%ADD10C,0.200000*%
%TD*%
%TA.AperFunction,ComponentPad*%
%ADD11C,2.000000*%
%TD*%
%TA.AperFunction,ComponentPad*%
%ADD12R,2.000000X2.000000*%
%TD*%
%TA.AperFunction,SMDPad,CuDef*%
%ADD13RoundRect,0.225000X-0.225000X-0.250000X0.225000X-0.250000X0.225000X0.250000X-0.225000X0.250000X0*%
%TD*%
%TA.AperFunction,ComponentPad*%
%ADD14C,1.879600*%
%TD*%
%TA.AperFunction,SMDPad,CuDef*%
%ADD15RoundRect,0.125000X-0.875000X0.875000X-0.875000X-0.875000X0.875000X-0.875000X0.875000X0.875000X0*%
%TD*%
%TA.AperFunction,SMDPad,CuDef*%
%ADD16RoundRect,0.250000X-2.000000X0.750000X-2.000000X-0.750000X2.000000X-0.750000X2.000000X0.750000X0*%
%TD*%
%TA.AperFunction,SMDPad,CuDef*%
%ADD17RoundRect,0.250000X-0.750000X0.750000X-0.750000X-0.750000X0.750000X-0.750000X0.750000X0.750000X0*%
%TD*%
%TA.AperFunction,SMDPad,CuDef*%
%ADD18RoundRect,0.687500X-2.062500X3.312500X-2.062500X-3.312500X2.062500X-3.312500X2.062500X3.312500X0*%
%TD*%
%TA.AperFunction,ComponentPad*%
%ADD19R,3.500000X3.500000*%
%TD*%
%TA.AperFunction,ComponentPad*%
%ADD20C,3.500000*%
%TD*%
%TA.AperFunction,SMDPad,CuDef*%
%ADD21RoundRect,0.250000X-0.250000X-0.475000X0.250000X-0.475000X0.250000X0.475000X-0.250000X0.475000X0*%
%TD*%
%TA.AperFunction,ComponentPad*%
%ADD22C,3.000000*%
%TD*%
%TA.AperFunction,ComponentPad*%
%ADD23RoundRect,0.250001X-0.949999X0.949999X-0.949999X-0.949999X0.949999X-0.949999X0.949999X0.949999X0*%
%TD*%
%TA.AperFunction,ComponentPad*%
%ADD24C,2.400000*%
%TD*%
%TA.AperFunction,ViaPad*%
%ADD25C,2.000000*%
%TD*%
%TA.AperFunction,Conductor*%
%ADD26C,1.000000*%
%TD*%
%TA.AperFunction,Conductor*%
%ADD27C,2.000000*%
%TD*%
%TA.AperFunction,Conductor*%
%ADD28C,1.500000*%
%TD*%
%TA.AperFunction,Profile*%
%ADD29C,0.050000*%
%TD*%
G04 APERTURE END LIST*
D10*
%TO.N,GND*%
X192000000Y-86000000D02*
X185000000Y-86000000D01*
X185000000Y-77000000D01*
X193000000Y-77000000D01*
X192000000Y-86000000D01*
%TA.AperFunction,Conductor*%
G36*
X192000000Y-86000000D02*
G01*
X185000000Y-86000000D01*
X185000000Y-77000000D01*
X193000000Y-77000000D01*
X192000000Y-86000000D01*
G37*
%TD.AperFunction*%
X57400000Y-70500000D02*
X57300000Y-70800000D01*
X55500000Y-70800000D01*
X55000000Y-69500000D01*
X53000000Y-69500000D01*
X53000000Y-66600000D01*
X57400000Y-66600000D01*
X57400000Y-70500000D01*
%TA.AperFunction,Conductor*%
G36*
X57400000Y-70500000D02*
G01*
X57300000Y-70800000D01*
X55500000Y-70800000D01*
X55000000Y-69500000D01*
X53000000Y-69500000D01*
X53000000Y-66600000D01*
X57400000Y-66600000D01*
X57400000Y-70500000D01*
G37*
%TD.AperFunction*%
%TO.N,+5V*%
X151000000Y-100200000D02*
X146300000Y-100200000D01*
X146100000Y-99800000D01*
X143500000Y-99800000D01*
X143500000Y-92000000D01*
X151000000Y-92000000D01*
X151000000Y-100200000D01*
%TA.AperFunction,Conductor*%
G36*
X151000000Y-100200000D02*
G01*
X146300000Y-100200000D01*
X146100000Y-99800000D01*
X143500000Y-99800000D01*
X143500000Y-92000000D01*
X151000000Y-92000000D01*
X151000000Y-100200000D01*
G37*
%TD.AperFunction*%
%TD*%
D11*
%TO.P,U1,40,GPIO4_A7*%
%TO.N,unconnected-(U1-GPIO4_A7-Pad40)*%
X99565000Y-71565000D03*
%TO.P,U1,39,GND6*%
%TO.N,GND*%
X99565000Y-74105000D03*
%TO.P,U1,38,GPIO4_A6*%
%TO.N,unconnected-(U1-GPIO4_A6-Pad38)*%
X97025000Y-71565000D03*
%TO.P,U1,37,GPIO4_D6*%
%TO.N,unconnected-(U1-GPIO4_D6-Pad37)*%
X97025000Y-74105000D03*
%TO.P,U1,36,GPIO4_A4*%
%TO.N,unconnected-(U1-GPIO4_A4-Pad36)*%
X94485000Y-71565000D03*
%TO.P,U1,35,GPIO4_A5*%
%TO.N,unconnected-(U1-GPIO4_A5-Pad35)*%
X94485000Y-74105000D03*
%TO.P,U1,34,GND5*%
%TO.N,GND*%
X91945000Y-71565000D03*
%TO.P,U1,33,GPIO2_B4*%
%TO.N,PWM_L*%
X91945000Y-74105000D03*
%TO.P,U1,32,GPIO3_C0*%
%TO.N,PWM_R*%
X89405000Y-71565000D03*
%TO.P,U1,31,GPIO2_B1*%
%TO.N,unconnected-(U1-GPIO2_B1-Pad31)*%
X89405000Y-74105000D03*
%TO.P,U1,30,GND4*%
%TO.N,GND*%
X86865000Y-71565000D03*
%TO.P,U1,29,GPIO2_B2*%
%TO.N,unconnected-(U1-GPIO2_B2-Pad29)*%
X86865000Y-74105000D03*
%TO.P,U1,28,GPIO2_A1*%
%TO.N,unconnected-(U1-GPIO2_A1-Pad28)*%
X84325000Y-71565000D03*
%TO.P,U1,27,GPIO2_A0*%
%TO.N,unconnected-(U1-GPIO2_A0-Pad27)*%
X84325000Y-74105000D03*
%TO.P,U1,26,ADC_IN0*%
%TO.N,unconnected-(U1-ADC_IN0-Pad26)*%
X81785000Y-71565000D03*
%TO.P,U1,25,GND7*%
%TO.N,GND*%
X81785000Y-74105000D03*
%TO.P,U1,24,GPIO1_B2*%
%TO.N,unconnected-(U1-GPIO1_B2-Pad24)*%
X79245000Y-71565000D03*
%TO.P,U1,23,GPIO1_B1*%
%TO.N,unconnected-(U1-GPIO1_B1-Pad23)*%
X79245000Y-74105000D03*
%TO.P,U1,22,GPIO4_D5*%
%TO.N,unconnected-(U1-GPIO4_D5-Pad22)*%
X76705000Y-71565000D03*
%TO.P,U1,21,GPIO1_A7*%
%TO.N,unconnected-(U1-GPIO1_A7-Pad21)*%
X76705000Y-74105000D03*
%TO.P,U1,20,GND3*%
%TO.N,GND*%
X74165000Y-71565000D03*
%TO.P,U1,19,GPIO1_B0*%
%TO.N,unconnected-(U1-GPIO1_B0-Pad19)*%
X74165000Y-74105000D03*
%TO.P,U1,18,GPIO4_D4*%
%TO.N,unconnected-(U1-GPIO4_D4-Pad18)*%
X71625000Y-71565000D03*
%TO.P,U1,17,3.3V1*%
%TO.N,unconnected-(U1-3.3V1-Pad17)*%
X71625000Y-74105000D03*
%TO.P,U1,16,GPIO4_D2*%
%TO.N,unconnected-(U1-GPIO4_D2-Pad16)*%
X69085000Y-71565000D03*
%TO.P,U1,15,GPIO4_D0*%
%TO.N,unconnected-(U1-GPIO4_D0-Pad15)*%
X69085000Y-74105000D03*
%TO.P,U1,14,GND2*%
%TO.N,GND*%
X66545000Y-71565000D03*
%TO.P,U1,13,GPIO4_C6*%
%TO.N,unconnected-(U1-GPIO4_C6-Pad13)*%
X66545000Y-74105000D03*
%TO.P,U1,12,GPIO4_A3*%
%TO.N,unconnected-(U1-GPIO4_A3-Pad12)*%
X64005000Y-71565000D03*
%TO.P,U1,11,GPIO4_C2*%
%TO.N,unconnected-(U1-GPIO4_C2-Pad11)*%
X64005000Y-74105000D03*
%TO.P,U1,10,GPIO4_C4*%
%TO.N,LIDAR_RX*%
X61465000Y-71565000D03*
%TO.P,U1,9,GND8*%
%TO.N,GND*%
X61465000Y-74105000D03*
%TO.P,U1,8,GPIO4_C3*%
%TO.N,LIDAR_TX*%
X58925000Y-71565000D03*
%TO.P,U1,7,GPIO2_B3*%
%TO.N,unconnected-(U1-GPIO2_B3-Pad7)*%
X58925000Y-74105000D03*
%TO.P,U1,6,GND1*%
%TO.N,GND*%
X56385000Y-71565000D03*
%TO.P,U1,5,I2C7_SCL*%
%TO.N,unconnected-(U1-I2C7_SCL-Pad5)*%
X56385000Y-74105000D03*
%TO.P,U1,4,5V2*%
%TO.N,+5V*%
X53845000Y-71565000D03*
%TO.P,U1,3,I2C7_SDA*%
%TO.N,unconnected-(U1-I2C7_SDA-Pad3)*%
X53845000Y-74105000D03*
%TO.P,U1,2,5V1*%
%TO.N,+5V*%
X51305000Y-71565000D03*
D12*
%TO.P,U1,1,3.3V*%
%TO.N,unconnected-(U1-3.3V-Pad1)*%
X51305000Y-74105000D03*
%TD*%
D11*
%TO.P,J4,2,Pin_2*%
%TO.N,+5V*%
X155040000Y-144200000D03*
D12*
%TO.P,J4,1,Pin_1*%
%TO.N,PWM_R*%
X152500000Y-144200000D03*
D11*
%TO.P,J4,3,Pin_3*%
%TO.N,GND*%
X157580000Y-144200000D03*
%TD*%
D12*
%TO.P,J3,1,Pin_1*%
%TO.N,PWM_L*%
X155520000Y-70120000D03*
D11*
%TO.P,J3,2,Pin_2*%
%TO.N,+5V*%
X158060000Y-70120000D03*
%TO.P,J3,3,Pin_3*%
%TO.N,GND*%
X160600000Y-70120000D03*
%TD*%
D13*
%TO.P,C2,1*%
%TO.N,+5V*%
X151325000Y-98400000D03*
%TO.P,C2,2*%
%TO.N,GND*%
X152875000Y-98400000D03*
%TD*%
D14*
%TO.P,J1,1,VCC*%
%TO.N,Net-(J1-VCC)*%
X175109200Y-101786800D03*
%TO.P,J1,2,GND*%
%TO.N,GND*%
X172569200Y-101786800D03*
%TD*%
D12*
%TO.P,J5,1,VCC*%
%TO.N,+5V*%
X145320000Y-100440000D03*
D11*
%TO.P,J5,2,TX*%
%TO.N,LIDAR_TX*%
X145320000Y-102980000D03*
%TO.P,J5,3,RX*%
%TO.N,LIDAR_RX*%
X145320000Y-105520000D03*
%TO.P,J5,4,GND*%
%TO.N,GND*%
X145320000Y-108060000D03*
%TO.P,J5,5,Pin_5*%
%TO.N,unconnected-(J5-Pin_5-Pad5)*%
X145320000Y-110600000D03*
%TD*%
D15*
%TO.P,U2,1,IN+*%
%TO.N,+9V*%
X194100000Y-85700000D03*
D16*
%TO.P,U2,2,IN-*%
%TO.N,GND*%
X187850000Y-85700000D03*
D17*
%TO.P,U2,3,OUT+*%
%TO.N,+5V*%
X181600000Y-85700000D03*
D18*
%TO.P,U2,4,OUT-*%
%TO.N,GND*%
X189350000Y-77200000D03*
%TD*%
D13*
%TO.P,C5,1*%
%TO.N,+5V*%
X158100000Y-73900000D03*
%TO.P,C5,2*%
%TO.N,GND*%
X159650000Y-73900000D03*
%TD*%
D19*
%TO.P,SW1,1,A*%
%TO.N,+9V*%
X190000000Y-115702000D03*
D20*
%TO.P,SW1,2,B*%
%TO.N,Net-(SW1-B)*%
X190000000Y-120401000D03*
%TO.P,SW1,3,C*%
%TO.N,unconnected-(SW1-C-Pad3)*%
X190000000Y-125100000D03*
%TD*%
D13*
%TO.P,C4,1*%
%TO.N,+5V*%
X155050000Y-140300000D03*
%TO.P,C4,2*%
%TO.N,GND*%
X156600000Y-140300000D03*
%TD*%
%TO.P,C6,1*%
%TO.N,+5V*%
X51325000Y-66600000D03*
%TO.P,C6,2*%
%TO.N,GND*%
X52875000Y-66600000D03*
%TD*%
D21*
%TO.P,C7,1*%
%TO.N,+5V*%
X151325000Y-93700000D03*
%TO.P,C7,2*%
%TO.N,GND*%
X153225000Y-93700000D03*
%TD*%
D13*
%TO.P,C3,1*%
%TO.N,+5V*%
X151325000Y-96100000D03*
%TO.P,C3,2*%
%TO.N,GND*%
X152875000Y-96100000D03*
%TD*%
D22*
%TO.P,F1,1*%
%TO.N,Net-(SW1-B)*%
X193900000Y-93400000D03*
%TO.P,F1,2*%
%TO.N,Net-(J1-VCC)*%
X171400000Y-93400000D03*
%TD*%
D23*
%TO.P,C1,1*%
%TO.N,+5V*%
X161900000Y-89376041D03*
D24*
%TO.P,C1,2*%
%TO.N,GND*%
X161900000Y-94376041D03*
%TD*%
D25*
%TO.N,GND*%
X169000000Y-102000000D03*
X194500000Y-81500000D03*
X183500000Y-81500000D03*
X142500000Y-108000000D03*
X148500000Y-108000000D03*
X56000000Y-65000000D03*
%TD*%
D26*
%TO.N,PWM_L*%
X155520000Y-70120000D02*
X154900000Y-69500000D01*
X154900000Y-69500000D02*
X112500000Y-69500000D01*
X48700000Y-63300000D02*
X48700000Y-75302000D01*
X50898000Y-77500000D02*
X88890000Y-77500000D01*
X91945000Y-74445000D02*
X91945000Y-74105000D01*
X112500000Y-69500000D02*
X100000000Y-57000000D01*
X100000000Y-57000000D02*
X55000000Y-57000000D01*
X55000000Y-57000000D02*
X48700000Y-63300000D01*
X48700000Y-75302000D02*
X50898000Y-77500000D01*
X88890000Y-77500000D02*
X91945000Y-74445000D01*
%TO.N,+5V*%
X51325000Y-66600000D02*
X51325000Y-65934940D01*
X51325000Y-65934940D02*
X54259940Y-63000000D01*
X54259940Y-63000000D02*
X103066944Y-63000000D01*
X103066944Y-63000000D02*
X132000000Y-91933056D01*
X132000000Y-91933056D02*
X151600000Y-91933056D01*
X158060000Y-70120000D02*
X158060000Y-82060000D01*
X158060000Y-82060000D02*
X161900000Y-85900000D01*
X161900000Y-85900000D02*
X161900000Y-89376041D01*
X161900000Y-89376041D02*
X157548959Y-89376041D01*
X157548959Y-89376041D02*
X154991944Y-91933056D01*
X154991944Y-91933056D02*
X151600000Y-91933056D01*
D27*
%TO.N,Net-(J1-VCC)*%
X171400000Y-93400000D02*
X175109200Y-97109200D01*
X175109200Y-97109200D02*
X175109200Y-101786800D01*
%TO.N,Net-(SW1-B)*%
X193900000Y-93400000D02*
X191778680Y-93400000D01*
X186301000Y-120401000D02*
X190000000Y-120401000D01*
X182000000Y-103178680D02*
X182000000Y-116100000D01*
X182000000Y-116100000D02*
X186301000Y-120401000D01*
X191778680Y-93400000D02*
X182000000Y-103178680D01*
D26*
%TO.N,LIDAR_TX*%
X58925000Y-69575000D02*
X63500000Y-65000000D01*
X102000000Y-65000000D02*
X139980000Y-102980000D01*
X58925000Y-71565000D02*
X58925000Y-69575000D01*
X139980000Y-102980000D02*
X145320000Y-102980000D01*
X63500000Y-65000000D02*
X102000000Y-65000000D01*
%TO.N,+5V*%
X151325000Y-98400000D02*
X151325000Y-99675000D01*
X152000000Y-112000000D02*
X152000000Y-100750000D01*
X150560000Y-100440000D02*
X145320000Y-100440000D01*
X151325000Y-96100000D02*
X151325000Y-98400000D01*
X152000000Y-100750000D02*
X147750000Y-96500000D01*
X51325000Y-66600000D02*
X51325000Y-71545000D01*
X155040000Y-144155000D02*
X155085000Y-144200000D01*
X149500000Y-134750000D02*
X149500000Y-114500000D01*
X145320000Y-100440000D02*
X145397710Y-100440000D01*
D28*
X51305000Y-71565000D02*
X53845000Y-71565000D01*
D26*
X155040000Y-144080000D02*
X155060000Y-144100000D01*
D27*
X165576041Y-85700000D02*
X161900000Y-89376041D01*
D26*
X151325000Y-93700000D02*
X151325000Y-96100000D01*
X149500000Y-114500000D02*
X152000000Y-112000000D01*
X151325000Y-99675000D02*
X150560000Y-100440000D01*
X155040000Y-140260000D02*
X155040000Y-144155000D01*
X51325000Y-71545000D02*
X51305000Y-71565000D01*
X151325000Y-93700000D02*
X151325000Y-92208056D01*
X155050000Y-140300000D02*
X149500000Y-134750000D01*
D27*
X181600000Y-85700000D02*
X165576041Y-85700000D01*
D26*
X151325000Y-92208056D02*
X151600000Y-91933056D01*
%TO.N,LIDAR_RX*%
X64600000Y-67000000D02*
X100999999Y-67000000D01*
X61465000Y-71565000D02*
X61465000Y-70135000D01*
X100999999Y-67000000D02*
X139519999Y-105520000D01*
X61465000Y-70135000D02*
X64600000Y-67000000D01*
X139519999Y-105520000D02*
X145320000Y-105520000D01*
%TO.N,PWM_R*%
X152500000Y-144200000D02*
X152500000Y-141000000D01*
X89405000Y-70595000D02*
X89405000Y-71565000D01*
X100100000Y-69000000D02*
X91000000Y-69000000D01*
X147500000Y-116400000D02*
X100100000Y-69000000D01*
X147500000Y-136000000D02*
X147500000Y-116400000D01*
X152500000Y-141000000D02*
X147500000Y-136000000D01*
X91000000Y-69000000D02*
X89405000Y-70595000D01*
D27*
%TO.N,+9V*%
X197500000Y-108202000D02*
X197500000Y-89100000D01*
X197500000Y-89100000D02*
X194100000Y-85700000D01*
X190000000Y-115702000D02*
X197500000Y-108202000D01*
%TD*%
%TA.AperFunction,Conductor*%
%TO.N,GND*%
G36*
X54312255Y-56060185D02*
G01*
X54358010Y-56112989D01*
X54367954Y-56182147D01*
X54338929Y-56245703D01*
X54332897Y-56252181D01*
X51082590Y-59502489D01*
X48062220Y-62522859D01*
X48062218Y-62522861D01*
X47992538Y-62592540D01*
X47922859Y-62662219D01*
X47813371Y-62826079D01*
X47813364Y-62826092D01*
X47737950Y-63008160D01*
X47737947Y-63008170D01*
X47699500Y-63201456D01*
X47699500Y-70938897D01*
X47679815Y-71005936D01*
X47627011Y-71051691D01*
X47557853Y-71061635D01*
X47494297Y-71032610D01*
X47487819Y-71026578D01*
X47293824Y-70832583D01*
X47203060Y-70760201D01*
X47074248Y-70657477D01*
X46836445Y-70508055D01*
X46836442Y-70508053D01*
X46583411Y-70386200D01*
X46318329Y-70293443D01*
X46318317Y-70293439D01*
X46044512Y-70230945D01*
X46044494Y-70230942D01*
X45765431Y-70199500D01*
X45765425Y-70199500D01*
X45484575Y-70199500D01*
X45484568Y-70199500D01*
X45205505Y-70230942D01*
X45205487Y-70230945D01*
X44931682Y-70293439D01*
X44931670Y-70293443D01*
X44666588Y-70386200D01*
X44413557Y-70508053D01*
X44175753Y-70657476D01*
X43956175Y-70832583D01*
X43757583Y-71031175D01*
X43582476Y-71250753D01*
X43433053Y-71488557D01*
X43311200Y-71741588D01*
X43218443Y-72006670D01*
X43218439Y-72006682D01*
X43155945Y-72280487D01*
X43155942Y-72280505D01*
X43124500Y-72559568D01*
X43124500Y-72840431D01*
X43155942Y-73119494D01*
X43155945Y-73119512D01*
X43218439Y-73393317D01*
X43218443Y-73393329D01*
X43311200Y-73658411D01*
X43433053Y-73911442D01*
X43433055Y-73911445D01*
X43582477Y-74149248D01*
X43641334Y-74223052D01*
X43734546Y-74339937D01*
X43757584Y-74368825D01*
X43956175Y-74567416D01*
X44175752Y-74742523D01*
X44413555Y-74891945D01*
X44666592Y-75013801D01*
X44862940Y-75082506D01*
X44931670Y-75106556D01*
X44931682Y-75106560D01*
X45205491Y-75169055D01*
X45205497Y-75169055D01*
X45205505Y-75169057D01*
X45391547Y-75190018D01*
X45484569Y-75200499D01*
X45484572Y-75200500D01*
X45484575Y-75200500D01*
X45765428Y-75200500D01*
X45765429Y-75200499D01*
X45910430Y-75184162D01*
X46044494Y-75169057D01*
X46044499Y-75169056D01*
X46044509Y-75169055D01*
X46318318Y-75106560D01*
X46583408Y-75013801D01*
X46836445Y-74891945D01*
X47074248Y-74742523D01*
X47293825Y-74567416D01*
X47487819Y-74373422D01*
X47549142Y-74339937D01*
X47618834Y-74344921D01*
X47674767Y-74386793D01*
X47699184Y-74452257D01*
X47699500Y-74461103D01*
X47699500Y-75400544D01*
X47737947Y-75593833D01*
X47737949Y-75593837D01*
X47748993Y-75620500D01*
X47760038Y-75647165D01*
X47778892Y-75692683D01*
X47813366Y-75775911D01*
X47813371Y-75775920D01*
X47922859Y-75939780D01*
X47922860Y-75939781D01*
X47922861Y-75939782D01*
X48062218Y-76079139D01*
X48062219Y-76079139D01*
X48069286Y-76086206D01*
X48069285Y-76086206D01*
X48069288Y-76086208D01*
X50120860Y-78137781D01*
X50120861Y-78137782D01*
X50260218Y-78277139D01*
X50424086Y-78386632D01*
X50530745Y-78430811D01*
X50606164Y-78462051D01*
X50799454Y-78500499D01*
X50799457Y-78500500D01*
X50799459Y-78500500D01*
X88988542Y-78500500D01*
X89019566Y-78494328D01*
X89085188Y-78481275D01*
X89181836Y-78462051D01*
X89235165Y-78439961D01*
X89363914Y-78386632D01*
X89527782Y-78277139D01*
X89667139Y-78137782D01*
X89667139Y-78137780D01*
X89677347Y-78127573D01*
X89677348Y-78127570D01*
X92196588Y-75608331D01*
X92257909Y-75574848D01*
X92264830Y-75573547D01*
X92296368Y-75568553D01*
X92520992Y-75495568D01*
X92731433Y-75388343D01*
X92922510Y-75249517D01*
X93089517Y-75082510D01*
X93114682Y-75047872D01*
X93170011Y-75005207D01*
X93239625Y-74999228D01*
X93301420Y-75031833D01*
X93315315Y-75047870D01*
X93340483Y-75082510D01*
X93507490Y-75249517D01*
X93698567Y-75388343D01*
X93797991Y-75439002D01*
X93909003Y-75495566D01*
X93909005Y-75495566D01*
X93909008Y-75495568D01*
X94029412Y-75534689D01*
X94133631Y-75568553D01*
X94366903Y-75605500D01*
X94366908Y-75605500D01*
X94603097Y-75605500D01*
X94836368Y-75568553D01*
X94837870Y-75568065D01*
X95060992Y-75495568D01*
X95271433Y-75388343D01*
X95462510Y-75249517D01*
X95629517Y-75082510D01*
X95654682Y-75047872D01*
X95710011Y-75005207D01*
X95779625Y-74999228D01*
X95841420Y-75031833D01*
X95855315Y-75047870D01*
X95880483Y-75082510D01*
X96047490Y-75249517D01*
X96238567Y-75388343D01*
X96337991Y-75439002D01*
X96449003Y-75495566D01*
X96449005Y-75495566D01*
X96449008Y-75495568D01*
X96569412Y-75534689D01*
X96673631Y-75568553D01*
X96906903Y-75605500D01*
X96906908Y-75605500D01*
X97143097Y-75605500D01*
X97376368Y-75568553D01*
X97377870Y-75568065D01*
X97600992Y-75495568D01*
X97811433Y-75388343D01*
X98002510Y-75249517D01*
X98169517Y-75082510D01*
X98216370Y-75018022D01*
X98220713Y-75013199D01*
X98245150Y-74998142D01*
X98267877Y-74980618D01*
X98275393Y-74979509D01*
X98280199Y-74976549D01*
X98293730Y-74976806D01*
X98322594Y-74972551D01*
X98342340Y-74974105D01*
X99082037Y-74234408D01*
X99099075Y-74297993D01*
X99164901Y-74412007D01*
X99257993Y-74505099D01*
X99372007Y-74570925D01*
X99435590Y-74587962D01*
X98695893Y-75327658D01*
X98778828Y-75387914D01*
X98989197Y-75495102D01*
X99213752Y-75568065D01*
X99213751Y-75568065D01*
X99446948Y-75605000D01*
X99683052Y-75605000D01*
X99916247Y-75568065D01*
X100140802Y-75495102D01*
X100351163Y-75387918D01*
X100351169Y-75387914D01*
X100434104Y-75327658D01*
X100434105Y-75327658D01*
X99694408Y-74587962D01*
X99757993Y-74570925D01*
X99872007Y-74505099D01*
X99965099Y-74412007D01*
X100030925Y-74297993D01*
X100047962Y-74234409D01*
X100787658Y-74974105D01*
X100787658Y-74974104D01*
X100847914Y-74891169D01*
X100847918Y-74891163D01*
X100955102Y-74680802D01*
X101028065Y-74456247D01*
X101065000Y-74223052D01*
X101065000Y-73986947D01*
X101028065Y-73753752D01*
X100955102Y-73529197D01*
X100847914Y-73318828D01*
X100787658Y-73235894D01*
X100787658Y-73235893D01*
X100047962Y-73975590D01*
X100030925Y-73912007D01*
X99965099Y-73797993D01*
X99872007Y-73704901D01*
X99757993Y-73639075D01*
X99694409Y-73622037D01*
X100434105Y-72882340D01*
X100432551Y-72862594D01*
X100446915Y-72794216D01*
X100483284Y-72752547D01*
X100542510Y-72709517D01*
X100709517Y-72542510D01*
X100848343Y-72351433D01*
X100955568Y-72140992D01*
X101028553Y-71916368D01*
X101056235Y-71741592D01*
X101065500Y-71683097D01*
X101065500Y-71679782D01*
X101065856Y-71678568D01*
X101065882Y-71678242D01*
X101065950Y-71678247D01*
X101085185Y-71612743D01*
X101137989Y-71566988D01*
X101207147Y-71557044D01*
X101270703Y-71586069D01*
X101277181Y-71592101D01*
X146463181Y-116778101D01*
X146496666Y-116839424D01*
X146499500Y-116865782D01*
X146499500Y-136098541D01*
X146499500Y-136098543D01*
X146499499Y-136098543D01*
X146537947Y-136291829D01*
X146537950Y-136291839D01*
X146613364Y-136473907D01*
X146613371Y-136473920D01*
X146722860Y-136637781D01*
X146722863Y-136637785D01*
X146866537Y-136781459D01*
X146866559Y-136781479D01*
X151463181Y-141378101D01*
X151496666Y-141439424D01*
X151499500Y-141465782D01*
X151499500Y-142583023D01*
X151479815Y-142650062D01*
X151427011Y-142695817D01*
X151399865Y-142703266D01*
X151400068Y-142704124D01*
X151392520Y-142705907D01*
X151257671Y-142756202D01*
X151257664Y-142756206D01*
X151142455Y-142842452D01*
X151142452Y-142842455D01*
X151056206Y-142957664D01*
X151056202Y-142957671D01*
X151005908Y-143092517D01*
X150999501Y-143152116D01*
X150999500Y-143152135D01*
X150999500Y-145247870D01*
X150999501Y-145247876D01*
X151005908Y-145307483D01*
X151056202Y-145442328D01*
X151056206Y-145442335D01*
X151142452Y-145557544D01*
X151142455Y-145557547D01*
X151257664Y-145643793D01*
X151257671Y-145643797D01*
X151392517Y-145694091D01*
X151392516Y-145694091D01*
X151399444Y-145694835D01*
X151452127Y-145700500D01*
X153547872Y-145700499D01*
X153607483Y-145694091D01*
X153742331Y-145643796D01*
X153857546Y-145557546D01*
X153943796Y-145442331D01*
X153943797Y-145442326D01*
X153948047Y-145434546D01*
X153951380Y-145436366D01*
X153982292Y-145394766D01*
X154047669Y-145370116D01*
X154115994Y-145384725D01*
X154129835Y-145393446D01*
X154253567Y-145483343D01*
X154352991Y-145534002D01*
X154464003Y-145590566D01*
X154464005Y-145590566D01*
X154464008Y-145590568D01*
X154584412Y-145629689D01*
X154688631Y-145663553D01*
X154921903Y-145700500D01*
X154921908Y-145700500D01*
X155158097Y-145700500D01*
X155391368Y-145663553D01*
X155392870Y-145663065D01*
X155615992Y-145590568D01*
X155826433Y-145483343D01*
X156017510Y-145344517D01*
X156184517Y-145177510D01*
X156231370Y-145113022D01*
X156235713Y-145108199D01*
X156260150Y-145093142D01*
X156282877Y-145075618D01*
X156290393Y-145074509D01*
X156295199Y-145071549D01*
X156308730Y-145071806D01*
X156337594Y-145067551D01*
X156357340Y-145069105D01*
X157097037Y-144329408D01*
X157114075Y-144392993D01*
X157179901Y-144507007D01*
X157272993Y-144600099D01*
X157387007Y-144665925D01*
X157450590Y-144682962D01*
X156710893Y-145422658D01*
X156793828Y-145482914D01*
X157004197Y-145590102D01*
X157228752Y-145663065D01*
X157228751Y-145663065D01*
X157461948Y-145700000D01*
X157698052Y-145700000D01*
X157931247Y-145663065D01*
X158155802Y-145590102D01*
X158366163Y-145482918D01*
X158366169Y-145482914D01*
X158449104Y-145422658D01*
X158449105Y-145422658D01*
X157709408Y-144682962D01*
X157772993Y-144665925D01*
X157887007Y-144600099D01*
X157980099Y-144507007D01*
X158045925Y-144392993D01*
X158062962Y-144329409D01*
X158802658Y-145069105D01*
X158802658Y-145069104D01*
X158862914Y-144986169D01*
X158862918Y-144986163D01*
X158970102Y-144775802D01*
X159043065Y-144551247D01*
X159080000Y-144318052D01*
X159080000Y-144081947D01*
X159043065Y-143848752D01*
X158970102Y-143624197D01*
X158862914Y-143413828D01*
X158802658Y-143330894D01*
X158802658Y-143330893D01*
X158062962Y-144070590D01*
X158045925Y-144007007D01*
X157980099Y-143892993D01*
X157887007Y-143799901D01*
X157772993Y-143734075D01*
X157709409Y-143717037D01*
X158449105Y-142977340D01*
X158449104Y-142977338D01*
X158366174Y-142917087D01*
X158155802Y-142809897D01*
X157931247Y-142736934D01*
X157931248Y-142736934D01*
X157698052Y-142700000D01*
X157461948Y-142700000D01*
X157228752Y-142736934D01*
X157004197Y-142809897D01*
X156793830Y-142917084D01*
X156710894Y-142977340D01*
X157450591Y-143717037D01*
X157387007Y-143734075D01*
X157272993Y-143799901D01*
X157179901Y-143892993D01*
X157114075Y-144007007D01*
X157097037Y-144070590D01*
X156357340Y-143330893D01*
X156337593Y-143332448D01*
X156333812Y-143331653D01*
X156330128Y-143332809D01*
X156299901Y-143324530D01*
X156269215Y-143318084D01*
X156265384Y-143315076D01*
X156262740Y-143314352D01*
X156253234Y-143305536D01*
X156235649Y-143291730D01*
X156231342Y-143286939D01*
X156184517Y-143222490D01*
X156074483Y-143112456D01*
X156072285Y-143110011D01*
X156061415Y-143087314D01*
X156051706Y-143076110D01*
X156049063Y-143063960D01*
X156043334Y-143053469D01*
X156042792Y-143048431D01*
X156042105Y-143046996D01*
X156042391Y-143044705D01*
X156040500Y-143027111D01*
X156040500Y-142452486D01*
X204749500Y-142452486D01*
X204749500Y-142747513D01*
X204771826Y-142917087D01*
X204788007Y-143039993D01*
X204859159Y-143305536D01*
X204864361Y-143324951D01*
X204864364Y-143324961D01*
X204977254Y-143597500D01*
X204977258Y-143597510D01*
X205124761Y-143852993D01*
X205304352Y-144087040D01*
X205304358Y-144087047D01*
X205512952Y-144295641D01*
X205512959Y-144295647D01*
X205747006Y-144475238D01*
X206002489Y-144622741D01*
X206002490Y-144622741D01*
X206002493Y-144622743D01*
X206275048Y-144735639D01*
X206560007Y-144811993D01*
X206852494Y-144850500D01*
X206852501Y-144850500D01*
X207147499Y-144850500D01*
X207147506Y-144850500D01*
X207439993Y-144811993D01*
X207724952Y-144735639D01*
X207997507Y-144622743D01*
X208252994Y-144475238D01*
X208487042Y-144295646D01*
X208695646Y-144087042D01*
X208875238Y-143852994D01*
X209022743Y-143597507D01*
X209135639Y-143324952D01*
X209211993Y-143039993D01*
X209250500Y-142747506D01*
X209250500Y-142452494D01*
X209211993Y-142160007D01*
X209135639Y-141875048D01*
X209022743Y-141602493D01*
X208875238Y-141347006D01*
X208771296Y-141211547D01*
X208695647Y-141112959D01*
X208695641Y-141112952D01*
X208487047Y-140904358D01*
X208487040Y-140904352D01*
X208252993Y-140724761D01*
X207997510Y-140577258D01*
X207997500Y-140577254D01*
X207724961Y-140464364D01*
X207724954Y-140464362D01*
X207724952Y-140464361D01*
X207439993Y-140388007D01*
X207391113Y-140381571D01*
X207147513Y-140349500D01*
X207147506Y-140349500D01*
X206852494Y-140349500D01*
X206852486Y-140349500D01*
X206574085Y-140386153D01*
X206560007Y-140388007D01*
X206333074Y-140448813D01*
X206275048Y-140464361D01*
X206275038Y-140464364D01*
X206002499Y-140577254D01*
X206002489Y-140577258D01*
X205747006Y-140724761D01*
X205512959Y-140904352D01*
X205512952Y-140904358D01*
X205304358Y-141112952D01*
X205304352Y-141112959D01*
X205124761Y-141347006D01*
X204977258Y-141602489D01*
X204977254Y-141602499D01*
X204864364Y-141875038D01*
X204864361Y-141875048D01*
X204788008Y-142160004D01*
X204788006Y-142160015D01*
X204749500Y-142452486D01*
X156040500Y-142452486D01*
X156040500Y-141374645D01*
X156060185Y-141307606D01*
X156112989Y-141261851D01*
X156182147Y-141251907D01*
X156203507Y-141256940D01*
X156227393Y-141264856D01*
X156326683Y-141274999D01*
X156850000Y-141274999D01*
X156873308Y-141274999D01*
X156873322Y-141274998D01*
X156972607Y-141264855D01*
X157133481Y-141211547D01*
X157133492Y-141211542D01*
X157277728Y-141122575D01*
X157277732Y-141122572D01*
X157397572Y-141002732D01*
X157397575Y-141002728D01*
X157486542Y-140858492D01*
X157486547Y-140858481D01*
X157539855Y-140697606D01*
X157549999Y-140598322D01*
X157550000Y-140598309D01*
X157550000Y-140550000D01*
X156850000Y-140550000D01*
X156850000Y-141274999D01*
X156326683Y-141274999D01*
X156350000Y-141274998D01*
X156350000Y-140050000D01*
X156850000Y-140050000D01*
X157549999Y-140050000D01*
X157549999Y-140001692D01*
X157549998Y-140001677D01*
X157539855Y-139902392D01*
X157486547Y-139741518D01*
X157486542Y-139741507D01*
X157397575Y-139597271D01*
X157397572Y-139597267D01*
X157277732Y-139477427D01*
X157277728Y-139477424D01*
X157133492Y-139388457D01*
X157133481Y-139388452D01*
X156972606Y-139335144D01*
X156873322Y-139325000D01*
X156850000Y-139325000D01*
X156850000Y-140050000D01*
X156350000Y-140050000D01*
X156350000Y-139324999D01*
X156326693Y-139325000D01*
X156326674Y-139325001D01*
X156227392Y-139335144D01*
X156066518Y-139388452D01*
X156066507Y-139388457D01*
X155922271Y-139477424D01*
X155922265Y-139477428D01*
X155913031Y-139486663D01*
X155851707Y-139520146D01*
X155782015Y-139515159D01*
X155737672Y-139486660D01*
X155728043Y-139477031D01*
X155583702Y-139387999D01*
X155583693Y-139387995D01*
X155565556Y-139381985D01*
X155516882Y-139351961D01*
X150536819Y-134371898D01*
X150503334Y-134310575D01*
X150500500Y-134284217D01*
X150500500Y-132379775D01*
X158352700Y-132379775D01*
X158352700Y-132661824D01*
X158389512Y-132941434D01*
X158462510Y-133213865D01*
X158570436Y-133474422D01*
X158570441Y-133474433D01*
X158711450Y-133718666D01*
X158711461Y-133718682D01*
X158883144Y-133942424D01*
X158883150Y-133942431D01*
X159082568Y-134141849D01*
X159082574Y-134141854D01*
X159306326Y-134313545D01*
X159306333Y-134313549D01*
X159550566Y-134454558D01*
X159550571Y-134454560D01*
X159550574Y-134454562D01*
X159811139Y-134562491D01*
X160083563Y-134635487D01*
X160363183Y-134672300D01*
X160363190Y-134672300D01*
X160645210Y-134672300D01*
X160645217Y-134672300D01*
X160924837Y-134635487D01*
X161197261Y-134562491D01*
X161457826Y-134454562D01*
X161702074Y-134313545D01*
X161925826Y-134141854D01*
X162125254Y-133942426D01*
X162296945Y-133718674D01*
X162437962Y-133474426D01*
X162545891Y-133213861D01*
X162618887Y-132941437D01*
X162655700Y-132661817D01*
X162655700Y-132379783D01*
X162655699Y-132379775D01*
X185022700Y-132379775D01*
X185022700Y-132661824D01*
X185059512Y-132941434D01*
X185132510Y-133213865D01*
X185240436Y-133474422D01*
X185240441Y-133474433D01*
X185381450Y-133718666D01*
X185381461Y-133718682D01*
X185553144Y-133942424D01*
X185553150Y-133942431D01*
X185752568Y-134141849D01*
X185752574Y-134141854D01*
X185976326Y-134313545D01*
X185976333Y-134313549D01*
X186220566Y-134454558D01*
X186220571Y-134454560D01*
X186220574Y-134454562D01*
X186481139Y-134562491D01*
X186753563Y-134635487D01*
X187033183Y-134672300D01*
X187033190Y-134672300D01*
X187315210Y-134672300D01*
X187315217Y-134672300D01*
X187594837Y-134635487D01*
X187867261Y-134562491D01*
X188127826Y-134454562D01*
X188372074Y-134313545D01*
X188595826Y-134141854D01*
X188795254Y-133942426D01*
X188966945Y-133718674D01*
X189107962Y-133474426D01*
X189215891Y-133213861D01*
X189288887Y-132941437D01*
X189325700Y-132661817D01*
X189325700Y-132379783D01*
X189288887Y-132100163D01*
X189215891Y-131827739D01*
X189107962Y-131567174D01*
X189107960Y-131567171D01*
X189107958Y-131567166D01*
X188966949Y-131322933D01*
X188966945Y-131322926D01*
X188795254Y-131099174D01*
X188795249Y-131099168D01*
X188595831Y-130899750D01*
X188595824Y-130899744D01*
X188372082Y-130728061D01*
X188372080Y-130728059D01*
X188372074Y-130728055D01*
X188372069Y-130728052D01*
X188372066Y-130728050D01*
X188127833Y-130587041D01*
X188127822Y-130587036D01*
X187867265Y-130479110D01*
X187594834Y-130406112D01*
X187315224Y-130369300D01*
X187315217Y-130369300D01*
X187033183Y-130369300D01*
X187033175Y-130369300D01*
X186753565Y-130406112D01*
X186481134Y-130479110D01*
X186220577Y-130587036D01*
X186220566Y-130587041D01*
X185976333Y-130728050D01*
X185976317Y-130728061D01*
X185752575Y-130899744D01*
X185752568Y-130899750D01*
X185553150Y-131099168D01*
X185553144Y-131099175D01*
X185381461Y-131322917D01*
X185381450Y-131322933D01*
X185240441Y-131567166D01*
X185240436Y-131567177D01*
X185132510Y-131827734D01*
X185059512Y-132100165D01*
X185022700Y-132379775D01*
X162655699Y-132379775D01*
X162618887Y-132100163D01*
X162545891Y-131827739D01*
X162437962Y-131567174D01*
X162437960Y-131567171D01*
X162437958Y-131567166D01*
X162296949Y-131322933D01*
X162296945Y-131322926D01*
X162125254Y-131099174D01*
X162125249Y-131099168D01*
X161925831Y-130899750D01*
X161925824Y-130899744D01*
X161702082Y-130728061D01*
X161702080Y-130728059D01*
X161702074Y-130728055D01*
X161702069Y-130728052D01*
X161702066Y-130728050D01*
X161457833Y-130587041D01*
X161457822Y-130587036D01*
X161197265Y-130479110D01*
X160924834Y-130406112D01*
X160645224Y-130369300D01*
X160645217Y-130369300D01*
X160363183Y-130369300D01*
X160363175Y-130369300D01*
X160083565Y-130406112D01*
X159811134Y-130479110D01*
X159550577Y-130587036D01*
X159550566Y-130587041D01*
X159306333Y-130728050D01*
X159306317Y-130728061D01*
X159082575Y-130899744D01*
X159082568Y-130899750D01*
X158883150Y-131099168D01*
X158883144Y-131099175D01*
X158711461Y-131322917D01*
X158711450Y-131322933D01*
X158570441Y-131567166D01*
X158570436Y-131567177D01*
X158462510Y-131827734D01*
X158389512Y-132100165D01*
X158352700Y-132379775D01*
X150500500Y-132379775D01*
X150500500Y-129952486D01*
X204749500Y-129952486D01*
X204749500Y-130247513D01*
X204781571Y-130491113D01*
X204788007Y-130539993D01*
X204864361Y-130824951D01*
X204864364Y-130824961D01*
X204977254Y-131097500D01*
X204977258Y-131097510D01*
X205124761Y-131352993D01*
X205304352Y-131587040D01*
X205304358Y-131587047D01*
X205512952Y-131795641D01*
X205512959Y-131795647D01*
X205747006Y-131975238D01*
X206002489Y-132122741D01*
X206002490Y-132122741D01*
X206002493Y-132122743D01*
X206275048Y-132235639D01*
X206560007Y-132311993D01*
X206852494Y-132350500D01*
X206852501Y-132350500D01*
X207147499Y-132350500D01*
X207147506Y-132350500D01*
X207439993Y-132311993D01*
X207724952Y-132235639D01*
X207997507Y-132122743D01*
X208252994Y-131975238D01*
X208487042Y-131795646D01*
X208695646Y-131587042D01*
X208875238Y-131352994D01*
X209022743Y-131097507D01*
X209135639Y-130824952D01*
X209211993Y-130539993D01*
X209250500Y-130247506D01*
X209250500Y-129952494D01*
X209211993Y-129660007D01*
X209135639Y-129375048D01*
X209022743Y-129102493D01*
X208875238Y-128847006D01*
X208741982Y-128673344D01*
X208695647Y-128612959D01*
X208695641Y-128612952D01*
X208487047Y-128404358D01*
X208487040Y-128404352D01*
X208252993Y-128224761D01*
X207997510Y-128077258D01*
X207997500Y-128077254D01*
X207724961Y-127964364D01*
X207724954Y-127964362D01*
X207724952Y-127964361D01*
X207439993Y-127888007D01*
X207391113Y-127881571D01*
X207147513Y-127849500D01*
X207147506Y-127849500D01*
X206852494Y-127849500D01*
X206852486Y-127849500D01*
X206574085Y-127886153D01*
X206560007Y-127888007D01*
X206301318Y-127957322D01*
X206275048Y-127964361D01*
X206275038Y-127964364D01*
X206002499Y-128077254D01*
X206002489Y-128077258D01*
X205747006Y-128224761D01*
X205512959Y-128404352D01*
X205512952Y-128404358D01*
X205304358Y-128612952D01*
X205304352Y-128612959D01*
X205124761Y-128847006D01*
X204977258Y-129102489D01*
X204977254Y-129102499D01*
X204864364Y-129375038D01*
X204864361Y-129375048D01*
X204788008Y-129660004D01*
X204788006Y-129660015D01*
X204749500Y-129952486D01*
X150500500Y-129952486D01*
X150500500Y-126985258D01*
X154449500Y-126985258D01*
X154449500Y-127214741D01*
X154467374Y-127350499D01*
X154479452Y-127442238D01*
X154479453Y-127442240D01*
X154538842Y-127663887D01*
X154626650Y-127875876D01*
X154626657Y-127875890D01*
X154741392Y-128074617D01*
X154881081Y-128256661D01*
X154881089Y-128256670D01*
X155043330Y-128418911D01*
X155043338Y-128418918D01*
X155225382Y-128558607D01*
X155225385Y-128558608D01*
X155225388Y-128558611D01*
X155424112Y-128673344D01*
X155424117Y-128673346D01*
X155424123Y-128673349D01*
X155515480Y-128711190D01*
X155636113Y-128761158D01*
X155857762Y-128820548D01*
X156085266Y-128850500D01*
X156085273Y-128850500D01*
X156314727Y-128850500D01*
X156314734Y-128850500D01*
X156542238Y-128820548D01*
X156763887Y-128761158D01*
X156975888Y-128673344D01*
X157174612Y-128558611D01*
X157356661Y-128418919D01*
X157356665Y-128418914D01*
X157356670Y-128418911D01*
X157518911Y-128256670D01*
X157518914Y-128256665D01*
X157518919Y-128256661D01*
X157658611Y-128074612D01*
X157773344Y-127875888D01*
X157861158Y-127663887D01*
X157920548Y-127442238D01*
X157950500Y-127214734D01*
X157950500Y-126985266D01*
X157920548Y-126757762D01*
X157861158Y-126536113D01*
X157806633Y-126404479D01*
X157773349Y-126324123D01*
X157773346Y-126324117D01*
X157773344Y-126324112D01*
X157658611Y-126125388D01*
X157658608Y-126125385D01*
X157658607Y-126125382D01*
X157518918Y-125943338D01*
X157518911Y-125943330D01*
X157356670Y-125781089D01*
X157356661Y-125781081D01*
X157174617Y-125641392D01*
X156975890Y-125526657D01*
X156975876Y-125526650D01*
X156763887Y-125438842D01*
X156542238Y-125379452D01*
X156504215Y-125374446D01*
X156314741Y-125349500D01*
X156314734Y-125349500D01*
X156085266Y-125349500D01*
X156085258Y-125349500D01*
X155868715Y-125378009D01*
X155857762Y-125379452D01*
X155764076Y-125404554D01*
X155636112Y-125438842D01*
X155424123Y-125526650D01*
X155424109Y-125526657D01*
X155225382Y-125641392D01*
X155043338Y-125781081D01*
X154881081Y-125943338D01*
X154741392Y-126125382D01*
X154626657Y-126324109D01*
X154626650Y-126324123D01*
X154538842Y-126536112D01*
X154479453Y-126757759D01*
X154479451Y-126757770D01*
X154449500Y-126985258D01*
X150500500Y-126985258D01*
X150500500Y-121956344D01*
X150520185Y-121889305D01*
X150572989Y-121843550D01*
X150642147Y-121833606D01*
X150705703Y-121862631D01*
X150722875Y-121880857D01*
X150738715Y-121901500D01*
X150804352Y-121987040D01*
X150804358Y-121987047D01*
X151012952Y-122195641D01*
X151012959Y-122195647D01*
X151247006Y-122375238D01*
X151502489Y-122522741D01*
X151502490Y-122522741D01*
X151502493Y-122522743D01*
X151775048Y-122635639D01*
X152060007Y-122711993D01*
X152352494Y-122750500D01*
X152352501Y-122750500D01*
X152647499Y-122750500D01*
X152647506Y-122750500D01*
X152939993Y-122711993D01*
X153224952Y-122635639D01*
X153497507Y-122522743D01*
X153752994Y-122375238D01*
X153987042Y-122195646D01*
X154195646Y-121987042D01*
X154375238Y-121752994D01*
X154522743Y-121497507D01*
X154635639Y-121224952D01*
X154711993Y-120939993D01*
X154750500Y-120647506D01*
X154750500Y-120352494D01*
X154711993Y-120060007D01*
X154635639Y-119775048D01*
X154522743Y-119502493D01*
X154455601Y-119386200D01*
X154375238Y-119247006D01*
X154195647Y-119012959D01*
X154195641Y-119012952D01*
X153987047Y-118804358D01*
X153987040Y-118804352D01*
X153752993Y-118624761D01*
X153497510Y-118477258D01*
X153497500Y-118477254D01*
X153224961Y-118364364D01*
X153224954Y-118364362D01*
X153224952Y-118364361D01*
X152939993Y-118288007D01*
X152891113Y-118281571D01*
X152647513Y-118249500D01*
X152647506Y-118249500D01*
X152352494Y-118249500D01*
X152352486Y-118249500D01*
X152074085Y-118286153D01*
X152060007Y-118288007D01*
X151775048Y-118364361D01*
X151775038Y-118364364D01*
X151502499Y-118477254D01*
X151502489Y-118477258D01*
X151247006Y-118624761D01*
X151012959Y-118804352D01*
X151012952Y-118804358D01*
X150804358Y-119012952D01*
X150722876Y-119119142D01*
X150666448Y-119160344D01*
X150596702Y-119164499D01*
X150535781Y-119130286D01*
X150503029Y-119068569D01*
X150500500Y-119043655D01*
X150500500Y-114965781D01*
X150520185Y-114898742D01*
X150536814Y-114878105D01*
X152637778Y-112777141D01*
X152637782Y-112777139D01*
X152777139Y-112637782D01*
X152886632Y-112473914D01*
X152962051Y-112291835D01*
X152998227Y-112109970D01*
X153000500Y-112098543D01*
X153000500Y-103169775D01*
X158352700Y-103169775D01*
X158352700Y-103451824D01*
X158389512Y-103731434D01*
X158462510Y-104003865D01*
X158570436Y-104264422D01*
X158570441Y-104264433D01*
X158711450Y-104508666D01*
X158711461Y-104508682D01*
X158883144Y-104732424D01*
X158883150Y-104732431D01*
X159082568Y-104931849D01*
X159082574Y-104931854D01*
X159306326Y-105103545D01*
X159306333Y-105103549D01*
X159550566Y-105244558D01*
X159550571Y-105244560D01*
X159550574Y-105244562D01*
X159811139Y-105352491D01*
X160083563Y-105425487D01*
X160363183Y-105462300D01*
X160363190Y-105462300D01*
X160645210Y-105462300D01*
X160645217Y-105462300D01*
X160924837Y-105425487D01*
X161197261Y-105352491D01*
X161457826Y-105244562D01*
X161702074Y-105103545D01*
X161925826Y-104931854D01*
X162125254Y-104732426D01*
X162296945Y-104508674D01*
X162437962Y-104264426D01*
X162545891Y-104003861D01*
X162618887Y-103731437D01*
X162655700Y-103451817D01*
X162655700Y-103169783D01*
X162618887Y-102890163D01*
X162545891Y-102617739D01*
X162437962Y-102357174D01*
X162437960Y-102357171D01*
X162437958Y-102357166D01*
X162296949Y-102112933D01*
X162296945Y-102112926D01*
X162296941Y-102112921D01*
X162296938Y-102112916D01*
X162268015Y-102075223D01*
X162125255Y-101889175D01*
X162125249Y-101889168D01*
X161925831Y-101689750D01*
X161925824Y-101689744D01*
X161903011Y-101672239D01*
X161702082Y-101518061D01*
X161702080Y-101518059D01*
X161702074Y-101518055D01*
X161702069Y-101518052D01*
X161702066Y-101518050D01*
X161457833Y-101377041D01*
X161457822Y-101377036D01*
X161197265Y-101269110D01*
X160924834Y-101196112D01*
X160645224Y-101159300D01*
X160645217Y-101159300D01*
X160363183Y-101159300D01*
X160363175Y-101159300D01*
X160083565Y-101196112D01*
X159811134Y-101269110D01*
X159550577Y-101377036D01*
X159550566Y-101377041D01*
X159306333Y-101518050D01*
X159306317Y-101518061D01*
X159082575Y-101689744D01*
X159082568Y-101689750D01*
X158883150Y-101889168D01*
X158883144Y-101889175D01*
X158711461Y-102112917D01*
X158711450Y-102112933D01*
X158570441Y-102357166D01*
X158570436Y-102357177D01*
X158462510Y-102617734D01*
X158389512Y-102890165D01*
X158352700Y-103169775D01*
X153000500Y-103169775D01*
X153000500Y-100651458D01*
X153000499Y-100651457D01*
X152970920Y-100502750D01*
X152970920Y-100502747D01*
X152962053Y-100458172D01*
X152962052Y-100458165D01*
X152886632Y-100276086D01*
X152886631Y-100276085D01*
X152886628Y-100276079D01*
X152777140Y-100112219D01*
X152777137Y-100112215D01*
X152361819Y-99696897D01*
X152347115Y-99669969D01*
X152330523Y-99644151D01*
X152329631Y-99637950D01*
X152328334Y-99635574D01*
X152325500Y-99609216D01*
X152325500Y-99477959D01*
X152345185Y-99410920D01*
X152397989Y-99365165D01*
X152467147Y-99355221D01*
X152488507Y-99360254D01*
X152502393Y-99364856D01*
X152601683Y-99374999D01*
X153125000Y-99374999D01*
X153148308Y-99374999D01*
X153148322Y-99374998D01*
X153247607Y-99364855D01*
X153408481Y-99311547D01*
X153408492Y-99311542D01*
X153552728Y-99222575D01*
X153552732Y-99222572D01*
X153672572Y-99102732D01*
X153672575Y-99102728D01*
X153761542Y-98958492D01*
X153761547Y-98958481D01*
X153814855Y-98797606D01*
X153824999Y-98698322D01*
X153825000Y-98698309D01*
X153825000Y-98650000D01*
X153125000Y-98650000D01*
X153125000Y-99374999D01*
X152601683Y-99374999D01*
X152625000Y-99374998D01*
X152625000Y-98150000D01*
X153125000Y-98150000D01*
X153824999Y-98150000D01*
X153824999Y-98101692D01*
X153824998Y-98101677D01*
X153814855Y-98002392D01*
X153761547Y-97841518D01*
X153761542Y-97841507D01*
X153672575Y-97697271D01*
X153672572Y-97697267D01*
X153552732Y-97577427D01*
X153552728Y-97577424D01*
X153408492Y-97488457D01*
X153408481Y-97488452D01*
X153247606Y-97435144D01*
X153148322Y-97425000D01*
X153125000Y-97425000D01*
X153125000Y-98150000D01*
X152625000Y-98150000D01*
X152625000Y-97424999D01*
X152601693Y-97425000D01*
X152601674Y-97425001D01*
X152502393Y-97435144D01*
X152488502Y-97439747D01*
X152460038Y-97440725D01*
X152431853Y-97444778D01*
X152425572Y-97441909D01*
X152418673Y-97442147D01*
X152394203Y-97427583D01*
X152368297Y-97415753D01*
X152364564Y-97409944D01*
X152358632Y-97406414D01*
X152345920Y-97380933D01*
X152330523Y-97356975D01*
X152329128Y-97347275D01*
X152327441Y-97343893D01*
X152325500Y-97322040D01*
X152325500Y-97177959D01*
X152345185Y-97110920D01*
X152397989Y-97065165D01*
X152467147Y-97055221D01*
X152488507Y-97060254D01*
X152502393Y-97064856D01*
X152601683Y-97074999D01*
X153125000Y-97074999D01*
X153148308Y-97074999D01*
X153148322Y-97074998D01*
X153247607Y-97064855D01*
X153408481Y-97011547D01*
X153408492Y-97011542D01*
X153552728Y-96922575D01*
X153552732Y-96922572D01*
X153672572Y-96802732D01*
X153672575Y-96802728D01*
X153761542Y-96658492D01*
X153761547Y-96658481D01*
X153814855Y-96497606D01*
X153824999Y-96398322D01*
X153825000Y-96398309D01*
X153825000Y-96350000D01*
X153125000Y-96350000D01*
X153125000Y-97074999D01*
X152601683Y-97074999D01*
X152625000Y-97074998D01*
X152625000Y-96224000D01*
X152644685Y-96156961D01*
X152697489Y-96111206D01*
X152749000Y-96100000D01*
X152875000Y-96100000D01*
X152875000Y-95974000D01*
X152894685Y-95906961D01*
X152947489Y-95861206D01*
X152999000Y-95850000D01*
X153824999Y-95850000D01*
X153824999Y-95801692D01*
X153824998Y-95801677D01*
X153815290Y-95706646D01*
X153815290Y-95706641D01*
X153814856Y-95702393D01*
X153761547Y-95541518D01*
X153761542Y-95541507D01*
X153672575Y-95397271D01*
X153672572Y-95397267D01*
X153552732Y-95277427D01*
X153552728Y-95277424D01*
X153408492Y-95188457D01*
X153408481Y-95188452D01*
X153342852Y-95166705D01*
X153285407Y-95126932D01*
X153258584Y-95062416D01*
X153270899Y-94993641D01*
X153318442Y-94942441D01*
X153381856Y-94924999D01*
X153524971Y-94924999D01*
X153524987Y-94924998D01*
X153627697Y-94914505D01*
X153794119Y-94859358D01*
X153794124Y-94859356D01*
X153943345Y-94767315D01*
X154067315Y-94643345D01*
X154159356Y-94494124D01*
X154159358Y-94494119D01*
X154214505Y-94327697D01*
X154214506Y-94327690D01*
X154220951Y-94264616D01*
X160200000Y-94264616D01*
X160200000Y-94487465D01*
X160229085Y-94708395D01*
X160229088Y-94708408D01*
X160286763Y-94923659D01*
X160372045Y-95129543D01*
X160372054Y-95129561D01*
X160483464Y-95322532D01*
X160483473Y-95322545D01*
X160534040Y-95388444D01*
X160534043Y-95388444D01*
X161335387Y-94587100D01*
X161340889Y-94607632D01*
X161419881Y-94744449D01*
X161531592Y-94856160D01*
X161668409Y-94935152D01*
X161688940Y-94940653D01*
X160887595Y-95741996D01*
X160887595Y-95741997D01*
X160953507Y-95792574D01*
X161146485Y-95903990D01*
X161146497Y-95903995D01*
X161352381Y-95989277D01*
X161567632Y-96046952D01*
X161567645Y-96046955D01*
X161788575Y-96076041D01*
X162011425Y-96076041D01*
X162232354Y-96046955D01*
X162232367Y-96046952D01*
X162447618Y-95989277D01*
X162653502Y-95903995D01*
X162653514Y-95903990D01*
X162846498Y-95792571D01*
X162912403Y-95741998D01*
X162912404Y-95741997D01*
X162111059Y-94940653D01*
X162131591Y-94935152D01*
X162268408Y-94856160D01*
X162380119Y-94744449D01*
X162459111Y-94607632D01*
X162464612Y-94587100D01*
X163265956Y-95388445D01*
X163265957Y-95388444D01*
X163316530Y-95322539D01*
X163427949Y-95129555D01*
X163427954Y-95129543D01*
X163513236Y-94923659D01*
X163570911Y-94708408D01*
X163570914Y-94708395D01*
X163600000Y-94487465D01*
X163600000Y-94264616D01*
X163570914Y-94043686D01*
X163570911Y-94043673D01*
X163513236Y-93828422D01*
X163427954Y-93622538D01*
X163427949Y-93622526D01*
X163316533Y-93429548D01*
X163265956Y-93363636D01*
X163265955Y-93363636D01*
X162464612Y-94164980D01*
X162459111Y-94144450D01*
X162380119Y-94007633D01*
X162268408Y-93895922D01*
X162131591Y-93816930D01*
X162111058Y-93811428D01*
X162653615Y-93268872D01*
X169399500Y-93268872D01*
X169399500Y-93531127D01*
X169426123Y-93733339D01*
X169433730Y-93791116D01*
X169501402Y-94043673D01*
X169501602Y-94044418D01*
X169501605Y-94044428D01*
X169601953Y-94286690D01*
X169601958Y-94286700D01*
X169733075Y-94513803D01*
X169892718Y-94721851D01*
X169892726Y-94721860D01*
X170078140Y-94907274D01*
X170078148Y-94907281D01*
X170078149Y-94907282D01*
X170114470Y-94935152D01*
X170286196Y-95066924D01*
X170513299Y-95198041D01*
X170513309Y-95198046D01*
X170755571Y-95298394D01*
X170755581Y-95298398D01*
X171008884Y-95366270D01*
X171238196Y-95396460D01*
X171302092Y-95424727D01*
X171309691Y-95431718D01*
X173572381Y-97694408D01*
X173605866Y-97755731D01*
X173608700Y-97782089D01*
X173608700Y-100518986D01*
X173589015Y-100586025D01*
X173536211Y-100631780D01*
X173467053Y-100641724D01*
X173411815Y-100619304D01*
X173323823Y-100555375D01*
X173121888Y-100452483D01*
X172906356Y-100382453D01*
X172819200Y-100368648D01*
X172819200Y-101344548D01*
X172765281Y-101313419D01*
X172636080Y-101278800D01*
X172502320Y-101278800D01*
X172373119Y-101313419D01*
X172319200Y-101344548D01*
X172319200Y-100368648D01*
X172232044Y-100382453D01*
X172232041Y-100382453D01*
X172016511Y-100452483D01*
X171814576Y-100555375D01*
X171631239Y-100688576D01*
X171631234Y-100688580D01*
X171470980Y-100848834D01*
X171470976Y-100848839D01*
X171337775Y-101032176D01*
X171234883Y-101234111D01*
X171164853Y-101449641D01*
X171164853Y-101449644D01*
X171151049Y-101536800D01*
X172126949Y-101536800D01*
X172095819Y-101590719D01*
X172061200Y-101719920D01*
X172061200Y-101853680D01*
X172095819Y-101982881D01*
X172126949Y-102036800D01*
X171151049Y-102036800D01*
X171164853Y-102123955D01*
X171164853Y-102123958D01*
X171234883Y-102339488D01*
X171337775Y-102541423D01*
X171470976Y-102724760D01*
X171470980Y-102724765D01*
X171631234Y-102885019D01*
X171631239Y-102885023D01*
X171814576Y-103018224D01*
X172016511Y-103121116D01*
X172232038Y-103191144D01*
X172319200Y-103204949D01*
X172319200Y-102229051D01*
X172373119Y-102260181D01*
X172502320Y-102294800D01*
X172636080Y-102294800D01*
X172765281Y-102260181D01*
X172819200Y-102229051D01*
X172819200Y-103204948D01*
X172906361Y-103191144D01*
X173121888Y-103121116D01*
X173323823Y-103018224D01*
X173507160Y-102885023D01*
X173507165Y-102885019D01*
X173667421Y-102724763D01*
X173701366Y-102678041D01*
X173756695Y-102635375D01*
X173826308Y-102629394D01*
X173888104Y-102661999D01*
X173902003Y-102678039D01*
X173932181Y-102719575D01*
X173964683Y-102764310D01*
X174131690Y-102931317D01*
X174322767Y-103070143D01*
X174377620Y-103098092D01*
X174533203Y-103177366D01*
X174533205Y-103177366D01*
X174533208Y-103177368D01*
X174653612Y-103216489D01*
X174757831Y-103250353D01*
X174991103Y-103287300D01*
X174991108Y-103287300D01*
X175227297Y-103287300D01*
X175460568Y-103250353D01*
X175685192Y-103177368D01*
X175895633Y-103070143D01*
X175908793Y-103060582D01*
X180499500Y-103060582D01*
X180499500Y-116218097D01*
X180536446Y-116451368D01*
X180609433Y-116675996D01*
X180679964Y-116814420D01*
X180716657Y-116886434D01*
X180855483Y-117077510D01*
X185323490Y-121545518D01*
X185472795Y-121653994D01*
X185514567Y-121684343D01*
X185613991Y-121735002D01*
X185725003Y-121791566D01*
X185725005Y-121791566D01*
X185725008Y-121791568D01*
X185845412Y-121830689D01*
X185949631Y-121864553D01*
X186182903Y-121901500D01*
X186182908Y-121901500D01*
X186182909Y-121901500D01*
X186419092Y-121901500D01*
X188266450Y-121901500D01*
X188333489Y-121921185D01*
X188354126Y-121937814D01*
X188512953Y-122096641D01*
X188512960Y-122096648D01*
X188747006Y-122276238D01*
X189002489Y-122423741D01*
X189002490Y-122423741D01*
X189002493Y-122423743D01*
X189275048Y-122536639D01*
X189560007Y-122612993D01*
X189670661Y-122627561D01*
X189734557Y-122655828D01*
X189773028Y-122714152D01*
X189773859Y-122784017D01*
X189736787Y-122843240D01*
X189673581Y-122873019D01*
X189670661Y-122873438D01*
X189560007Y-122888007D01*
X189472546Y-122911442D01*
X189275048Y-122964361D01*
X189275038Y-122964364D01*
X189002499Y-123077254D01*
X189002489Y-123077258D01*
X188747006Y-123224761D01*
X188512959Y-123404352D01*
X188512952Y-123404358D01*
X188304358Y-123612952D01*
X188304352Y-123612959D01*
X188124761Y-123847006D01*
X187977258Y-124102489D01*
X187977254Y-124102499D01*
X187864364Y-124375038D01*
X187864361Y-124375048D01*
X187788008Y-124660004D01*
X187788006Y-124660015D01*
X187749500Y-124952486D01*
X187749500Y-125247513D01*
X187766871Y-125379451D01*
X187788007Y-125539993D01*
X187852606Y-125781081D01*
X187864361Y-125824951D01*
X187864364Y-125824961D01*
X187977254Y-126097500D01*
X187977258Y-126097510D01*
X188124761Y-126352993D01*
X188304352Y-126587040D01*
X188304358Y-126587047D01*
X188512952Y-126795641D01*
X188512959Y-126795647D01*
X188747006Y-126975238D01*
X189002489Y-127122741D01*
X189002490Y-127122741D01*
X189002493Y-127122743D01*
X189275048Y-127235639D01*
X189560007Y-127311993D01*
X189852494Y-127350500D01*
X189852501Y-127350500D01*
X190147499Y-127350500D01*
X190147506Y-127350500D01*
X190439993Y-127311993D01*
X190724952Y-127235639D01*
X190997507Y-127122743D01*
X191235639Y-126985258D01*
X197449500Y-126985258D01*
X197449500Y-127214741D01*
X197467374Y-127350499D01*
X197479452Y-127442238D01*
X197479453Y-127442240D01*
X197538842Y-127663887D01*
X197626650Y-127875876D01*
X197626657Y-127875890D01*
X197741392Y-128074617D01*
X197881081Y-128256661D01*
X197881089Y-128256670D01*
X198043330Y-128418911D01*
X198043338Y-128418918D01*
X198225382Y-128558607D01*
X198225385Y-128558608D01*
X198225388Y-128558611D01*
X198424112Y-128673344D01*
X198424117Y-128673346D01*
X198424123Y-128673349D01*
X198515480Y-128711190D01*
X198636113Y-128761158D01*
X198857762Y-128820548D01*
X199085266Y-128850500D01*
X199085273Y-128850500D01*
X199314727Y-128850500D01*
X199314734Y-128850500D01*
X199542238Y-128820548D01*
X199763887Y-128761158D01*
X199975888Y-128673344D01*
X200174612Y-128558611D01*
X200356661Y-128418919D01*
X200356665Y-128418914D01*
X200356670Y-128418911D01*
X200518911Y-128256670D01*
X200518914Y-128256665D01*
X200518919Y-128256661D01*
X200658611Y-128074612D01*
X200773344Y-127875888D01*
X200861158Y-127663887D01*
X200920548Y-127442238D01*
X200950500Y-127214734D01*
X200950500Y-126985266D01*
X200920548Y-126757762D01*
X200861158Y-126536113D01*
X200806633Y-126404479D01*
X200773349Y-126324123D01*
X200773346Y-126324117D01*
X200773344Y-126324112D01*
X200658611Y-126125388D01*
X200658608Y-126125385D01*
X200658607Y-126125382D01*
X200518918Y-125943338D01*
X200518911Y-125943330D01*
X200356670Y-125781089D01*
X200356661Y-125781081D01*
X200174617Y-125641392D01*
X199975890Y-125526657D01*
X199975876Y-125526650D01*
X199763887Y-125438842D01*
X199542238Y-125379452D01*
X199504215Y-125374446D01*
X199314741Y-125349500D01*
X199314734Y-125349500D01*
X199085266Y-125349500D01*
X199085258Y-125349500D01*
X198868715Y-125378009D01*
X198857762Y-125379452D01*
X198764076Y-125404554D01*
X198636112Y-125438842D01*
X198424123Y-125526650D01*
X198424109Y-125526657D01*
X198225382Y-125641392D01*
X198043338Y-125781081D01*
X197881081Y-125943338D01*
X197741392Y-126125382D01*
X197626657Y-126324109D01*
X197626650Y-126324123D01*
X197538842Y-126536112D01*
X197479453Y-126757759D01*
X197479451Y-126757770D01*
X197449500Y-126985258D01*
X191235639Y-126985258D01*
X191252994Y-126975238D01*
X191487042Y-126795646D01*
X191695646Y-126587042D01*
X191875238Y-126352994D01*
X192022743Y-126097507D01*
X192135639Y-125824952D01*
X192211993Y-125539993D01*
X192250500Y-125247506D01*
X192250500Y-124952494D01*
X192211993Y-124660007D01*
X192135639Y-124375048D01*
X192022743Y-124102493D01*
X191901183Y-123891945D01*
X191875238Y-123847006D01*
X191695647Y-123612959D01*
X191695641Y-123612952D01*
X191487047Y-123404358D01*
X191487040Y-123404352D01*
X191252993Y-123224761D01*
X190997510Y-123077258D01*
X190997500Y-123077254D01*
X190724961Y-122964364D01*
X190724954Y-122964362D01*
X190724952Y-122964361D01*
X190439993Y-122888007D01*
X190439987Y-122888006D01*
X190439982Y-122888005D01*
X190329339Y-122873439D01*
X190265442Y-122845172D01*
X190226971Y-122786848D01*
X190226140Y-122716983D01*
X190263212Y-122657760D01*
X190326418Y-122627981D01*
X190329339Y-122627561D01*
X190439993Y-122612993D01*
X190724952Y-122536639D01*
X190997507Y-122423743D01*
X191252994Y-122276238D01*
X191487042Y-122096646D01*
X191695646Y-121888042D01*
X191875238Y-121653994D01*
X192022743Y-121398507D01*
X192135639Y-121125952D01*
X192211993Y-120840993D01*
X192250500Y-120548506D01*
X192250500Y-120253494D01*
X192211993Y-119961007D01*
X192135639Y-119676048D01*
X192022743Y-119403493D01*
X192012758Y-119386199D01*
X191875238Y-119148006D01*
X191695647Y-118913959D01*
X191695641Y-118913952D01*
X191487047Y-118705358D01*
X191487040Y-118705352D01*
X191252993Y-118525761D01*
X190997510Y-118378258D01*
X190997500Y-118378254D01*
X190724961Y-118265364D01*
X190724954Y-118265362D01*
X190724952Y-118265361D01*
X190467112Y-118196273D01*
X190407452Y-118159909D01*
X190376923Y-118097062D01*
X190385218Y-118027687D01*
X190429703Y-117973809D01*
X190496255Y-117952534D01*
X190499175Y-117952499D01*
X191797872Y-117952499D01*
X191857483Y-117946091D01*
X191992331Y-117895796D01*
X192107546Y-117809546D01*
X192193796Y-117694331D01*
X192244091Y-117559483D01*
X192250500Y-117499873D01*
X192250499Y-115624887D01*
X192270184Y-115557849D01*
X192286813Y-115537212D01*
X198644518Y-109179510D01*
X198783343Y-108988433D01*
X198890568Y-108777992D01*
X198963553Y-108553368D01*
X198967900Y-108525925D01*
X199000500Y-108320097D01*
X199000500Y-88981902D01*
X198963553Y-88748635D01*
X198963553Y-88748634D01*
X198963553Y-88748632D01*
X198934466Y-88659113D01*
X198914903Y-88598904D01*
X198890569Y-88524010D01*
X198890567Y-88524007D01*
X198872941Y-88489412D01*
X198783343Y-88313566D01*
X198644517Y-88122490D01*
X195636818Y-85114791D01*
X195603333Y-85053468D01*
X195600499Y-85027110D01*
X195600499Y-84761849D01*
X195600498Y-84761824D01*
X195597709Y-84726379D01*
X195597709Y-84726373D01*
X195553618Y-84574610D01*
X195475335Y-84442240D01*
X195473172Y-84438583D01*
X195473165Y-84438574D01*
X195361425Y-84326834D01*
X195361416Y-84326827D01*
X195225390Y-84246382D01*
X195225385Y-84246380D01*
X195073633Y-84202292D01*
X195073620Y-84202290D01*
X195038170Y-84199500D01*
X195038163Y-84199500D01*
X194218094Y-84199500D01*
X194218092Y-84199500D01*
X193981908Y-84199500D01*
X193981904Y-84199500D01*
X193161849Y-84199500D01*
X193161824Y-84199501D01*
X193126372Y-84202291D01*
X192974614Y-84246380D01*
X192974609Y-84246382D01*
X192838583Y-84326827D01*
X192838574Y-84326834D01*
X192726834Y-84438574D01*
X192726827Y-84438583D01*
X192646382Y-84574609D01*
X192646380Y-84574614D01*
X192602292Y-84726366D01*
X192602290Y-84726379D01*
X192599500Y-84761829D01*
X192599500Y-86638150D01*
X192599501Y-86638175D01*
X192602291Y-86673627D01*
X192646380Y-86825385D01*
X192646382Y-86825390D01*
X192726827Y-86961416D01*
X192726834Y-86961425D01*
X192838574Y-87073165D01*
X192838578Y-87073168D01*
X192838580Y-87073170D01*
X192974610Y-87153618D01*
X193126373Y-87197709D01*
X193161837Y-87200500D01*
X193427110Y-87200499D01*
X193494149Y-87220183D01*
X193514791Y-87236818D01*
X195963181Y-89685208D01*
X195996666Y-89746531D01*
X195999500Y-89772889D01*
X195999500Y-92617693D01*
X195979815Y-92684732D01*
X195927011Y-92730487D01*
X195857853Y-92740431D01*
X195794297Y-92711406D01*
X195760939Y-92665146D01*
X195698046Y-92513309D01*
X195698041Y-92513299D01*
X195566924Y-92286196D01*
X195407281Y-92078148D01*
X195407274Y-92078140D01*
X195221860Y-91892726D01*
X195221851Y-91892718D01*
X195013803Y-91733075D01*
X194786700Y-91601958D01*
X194786690Y-91601953D01*
X194544428Y-91501605D01*
X194544421Y-91501603D01*
X194544419Y-91501602D01*
X194291116Y-91433730D01*
X194233339Y-91426123D01*
X194031127Y-91399500D01*
X194031120Y-91399500D01*
X193768880Y-91399500D01*
X193768872Y-91399500D01*
X193537772Y-91429926D01*
X193508884Y-91433730D01*
X193255581Y-91501602D01*
X193255571Y-91501605D01*
X193013309Y-91601953D01*
X193013299Y-91601958D01*
X192786196Y-91733075D01*
X192635538Y-91848681D01*
X192602704Y-91873875D01*
X192537537Y-91899070D01*
X192527219Y-91899500D01*
X191660583Y-91899500D01*
X191427311Y-91936446D01*
X191202683Y-92009433D01*
X190992246Y-92116657D01*
X190883230Y-92195862D01*
X190801170Y-92255483D01*
X190801168Y-92255485D01*
X190801167Y-92255485D01*
X180855484Y-102201168D01*
X180716653Y-102392250D01*
X180710663Y-102404007D01*
X180710664Y-102404008D01*
X180609433Y-102602683D01*
X180536446Y-102827311D01*
X180499500Y-103060582D01*
X175908793Y-103060582D01*
X176086710Y-102931317D01*
X176253717Y-102764310D01*
X176392543Y-102573233D01*
X176499768Y-102362792D01*
X176572753Y-102138168D01*
X176576752Y-102112917D01*
X176609700Y-101904897D01*
X176609700Y-96991102D01*
X176572753Y-96757831D01*
X176499766Y-96533203D01*
X176431052Y-96398345D01*
X176392543Y-96322766D01*
X176253717Y-96131690D01*
X173431718Y-93309691D01*
X173409429Y-93268872D01*
X180649500Y-93268872D01*
X180649500Y-93531127D01*
X180676123Y-93733339D01*
X180683730Y-93791116D01*
X180751402Y-94043673D01*
X180751602Y-94044418D01*
X180751605Y-94044428D01*
X180851953Y-94286690D01*
X180851958Y-94286700D01*
X180983075Y-94513803D01*
X181142718Y-94721851D01*
X181142726Y-94721860D01*
X181328140Y-94907274D01*
X181328148Y-94907281D01*
X181328149Y-94907282D01*
X181364470Y-94935152D01*
X181536196Y-95066924D01*
X181763299Y-95198041D01*
X181763309Y-95198046D01*
X182005571Y-95298394D01*
X182005581Y-95298398D01*
X182258884Y-95366270D01*
X182518880Y-95400500D01*
X182518887Y-95400500D01*
X182781113Y-95400500D01*
X182781120Y-95400500D01*
X183041116Y-95366270D01*
X183294419Y-95298398D01*
X183536697Y-95198043D01*
X183763803Y-95066924D01*
X183971851Y-94907282D01*
X183971855Y-94907277D01*
X183971860Y-94907274D01*
X184157274Y-94721860D01*
X184157277Y-94721855D01*
X184157282Y-94721851D01*
X184316924Y-94513803D01*
X184448043Y-94286697D01*
X184464091Y-94247955D01*
X184548394Y-94044428D01*
X184548398Y-94044419D01*
X184616270Y-93791116D01*
X184650500Y-93531120D01*
X184650500Y-93268880D01*
X184616270Y-93008884D01*
X184548398Y-92755581D01*
X184530100Y-92711406D01*
X184448046Y-92513309D01*
X184448041Y-92513299D01*
X184316924Y-92286196D01*
X184157281Y-92078148D01*
X184157274Y-92078140D01*
X183971860Y-91892726D01*
X183971851Y-91892718D01*
X183763803Y-91733075D01*
X183536700Y-91601958D01*
X183536690Y-91601953D01*
X183294428Y-91501605D01*
X183294421Y-91501603D01*
X183294419Y-91501602D01*
X183041116Y-91433730D01*
X182983339Y-91426123D01*
X182781127Y-91399500D01*
X182781120Y-91399500D01*
X182518880Y-91399500D01*
X182518872Y-91399500D01*
X182287772Y-91429926D01*
X182258884Y-91433730D01*
X182005581Y-91501602D01*
X182005571Y-91501605D01*
X181763309Y-91601953D01*
X181763299Y-91601958D01*
X181536196Y-91733075D01*
X181328148Y-91892718D01*
X181142718Y-92078148D01*
X180983075Y-92286196D01*
X180851958Y-92513299D01*
X180851953Y-92513309D01*
X180751605Y-92755571D01*
X180751602Y-92755581D01*
X180683730Y-93008884D01*
X180683572Y-93010083D01*
X180649500Y-93268872D01*
X173409429Y-93268872D01*
X173398233Y-93248368D01*
X173396460Y-93238196D01*
X173366270Y-93008884D01*
X173298398Y-92755581D01*
X173280100Y-92711406D01*
X173198046Y-92513309D01*
X173198041Y-92513299D01*
X173066924Y-92286196D01*
X172907281Y-92078148D01*
X172907274Y-92078140D01*
X172721860Y-91892726D01*
X172721851Y-91892718D01*
X172513803Y-91733075D01*
X172286700Y-91601958D01*
X172286690Y-91601953D01*
X172044428Y-91501605D01*
X172044421Y-91501603D01*
X172044419Y-91501602D01*
X171791116Y-91433730D01*
X171733339Y-91426123D01*
X171531127Y-91399500D01*
X171531120Y-91399500D01*
X171268880Y-91399500D01*
X171268872Y-91399500D01*
X171037772Y-91429926D01*
X171008884Y-91433730D01*
X170755581Y-91501602D01*
X170755571Y-91501605D01*
X170513309Y-91601953D01*
X170513299Y-91601958D01*
X170286196Y-91733075D01*
X170078148Y-91892718D01*
X169892718Y-92078148D01*
X169733075Y-92286196D01*
X169601958Y-92513299D01*
X169601953Y-92513309D01*
X169501605Y-92755571D01*
X169501602Y-92755581D01*
X169433730Y-93008884D01*
X169433572Y-93010083D01*
X169399500Y-93268872D01*
X162653615Y-93268872D01*
X162912403Y-93010084D01*
X162912403Y-93010081D01*
X162846504Y-92959514D01*
X162846491Y-92959505D01*
X162653520Y-92848095D01*
X162653502Y-92848086D01*
X162447618Y-92762804D01*
X162232367Y-92705129D01*
X162232354Y-92705126D01*
X162011425Y-92676041D01*
X161788575Y-92676041D01*
X161567645Y-92705126D01*
X161567632Y-92705129D01*
X161352381Y-92762804D01*
X161146497Y-92848086D01*
X161146479Y-92848095D01*
X160953511Y-92959503D01*
X160887595Y-93010083D01*
X161688941Y-93811428D01*
X161668409Y-93816930D01*
X161531592Y-93895922D01*
X161419881Y-94007633D01*
X161340889Y-94144450D01*
X161335387Y-94164981D01*
X160534042Y-93363636D01*
X160483462Y-93429552D01*
X160372054Y-93622520D01*
X160372045Y-93622538D01*
X160286763Y-93828422D01*
X160229088Y-94043673D01*
X160229085Y-94043686D01*
X160200000Y-94264616D01*
X154220951Y-94264616D01*
X154222653Y-94247955D01*
X154222653Y-94247954D01*
X154224999Y-94224988D01*
X154225000Y-94224973D01*
X154225000Y-93950000D01*
X153349000Y-93950000D01*
X153281961Y-93930315D01*
X153236206Y-93877511D01*
X153225000Y-93826000D01*
X153225000Y-93574000D01*
X153244685Y-93506961D01*
X153297489Y-93461206D01*
X153349000Y-93450000D01*
X154224999Y-93450000D01*
X154224999Y-93175028D01*
X154224998Y-93175011D01*
X154214336Y-93070637D01*
X154214335Y-93070629D01*
X154214286Y-93070149D01*
X154227061Y-93001457D01*
X154274945Y-92950576D01*
X154337645Y-92933556D01*
X155090487Y-92933556D01*
X155169966Y-92917746D01*
X155230696Y-92905666D01*
X155283780Y-92895107D01*
X155337109Y-92873017D01*
X155465858Y-92819688D01*
X155629726Y-92710195D01*
X155769083Y-92570838D01*
X155769083Y-92570836D01*
X155779291Y-92560629D01*
X155779292Y-92560626D01*
X157927061Y-90412860D01*
X157988384Y-90379375D01*
X158014742Y-90376541D01*
X160087837Y-90376541D01*
X160154876Y-90396226D01*
X160200631Y-90449030D01*
X160209088Y-90474574D01*
X160210000Y-90478836D01*
X160265186Y-90645376D01*
X160265187Y-90645378D01*
X160357286Y-90794692D01*
X160357289Y-90794696D01*
X160481344Y-90918751D01*
X160481348Y-90918754D01*
X160630662Y-91010853D01*
X160630664Y-91010854D01*
X160630666Y-91010855D01*
X160797203Y-91066040D01*
X160899992Y-91076541D01*
X160899997Y-91076541D01*
X162900003Y-91076541D01*
X162900008Y-91076541D01*
X163002797Y-91066040D01*
X163169334Y-91010855D01*
X163318655Y-90918752D01*
X163442711Y-90794696D01*
X163534814Y-90645375D01*
X163589999Y-90478838D01*
X163600500Y-90376049D01*
X163600500Y-89848930D01*
X163620185Y-89781891D01*
X163636819Y-89761249D01*
X166161249Y-87236819D01*
X166222572Y-87203334D01*
X166248930Y-87200500D01*
X181728082Y-87200500D01*
X181728094Y-87200499D01*
X182400002Y-87200499D01*
X182400008Y-87200499D01*
X182502797Y-87189999D01*
X182669334Y-87134814D01*
X182818656Y-87042712D01*
X182942712Y-86918656D01*
X183034814Y-86769334D01*
X183089999Y-86602797D01*
X183100500Y-86500009D01*
X183100500Y-86499986D01*
X185100001Y-86499986D01*
X185110494Y-86602697D01*
X185165641Y-86769119D01*
X185165643Y-86769124D01*
X185257684Y-86918345D01*
X185381654Y-87042315D01*
X185530875Y-87134356D01*
X185530880Y-87134358D01*
X185697302Y-87189505D01*
X185697309Y-87189506D01*
X185800019Y-87199999D01*
X187599999Y-87199999D01*
X188100000Y-87199999D01*
X189899972Y-87199999D01*
X189899986Y-87199998D01*
X190002697Y-87189505D01*
X190169119Y-87134358D01*
X190169124Y-87134356D01*
X190318345Y-87042315D01*
X190442315Y-86918345D01*
X190534356Y-86769124D01*
X190534358Y-86769119D01*
X190589505Y-86602697D01*
X190589506Y-86602690D01*
X190599999Y-86499986D01*
X190600000Y-86499973D01*
X190600000Y-85950000D01*
X188100000Y-85950000D01*
X188100000Y-87199999D01*
X187599999Y-87199999D01*
X187600000Y-87199998D01*
X187600000Y-85950000D01*
X185100001Y-85950000D01*
X185100001Y-86499986D01*
X183100500Y-86499986D01*
X183100500Y-85761158D01*
X183100500Y-85581908D01*
X183100500Y-85574313D01*
X183100499Y-85574295D01*
X183100499Y-84900013D01*
X185100000Y-84900013D01*
X185100000Y-85450000D01*
X187600000Y-85450000D01*
X188100000Y-85450000D01*
X190599999Y-85450000D01*
X190599999Y-84900028D01*
X190599998Y-84900013D01*
X190589505Y-84797302D01*
X190534358Y-84630880D01*
X190534356Y-84630875D01*
X190442315Y-84481654D01*
X190318345Y-84357684D01*
X190169124Y-84265643D01*
X190169119Y-84265641D01*
X190002697Y-84210494D01*
X190002690Y-84210493D01*
X189899986Y-84200000D01*
X188100000Y-84200000D01*
X188100000Y-85450000D01*
X187600000Y-85450000D01*
X187600000Y-84200000D01*
X185800028Y-84200000D01*
X185800012Y-84200001D01*
X185697302Y-84210494D01*
X185530880Y-84265641D01*
X185530875Y-84265643D01*
X185381654Y-84357684D01*
X185257684Y-84481654D01*
X185165643Y-84630875D01*
X185165641Y-84630880D01*
X185110494Y-84797302D01*
X185110493Y-84797309D01*
X185100000Y-84900013D01*
X183100499Y-84900013D01*
X183100499Y-84899998D01*
X183100498Y-84899981D01*
X183089999Y-84797203D01*
X183089998Y-84797200D01*
X183078277Y-84761829D01*
X183034814Y-84630666D01*
X182942712Y-84481344D01*
X182818656Y-84357288D01*
X182669334Y-84265186D01*
X182502797Y-84210001D01*
X182502795Y-84210000D01*
X182400016Y-84199500D01*
X182400009Y-84199500D01*
X181718094Y-84199500D01*
X181718092Y-84199500D01*
X165694133Y-84199500D01*
X165457949Y-84199500D01*
X165457944Y-84199500D01*
X165224672Y-84236446D01*
X165000044Y-84309433D01*
X164789606Y-84416657D01*
X164598529Y-84555484D01*
X164598528Y-84555485D01*
X163112181Y-86041833D01*
X163050858Y-86075318D01*
X162981166Y-86070334D01*
X162925233Y-86028462D01*
X162900816Y-85962998D01*
X162900500Y-85954152D01*
X162900500Y-85801456D01*
X162862052Y-85608170D01*
X162862051Y-85608169D01*
X162862051Y-85608165D01*
X162851174Y-85581905D01*
X162786635Y-85426092D01*
X162786628Y-85426079D01*
X162677139Y-85262218D01*
X162677136Y-85262214D01*
X162534686Y-85119764D01*
X162534655Y-85119735D01*
X161400178Y-83985258D01*
X197449500Y-83985258D01*
X197449500Y-84214741D01*
X197468268Y-84357288D01*
X197479452Y-84442238D01*
X197509796Y-84555483D01*
X197538842Y-84663887D01*
X197626650Y-84875876D01*
X197626657Y-84875890D01*
X197741392Y-85074617D01*
X197881081Y-85256661D01*
X197881089Y-85256670D01*
X198043330Y-85418911D01*
X198043338Y-85418918D01*
X198225382Y-85558607D01*
X198225385Y-85558608D01*
X198225388Y-85558611D01*
X198424112Y-85673344D01*
X198424117Y-85673346D01*
X198424123Y-85673349D01*
X198515480Y-85711190D01*
X198636113Y-85761158D01*
X198857762Y-85820548D01*
X199085266Y-85850500D01*
X199085273Y-85850500D01*
X199314727Y-85850500D01*
X199314734Y-85850500D01*
X199542238Y-85820548D01*
X199763887Y-85761158D01*
X199975888Y-85673344D01*
X200174612Y-85558611D01*
X200356661Y-85418919D01*
X200356665Y-85418914D01*
X200356670Y-85418911D01*
X200518911Y-85256670D01*
X200518914Y-85256665D01*
X200518919Y-85256661D01*
X200658611Y-85074612D01*
X200773344Y-84875888D01*
X200861158Y-84663887D01*
X200920548Y-84442238D01*
X200950500Y-84214734D01*
X200950500Y-83985266D01*
X200920548Y-83757762D01*
X200861158Y-83536113D01*
X200773344Y-83324112D01*
X200658611Y-83125388D01*
X200658608Y-83125385D01*
X200658607Y-83125382D01*
X200518918Y-82943338D01*
X200518911Y-82943330D01*
X200356670Y-82781089D01*
X200356661Y-82781081D01*
X200174617Y-82641392D01*
X199975890Y-82526657D01*
X199975876Y-82526650D01*
X199763887Y-82438842D01*
X199681676Y-82416814D01*
X199542238Y-82379452D01*
X199504215Y-82374446D01*
X199314741Y-82349500D01*
X199314734Y-82349500D01*
X199085266Y-82349500D01*
X199085258Y-82349500D01*
X198868715Y-82378009D01*
X198857762Y-82379452D01*
X198764076Y-82404554D01*
X198636112Y-82438842D01*
X198424123Y-82526650D01*
X198424109Y-82526657D01*
X198225382Y-82641392D01*
X198043338Y-82781081D01*
X197881081Y-82943338D01*
X197741392Y-83125382D01*
X197626657Y-83324109D01*
X197626650Y-83324123D01*
X197538842Y-83536112D01*
X197479453Y-83757759D01*
X197479451Y-83757770D01*
X197449500Y-83985258D01*
X161400178Y-83985258D01*
X159096819Y-81681899D01*
X159063334Y-81620576D01*
X159060500Y-81594218D01*
X159060500Y-80585793D01*
X186100000Y-80585793D01*
X186106348Y-80677261D01*
X186106349Y-80677270D01*
X186156733Y-80891485D01*
X186156735Y-80891491D01*
X186245629Y-81092817D01*
X186370001Y-81274379D01*
X186370006Y-81274385D01*
X186525614Y-81429993D01*
X186525620Y-81429998D01*
X186707182Y-81554370D01*
X186908508Y-81643264D01*
X186908514Y-81643266D01*
X187122729Y-81693650D01*
X187122738Y-81693651D01*
X187214206Y-81700000D01*
X189100000Y-81700000D01*
X189600000Y-81700000D01*
X191485794Y-81700000D01*
X191577261Y-81693651D01*
X191577270Y-81693650D01*
X191791485Y-81643266D01*
X191791491Y-81643264D01*
X191992817Y-81554370D01*
X192174379Y-81429998D01*
X192174385Y-81429993D01*
X192329993Y-81274385D01*
X192329998Y-81274379D01*
X192454370Y-81092817D01*
X192543264Y-80891491D01*
X192543266Y-80891485D01*
X192593650Y-80677270D01*
X192593651Y-80677261D01*
X192600000Y-80585793D01*
X192600000Y-78352486D01*
X204749500Y-78352486D01*
X204749500Y-78647513D01*
X204781571Y-78891113D01*
X204788007Y-78939993D01*
X204788008Y-78939995D01*
X204864361Y-79224951D01*
X204864364Y-79224961D01*
X204977254Y-79497500D01*
X204977258Y-79497510D01*
X205124761Y-79752993D01*
X205304352Y-79987040D01*
X205304358Y-79987047D01*
X205512952Y-80195641D01*
X205512959Y-80195647D01*
X205747006Y-80375238D01*
X206002489Y-80522741D01*
X206002490Y-80522741D01*
X206002493Y-80522743D01*
X206275048Y-80635639D01*
X206560007Y-80711993D01*
X206852494Y-80750500D01*
X206852501Y-80750500D01*
X207147499Y-80750500D01*
X207147506Y-80750500D01*
X207439993Y-80711993D01*
X207724952Y-80635639D01*
X207997507Y-80522743D01*
X208252994Y-80375238D01*
X208487042Y-80195646D01*
X208695646Y-79987042D01*
X208875238Y-79752994D01*
X209022743Y-79497507D01*
X209135639Y-79224952D01*
X209211993Y-78939993D01*
X209250500Y-78647506D01*
X209250500Y-78352494D01*
X209211993Y-78060007D01*
X209135639Y-77775048D01*
X209022743Y-77502493D01*
X208875238Y-77247006D01*
X208695646Y-77012958D01*
X208695641Y-77012952D01*
X208487047Y-76804358D01*
X208487040Y-76804352D01*
X208252993Y-76624761D01*
X207997510Y-76477258D01*
X207997500Y-76477254D01*
X207724961Y-76364364D01*
X207724954Y-76364362D01*
X207724952Y-76364361D01*
X207439993Y-76288007D01*
X207391113Y-76281571D01*
X207147513Y-76249500D01*
X207147506Y-76249500D01*
X206852494Y-76249500D01*
X206852486Y-76249500D01*
X206574085Y-76286153D01*
X206560007Y-76288007D01*
X206275048Y-76364361D01*
X206275038Y-76364364D01*
X206002499Y-76477254D01*
X206002489Y-76477258D01*
X205747006Y-76624761D01*
X205512959Y-76804352D01*
X205512952Y-76804358D01*
X205304358Y-77012952D01*
X205304352Y-77012959D01*
X205124761Y-77247006D01*
X204977258Y-77502489D01*
X204977254Y-77502499D01*
X204864364Y-77775038D01*
X204864361Y-77775048D01*
X204788008Y-78060004D01*
X204788006Y-78060015D01*
X204749500Y-78352486D01*
X192600000Y-78352486D01*
X192600000Y-77450000D01*
X189600000Y-77450000D01*
X189600000Y-81700000D01*
X189100000Y-81700000D01*
X189100000Y-77450000D01*
X186100000Y-77450000D01*
X186100000Y-80585793D01*
X159060500Y-80585793D01*
X159060500Y-74964704D01*
X159080185Y-74897665D01*
X159132989Y-74851910D01*
X159202147Y-74841966D01*
X159223506Y-74846999D01*
X159277392Y-74864855D01*
X159277391Y-74864855D01*
X159376683Y-74874999D01*
X159900000Y-74874999D01*
X159923308Y-74874999D01*
X159923322Y-74874998D01*
X160022607Y-74864855D01*
X160183481Y-74811547D01*
X160183492Y-74811542D01*
X160327728Y-74722575D01*
X160327732Y-74722572D01*
X160447572Y-74602732D01*
X160447575Y-74602728D01*
X160536542Y-74458492D01*
X160536547Y-74458481D01*
X160589855Y-74297606D01*
X160599999Y-74198322D01*
X160600000Y-74198309D01*
X160600000Y-74150000D01*
X159900000Y-74150000D01*
X159900000Y-74874999D01*
X159376683Y-74874999D01*
X159400000Y-74874998D01*
X159400000Y-73814206D01*
X186100000Y-73814206D01*
X186100000Y-76950000D01*
X189100000Y-76950000D01*
X189600000Y-76950000D01*
X192600000Y-76950000D01*
X192600000Y-73814206D01*
X192593651Y-73722738D01*
X192593650Y-73722729D01*
X192543266Y-73508514D01*
X192543264Y-73508508D01*
X192454370Y-73307182D01*
X192329998Y-73125620D01*
X192329993Y-73125614D01*
X192174385Y-72970006D01*
X192174379Y-72970001D01*
X191992817Y-72845629D01*
X191791491Y-72756735D01*
X191791485Y-72756733D01*
X191577270Y-72706349D01*
X191577261Y-72706348D01*
X191485794Y-72700000D01*
X189600000Y-72700000D01*
X189600000Y-76950000D01*
X189100000Y-76950000D01*
X189100000Y-72700000D01*
X187214206Y-72700000D01*
X187122738Y-72706348D01*
X187122729Y-72706349D01*
X186908514Y-72756733D01*
X186908508Y-72756735D01*
X186707182Y-72845629D01*
X186525620Y-72970001D01*
X186525614Y-72970006D01*
X186370006Y-73125614D01*
X186370001Y-73125620D01*
X186245629Y-73307182D01*
X186156735Y-73508508D01*
X186156733Y-73508514D01*
X186106349Y-73722729D01*
X186106348Y-73722738D01*
X186100000Y-73814206D01*
X159400000Y-73814206D01*
X159400000Y-73650000D01*
X159900000Y-73650000D01*
X160599999Y-73650000D01*
X160599999Y-73601692D01*
X160599998Y-73601677D01*
X160589855Y-73502392D01*
X160536547Y-73341518D01*
X160536542Y-73341507D01*
X160447575Y-73197271D01*
X160447572Y-73197267D01*
X160327732Y-73077427D01*
X160327728Y-73077424D01*
X160183492Y-72988457D01*
X160183481Y-72988452D01*
X160022606Y-72935144D01*
X159923322Y-72925000D01*
X159900000Y-72925000D01*
X159900000Y-73650000D01*
X159400000Y-73650000D01*
X159400000Y-72924999D01*
X159376693Y-72925000D01*
X159376674Y-72925001D01*
X159277392Y-72935144D01*
X159223504Y-72953001D01*
X159153675Y-72955403D01*
X159093634Y-72919671D01*
X159062441Y-72857150D01*
X159060500Y-72835295D01*
X159060500Y-71292889D01*
X159080185Y-71225850D01*
X159096819Y-71205208D01*
X159137126Y-71164901D01*
X159204517Y-71097510D01*
X159247547Y-71038283D01*
X159302877Y-70995618D01*
X159357594Y-70987551D01*
X159377340Y-70989105D01*
X160117037Y-70249408D01*
X160134075Y-70312993D01*
X160199901Y-70427007D01*
X160292993Y-70520099D01*
X160407007Y-70585925D01*
X160470590Y-70602962D01*
X159730893Y-71342658D01*
X159813828Y-71402914D01*
X160024197Y-71510102D01*
X160248752Y-71583065D01*
X160248751Y-71583065D01*
X160481948Y-71620000D01*
X160718052Y-71620000D01*
X160951247Y-71583065D01*
X161175802Y-71510102D01*
X161386163Y-71402918D01*
X161386169Y-71402914D01*
X161469104Y-71342658D01*
X161469105Y-71342658D01*
X160729408Y-70602962D01*
X160792993Y-70585925D01*
X160907007Y-70520099D01*
X161000099Y-70427007D01*
X161065925Y-70312993D01*
X161082962Y-70249409D01*
X161822658Y-70989105D01*
X161822658Y-70989104D01*
X161882914Y-70906169D01*
X161882918Y-70906163D01*
X161990102Y-70695802D01*
X162063065Y-70471247D01*
X162100000Y-70238052D01*
X162100000Y-70001947D01*
X162063065Y-69768752D01*
X161990102Y-69544197D01*
X161882914Y-69333828D01*
X161822658Y-69250894D01*
X161822658Y-69250893D01*
X161082962Y-69990590D01*
X161065925Y-69927007D01*
X161000099Y-69812993D01*
X160907007Y-69719901D01*
X160792993Y-69654075D01*
X160729409Y-69637037D01*
X161469105Y-68897340D01*
X161469104Y-68897338D01*
X161386174Y-68837087D01*
X161175802Y-68729897D01*
X160951247Y-68656934D01*
X160951248Y-68656934D01*
X160718052Y-68620000D01*
X160481948Y-68620000D01*
X160248752Y-68656934D01*
X160024197Y-68729897D01*
X159813830Y-68837084D01*
X159730894Y-68897340D01*
X160470591Y-69637037D01*
X160407007Y-69654075D01*
X160292993Y-69719901D01*
X160199901Y-69812993D01*
X160134075Y-69927007D01*
X160117037Y-69990590D01*
X159377340Y-69250893D01*
X159357593Y-69252448D01*
X159353860Y-69251663D01*
X159350222Y-69252808D01*
X159319936Y-69244537D01*
X159289215Y-69238084D01*
X159285429Y-69235114D01*
X159282821Y-69234402D01*
X159273431Y-69225701D01*
X159255712Y-69211800D01*
X159251370Y-69206978D01*
X159204517Y-69142490D01*
X159037510Y-68975483D01*
X158846433Y-68836657D01*
X158635996Y-68729433D01*
X158411368Y-68656446D01*
X158178097Y-68619500D01*
X158178092Y-68619500D01*
X157941908Y-68619500D01*
X157941903Y-68619500D01*
X157708631Y-68656446D01*
X157484003Y-68729433D01*
X157273563Y-68836659D01*
X157149840Y-68926549D01*
X157084034Y-68950029D01*
X157015980Y-68934203D01*
X156968410Y-68885255D01*
X156968047Y-68885454D01*
X156967334Y-68884148D01*
X156967285Y-68884098D01*
X156967187Y-68883880D01*
X156963793Y-68877664D01*
X156877547Y-68762455D01*
X156877544Y-68762452D01*
X156762335Y-68676206D01*
X156762328Y-68676202D01*
X156627482Y-68625908D01*
X156627483Y-68625908D01*
X156567883Y-68619501D01*
X156567881Y-68619500D01*
X156567873Y-68619500D01*
X156567865Y-68619500D01*
X155413383Y-68619500D01*
X155365930Y-68610061D01*
X155245165Y-68560038D01*
X155191836Y-68537949D01*
X155191832Y-68537948D01*
X155191828Y-68537946D01*
X155095188Y-68518724D01*
X154998544Y-68499500D01*
X154998541Y-68499500D01*
X112965783Y-68499500D01*
X112898744Y-68479815D01*
X112878102Y-68463181D01*
X110351037Y-65936116D01*
X110267407Y-65852486D01*
X204749500Y-65852486D01*
X204749500Y-66147513D01*
X204769797Y-66301677D01*
X204788007Y-66439993D01*
X204833883Y-66611206D01*
X204864361Y-66724951D01*
X204864364Y-66724961D01*
X204977254Y-66997500D01*
X204977258Y-66997510D01*
X205124761Y-67252993D01*
X205304352Y-67487040D01*
X205304358Y-67487047D01*
X205512952Y-67695641D01*
X205512959Y-67695647D01*
X205747006Y-67875238D01*
X206002489Y-68022741D01*
X206002490Y-68022741D01*
X206002493Y-68022743D01*
X206275048Y-68135639D01*
X206560007Y-68211993D01*
X206852494Y-68250500D01*
X206852501Y-68250500D01*
X207147499Y-68250500D01*
X207147506Y-68250500D01*
X207439993Y-68211993D01*
X207724952Y-68135639D01*
X207997507Y-68022743D01*
X208252994Y-67875238D01*
X208487042Y-67695646D01*
X208695646Y-67487042D01*
X208875238Y-67252994D01*
X209022743Y-66997507D01*
X209135639Y-66724952D01*
X209211993Y-66439993D01*
X209250500Y-66147506D01*
X209250500Y-65852494D01*
X209211993Y-65560007D01*
X209135639Y-65275048D01*
X209022743Y-65002493D01*
X208875238Y-64747006D01*
X208695646Y-64512958D01*
X208695641Y-64512952D01*
X208487047Y-64304358D01*
X208487040Y-64304352D01*
X208252993Y-64124761D01*
X207997510Y-63977258D01*
X207997500Y-63977254D01*
X207724961Y-63864364D01*
X207724954Y-63864362D01*
X207724952Y-63864361D01*
X207439993Y-63788007D01*
X207391113Y-63781571D01*
X207147513Y-63749500D01*
X207147506Y-63749500D01*
X206852494Y-63749500D01*
X206852486Y-63749500D01*
X206574085Y-63786153D01*
X206560007Y-63788007D01*
X206275048Y-63864361D01*
X206275038Y-63864364D01*
X206002499Y-63977254D01*
X206002489Y-63977258D01*
X205747006Y-64124761D01*
X205512959Y-64304352D01*
X205512952Y-64304358D01*
X205304358Y-64512952D01*
X205304352Y-64512959D01*
X205124761Y-64747006D01*
X204977258Y-65002489D01*
X204977254Y-65002499D01*
X204864364Y-65275038D01*
X204864361Y-65275048D01*
X204788008Y-65560004D01*
X204788006Y-65560015D01*
X204749500Y-65852486D01*
X110267407Y-65852486D01*
X107616377Y-63201456D01*
X104767407Y-60352486D01*
X150249500Y-60352486D01*
X150249500Y-60647513D01*
X150259697Y-60724961D01*
X150288007Y-60939993D01*
X150288008Y-60939995D01*
X150364361Y-61224951D01*
X150364364Y-61224961D01*
X150477254Y-61497500D01*
X150477258Y-61497510D01*
X150624761Y-61752993D01*
X150804352Y-61987040D01*
X150804358Y-61987047D01*
X151012952Y-62195641D01*
X151012959Y-62195647D01*
X151247006Y-62375238D01*
X151502489Y-62522741D01*
X151502490Y-62522741D01*
X151502493Y-62522743D01*
X151775048Y-62635639D01*
X152060007Y-62711993D01*
X152352494Y-62750500D01*
X152352501Y-62750500D01*
X152647499Y-62750500D01*
X152647506Y-62750500D01*
X152939993Y-62711993D01*
X153224952Y-62635639D01*
X153497507Y-62522743D01*
X153752994Y-62375238D01*
X153987042Y-62195646D01*
X154195646Y-61987042D01*
X154375238Y-61752994D01*
X154522743Y-61497507D01*
X154635639Y-61224952D01*
X154711993Y-60939993D01*
X154750500Y-60647506D01*
X154750500Y-60352494D01*
X154711993Y-60060007D01*
X154635639Y-59775048D01*
X154522743Y-59502493D01*
X154375238Y-59247006D01*
X154195646Y-59012958D01*
X154195641Y-59012952D01*
X153987047Y-58804358D01*
X153987040Y-58804352D01*
X153752993Y-58624761D01*
X153497510Y-58477258D01*
X153497500Y-58477254D01*
X153224961Y-58364364D01*
X153224954Y-58364362D01*
X153224952Y-58364361D01*
X152939993Y-58288007D01*
X152891113Y-58281571D01*
X152647513Y-58249500D01*
X152647506Y-58249500D01*
X152352494Y-58249500D01*
X152352486Y-58249500D01*
X152074085Y-58286153D01*
X152060007Y-58288007D01*
X151998999Y-58304354D01*
X151775048Y-58364361D01*
X151775038Y-58364364D01*
X151502499Y-58477254D01*
X151502489Y-58477258D01*
X151247006Y-58624761D01*
X151012959Y-58804352D01*
X151012952Y-58804358D01*
X150804358Y-59012952D01*
X150804352Y-59012959D01*
X150624761Y-59247006D01*
X150477258Y-59502489D01*
X150477254Y-59502499D01*
X150364364Y-59775038D01*
X150364361Y-59775048D01*
X150288008Y-60060004D01*
X150288006Y-60060015D01*
X150249500Y-60352486D01*
X104767407Y-60352486D01*
X100777140Y-56362220D01*
X100777139Y-56362218D01*
X100667102Y-56252181D01*
X100633618Y-56190858D01*
X100638602Y-56121166D01*
X100656348Y-56097461D01*
X100680474Y-56065232D01*
X100728154Y-56047448D01*
X100745938Y-56040816D01*
X100754784Y-56040500D01*
X211235500Y-56040500D01*
X211302539Y-56060185D01*
X211348294Y-56112989D01*
X211359500Y-56164500D01*
X211359500Y-150835500D01*
X211339815Y-150902539D01*
X211287011Y-150948294D01*
X211235500Y-150959500D01*
X144664500Y-150959500D01*
X144597461Y-150939815D01*
X144551706Y-150887011D01*
X144540500Y-150835500D01*
X144540500Y-127957326D01*
X144540499Y-127957322D01*
X144508554Y-127673794D01*
X144508553Y-127673789D01*
X144508552Y-127673780D01*
X144445057Y-127395591D01*
X144350814Y-127126261D01*
X144350810Y-127126254D01*
X144350807Y-127126245D01*
X144227012Y-126869181D01*
X144227009Y-126869176D01*
X144075197Y-126627569D01*
X143897289Y-126404479D01*
X143695521Y-126202711D01*
X143472431Y-126024803D01*
X143230824Y-125872991D01*
X143230825Y-125872991D01*
X143230818Y-125872987D01*
X142973754Y-125749192D01*
X142973732Y-125749183D01*
X142704420Y-125654946D01*
X142704408Y-125654942D01*
X142489714Y-125605940D01*
X142426220Y-125591448D01*
X142426217Y-125591447D01*
X142426205Y-125591445D01*
X142142677Y-125559500D01*
X142142671Y-125559500D01*
X42142671Y-125559500D01*
X41857329Y-125559500D01*
X41857322Y-125559500D01*
X41573794Y-125591445D01*
X41573780Y-125591448D01*
X41295591Y-125654942D01*
X41295579Y-125654946D01*
X41026267Y-125749183D01*
X41026245Y-125749192D01*
X40769181Y-125872987D01*
X40527570Y-126024802D01*
X40304479Y-126202710D01*
X40102710Y-126404479D01*
X39924802Y-126627570D01*
X39772987Y-126869181D01*
X39649192Y-127126245D01*
X39649183Y-127126267D01*
X39554946Y-127395579D01*
X39554942Y-127395591D01*
X39491448Y-127673780D01*
X39491445Y-127673794D01*
X39459500Y-127957322D01*
X39459500Y-150835500D01*
X39439815Y-150902539D01*
X39387011Y-150948294D01*
X39335500Y-150959500D01*
X38964500Y-150959500D01*
X38897461Y-150939815D01*
X38851706Y-150887011D01*
X38840500Y-150835500D01*
X38840500Y-121559568D01*
X43124500Y-121559568D01*
X43124500Y-121840431D01*
X43155942Y-122119494D01*
X43155945Y-122119512D01*
X43218439Y-122393317D01*
X43218443Y-122393329D01*
X43311200Y-122658411D01*
X43433053Y-122911442D01*
X43433055Y-122911445D01*
X43582477Y-123149248D01*
X43757584Y-123368825D01*
X43956175Y-123567416D01*
X44175752Y-123742523D01*
X44413555Y-123891945D01*
X44666592Y-124013801D01*
X44865680Y-124083465D01*
X44931670Y-124106556D01*
X44931682Y-124106560D01*
X45205491Y-124169055D01*
X45205497Y-124169055D01*
X45205505Y-124169057D01*
X45391547Y-124190018D01*
X45484569Y-124200499D01*
X45484572Y-124200500D01*
X45484575Y-124200500D01*
X45765428Y-124200500D01*
X45765429Y-124200499D01*
X45908055Y-124184429D01*
X46044494Y-124169057D01*
X46044499Y-124169056D01*
X46044509Y-124169055D01*
X46318318Y-124106560D01*
X46583408Y-124013801D01*
X46836445Y-123891945D01*
X47074248Y-123742523D01*
X47293825Y-123567416D01*
X47492416Y-123368825D01*
X47667523Y-123149248D01*
X47816945Y-122911445D01*
X47938801Y-122658408D01*
X48031560Y-122393318D01*
X48094055Y-122119509D01*
X48125500Y-121840425D01*
X48125500Y-121559575D01*
X48115018Y-121466547D01*
X48094057Y-121280505D01*
X48094054Y-121280487D01*
X48031560Y-121006682D01*
X48031556Y-121006670D01*
X48008221Y-120939984D01*
X47938801Y-120741592D01*
X47816945Y-120488555D01*
X47731447Y-120352486D01*
X58249500Y-120352486D01*
X58249500Y-120647513D01*
X58281571Y-120891113D01*
X58288007Y-120939993D01*
X58337837Y-121125961D01*
X58364361Y-121224951D01*
X58364364Y-121224961D01*
X58477254Y-121497500D01*
X58477258Y-121497510D01*
X58624761Y-121752993D01*
X58804352Y-121987040D01*
X58804358Y-121987047D01*
X59012952Y-122195641D01*
X59012959Y-122195647D01*
X59247006Y-122375238D01*
X59502489Y-122522741D01*
X59502490Y-122522741D01*
X59502493Y-122522743D01*
X59775048Y-122635639D01*
X60060007Y-122711993D01*
X60352494Y-122750500D01*
X60352501Y-122750500D01*
X60647499Y-122750500D01*
X60647506Y-122750500D01*
X60939993Y-122711993D01*
X61224952Y-122635639D01*
X61497507Y-122522743D01*
X61752994Y-122375238D01*
X61987042Y-122195646D01*
X62195646Y-121987042D01*
X62375238Y-121752994D01*
X62486912Y-121559568D01*
X136974500Y-121559568D01*
X136974500Y-121840431D01*
X137005942Y-122119494D01*
X137005945Y-122119512D01*
X137068439Y-122393317D01*
X137068443Y-122393329D01*
X137161200Y-122658411D01*
X137283053Y-122911442D01*
X137283055Y-122911445D01*
X137432477Y-123149248D01*
X137607584Y-123368825D01*
X137806175Y-123567416D01*
X138025752Y-123742523D01*
X138263555Y-123891945D01*
X138516592Y-124013801D01*
X138715680Y-124083465D01*
X138781670Y-124106556D01*
X138781682Y-124106560D01*
X139055491Y-124169055D01*
X139055497Y-124169055D01*
X139055505Y-124169057D01*
X139241547Y-124190018D01*
X139334569Y-124200499D01*
X139334572Y-124200500D01*
X139334575Y-124200500D01*
X139615428Y-124200500D01*
X139615429Y-124200499D01*
X139758055Y-124184429D01*
X139894494Y-124169057D01*
X139894499Y-124169056D01*
X139894509Y-124169055D01*
X140168318Y-124106560D01*
X140433408Y-124013801D01*
X140686445Y-123891945D01*
X140924248Y-123742523D01*
X141143825Y-123567416D01*
X141342416Y-123368825D01*
X141517523Y-123149248D01*
X141666945Y-122911445D01*
X141788801Y-122658408D01*
X141881560Y-122393318D01*
X141944055Y-122119509D01*
X141975500Y-121840425D01*
X141975500Y-121559575D01*
X141965018Y-121466547D01*
X141944057Y-121280505D01*
X141944054Y-121280487D01*
X141881560Y-121006682D01*
X141881556Y-121006670D01*
X141858221Y-120939984D01*
X141788801Y-120741592D01*
X141666945Y-120488555D01*
X141517523Y-120250752D01*
X141342416Y-120031175D01*
X141143825Y-119832584D01*
X140924248Y-119657477D01*
X140686445Y-119508055D01*
X140686442Y-119508053D01*
X140433411Y-119386200D01*
X140168329Y-119293443D01*
X140168317Y-119293439D01*
X139894512Y-119230945D01*
X139894494Y-119230942D01*
X139615431Y-119199500D01*
X139615425Y-119199500D01*
X139334575Y-119199500D01*
X139334568Y-119199500D01*
X139055505Y-119230942D01*
X139055487Y-119230945D01*
X138781682Y-119293439D01*
X138781670Y-119293443D01*
X138516588Y-119386200D01*
X138263557Y-119508053D01*
X138025753Y-119657476D01*
X137806175Y-119832583D01*
X137607583Y-120031175D01*
X137432476Y-120250753D01*
X137283053Y-120488557D01*
X137161200Y-120741588D01*
X137068443Y-121006670D01*
X137068439Y-121006682D01*
X137005945Y-121280487D01*
X137005942Y-121280505D01*
X136974500Y-121559568D01*
X62486912Y-121559568D01*
X62522743Y-121497507D01*
X62635639Y-121224952D01*
X62711993Y-120939993D01*
X62750500Y-120647506D01*
X62750500Y-120352494D01*
X62711993Y-120060007D01*
X62635639Y-119775048D01*
X62522743Y-119502493D01*
X62455601Y-119386200D01*
X62375238Y-119247006D01*
X62195647Y-119012959D01*
X62195641Y-119012952D01*
X61987047Y-118804358D01*
X61987040Y-118804352D01*
X61752993Y-118624761D01*
X61497510Y-118477258D01*
X61497500Y-118477254D01*
X61224961Y-118364364D01*
X61224954Y-118364362D01*
X61224952Y-118364361D01*
X60939993Y-118288007D01*
X60891113Y-118281571D01*
X60647513Y-118249500D01*
X60647506Y-118249500D01*
X60352494Y-118249500D01*
X60352486Y-118249500D01*
X60074085Y-118286153D01*
X60060007Y-118288007D01*
X59775048Y-118364361D01*
X59775038Y-118364364D01*
X59502499Y-118477254D01*
X59502489Y-118477258D01*
X59247006Y-118624761D01*
X59012959Y-118804352D01*
X59012952Y-118804358D01*
X58804358Y-119012952D01*
X58804352Y-119012959D01*
X58624761Y-119247006D01*
X58477258Y-119502489D01*
X58477254Y-119502499D01*
X58364364Y-119775038D01*
X58364361Y-119775048D01*
X58295733Y-120031175D01*
X58288008Y-120060004D01*
X58288006Y-120060015D01*
X58249500Y-120352486D01*
X47731447Y-120352486D01*
X47667523Y-120250752D01*
X47492416Y-120031175D01*
X47293825Y-119832584D01*
X47074248Y-119657477D01*
X46836445Y-119508055D01*
X46836442Y-119508053D01*
X46583411Y-119386200D01*
X46318329Y-119293443D01*
X46318317Y-119293439D01*
X46044512Y-119230945D01*
X46044494Y-119230942D01*
X45765431Y-119199500D01*
X45765425Y-119199500D01*
X45484575Y-119199500D01*
X45484568Y-119199500D01*
X45205505Y-119230942D01*
X45205487Y-119230945D01*
X44931682Y-119293439D01*
X44931670Y-119293443D01*
X44666588Y-119386200D01*
X44413557Y-119508053D01*
X44175753Y-119657476D01*
X43956175Y-119832583D01*
X43757583Y-120031175D01*
X43582476Y-120250753D01*
X43433053Y-120488557D01*
X43311200Y-120741588D01*
X43218443Y-121006670D01*
X43218439Y-121006682D01*
X43155945Y-121280487D01*
X43155942Y-121280505D01*
X43124500Y-121559568D01*
X38840500Y-121559568D01*
X38840500Y-56164500D01*
X38860185Y-56097461D01*
X38912989Y-56051706D01*
X38964500Y-56040500D01*
X54245216Y-56040500D01*
X54312255Y-56060185D01*
G37*
%TD.AperFunction*%
%TA.AperFunction,Conductor*%
G36*
X150920902Y-101408384D02*
G01*
X150976079Y-101451248D01*
X150999322Y-101517138D01*
X150999500Y-101523773D01*
X150999500Y-111534217D01*
X150979815Y-111601256D01*
X150963181Y-111621898D01*
X149807940Y-112777139D01*
X148862221Y-113722858D01*
X148862218Y-113722861D01*
X148792538Y-113792540D01*
X148722859Y-113862219D01*
X148613371Y-114026079D01*
X148613364Y-114026092D01*
X148537950Y-114208160D01*
X148537947Y-114208170D01*
X148499500Y-114401456D01*
X148499500Y-115686608D01*
X148493185Y-115708113D01*
X148491485Y-115730466D01*
X148483531Y-115740991D01*
X148479815Y-115753647D01*
X148462876Y-115768323D01*
X148449361Y-115786210D01*
X148436979Y-115790764D01*
X148427011Y-115799402D01*
X148404826Y-115802591D01*
X148383787Y-115810331D01*
X148370909Y-115807468D01*
X148357853Y-115809346D01*
X148337464Y-115800034D01*
X148315582Y-115795171D01*
X148301913Y-115783799D01*
X148294297Y-115780321D01*
X148287424Y-115773892D01*
X148279796Y-115766195D01*
X148277139Y-115762218D01*
X148137782Y-115622861D01*
X148137778Y-115622858D01*
X144755905Y-112240985D01*
X144722420Y-112179662D01*
X144727404Y-112109970D01*
X144769276Y-112054037D01*
X144834740Y-112029620D01*
X144881902Y-112035372D01*
X144938083Y-112053627D01*
X144968631Y-112063553D01*
X145201903Y-112100500D01*
X145201908Y-112100500D01*
X145438097Y-112100500D01*
X145671368Y-112063553D01*
X145700655Y-112054037D01*
X145895992Y-111990568D01*
X146106433Y-111883343D01*
X146297510Y-111744517D01*
X146464517Y-111577510D01*
X146603343Y-111386433D01*
X146710568Y-111175992D01*
X146783553Y-110951368D01*
X146820500Y-110718097D01*
X146820500Y-110481902D01*
X146783553Y-110248631D01*
X146710566Y-110024003D01*
X146603342Y-109813566D01*
X146464517Y-109622490D01*
X146297510Y-109455483D01*
X146238282Y-109412451D01*
X146195617Y-109357122D01*
X146187550Y-109302404D01*
X146189104Y-109282657D01*
X145449408Y-108542962D01*
X145512993Y-108525925D01*
X145627007Y-108460099D01*
X145720099Y-108367007D01*
X145785925Y-108252993D01*
X145802962Y-108189409D01*
X146542658Y-108929105D01*
X146542658Y-108929104D01*
X146602914Y-108846169D01*
X146602918Y-108846163D01*
X146710102Y-108635802D01*
X146783065Y-108411247D01*
X146820000Y-108178052D01*
X146820000Y-107941947D01*
X146783065Y-107708752D01*
X146710102Y-107484197D01*
X146602914Y-107273828D01*
X146542658Y-107190894D01*
X146542658Y-107190893D01*
X145802962Y-107930590D01*
X145785925Y-107867007D01*
X145720099Y-107752993D01*
X145627007Y-107659901D01*
X145512993Y-107594075D01*
X145449409Y-107577037D01*
X146189105Y-106837340D01*
X146187551Y-106817594D01*
X146201915Y-106749216D01*
X146238284Y-106707547D01*
X146297510Y-106664517D01*
X146464517Y-106497510D01*
X146603343Y-106306433D01*
X146710568Y-106095992D01*
X146783553Y-105871368D01*
X146820500Y-105638097D01*
X146820500Y-105401902D01*
X146783553Y-105168631D01*
X146710566Y-104944003D01*
X146603342Y-104733566D01*
X146464517Y-104542490D01*
X146297510Y-104375483D01*
X146262872Y-104350317D01*
X146220207Y-104294989D01*
X146214228Y-104225375D01*
X146246833Y-104163580D01*
X146262873Y-104149682D01*
X146297510Y-104124517D01*
X146464517Y-103957510D01*
X146603343Y-103766433D01*
X146710568Y-103555992D01*
X146783553Y-103331368D01*
X146790533Y-103287300D01*
X146820500Y-103098097D01*
X146820500Y-102861902D01*
X146783553Y-102628631D01*
X146710566Y-102404003D01*
X146638531Y-102262627D01*
X146603343Y-102193567D01*
X146513449Y-102069839D01*
X146489970Y-102004035D01*
X146505795Y-101935981D01*
X146554744Y-101888410D01*
X146554546Y-101888047D01*
X146555851Y-101887334D01*
X146555901Y-101887286D01*
X146556111Y-101887192D01*
X146562326Y-101883797D01*
X146562331Y-101883796D01*
X146677546Y-101797546D01*
X146763796Y-101682331D01*
X146814091Y-101547483D01*
X146814091Y-101547481D01*
X146815874Y-101539938D01*
X146818146Y-101540474D01*
X146840429Y-101486688D01*
X146897823Y-101446843D01*
X146936976Y-101440500D01*
X150658542Y-101440500D01*
X150677870Y-101436655D01*
X150755188Y-101421275D01*
X150851312Y-101402155D01*
X150920902Y-101408384D01*
G37*
%TD.AperFunction*%
%TA.AperFunction,Conductor*%
G36*
X139340482Y-106504392D02*
G01*
X139364921Y-106509254D01*
X139421456Y-106520500D01*
X139421458Y-106520500D01*
X144147111Y-106520500D01*
X144173510Y-106528251D01*
X144200673Y-106532665D01*
X144209272Y-106538752D01*
X144214150Y-106540185D01*
X144230011Y-106552285D01*
X144232456Y-106554483D01*
X144342490Y-106664517D01*
X144406939Y-106711342D01*
X144411730Y-106715649D01*
X144426826Y-106740110D01*
X144444381Y-106762875D01*
X144445481Y-106770336D01*
X144448425Y-106775107D01*
X144448177Y-106788629D01*
X144452448Y-106817593D01*
X144450893Y-106837340D01*
X145190591Y-107577037D01*
X145127007Y-107594075D01*
X145012993Y-107659901D01*
X144919901Y-107752993D01*
X144854075Y-107867007D01*
X144837037Y-107930591D01*
X144097340Y-107190894D01*
X144037084Y-107273830D01*
X143929897Y-107484197D01*
X143856934Y-107708752D01*
X143820000Y-107941947D01*
X143820000Y-108178052D01*
X143856934Y-108411247D01*
X143929897Y-108635802D01*
X144037087Y-108846174D01*
X144097338Y-108929104D01*
X144097340Y-108929105D01*
X144837037Y-108189408D01*
X144854075Y-108252993D01*
X144919901Y-108367007D01*
X145012993Y-108460099D01*
X145127007Y-108525925D01*
X145190590Y-108542962D01*
X144450893Y-109282658D01*
X144452448Y-109302405D01*
X144438084Y-109370783D01*
X144401717Y-109412451D01*
X144342490Y-109455482D01*
X144175485Y-109622487D01*
X144175485Y-109622488D01*
X144175483Y-109622490D01*
X144115862Y-109704550D01*
X144036657Y-109813566D01*
X143929433Y-110024003D01*
X143856446Y-110248631D01*
X143819500Y-110481902D01*
X143819500Y-110718097D01*
X143856446Y-110951368D01*
X143884626Y-111038094D01*
X143886621Y-111107936D01*
X143850541Y-111167769D01*
X143787840Y-111198597D01*
X143718426Y-111190632D01*
X143679014Y-111164094D01*
X139228611Y-106713691D01*
X139195126Y-106652368D01*
X139200110Y-106582676D01*
X139241982Y-106526743D01*
X139307446Y-106502326D01*
X139340482Y-106504392D01*
G37*
%TD.AperFunction*%
%TA.AperFunction,Conductor*%
G36*
X81319075Y-74297993D02*
G01*
X81384901Y-74412007D01*
X81477993Y-74505099D01*
X81592007Y-74570925D01*
X81655590Y-74587962D01*
X80915893Y-75327658D01*
X80998828Y-75387914D01*
X81209197Y-75495102D01*
X81433752Y-75568065D01*
X81433751Y-75568065D01*
X81666948Y-75605000D01*
X81903052Y-75605000D01*
X82136247Y-75568065D01*
X82360802Y-75495102D01*
X82571163Y-75387918D01*
X82571169Y-75387914D01*
X82654104Y-75327658D01*
X82654105Y-75327658D01*
X81914408Y-74587962D01*
X81977993Y-74570925D01*
X82092007Y-74505099D01*
X82185099Y-74412007D01*
X82250925Y-74297993D01*
X82267962Y-74234409D01*
X83007657Y-74974104D01*
X83027404Y-74972550D01*
X83095781Y-74986914D01*
X83137451Y-75023282D01*
X83180483Y-75082510D01*
X83347490Y-75249517D01*
X83538567Y-75388343D01*
X83637991Y-75439002D01*
X83749003Y-75495566D01*
X83749005Y-75495566D01*
X83749008Y-75495568D01*
X83869412Y-75534689D01*
X83973631Y-75568553D01*
X84206903Y-75605500D01*
X84206908Y-75605500D01*
X84443097Y-75605500D01*
X84676368Y-75568553D01*
X84677870Y-75568065D01*
X84900992Y-75495568D01*
X85111433Y-75388343D01*
X85302510Y-75249517D01*
X85469517Y-75082510D01*
X85494682Y-75047872D01*
X85550011Y-75005207D01*
X85619625Y-74999228D01*
X85681420Y-75031833D01*
X85695315Y-75047870D01*
X85720483Y-75082510D01*
X85887490Y-75249517D01*
X86078567Y-75388343D01*
X86177991Y-75439002D01*
X86289003Y-75495566D01*
X86289005Y-75495566D01*
X86289008Y-75495568D01*
X86409412Y-75534689D01*
X86513631Y-75568553D01*
X86746903Y-75605500D01*
X86746908Y-75605500D01*
X86983097Y-75605500D01*
X87216368Y-75568553D01*
X87217870Y-75568065D01*
X87440992Y-75495568D01*
X87651433Y-75388343D01*
X87842510Y-75249517D01*
X88009517Y-75082510D01*
X88034682Y-75047872D01*
X88090011Y-75005207D01*
X88159625Y-74999228D01*
X88221420Y-75031833D01*
X88235315Y-75047870D01*
X88260483Y-75082510D01*
X88427490Y-75249517D01*
X88618567Y-75388343D01*
X88717991Y-75439002D01*
X88829003Y-75495566D01*
X88829005Y-75495566D01*
X88829008Y-75495568D01*
X88958761Y-75537727D01*
X89053625Y-75568551D01*
X89053626Y-75568551D01*
X89053632Y-75568553D01*
X89117911Y-75578733D01*
X89181043Y-75608661D01*
X89217975Y-75667973D01*
X89216977Y-75737835D01*
X89186192Y-75788887D01*
X88511899Y-76463181D01*
X88450576Y-76496666D01*
X88424218Y-76499500D01*
X51363783Y-76499500D01*
X51296744Y-76479815D01*
X51276102Y-76463181D01*
X50630101Y-75817180D01*
X50596616Y-75755857D01*
X50601600Y-75686165D01*
X50643472Y-75630232D01*
X50708936Y-75605815D01*
X50717782Y-75605499D01*
X52352871Y-75605499D01*
X52352872Y-75605499D01*
X52412483Y-75599091D01*
X52547331Y-75548796D01*
X52662546Y-75462546D01*
X52748796Y-75347331D01*
X52748797Y-75347326D01*
X52753047Y-75339546D01*
X52756380Y-75341366D01*
X52787292Y-75299766D01*
X52852669Y-75275116D01*
X52920994Y-75289725D01*
X52934835Y-75298446D01*
X53058567Y-75388343D01*
X53157991Y-75439002D01*
X53269003Y-75495566D01*
X53269005Y-75495566D01*
X53269008Y-75495568D01*
X53389412Y-75534689D01*
X53493631Y-75568553D01*
X53726903Y-75605500D01*
X53726908Y-75605500D01*
X53963097Y-75605500D01*
X54196368Y-75568553D01*
X54197870Y-75568065D01*
X54420992Y-75495568D01*
X54631433Y-75388343D01*
X54822510Y-75249517D01*
X54989517Y-75082510D01*
X55014682Y-75047872D01*
X55070011Y-75005207D01*
X55139625Y-74999228D01*
X55201420Y-75031833D01*
X55215315Y-75047870D01*
X55240483Y-75082510D01*
X55407490Y-75249517D01*
X55598567Y-75388343D01*
X55697991Y-75439002D01*
X55809003Y-75495566D01*
X55809005Y-75495566D01*
X55809008Y-75495568D01*
X55929412Y-75534689D01*
X56033631Y-75568553D01*
X56266903Y-75605500D01*
X56266908Y-75605500D01*
X56503097Y-75605500D01*
X56736368Y-75568553D01*
X56737870Y-75568065D01*
X56960992Y-75495568D01*
X57171433Y-75388343D01*
X57362510Y-75249517D01*
X57529517Y-75082510D01*
X57554682Y-75047872D01*
X57610011Y-75005207D01*
X57679625Y-74999228D01*
X57741420Y-75031833D01*
X57755315Y-75047870D01*
X57780483Y-75082510D01*
X57947490Y-75249517D01*
X58138567Y-75388343D01*
X58237991Y-75439002D01*
X58349003Y-75495566D01*
X58349005Y-75495566D01*
X58349008Y-75495568D01*
X58469412Y-75534689D01*
X58573631Y-75568553D01*
X58806903Y-75605500D01*
X58806908Y-75605500D01*
X59043097Y-75605500D01*
X59276368Y-75568553D01*
X59277870Y-75568065D01*
X59500992Y-75495568D01*
X59711433Y-75388343D01*
X59902510Y-75249517D01*
X60069517Y-75082510D01*
X60116370Y-75018022D01*
X60120713Y-75013199D01*
X60145150Y-74998142D01*
X60167877Y-74980618D01*
X60175393Y-74979509D01*
X60180199Y-74976549D01*
X60193730Y-74976806D01*
X60222594Y-74972551D01*
X60242340Y-74974105D01*
X60982037Y-74234408D01*
X60999075Y-74297993D01*
X61064901Y-74412007D01*
X61157993Y-74505099D01*
X61272007Y-74570925D01*
X61335590Y-74587962D01*
X60595893Y-75327658D01*
X60678828Y-75387914D01*
X60889197Y-75495102D01*
X61113752Y-75568065D01*
X61113751Y-75568065D01*
X61346948Y-75605000D01*
X61583052Y-75605000D01*
X61816247Y-75568065D01*
X62040802Y-75495102D01*
X62251163Y-75387918D01*
X62251169Y-75387914D01*
X62334104Y-75327658D01*
X62334105Y-75327658D01*
X61594408Y-74587962D01*
X61657993Y-74570925D01*
X61772007Y-74505099D01*
X61865099Y-74412007D01*
X61930925Y-74297993D01*
X61947962Y-74234409D01*
X62687657Y-74974104D01*
X62707404Y-74972550D01*
X62775781Y-74986914D01*
X62817451Y-75023282D01*
X62860483Y-75082510D01*
X63027490Y-75249517D01*
X63218567Y-75388343D01*
X63317991Y-75439002D01*
X63429003Y-75495566D01*
X63429005Y-75495566D01*
X63429008Y-75495568D01*
X63549412Y-75534689D01*
X63653631Y-75568553D01*
X63886903Y-75605500D01*
X63886908Y-75605500D01*
X64123097Y-75605500D01*
X64356368Y-75568553D01*
X64357870Y-75568065D01*
X64580992Y-75495568D01*
X64791433Y-75388343D01*
X64982510Y-75249517D01*
X65149517Y-75082510D01*
X65174682Y-75047872D01*
X65230011Y-75005207D01*
X65299625Y-74999228D01*
X65361420Y-75031833D01*
X65375315Y-75047870D01*
X65400483Y-75082510D01*
X65567490Y-75249517D01*
X65758567Y-75388343D01*
X65857991Y-75439002D01*
X65969003Y-75495566D01*
X65969005Y-75495566D01*
X65969008Y-75495568D01*
X66089412Y-75534689D01*
X66193631Y-75568553D01*
X66426903Y-75605500D01*
X66426908Y-75605500D01*
X66663097Y-75605500D01*
X66896368Y-75568553D01*
X66897870Y-75568065D01*
X67120992Y-75495568D01*
X67331433Y-75388343D01*
X67522510Y-75249517D01*
X67689517Y-75082510D01*
X67714682Y-75047872D01*
X67770011Y-75005207D01*
X67839625Y-74999228D01*
X67901420Y-75031833D01*
X67915315Y-75047870D01*
X67940483Y-75082510D01*
X68107490Y-75249517D01*
X68298567Y-75388343D01*
X68397991Y-75439002D01*
X68509003Y-75495566D01*
X68509005Y-75495566D01*
X68509008Y-75495568D01*
X68629412Y-75534689D01*
X68733631Y-75568553D01*
X68966903Y-75605500D01*
X68966908Y-75605500D01*
X69203097Y-75605500D01*
X69436368Y-75568553D01*
X69437870Y-75568065D01*
X69660992Y-75495568D01*
X69871433Y-75388343D01*
X70062510Y-75249517D01*
X70229517Y-75082510D01*
X70254682Y-75047872D01*
X70310011Y-75005207D01*
X70379625Y-74999228D01*
X70441420Y-75031833D01*
X70455315Y-75047870D01*
X70480483Y-75082510D01*
X70647490Y-75249517D01*
X70838567Y-75388343D01*
X70937991Y-75439002D01*
X71049003Y-75495566D01*
X71049005Y-75495566D01*
X71049008Y-75495568D01*
X71169412Y-75534689D01*
X71273631Y-75568553D01*
X71506903Y-75605500D01*
X71506908Y-75605500D01*
X71743097Y-75605500D01*
X71976368Y-75568553D01*
X71977870Y-75568065D01*
X72200992Y-75495568D01*
X72411433Y-75388343D01*
X72602510Y-75249517D01*
X72769517Y-75082510D01*
X72794682Y-75047872D01*
X72850011Y-75005207D01*
X72919625Y-74999228D01*
X72981420Y-75031833D01*
X72995315Y-75047870D01*
X73020483Y-75082510D01*
X73187490Y-75249517D01*
X73378567Y-75388343D01*
X73477991Y-75439002D01*
X73589003Y-75495566D01*
X73589005Y-75495566D01*
X73589008Y-75495568D01*
X73709412Y-75534689D01*
X73813631Y-75568553D01*
X74046903Y-75605500D01*
X74046908Y-75605500D01*
X74283097Y-75605500D01*
X74516368Y-75568553D01*
X74517870Y-75568065D01*
X74740992Y-75495568D01*
X74951433Y-75388343D01*
X75142510Y-75249517D01*
X75309517Y-75082510D01*
X75334682Y-75047872D01*
X75390011Y-75005207D01*
X75459625Y-74999228D01*
X75521420Y-75031833D01*
X75535315Y-75047870D01*
X75560483Y-75082510D01*
X75727490Y-75249517D01*
X75918567Y-75388343D01*
X76017991Y-75439002D01*
X76129003Y-75495566D01*
X76129005Y-75495566D01*
X76129008Y-75495568D01*
X76249412Y-75534689D01*
X76353631Y-75568553D01*
X76586903Y-75605500D01*
X76586908Y-75605500D01*
X76823097Y-75605500D01*
X77056368Y-75568553D01*
X77057870Y-75568065D01*
X77280992Y-75495568D01*
X77491433Y-75388343D01*
X77682510Y-75249517D01*
X77849517Y-75082510D01*
X77874682Y-75047872D01*
X77930011Y-75005207D01*
X77999625Y-74999228D01*
X78061420Y-75031833D01*
X78075315Y-75047870D01*
X78100483Y-75082510D01*
X78267490Y-75249517D01*
X78458567Y-75388343D01*
X78557991Y-75439002D01*
X78669003Y-75495566D01*
X78669005Y-75495566D01*
X78669008Y-75495568D01*
X78789412Y-75534689D01*
X78893631Y-75568553D01*
X79126903Y-75605500D01*
X79126908Y-75605500D01*
X79363097Y-75605500D01*
X79596368Y-75568553D01*
X79597870Y-75568065D01*
X79820992Y-75495568D01*
X80031433Y-75388343D01*
X80222510Y-75249517D01*
X80389517Y-75082510D01*
X80436370Y-75018022D01*
X80440713Y-75013199D01*
X80465150Y-74998142D01*
X80487877Y-74980618D01*
X80495393Y-74979509D01*
X80500199Y-74976549D01*
X80513730Y-74976806D01*
X80542594Y-74972551D01*
X80562340Y-74974105D01*
X81302037Y-74234408D01*
X81319075Y-74297993D01*
G37*
%TD.AperFunction*%
%TA.AperFunction,Conductor*%
G36*
X60281420Y-72491833D02*
G01*
X60295315Y-72507870D01*
X60320483Y-72542510D01*
X60487490Y-72709517D01*
X60546716Y-72752547D01*
X60589381Y-72807875D01*
X60597448Y-72862593D01*
X60595893Y-72882340D01*
X61335591Y-73622037D01*
X61272007Y-73639075D01*
X61157993Y-73704901D01*
X61064901Y-73797993D01*
X60999075Y-73912007D01*
X60982037Y-73975590D01*
X60242340Y-73235893D01*
X60222593Y-73237448D01*
X60154215Y-73223084D01*
X60112547Y-73186716D01*
X60069517Y-73127490D01*
X59902510Y-72960483D01*
X59867872Y-72935317D01*
X59825207Y-72879989D01*
X59819228Y-72810375D01*
X59851833Y-72748580D01*
X59867873Y-72734682D01*
X59872747Y-72731141D01*
X59902510Y-72709517D01*
X60069517Y-72542510D01*
X60094682Y-72507872D01*
X60150011Y-72465207D01*
X60219625Y-72459228D01*
X60281420Y-72491833D01*
G37*
%TD.AperFunction*%
%TA.AperFunction,Conductor*%
G36*
X62821420Y-72491833D02*
G01*
X62835315Y-72507870D01*
X62860483Y-72542510D01*
X63027490Y-72709517D01*
X63062127Y-72734683D01*
X63104792Y-72790013D01*
X63110771Y-72859626D01*
X63078165Y-72921421D01*
X63062130Y-72935315D01*
X63044365Y-72948222D01*
X63027488Y-72960484D01*
X62860482Y-73127490D01*
X62817451Y-73186717D01*
X62762120Y-73229382D01*
X62707405Y-73237448D01*
X62687658Y-73235893D01*
X61947962Y-73975590D01*
X61930925Y-73912007D01*
X61865099Y-73797993D01*
X61772007Y-73704901D01*
X61657993Y-73639075D01*
X61594409Y-73622037D01*
X62334105Y-72882340D01*
X62332551Y-72862594D01*
X62346915Y-72794216D01*
X62383284Y-72752547D01*
X62442510Y-72709517D01*
X62609517Y-72542510D01*
X62634682Y-72507872D01*
X62690011Y-72465207D01*
X62759625Y-72459228D01*
X62821420Y-72491833D01*
G37*
%TD.AperFunction*%
%TA.AperFunction,Conductor*%
G36*
X80601420Y-72491833D02*
G01*
X80615315Y-72507870D01*
X80640483Y-72542510D01*
X80807490Y-72709517D01*
X80866716Y-72752547D01*
X80909381Y-72807875D01*
X80917448Y-72862593D01*
X80915893Y-72882340D01*
X81655591Y-73622037D01*
X81592007Y-73639075D01*
X81477993Y-73704901D01*
X81384901Y-73797993D01*
X81319075Y-73912007D01*
X81302037Y-73975590D01*
X80562340Y-73235893D01*
X80542593Y-73237448D01*
X80474215Y-73223084D01*
X80432547Y-73186716D01*
X80389517Y-73127490D01*
X80222510Y-72960483D01*
X80187872Y-72935317D01*
X80145207Y-72879989D01*
X80139228Y-72810375D01*
X80171833Y-72748580D01*
X80187873Y-72734682D01*
X80192747Y-72731141D01*
X80222510Y-72709517D01*
X80389517Y-72542510D01*
X80414682Y-72507872D01*
X80470011Y-72465207D01*
X80539625Y-72459228D01*
X80601420Y-72491833D01*
G37*
%TD.AperFunction*%
%TA.AperFunction,Conductor*%
G36*
X83141420Y-72491833D02*
G01*
X83155315Y-72507870D01*
X83180483Y-72542510D01*
X83347490Y-72709517D01*
X83382127Y-72734683D01*
X83424792Y-72790013D01*
X83430771Y-72859626D01*
X83398165Y-72921421D01*
X83382130Y-72935315D01*
X83364365Y-72948222D01*
X83347488Y-72960484D01*
X83180482Y-73127490D01*
X83137451Y-73186717D01*
X83082120Y-73229382D01*
X83027405Y-73237448D01*
X83007658Y-73235893D01*
X82267962Y-73975590D01*
X82250925Y-73912007D01*
X82185099Y-73797993D01*
X82092007Y-73704901D01*
X81977993Y-73639075D01*
X81914409Y-73622037D01*
X82654105Y-72882340D01*
X82652551Y-72862594D01*
X82666915Y-72794216D01*
X82703284Y-72752547D01*
X82762510Y-72709517D01*
X82929517Y-72542510D01*
X82954682Y-72507872D01*
X83010011Y-72465207D01*
X83079625Y-72459228D01*
X83141420Y-72491833D01*
G37*
%TD.AperFunction*%
%TA.AperFunction,Conductor*%
G36*
X98381420Y-72491833D02*
G01*
X98395315Y-72507870D01*
X98420483Y-72542510D01*
X98587490Y-72709517D01*
X98646716Y-72752547D01*
X98689381Y-72807875D01*
X98697448Y-72862593D01*
X98695893Y-72882340D01*
X99435591Y-73622037D01*
X99372007Y-73639075D01*
X99257993Y-73704901D01*
X99164901Y-73797993D01*
X99099075Y-73912007D01*
X99082037Y-73975590D01*
X98342340Y-73235893D01*
X98322593Y-73237448D01*
X98254215Y-73223084D01*
X98212547Y-73186716D01*
X98169517Y-73127490D01*
X98002510Y-72960483D01*
X97967872Y-72935317D01*
X97925207Y-72879989D01*
X97919228Y-72810375D01*
X97951833Y-72748580D01*
X97967873Y-72734682D01*
X97972747Y-72731141D01*
X98002510Y-72709517D01*
X98169517Y-72542510D01*
X98194682Y-72507872D01*
X98250011Y-72465207D01*
X98319625Y-72459228D01*
X98381420Y-72491833D01*
G37*
%TD.AperFunction*%
%TA.AperFunction,Conductor*%
G36*
X55919075Y-71757993D02*
G01*
X55984901Y-71872007D01*
X56077993Y-71965099D01*
X56192007Y-72030925D01*
X56255590Y-72047962D01*
X55515893Y-72787658D01*
X55517448Y-72807405D01*
X55503084Y-72875783D01*
X55466717Y-72917451D01*
X55407490Y-72960482D01*
X55240484Y-73127488D01*
X55215318Y-73162127D01*
X55159987Y-73204792D01*
X55090374Y-73210771D01*
X55028579Y-73178165D01*
X55014682Y-73162127D01*
X54989519Y-73127493D01*
X54989517Y-73127490D01*
X54822510Y-72960483D01*
X54787872Y-72935317D01*
X54745207Y-72879989D01*
X54739228Y-72810375D01*
X54771833Y-72748580D01*
X54787873Y-72734682D01*
X54792747Y-72731141D01*
X54822510Y-72709517D01*
X54989517Y-72542510D01*
X55032547Y-72483283D01*
X55087877Y-72440618D01*
X55142594Y-72432551D01*
X55162340Y-72434105D01*
X55902037Y-71694408D01*
X55919075Y-71757993D01*
G37*
%TD.AperFunction*%
%TA.AperFunction,Conductor*%
G36*
X57607657Y-72434104D02*
G01*
X57627404Y-72432550D01*
X57695781Y-72446914D01*
X57737451Y-72483282D01*
X57780483Y-72542510D01*
X57947490Y-72709517D01*
X57982127Y-72734683D01*
X58024792Y-72790013D01*
X58030771Y-72859626D01*
X57998165Y-72921421D01*
X57982130Y-72935315D01*
X57964365Y-72948222D01*
X57947488Y-72960484D01*
X57780484Y-73127488D01*
X57755318Y-73162127D01*
X57699987Y-73204792D01*
X57630374Y-73210771D01*
X57568579Y-73178165D01*
X57554682Y-73162127D01*
X57529519Y-73127493D01*
X57529517Y-73127490D01*
X57362510Y-72960483D01*
X57303282Y-72917451D01*
X57260617Y-72862122D01*
X57252550Y-72807404D01*
X57254104Y-72787657D01*
X56514408Y-72047962D01*
X56577993Y-72030925D01*
X56692007Y-71965099D01*
X56785099Y-71872007D01*
X56850925Y-71757993D01*
X56867962Y-71694409D01*
X57607657Y-72434104D01*
G37*
%TD.AperFunction*%
%TA.AperFunction,Conductor*%
G36*
X66079075Y-71757993D02*
G01*
X66144901Y-71872007D01*
X66237993Y-71965099D01*
X66352007Y-72030925D01*
X66415590Y-72047962D01*
X65675893Y-72787658D01*
X65677448Y-72807405D01*
X65663084Y-72875783D01*
X65626717Y-72917451D01*
X65567490Y-72960482D01*
X65400484Y-73127488D01*
X65375318Y-73162127D01*
X65319987Y-73204792D01*
X65250374Y-73210771D01*
X65188579Y-73178165D01*
X65174682Y-73162127D01*
X65149519Y-73127493D01*
X65149517Y-73127490D01*
X64982510Y-72960483D01*
X64947872Y-72935317D01*
X64905207Y-72879989D01*
X64899228Y-72810375D01*
X64931833Y-72748580D01*
X64947873Y-72734682D01*
X64952747Y-72731141D01*
X64982510Y-72709517D01*
X65149517Y-72542510D01*
X65192547Y-72483283D01*
X65247877Y-72440618D01*
X65302594Y-72432551D01*
X65322340Y-72434105D01*
X66062037Y-71694408D01*
X66079075Y-71757993D01*
G37*
%TD.AperFunction*%
%TA.AperFunction,Conductor*%
G36*
X67767657Y-72434104D02*
G01*
X67787404Y-72432550D01*
X67855781Y-72446914D01*
X67897451Y-72483282D01*
X67940483Y-72542510D01*
X68107490Y-72709517D01*
X68142127Y-72734683D01*
X68184792Y-72790013D01*
X68190771Y-72859626D01*
X68158165Y-72921421D01*
X68142130Y-72935315D01*
X68124365Y-72948222D01*
X68107488Y-72960484D01*
X67940484Y-73127488D01*
X67915318Y-73162127D01*
X67859987Y-73204792D01*
X67790374Y-73210771D01*
X67728579Y-73178165D01*
X67714682Y-73162127D01*
X67689519Y-73127493D01*
X67689517Y-73127490D01*
X67522510Y-72960483D01*
X67463282Y-72917451D01*
X67420617Y-72862122D01*
X67412550Y-72807404D01*
X67414104Y-72787657D01*
X66674408Y-72047962D01*
X66737993Y-72030925D01*
X66852007Y-71965099D01*
X66945099Y-71872007D01*
X67010925Y-71757993D01*
X67027962Y-71694408D01*
X67767657Y-72434104D01*
G37*
%TD.AperFunction*%
%TA.AperFunction,Conductor*%
G36*
X73699075Y-71757993D02*
G01*
X73764901Y-71872007D01*
X73857993Y-71965099D01*
X73972007Y-72030925D01*
X74035590Y-72047962D01*
X73295893Y-72787658D01*
X73297448Y-72807405D01*
X73283084Y-72875783D01*
X73246717Y-72917451D01*
X73187490Y-72960482D01*
X73020484Y-73127488D01*
X72995318Y-73162127D01*
X72939987Y-73204792D01*
X72870374Y-73210771D01*
X72808579Y-73178165D01*
X72794682Y-73162127D01*
X72769519Y-73127493D01*
X72769517Y-73127490D01*
X72602510Y-72960483D01*
X72567872Y-72935317D01*
X72525207Y-72879989D01*
X72519228Y-72810375D01*
X72551833Y-72748580D01*
X72567873Y-72734682D01*
X72572747Y-72731141D01*
X72602510Y-72709517D01*
X72769517Y-72542510D01*
X72812547Y-72483283D01*
X72867877Y-72440618D01*
X72922594Y-72432551D01*
X72942340Y-72434105D01*
X73682037Y-71694408D01*
X73699075Y-71757993D01*
G37*
%TD.AperFunction*%
%TA.AperFunction,Conductor*%
G36*
X75387657Y-72434104D02*
G01*
X75407404Y-72432550D01*
X75475781Y-72446914D01*
X75517451Y-72483282D01*
X75560483Y-72542510D01*
X75727490Y-72709517D01*
X75762127Y-72734683D01*
X75804792Y-72790013D01*
X75810771Y-72859626D01*
X75778165Y-72921421D01*
X75762130Y-72935315D01*
X75744365Y-72948222D01*
X75727488Y-72960484D01*
X75560484Y-73127488D01*
X75535318Y-73162127D01*
X75479987Y-73204792D01*
X75410374Y-73210771D01*
X75348579Y-73178165D01*
X75334682Y-73162127D01*
X75309519Y-73127493D01*
X75309517Y-73127490D01*
X75142510Y-72960483D01*
X75083282Y-72917451D01*
X75040617Y-72862122D01*
X75032550Y-72807404D01*
X75034104Y-72787657D01*
X74294408Y-72047962D01*
X74357993Y-72030925D01*
X74472007Y-71965099D01*
X74565099Y-71872007D01*
X74630925Y-71757993D01*
X74647962Y-71694409D01*
X75387657Y-72434104D01*
G37*
%TD.AperFunction*%
%TA.AperFunction,Conductor*%
G36*
X86399075Y-71757993D02*
G01*
X86464901Y-71872007D01*
X86557993Y-71965099D01*
X86672007Y-72030925D01*
X86735590Y-72047962D01*
X85995893Y-72787658D01*
X85997448Y-72807405D01*
X85983084Y-72875783D01*
X85946717Y-72917451D01*
X85887490Y-72960482D01*
X85720484Y-73127488D01*
X85695318Y-73162127D01*
X85639987Y-73204792D01*
X85570374Y-73210771D01*
X85508579Y-73178165D01*
X85494682Y-73162127D01*
X85469519Y-73127493D01*
X85469517Y-73127490D01*
X85302510Y-72960483D01*
X85267872Y-72935317D01*
X85225207Y-72879989D01*
X85219228Y-72810375D01*
X85251833Y-72748580D01*
X85267873Y-72734682D01*
X85272747Y-72731141D01*
X85302510Y-72709517D01*
X85469517Y-72542510D01*
X85512547Y-72483283D01*
X85567877Y-72440618D01*
X85622594Y-72432551D01*
X85642340Y-72434105D01*
X86382037Y-71694408D01*
X86399075Y-71757993D01*
G37*
%TD.AperFunction*%
%TA.AperFunction,Conductor*%
G36*
X88087657Y-72434104D02*
G01*
X88107404Y-72432550D01*
X88175781Y-72446914D01*
X88217451Y-72483282D01*
X88260483Y-72542510D01*
X88427490Y-72709517D01*
X88462127Y-72734683D01*
X88504792Y-72790013D01*
X88510771Y-72859626D01*
X88478165Y-72921421D01*
X88462130Y-72935315D01*
X88444365Y-72948222D01*
X88427488Y-72960484D01*
X88260484Y-73127488D01*
X88235318Y-73162127D01*
X88179987Y-73204792D01*
X88110374Y-73210771D01*
X88048579Y-73178165D01*
X88034682Y-73162127D01*
X88009519Y-73127493D01*
X88009517Y-73127490D01*
X87842510Y-72960483D01*
X87783282Y-72917451D01*
X87740617Y-72862122D01*
X87732550Y-72807404D01*
X87734104Y-72787657D01*
X86994408Y-72047962D01*
X87057993Y-72030925D01*
X87172007Y-71965099D01*
X87265099Y-71872007D01*
X87330925Y-71757993D01*
X87347962Y-71694409D01*
X88087657Y-72434104D01*
G37*
%TD.AperFunction*%
%TA.AperFunction,Conductor*%
G36*
X91479075Y-71757993D02*
G01*
X91544901Y-71872007D01*
X91637993Y-71965099D01*
X91752007Y-72030925D01*
X91815590Y-72047962D01*
X91075893Y-72787658D01*
X91077448Y-72807405D01*
X91063084Y-72875783D01*
X91026717Y-72917451D01*
X90967490Y-72960482D01*
X90800484Y-73127488D01*
X90775318Y-73162127D01*
X90719987Y-73204792D01*
X90650374Y-73210771D01*
X90588579Y-73178165D01*
X90574682Y-73162127D01*
X90549519Y-73127493D01*
X90549517Y-73127490D01*
X90382510Y-72960483D01*
X90347872Y-72935317D01*
X90305207Y-72879989D01*
X90299228Y-72810375D01*
X90331833Y-72748580D01*
X90347873Y-72734682D01*
X90352747Y-72731141D01*
X90382510Y-72709517D01*
X90549517Y-72542510D01*
X90592547Y-72483283D01*
X90647877Y-72440618D01*
X90702594Y-72432551D01*
X90722340Y-72434105D01*
X91462037Y-71694407D01*
X91479075Y-71757993D01*
G37*
%TD.AperFunction*%
%TA.AperFunction,Conductor*%
G36*
X93167657Y-72434104D02*
G01*
X93187404Y-72432550D01*
X93255781Y-72446914D01*
X93297451Y-72483282D01*
X93340483Y-72542510D01*
X93507490Y-72709517D01*
X93542127Y-72734683D01*
X93584792Y-72790013D01*
X93590771Y-72859626D01*
X93558165Y-72921421D01*
X93542130Y-72935315D01*
X93524365Y-72948222D01*
X93507488Y-72960484D01*
X93340484Y-73127488D01*
X93315318Y-73162127D01*
X93259987Y-73204792D01*
X93190374Y-73210771D01*
X93128579Y-73178165D01*
X93114682Y-73162127D01*
X93089519Y-73127493D01*
X93089517Y-73127490D01*
X92922510Y-72960483D01*
X92863282Y-72917451D01*
X92820617Y-72862122D01*
X92812550Y-72807404D01*
X92814104Y-72787657D01*
X92074408Y-72047962D01*
X92137993Y-72030925D01*
X92252007Y-71965099D01*
X92345099Y-71872007D01*
X92410925Y-71757993D01*
X92427962Y-71694409D01*
X93167657Y-72434104D01*
G37*
%TD.AperFunction*%
%TA.AperFunction,Conductor*%
G36*
X62808118Y-64006816D02*
G01*
X62830477Y-64008519D01*
X62840997Y-64016470D01*
X62853647Y-64020185D01*
X62868326Y-64037126D01*
X62886217Y-64050648D01*
X62890768Y-64063025D01*
X62899402Y-64072989D01*
X62902592Y-64095178D01*
X62910332Y-64116225D01*
X62907469Y-64129096D01*
X62909346Y-64142147D01*
X62900032Y-64162541D01*
X62895165Y-64184428D01*
X62882207Y-64201572D01*
X62880321Y-64205703D01*
X62875643Y-64210257D01*
X62873884Y-64212585D01*
X62866193Y-64220204D01*
X62862218Y-64222861D01*
X62722861Y-64362218D01*
X62722858Y-64362221D01*
X62722672Y-64362406D01*
X62722564Y-64362514D01*
X60485079Y-66600000D01*
X58287221Y-68797858D01*
X58287218Y-68797861D01*
X58248422Y-68836657D01*
X58147859Y-68937219D01*
X58038371Y-69101079D01*
X58038364Y-69101092D01*
X57962950Y-69283160D01*
X57962947Y-69283170D01*
X57924500Y-69476456D01*
X57924500Y-70392111D01*
X57916748Y-70418509D01*
X57912335Y-70445674D01*
X57906246Y-70454273D01*
X57904815Y-70459150D01*
X57892714Y-70475012D01*
X57890515Y-70477457D01*
X57780483Y-70587490D01*
X57733665Y-70651928D01*
X57729348Y-70656731D01*
X57704885Y-70671827D01*
X57682120Y-70689382D01*
X57674658Y-70690481D01*
X57669890Y-70693425D01*
X57656369Y-70693178D01*
X57627405Y-70697448D01*
X57607658Y-70695893D01*
X56867962Y-71435590D01*
X56850925Y-71372007D01*
X56785099Y-71257993D01*
X56692007Y-71164901D01*
X56577993Y-71099075D01*
X56514409Y-71082037D01*
X57254105Y-70342340D01*
X57254104Y-70342338D01*
X57171174Y-70282087D01*
X56960802Y-70174897D01*
X56736247Y-70101934D01*
X56736248Y-70101934D01*
X56503052Y-70065000D01*
X56266948Y-70065000D01*
X56033752Y-70101934D01*
X55809197Y-70174897D01*
X55598830Y-70282084D01*
X55515894Y-70342340D01*
X56255591Y-71082037D01*
X56192007Y-71099075D01*
X56077993Y-71164901D01*
X55984901Y-71257993D01*
X55919075Y-71372007D01*
X55902037Y-71435590D01*
X55162340Y-70695893D01*
X55142593Y-70697448D01*
X55138860Y-70696663D01*
X55135222Y-70697808D01*
X55104936Y-70689537D01*
X55074215Y-70683084D01*
X55070429Y-70680114D01*
X55067821Y-70679402D01*
X55058431Y-70670701D01*
X55040712Y-70656800D01*
X55036370Y-70651978D01*
X54989517Y-70587490D01*
X54822510Y-70420483D01*
X54631433Y-70281657D01*
X54622568Y-70277140D01*
X54420996Y-70174433D01*
X54196368Y-70101446D01*
X53963097Y-70064500D01*
X53963092Y-70064500D01*
X53726908Y-70064500D01*
X53726903Y-70064500D01*
X53493631Y-70101446D01*
X53269003Y-70174433D01*
X53058563Y-70281659D01*
X53045957Y-70290818D01*
X52980151Y-70314298D01*
X52973072Y-70314500D01*
X52449500Y-70314500D01*
X52382461Y-70294815D01*
X52336706Y-70242011D01*
X52325500Y-70190500D01*
X52325500Y-67677959D01*
X52345185Y-67610920D01*
X52397989Y-67565165D01*
X52467147Y-67555221D01*
X52488507Y-67560254D01*
X52502393Y-67564856D01*
X52601683Y-67574999D01*
X53125000Y-67574999D01*
X53148308Y-67574999D01*
X53148322Y-67574998D01*
X53247607Y-67564855D01*
X53408481Y-67511547D01*
X53408492Y-67511542D01*
X53552728Y-67422575D01*
X53552732Y-67422572D01*
X53672572Y-67302732D01*
X53672575Y-67302728D01*
X53761542Y-67158492D01*
X53761547Y-67158481D01*
X53814855Y-66997606D01*
X53824999Y-66898322D01*
X53825000Y-66898309D01*
X53825000Y-66850000D01*
X53125000Y-66850000D01*
X53125000Y-67574999D01*
X52601683Y-67574999D01*
X52625000Y-67574998D01*
X52625000Y-66724000D01*
X52644685Y-66656961D01*
X52697489Y-66611206D01*
X52749000Y-66600000D01*
X52875000Y-66600000D01*
X52875000Y-66474000D01*
X52894685Y-66406961D01*
X52947489Y-66361206D01*
X52999000Y-66350000D01*
X53824999Y-66350000D01*
X53824999Y-66301692D01*
X53824998Y-66301677D01*
X53814855Y-66202392D01*
X53761547Y-66041518D01*
X53761542Y-66041507D01*
X53672575Y-65897271D01*
X53672572Y-65897267D01*
X53552732Y-65777427D01*
X53552728Y-65777424D01*
X53408492Y-65688457D01*
X53408483Y-65688453D01*
X53282286Y-65646635D01*
X53224842Y-65606862D01*
X53198019Y-65542346D01*
X53210334Y-65473570D01*
X53233604Y-65441255D01*
X54638041Y-64036819D01*
X54699364Y-64003334D01*
X54725722Y-64000500D01*
X62786608Y-64000500D01*
X62808118Y-64006816D01*
G37*
%TD.AperFunction*%
%TA.AperFunction,Conductor*%
G36*
X90353647Y-68020185D02*
G01*
X90399402Y-68072989D01*
X90409346Y-68142147D01*
X90380321Y-68205703D01*
X90365273Y-68220353D01*
X90362216Y-68222861D01*
X89108623Y-69476456D01*
X88767220Y-69817859D01*
X88767218Y-69817861D01*
X88697538Y-69887540D01*
X88627859Y-69957219D01*
X88518371Y-70121080D01*
X88518366Y-70121089D01*
X88471902Y-70233264D01*
X88471899Y-70233272D01*
X88469903Y-70238092D01*
X88442949Y-70303164D01*
X88433207Y-70352139D01*
X88431850Y-70358958D01*
X88431849Y-70358963D01*
X88424994Y-70393425D01*
X88392607Y-70455336D01*
X88391059Y-70456911D01*
X88260486Y-70587486D01*
X88260482Y-70587490D01*
X88217451Y-70646717D01*
X88162120Y-70689382D01*
X88107405Y-70697448D01*
X88087658Y-70695893D01*
X87347962Y-71435590D01*
X87330925Y-71372007D01*
X87265099Y-71257993D01*
X87172007Y-71164901D01*
X87057993Y-71099075D01*
X86994409Y-71082037D01*
X87734105Y-70342340D01*
X87734104Y-70342338D01*
X87651174Y-70282087D01*
X87440802Y-70174897D01*
X87216247Y-70101934D01*
X87216248Y-70101934D01*
X86983052Y-70065000D01*
X86746948Y-70065000D01*
X86513752Y-70101934D01*
X86289197Y-70174897D01*
X86078830Y-70282084D01*
X85995894Y-70342340D01*
X86735591Y-71082037D01*
X86672007Y-71099075D01*
X86557993Y-71164901D01*
X86464901Y-71257993D01*
X86399075Y-71372007D01*
X86382037Y-71435590D01*
X85642340Y-70695893D01*
X85622593Y-70697448D01*
X85618860Y-70696663D01*
X85615222Y-70697808D01*
X85584936Y-70689537D01*
X85554215Y-70683084D01*
X85550429Y-70680114D01*
X85547821Y-70679402D01*
X85538431Y-70670701D01*
X85520712Y-70656800D01*
X85516370Y-70651978D01*
X85469517Y-70587490D01*
X85302510Y-70420483D01*
X85111433Y-70281657D01*
X85102568Y-70277140D01*
X84900996Y-70174433D01*
X84676368Y-70101446D01*
X84443097Y-70064500D01*
X84443092Y-70064500D01*
X84206908Y-70064500D01*
X84206903Y-70064500D01*
X83973631Y-70101446D01*
X83749003Y-70174433D01*
X83538566Y-70281657D01*
X83455047Y-70342338D01*
X83347490Y-70420483D01*
X83347488Y-70420485D01*
X83347487Y-70420485D01*
X83180484Y-70587488D01*
X83155318Y-70622127D01*
X83099987Y-70664792D01*
X83030374Y-70670771D01*
X82968579Y-70638165D01*
X82954682Y-70622127D01*
X82953137Y-70620000D01*
X82929517Y-70587490D01*
X82762510Y-70420483D01*
X82571433Y-70281657D01*
X82562568Y-70277140D01*
X82360996Y-70174433D01*
X82136368Y-70101446D01*
X81903097Y-70064500D01*
X81903092Y-70064500D01*
X81666908Y-70064500D01*
X81666903Y-70064500D01*
X81433631Y-70101446D01*
X81209003Y-70174433D01*
X80998566Y-70281657D01*
X80915047Y-70342338D01*
X80807490Y-70420483D01*
X80807488Y-70420485D01*
X80807487Y-70420485D01*
X80640484Y-70587488D01*
X80615318Y-70622127D01*
X80559987Y-70664792D01*
X80490374Y-70670771D01*
X80428579Y-70638165D01*
X80414682Y-70622127D01*
X80413137Y-70620000D01*
X80389517Y-70587490D01*
X80222510Y-70420483D01*
X80031433Y-70281657D01*
X80022568Y-70277140D01*
X79820996Y-70174433D01*
X79596368Y-70101446D01*
X79363097Y-70064500D01*
X79363092Y-70064500D01*
X79126908Y-70064500D01*
X79126903Y-70064500D01*
X78893631Y-70101446D01*
X78669003Y-70174433D01*
X78458566Y-70281657D01*
X78375047Y-70342338D01*
X78267490Y-70420483D01*
X78267488Y-70420485D01*
X78267487Y-70420485D01*
X78100484Y-70587488D01*
X78075318Y-70622127D01*
X78019987Y-70664792D01*
X77950374Y-70670771D01*
X77888579Y-70638165D01*
X77874682Y-70622127D01*
X77873137Y-70620000D01*
X77849517Y-70587490D01*
X77682510Y-70420483D01*
X77491433Y-70281657D01*
X77482568Y-70277140D01*
X77280996Y-70174433D01*
X77056368Y-70101446D01*
X76823097Y-70064500D01*
X76823092Y-70064500D01*
X76586908Y-70064500D01*
X76586903Y-70064500D01*
X76353631Y-70101446D01*
X76129003Y-70174433D01*
X75918566Y-70281657D01*
X75835047Y-70342338D01*
X75727490Y-70420483D01*
X75727488Y-70420485D01*
X75727487Y-70420485D01*
X75560482Y-70587490D01*
X75517451Y-70646717D01*
X75462120Y-70689382D01*
X75407405Y-70697448D01*
X75387658Y-70695893D01*
X74647962Y-71435590D01*
X74630925Y-71372007D01*
X74565099Y-71257993D01*
X74472007Y-71164901D01*
X74357993Y-71099075D01*
X74294409Y-71082037D01*
X75034105Y-70342340D01*
X75034104Y-70342338D01*
X74951174Y-70282087D01*
X74740802Y-70174897D01*
X74516247Y-70101934D01*
X74516248Y-70101934D01*
X74283052Y-70065000D01*
X74046948Y-70065000D01*
X73813752Y-70101934D01*
X73589197Y-70174897D01*
X73378830Y-70282084D01*
X73295894Y-70342340D01*
X74035591Y-71082037D01*
X73972007Y-71099075D01*
X73857993Y-71164901D01*
X73764901Y-71257993D01*
X73699075Y-71372007D01*
X73682037Y-71435590D01*
X72942340Y-70695893D01*
X72922593Y-70697448D01*
X72918860Y-70696663D01*
X72915222Y-70697808D01*
X72884936Y-70689537D01*
X72854215Y-70683084D01*
X72850429Y-70680114D01*
X72847821Y-70679402D01*
X72838431Y-70670701D01*
X72820712Y-70656800D01*
X72816370Y-70651978D01*
X72769517Y-70587490D01*
X72602510Y-70420483D01*
X72411433Y-70281657D01*
X72402568Y-70277140D01*
X72200996Y-70174433D01*
X71976368Y-70101446D01*
X71743097Y-70064500D01*
X71743092Y-70064500D01*
X71506908Y-70064500D01*
X71506903Y-70064500D01*
X71273631Y-70101446D01*
X71049003Y-70174433D01*
X70838566Y-70281657D01*
X70755047Y-70342338D01*
X70647490Y-70420483D01*
X70647488Y-70420485D01*
X70647487Y-70420485D01*
X70480484Y-70587488D01*
X70455318Y-70622127D01*
X70399987Y-70664792D01*
X70330374Y-70670771D01*
X70268579Y-70638165D01*
X70254682Y-70622127D01*
X70253137Y-70620000D01*
X70229517Y-70587490D01*
X70062510Y-70420483D01*
X69871433Y-70281657D01*
X69862568Y-70277140D01*
X69660996Y-70174433D01*
X69436368Y-70101446D01*
X69203097Y-70064500D01*
X69203092Y-70064500D01*
X68966908Y-70064500D01*
X68966903Y-70064500D01*
X68733631Y-70101446D01*
X68509003Y-70174433D01*
X68298566Y-70281657D01*
X68215047Y-70342338D01*
X68107490Y-70420483D01*
X68107488Y-70420485D01*
X68107487Y-70420485D01*
X67940482Y-70587490D01*
X67897451Y-70646717D01*
X67842120Y-70689382D01*
X67787405Y-70697448D01*
X67767658Y-70695893D01*
X67027962Y-71435590D01*
X67010925Y-71372007D01*
X66945099Y-71257993D01*
X66852007Y-71164901D01*
X66737993Y-71099075D01*
X66674409Y-71082037D01*
X67414105Y-70342340D01*
X67414104Y-70342338D01*
X67331174Y-70282087D01*
X67120802Y-70174897D01*
X66896247Y-70101934D01*
X66896248Y-70101934D01*
X66663052Y-70065000D01*
X66426948Y-70065000D01*
X66193752Y-70101934D01*
X65969197Y-70174897D01*
X65758830Y-70282084D01*
X65675894Y-70342340D01*
X66415591Y-71082037D01*
X66352007Y-71099075D01*
X66237993Y-71164901D01*
X66144901Y-71257993D01*
X66079075Y-71372007D01*
X66062037Y-71435590D01*
X65322340Y-70695893D01*
X65302593Y-70697448D01*
X65298860Y-70696663D01*
X65295222Y-70697808D01*
X65264936Y-70689537D01*
X65234215Y-70683084D01*
X65230429Y-70680114D01*
X65227821Y-70679402D01*
X65218431Y-70670701D01*
X65200712Y-70656800D01*
X65196370Y-70651978D01*
X65149517Y-70587490D01*
X64982510Y-70420483D01*
X64791433Y-70281657D01*
X64782568Y-70277140D01*
X64580996Y-70174433D01*
X64356368Y-70101446D01*
X64123097Y-70064500D01*
X64123092Y-70064500D01*
X63886908Y-70064500D01*
X63886903Y-70064500D01*
X63653631Y-70101446D01*
X63429003Y-70174433D01*
X63218566Y-70281657D01*
X63135047Y-70342338D01*
X63027490Y-70420483D01*
X63027488Y-70420485D01*
X63027487Y-70420485D01*
X62860484Y-70587488D01*
X62835318Y-70622127D01*
X62814648Y-70638065D01*
X62796554Y-70656885D01*
X62787419Y-70659060D01*
X62779987Y-70664792D01*
X62753982Y-70667025D01*
X62728586Y-70673075D01*
X62719727Y-70669967D01*
X62710374Y-70670771D01*
X62687286Y-70658589D01*
X62662654Y-70649949D01*
X62653323Y-70640668D01*
X62648579Y-70638165D01*
X62637212Y-70625488D01*
X62635927Y-70623840D01*
X62609517Y-70587490D01*
X62600743Y-70578716D01*
X62596047Y-70572693D01*
X62585894Y-70547024D01*
X62572669Y-70522804D01*
X62573227Y-70514998D01*
X62570349Y-70507721D01*
X62575684Y-70480644D01*
X62577653Y-70453112D01*
X62582636Y-70445357D01*
X62583856Y-70439169D01*
X62592174Y-70430517D01*
X62606154Y-70408765D01*
X63171750Y-69843170D01*
X64358474Y-68656446D01*
X64978102Y-68036819D01*
X65039425Y-68003334D01*
X65065783Y-68000500D01*
X90286608Y-68000500D01*
X90353647Y-68020185D01*
G37*
%TD.AperFunction*%
%TA.AperFunction,Conductor*%
G36*
X93739983Y-70002294D02*
G01*
X93746245Y-70001119D01*
X93773104Y-70012020D01*
X93800910Y-70020185D01*
X93805080Y-70024998D01*
X93810986Y-70027395D01*
X93827690Y-70051091D01*
X93846665Y-70072989D01*
X93847571Y-70079293D01*
X93851243Y-70084502D01*
X93852484Y-70113460D01*
X93856609Y-70142147D01*
X93853962Y-70147942D01*
X93854235Y-70154307D01*
X93839625Y-70179336D01*
X93827584Y-70205703D01*
X93821418Y-70210527D01*
X93819013Y-70214649D01*
X93790166Y-70234985D01*
X93698566Y-70281657D01*
X93615047Y-70342338D01*
X93507490Y-70420483D01*
X93507488Y-70420485D01*
X93507487Y-70420485D01*
X93340482Y-70587490D01*
X93297451Y-70646717D01*
X93242120Y-70689382D01*
X93187405Y-70697448D01*
X93167658Y-70695893D01*
X92427962Y-71435590D01*
X92410925Y-71372007D01*
X92345099Y-71257993D01*
X92252007Y-71164901D01*
X92137993Y-71099075D01*
X92074407Y-71082037D01*
X92814105Y-70342340D01*
X92814104Y-70342338D01*
X92731174Y-70282087D01*
X92638732Y-70234985D01*
X92587936Y-70187010D01*
X92571141Y-70119189D01*
X92593678Y-70053054D01*
X92648394Y-70009603D01*
X92695027Y-70000500D01*
X93733871Y-70000500D01*
X93739983Y-70002294D01*
G37*
%TD.AperFunction*%
%TD*%
D29*
X42000000Y-128100000D02*
X142000000Y-128100000D01*
X142000000Y-153500000D01*
X42000000Y-153500000D01*
X42000000Y-128100000D01*
X36300000Y-53500000D02*
X213900000Y-53500000D01*
X213900000Y-153500000D01*
X36300000Y-153500000D01*
X36300000Y-53500000D01*
M02*
