M48
; DRILL file {KiCad 9.0.7} date 2026-01-12T11:14:28+0000
; FORMAT={-:-/ absolute / metric / decimal}
; #@! TF.CreationDate,2026-01-12T11:14:28+00:00
; #@! TF.GenerationSoftware,Kicad,Pcbnew,9.0.7
; #@! TF.FileFunction,NonPlated,1,2,NPTH
FMAT,2
METRIC
; #@! TA.AperFunction,NonPlated,NPTH,ComponentDrill
T1C2.500
; #@! TA.AperFunction,NonPlated,NPTH,ComponentDrill
T2C3.000
; #@! TA.AperFunction,NonPlated,NPTH,ComponentDrill
T3C3.302
; #@! TA.AperFunction,NonPlated,NPTH,ComponentDrill
T4C3.500
; #@! TA.AperFunction,NonPlated,NPTH,ComponentDrill
T5C4.000
%
G90
G05
T1
X156.2Y-84.1
X156.2Y-127.1
X199.2Y-84.1
X199.2Y-127.1
T2
X182.65Y-93.4
T3
X160.504Y-103.311
X160.504Y-132.521
X187.174Y-103.311
X187.174Y-132.521
T4
X60.5Y-60.0
X60.5Y-120.5
X152.5Y-60.5
X152.5Y-120.5
X207.0Y-66.0
X207.0Y-78.5
X207.0Y-130.1
X207.0Y-142.6
T5
X45.625Y-72.7
X45.625Y-121.7
X139.475Y-72.7
X139.475Y-121.7
M30
