%TF.GenerationSoftware,KiCad,Pcbnew,9.0.7*%
%TF.CreationDate,2026-01-12T11:14:36+00:00*%
%TF.ProjectId,DeltaBot,44656c74-6142-46f7-942e-6b696361645f,rev?*%
%TF.SameCoordinates,Original*%
%TF.FileFunction,Copper,L2,Bot*%
%TF.FilePolarity,Positive*%
%FSLAX46Y46*%
G04 Gerber Fmt 4.6, Leading zero omitted, Abs format (unit mm)*
G04 Created by KiCad (PCBNEW 9.0.7) date 2026-01-12 11:14:36*
%MOMM*%
%LPD*%
G01*
G04 APERTURE LIST*
G04 Aperture macros list*
%AMRoundRect*
0 Rectangle with rounded corners*
0 $1 Rounding radius*
0 $2 $3 $4 $5 $6 $7 $8 $9 X,Y pos of 4 corners*
0 Add a 4 corners polygon primitive as box body*
4,1,4,$2,$3,$4,$5,$6,$7,$8,$9,$2,$3,0*
0 Add four circle primitives for the rounded corners*
1,1,$1+$1,$2,$3*
1,1,$1+$1,$4,$5*
1,1,$1+$1,$6,$7*
1,1,$1+$1,$8,$9*
0 Add four rect primitives between the rounded corners*
20,1,$1+$1,$2,$3,$4,$5,0*
20,1,$1+$1,$4,$5,$6,$7,0*
20,1,$1+$1,$6,$7,$8,$9,0*
20,1,$1+$1,$8,$9,$2,$3,0*%
G04 Aperture macros list end*
%TA.AperFunction,ComponentPad*%
%ADD10C,2.000000*%
%TD*%
%TA.AperFunction,ComponentPad*%
%ADD11R,2.000000X2.000000*%
%TD*%
%TA.AperFunction,ComponentPad*%
%ADD12C,1.879600*%
%TD*%
%TA.AperFunction,ComponentPad*%
%ADD13R,3.500000X3.500000*%
%TD*%
%TA.AperFunction,ComponentPad*%
%ADD14C,3.500000*%
%TD*%
%TA.AperFunction,ComponentPad*%
%ADD15C,3.000000*%
%TD*%
%TA.AperFunction,ComponentPad*%
%ADD16RoundRect,0.250001X-0.949999X0.949999X-0.949999X-0.949999X0.949999X-0.949999X0.949999X0.949999X0*%
%TD*%
%TA.AperFunction,ComponentPad*%
%ADD17C,2.400000*%
%TD*%
%TA.AperFunction,ViaPad*%
%ADD18C,2.000000*%
%TD*%
%TA.AperFunction,Profile*%
%ADD19C,0.050000*%
%TD*%
G04 APERTURE END LIST*
D10*
%TO.P,U1,40,GPIO4_A7*%
%TO.N,unconnected-(U1-GPIO4_A7-Pad40)*%
X99565000Y-71565000D03*
%TO.P,U1,39,GND6*%
%TO.N,GND*%
X99565000Y-74105000D03*
%TO.P,U1,38,GPIO4_A6*%
%TO.N,unconnected-(U1-GPIO4_A6-Pad38)*%
X97025000Y-71565000D03*
%TO.P,U1,37,GPIO4_D6*%
%TO.N,unconnected-(U1-GPIO4_D6-Pad37)*%
X97025000Y-74105000D03*
%TO.P,U1,36,GPIO4_A4*%
%TO.N,unconnected-(U1-GPIO4_A4-Pad36)*%
X94485000Y-71565000D03*
%TO.P,U1,35,GPIO4_A5*%
%TO.N,unconnected-(U1-GPIO4_A5-Pad35)*%
X94485000Y-74105000D03*
%TO.P,U1,34,GND5*%
%TO.N,GND*%
X91945000Y-71565000D03*
%TO.P,U1,33,GPIO2_B4*%
%TO.N,PWM_L*%
X91945000Y-74105000D03*
%TO.P,U1,32,GPIO3_C0*%
%TO.N,PWM_R*%
X89405000Y-71565000D03*
%TO.P,U1,31,GPIO2_B1*%
%TO.N,unconnected-(U1-GPIO2_B1-Pad31)*%
X89405000Y-74105000D03*
%TO.P,U1,30,GND4*%
%TO.N,GND*%
X86865000Y-71565000D03*
%TO.P,U1,29,GPIO2_B2*%
%TO.N,unconnected-(U1-GPIO2_B2-Pad29)*%
X86865000Y-74105000D03*
%TO.P,U1,28,GPIO2_A1*%
%TO.N,unconnected-(U1-GPIO2_A1-Pad28)*%
X84325000Y-71565000D03*
%TO.P,U1,27,GPIO2_A0*%
%TO.N,unconnected-(U1-GPIO2_A0-Pad27)*%
X84325000Y-74105000D03*
%TO.P,U1,26,ADC_IN0*%
%TO.N,unconnected-(U1-ADC_IN0-Pad26)*%
X81785000Y-71565000D03*
%TO.P,U1,25,GND7*%
%TO.N,GND*%
X81785000Y-74105000D03*
%TO.P,U1,24,GPIO1_B2*%
%TO.N,unconnected-(U1-GPIO1_B2-Pad24)*%
X79245000Y-71565000D03*
%TO.P,U1,23,GPIO1_B1*%
%TO.N,unconnected-(U1-GPIO1_B1-Pad23)*%
X79245000Y-74105000D03*
%TO.P,U1,22,GPIO4_D5*%
%TO.N,unconnected-(U1-GPIO4_D5-Pad22)*%
X76705000Y-71565000D03*
%TO.P,U1,21,GPIO1_A7*%
%TO.N,unconnected-(U1-GPIO1_A7-Pad21)*%
X76705000Y-74105000D03*
%TO.P,U1,20,GND3*%
%TO.N,GND*%
X74165000Y-71565000D03*
%TO.P,U1,19,GPIO1_B0*%
%TO.N,unconnected-(U1-GPIO1_B0-Pad19)*%
X74165000Y-74105000D03*
%TO.P,U1,18,GPIO4_D4*%
%TO.N,unconnected-(U1-GPIO4_D4-Pad18)*%
X71625000Y-71565000D03*
%TO.P,U1,17,3.3V1*%
%TO.N,unconnected-(U1-3.3V1-Pad17)*%
X71625000Y-74105000D03*
%TO.P,U1,16,GPIO4_D2*%
%TO.N,unconnected-(U1-GPIO4_D2-Pad16)*%
X69085000Y-71565000D03*
%TO.P,U1,15,GPIO4_D0*%
%TO.N,unconnected-(U1-GPIO4_D0-Pad15)*%
X69085000Y-74105000D03*
%TO.P,U1,14,GND2*%
%TO.N,GND*%
X66545000Y-71565000D03*
%TO.P,U1,13,GPIO4_C6*%
%TO.N,unconnected-(U1-GPIO4_C6-Pad13)*%
X66545000Y-74105000D03*
%TO.P,U1,12,GPIO4_A3*%
%TO.N,unconnected-(U1-GPIO4_A3-Pad12)*%
X64005000Y-71565000D03*
%TO.P,U1,11,GPIO4_C2*%
%TO.N,unconnected-(U1-GPIO4_C2-Pad11)*%
X64005000Y-74105000D03*
%TO.P,U1,10,GPIO4_C4*%
%TO.N,LIDAR_RX*%
X61465000Y-71565000D03*
%TO.P,U1,9,GND8*%
%TO.N,GND*%
X61465000Y-74105000D03*
%TO.P,U1,8,GPIO4_C3*%
%TO.N,LIDAR_TX*%
X58925000Y-71565000D03*
%TO.P,U1,7,GPIO2_B3*%
%TO.N,unconnected-(U1-GPIO2_B3-Pad7)*%
X58925000Y-74105000D03*
%TO.P,U1,6,GND1*%
%TO.N,GND*%
X56385000Y-71565000D03*
%TO.P,U1,5,I2C7_SCL*%
%TO.N,unconnected-(U1-I2C7_SCL-Pad5)*%
X56385000Y-74105000D03*
%TO.P,U1,4,5V2*%
%TO.N,+5V*%
X53845000Y-71565000D03*
%TO.P,U1,3,I2C7_SDA*%
%TO.N,unconnected-(U1-I2C7_SDA-Pad3)*%
X53845000Y-74105000D03*
%TO.P,U1,2,5V1*%
%TO.N,+5V*%
X51305000Y-71565000D03*
D11*
%TO.P,U1,1,3.3V*%
%TO.N,unconnected-(U1-3.3V-Pad1)*%
X51305000Y-74105000D03*
%TD*%
D10*
%TO.P,J4,2,Pin_2*%
%TO.N,+5V*%
X155040000Y-144200000D03*
D11*
%TO.P,J4,1,Pin_1*%
%TO.N,PWM_R*%
X152500000Y-144200000D03*
D10*
%TO.P,J4,3,Pin_3*%
%TO.N,GND*%
X157580000Y-144200000D03*
%TD*%
D11*
%TO.P,J3,1,Pin_1*%
%TO.N,PWM_L*%
X155520000Y-70120000D03*
D10*
%TO.P,J3,2,Pin_2*%
%TO.N,+5V*%
X158060000Y-70120000D03*
%TO.P,J3,3,Pin_3*%
%TO.N,GND*%
X160600000Y-70120000D03*
%TD*%
D12*
%TO.P,J1,1,VCC*%
%TO.N,Net-(J1-VCC)*%
X175109200Y-101786800D03*
%TO.P,J1,2,GND*%
%TO.N,GND*%
X172569200Y-101786800D03*
%TD*%
D11*
%TO.P,J5,1,VCC*%
%TO.N,+5V*%
X145320000Y-100440000D03*
D10*
%TO.P,J5,2,TX*%
%TO.N,LIDAR_TX*%
X145320000Y-102980000D03*
%TO.P,J5,3,RX*%
%TO.N,LIDAR_RX*%
X145320000Y-105520000D03*
%TO.P,J5,4,GND*%
%TO.N,GND*%
X145320000Y-108060000D03*
%TO.P,J5,5,Pin_5*%
%TO.N,unconnected-(J5-Pin_5-Pad5)*%
X145320000Y-110600000D03*
%TD*%
D13*
%TO.P,SW1,1,A*%
%TO.N,+9V*%
X190000000Y-115702000D03*
D14*
%TO.P,SW1,2,B*%
%TO.N,Net-(SW1-B)*%
X190000000Y-120401000D03*
%TO.P,SW1,3,C*%
%TO.N,unconnected-(SW1-C-Pad3)*%
X190000000Y-125100000D03*
%TD*%
D15*
%TO.P,F1,1*%
%TO.N,Net-(SW1-B)*%
X193900000Y-93400000D03*
%TO.P,F1,2*%
%TO.N,Net-(J1-VCC)*%
X171400000Y-93400000D03*
%TD*%
D16*
%TO.P,C1,1*%
%TO.N,+5V*%
X161900000Y-89376041D03*
D17*
%TO.P,C1,2*%
%TO.N,GND*%
X161900000Y-94376041D03*
%TD*%
D18*
%TO.N,GND*%
X169000000Y-102000000D03*
X194500000Y-81500000D03*
X183500000Y-81500000D03*
X142500000Y-108000000D03*
X148500000Y-108000000D03*
X56000000Y-65000000D03*
%TD*%
%TA.AperFunction,Conductor*%
%TO.N,GND*%
G36*
X60281420Y-72491833D02*
G01*
X60295315Y-72507870D01*
X60320483Y-72542510D01*
X60487490Y-72709517D01*
X60546716Y-72752547D01*
X60589381Y-72807875D01*
X60597448Y-72862593D01*
X60595893Y-72882340D01*
X61335591Y-73622037D01*
X61272007Y-73639075D01*
X61157993Y-73704901D01*
X61064901Y-73797993D01*
X60999075Y-73912007D01*
X60982037Y-73975590D01*
X60242340Y-73235893D01*
X60222593Y-73237448D01*
X60154215Y-73223084D01*
X60112547Y-73186716D01*
X60069517Y-73127490D01*
X59902510Y-72960483D01*
X59867872Y-72935317D01*
X59825207Y-72879989D01*
X59819228Y-72810375D01*
X59851833Y-72748580D01*
X59867873Y-72734682D01*
X59902510Y-72709517D01*
X60069517Y-72542510D01*
X60094682Y-72507872D01*
X60150011Y-72465207D01*
X60219625Y-72459228D01*
X60281420Y-72491833D01*
G37*
%TD.AperFunction*%
%TA.AperFunction,Conductor*%
G36*
X62821420Y-72491833D02*
G01*
X62835315Y-72507870D01*
X62860483Y-72542510D01*
X63027490Y-72709517D01*
X63062127Y-72734683D01*
X63104792Y-72790013D01*
X63110771Y-72859626D01*
X63078165Y-72921421D01*
X63062130Y-72935315D01*
X63044365Y-72948222D01*
X63027488Y-72960484D01*
X62860482Y-73127490D01*
X62817451Y-73186717D01*
X62762120Y-73229382D01*
X62707405Y-73237448D01*
X62687658Y-73235893D01*
X61947962Y-73975590D01*
X61930925Y-73912007D01*
X61865099Y-73797993D01*
X61772007Y-73704901D01*
X61657993Y-73639075D01*
X61594409Y-73622037D01*
X62334105Y-72882340D01*
X62332551Y-72862594D01*
X62346915Y-72794216D01*
X62383284Y-72752547D01*
X62442510Y-72709517D01*
X62609517Y-72542510D01*
X62634682Y-72507872D01*
X62690011Y-72465207D01*
X62759625Y-72459228D01*
X62821420Y-72491833D01*
G37*
%TD.AperFunction*%
%TA.AperFunction,Conductor*%
G36*
X80601420Y-72491833D02*
G01*
X80615315Y-72507870D01*
X80640483Y-72542510D01*
X80807490Y-72709517D01*
X80866716Y-72752547D01*
X80909381Y-72807875D01*
X80917448Y-72862593D01*
X80915893Y-72882340D01*
X81655591Y-73622037D01*
X81592007Y-73639075D01*
X81477993Y-73704901D01*
X81384901Y-73797993D01*
X81319075Y-73912007D01*
X81302037Y-73975590D01*
X80562340Y-73235893D01*
X80542593Y-73237448D01*
X80474215Y-73223084D01*
X80432547Y-73186716D01*
X80389517Y-73127490D01*
X80222510Y-72960483D01*
X80187872Y-72935317D01*
X80145207Y-72879989D01*
X80139228Y-72810375D01*
X80171833Y-72748580D01*
X80187873Y-72734682D01*
X80222510Y-72709517D01*
X80389517Y-72542510D01*
X80414682Y-72507872D01*
X80470011Y-72465207D01*
X80539625Y-72459228D01*
X80601420Y-72491833D01*
G37*
%TD.AperFunction*%
%TA.AperFunction,Conductor*%
G36*
X83141420Y-72491833D02*
G01*
X83155315Y-72507870D01*
X83180483Y-72542510D01*
X83347490Y-72709517D01*
X83382127Y-72734683D01*
X83424792Y-72790013D01*
X83430771Y-72859626D01*
X83398165Y-72921421D01*
X83382130Y-72935315D01*
X83364365Y-72948222D01*
X83347488Y-72960484D01*
X83180482Y-73127490D01*
X83137451Y-73186717D01*
X83082120Y-73229382D01*
X83027405Y-73237448D01*
X83007658Y-73235893D01*
X82267962Y-73975590D01*
X82250925Y-73912007D01*
X82185099Y-73797993D01*
X82092007Y-73704901D01*
X81977993Y-73639075D01*
X81914409Y-73622037D01*
X82654105Y-72882340D01*
X82652551Y-72862594D01*
X82666915Y-72794216D01*
X82703284Y-72752547D01*
X82762510Y-72709517D01*
X82929517Y-72542510D01*
X82954682Y-72507872D01*
X83010011Y-72465207D01*
X83079625Y-72459228D01*
X83141420Y-72491833D01*
G37*
%TD.AperFunction*%
%TA.AperFunction,Conductor*%
G36*
X98381420Y-72491833D02*
G01*
X98395315Y-72507870D01*
X98420483Y-72542510D01*
X98587490Y-72709517D01*
X98646716Y-72752547D01*
X98689381Y-72807875D01*
X98697448Y-72862593D01*
X98695893Y-72882340D01*
X99435591Y-73622037D01*
X99372007Y-73639075D01*
X99257993Y-73704901D01*
X99164901Y-73797993D01*
X99099075Y-73912007D01*
X99082037Y-73975590D01*
X98342340Y-73235893D01*
X98322593Y-73237448D01*
X98254215Y-73223084D01*
X98212547Y-73186716D01*
X98169517Y-73127490D01*
X98002510Y-72960483D01*
X97967872Y-72935317D01*
X97925207Y-72879989D01*
X97919228Y-72810375D01*
X97951833Y-72748580D01*
X97967873Y-72734682D01*
X98002510Y-72709517D01*
X98169517Y-72542510D01*
X98194682Y-72507872D01*
X98250011Y-72465207D01*
X98319625Y-72459228D01*
X98381420Y-72491833D01*
G37*
%TD.AperFunction*%
%TA.AperFunction,Conductor*%
G36*
X55919075Y-71757993D02*
G01*
X55984901Y-71872007D01*
X56077993Y-71965099D01*
X56192007Y-72030925D01*
X56255590Y-72047962D01*
X55515893Y-72787658D01*
X55517448Y-72807405D01*
X55503084Y-72875783D01*
X55466717Y-72917451D01*
X55407490Y-72960482D01*
X55240484Y-73127488D01*
X55215318Y-73162127D01*
X55159987Y-73204792D01*
X55090374Y-73210771D01*
X55028579Y-73178165D01*
X55014682Y-73162127D01*
X54989519Y-73127493D01*
X54989517Y-73127490D01*
X54822510Y-72960483D01*
X54787872Y-72935317D01*
X54745207Y-72879989D01*
X54739228Y-72810375D01*
X54771833Y-72748580D01*
X54787873Y-72734682D01*
X54822510Y-72709517D01*
X54989517Y-72542510D01*
X55032547Y-72483283D01*
X55087877Y-72440618D01*
X55142594Y-72432551D01*
X55162340Y-72434105D01*
X55902037Y-71694408D01*
X55919075Y-71757993D01*
G37*
%TD.AperFunction*%
%TA.AperFunction,Conductor*%
G36*
X57607657Y-72434104D02*
G01*
X57627404Y-72432550D01*
X57695781Y-72446914D01*
X57737451Y-72483282D01*
X57780483Y-72542510D01*
X57947490Y-72709517D01*
X57982127Y-72734683D01*
X58024792Y-72790013D01*
X58030771Y-72859626D01*
X57998165Y-72921421D01*
X57982130Y-72935315D01*
X57964365Y-72948222D01*
X57947488Y-72960484D01*
X57780484Y-73127488D01*
X57755318Y-73162127D01*
X57699987Y-73204792D01*
X57630374Y-73210771D01*
X57568579Y-73178165D01*
X57554682Y-73162127D01*
X57529519Y-73127493D01*
X57529517Y-73127490D01*
X57362510Y-72960483D01*
X57303282Y-72917451D01*
X57260617Y-72862122D01*
X57252550Y-72807404D01*
X57254104Y-72787657D01*
X56514408Y-72047962D01*
X56577993Y-72030925D01*
X56692007Y-71965099D01*
X56785099Y-71872007D01*
X56850925Y-71757993D01*
X56867962Y-71694409D01*
X57607657Y-72434104D01*
G37*
%TD.AperFunction*%
%TA.AperFunction,Conductor*%
G36*
X66079075Y-71757993D02*
G01*
X66144901Y-71872007D01*
X66237993Y-71965099D01*
X66352007Y-72030925D01*
X66415590Y-72047962D01*
X65675893Y-72787658D01*
X65677448Y-72807405D01*
X65663084Y-72875783D01*
X65626717Y-72917451D01*
X65567490Y-72960482D01*
X65400484Y-73127488D01*
X65375318Y-73162127D01*
X65319987Y-73204792D01*
X65250374Y-73210771D01*
X65188579Y-73178165D01*
X65174682Y-73162127D01*
X65149519Y-73127493D01*
X65149517Y-73127490D01*
X64982510Y-72960483D01*
X64947872Y-72935317D01*
X64905207Y-72879989D01*
X64899228Y-72810375D01*
X64931833Y-72748580D01*
X64947873Y-72734682D01*
X64982510Y-72709517D01*
X65149517Y-72542510D01*
X65192547Y-72483283D01*
X65247877Y-72440618D01*
X65302594Y-72432551D01*
X65322340Y-72434105D01*
X66062037Y-71694408D01*
X66079075Y-71757993D01*
G37*
%TD.AperFunction*%
%TA.AperFunction,Conductor*%
G36*
X67767657Y-72434104D02*
G01*
X67787404Y-72432550D01*
X67855781Y-72446914D01*
X67897451Y-72483282D01*
X67940483Y-72542510D01*
X68107490Y-72709517D01*
X68142127Y-72734683D01*
X68184792Y-72790013D01*
X68190771Y-72859626D01*
X68158165Y-72921421D01*
X68142130Y-72935315D01*
X68124365Y-72948222D01*
X68107488Y-72960484D01*
X67940484Y-73127488D01*
X67915318Y-73162127D01*
X67859987Y-73204792D01*
X67790374Y-73210771D01*
X67728579Y-73178165D01*
X67714682Y-73162127D01*
X67689519Y-73127493D01*
X67689517Y-73127490D01*
X67522510Y-72960483D01*
X67463282Y-72917451D01*
X67420617Y-72862122D01*
X67412550Y-72807404D01*
X67414104Y-72787657D01*
X66674408Y-72047962D01*
X66737993Y-72030925D01*
X66852007Y-71965099D01*
X66945099Y-71872007D01*
X67010925Y-71757993D01*
X67027962Y-71694408D01*
X67767657Y-72434104D01*
G37*
%TD.AperFunction*%
%TA.AperFunction,Conductor*%
G36*
X73699075Y-71757993D02*
G01*
X73764901Y-71872007D01*
X73857993Y-71965099D01*
X73972007Y-72030925D01*
X74035590Y-72047962D01*
X73295893Y-72787658D01*
X73297448Y-72807405D01*
X73283084Y-72875783D01*
X73246717Y-72917451D01*
X73187490Y-72960482D01*
X73020484Y-73127488D01*
X72995318Y-73162127D01*
X72939987Y-73204792D01*
X72870374Y-73210771D01*
X72808579Y-73178165D01*
X72794682Y-73162127D01*
X72769519Y-73127493D01*
X72769517Y-73127490D01*
X72602510Y-72960483D01*
X72567872Y-72935317D01*
X72525207Y-72879989D01*
X72519228Y-72810375D01*
X72551833Y-72748580D01*
X72567873Y-72734682D01*
X72602510Y-72709517D01*
X72769517Y-72542510D01*
X72812547Y-72483283D01*
X72867877Y-72440618D01*
X72922594Y-72432551D01*
X72942340Y-72434105D01*
X73682037Y-71694408D01*
X73699075Y-71757993D01*
G37*
%TD.AperFunction*%
%TA.AperFunction,Conductor*%
G36*
X75387657Y-72434104D02*
G01*
X75407404Y-72432550D01*
X75475781Y-72446914D01*
X75517451Y-72483282D01*
X75560483Y-72542510D01*
X75727490Y-72709517D01*
X75762127Y-72734683D01*
X75804792Y-72790013D01*
X75810771Y-72859626D01*
X75778165Y-72921421D01*
X75762130Y-72935315D01*
X75744365Y-72948222D01*
X75727488Y-72960484D01*
X75560484Y-73127488D01*
X75535318Y-73162127D01*
X75479987Y-73204792D01*
X75410374Y-73210771D01*
X75348579Y-73178165D01*
X75334682Y-73162127D01*
X75309519Y-73127493D01*
X75309517Y-73127490D01*
X75142510Y-72960483D01*
X75083282Y-72917451D01*
X75040617Y-72862122D01*
X75032550Y-72807404D01*
X75034104Y-72787657D01*
X74294408Y-72047962D01*
X74357993Y-72030925D01*
X74472007Y-71965099D01*
X74565099Y-71872007D01*
X74630925Y-71757993D01*
X74647962Y-71694409D01*
X75387657Y-72434104D01*
G37*
%TD.AperFunction*%
%TA.AperFunction,Conductor*%
G36*
X86399075Y-71757993D02*
G01*
X86464901Y-71872007D01*
X86557993Y-71965099D01*
X86672007Y-72030925D01*
X86735590Y-72047962D01*
X85995893Y-72787658D01*
X85997448Y-72807405D01*
X85983084Y-72875783D01*
X85946717Y-72917451D01*
X85887490Y-72960482D01*
X85720484Y-73127488D01*
X85695318Y-73162127D01*
X85639987Y-73204792D01*
X85570374Y-73210771D01*
X85508579Y-73178165D01*
X85494682Y-73162127D01*
X85469519Y-73127493D01*
X85469517Y-73127490D01*
X85302510Y-72960483D01*
X85267872Y-72935317D01*
X85225207Y-72879989D01*
X85219228Y-72810375D01*
X85251833Y-72748580D01*
X85267873Y-72734682D01*
X85302510Y-72709517D01*
X85469517Y-72542510D01*
X85512547Y-72483283D01*
X85567877Y-72440618D01*
X85622594Y-72432551D01*
X85642340Y-72434105D01*
X86382037Y-71694408D01*
X86399075Y-71757993D01*
G37*
%TD.AperFunction*%
%TA.AperFunction,Conductor*%
G36*
X88087657Y-72434104D02*
G01*
X88107404Y-72432550D01*
X88175781Y-72446914D01*
X88217451Y-72483282D01*
X88260483Y-72542510D01*
X88427490Y-72709517D01*
X88462127Y-72734683D01*
X88504792Y-72790013D01*
X88510771Y-72859626D01*
X88478165Y-72921421D01*
X88462130Y-72935315D01*
X88444365Y-72948222D01*
X88427488Y-72960484D01*
X88260484Y-73127488D01*
X88235318Y-73162127D01*
X88179987Y-73204792D01*
X88110374Y-73210771D01*
X88048579Y-73178165D01*
X88034682Y-73162127D01*
X88009519Y-73127493D01*
X88009517Y-73127490D01*
X87842510Y-72960483D01*
X87783282Y-72917451D01*
X87740617Y-72862122D01*
X87732550Y-72807404D01*
X87734104Y-72787657D01*
X86994408Y-72047962D01*
X87057993Y-72030925D01*
X87172007Y-71965099D01*
X87265099Y-71872007D01*
X87330925Y-71757993D01*
X87347962Y-71694409D01*
X88087657Y-72434104D01*
G37*
%TD.AperFunction*%
%TA.AperFunction,Conductor*%
G36*
X91479075Y-71757993D02*
G01*
X91544901Y-71872007D01*
X91637993Y-71965099D01*
X91752007Y-72030925D01*
X91815590Y-72047962D01*
X91075893Y-72787658D01*
X91077448Y-72807405D01*
X91063084Y-72875783D01*
X91026717Y-72917451D01*
X90967490Y-72960482D01*
X90800484Y-73127488D01*
X90775318Y-73162127D01*
X90719987Y-73204792D01*
X90650374Y-73210771D01*
X90588579Y-73178165D01*
X90574682Y-73162127D01*
X90549519Y-73127493D01*
X90549517Y-73127490D01*
X90382510Y-72960483D01*
X90347872Y-72935317D01*
X90305207Y-72879989D01*
X90299228Y-72810375D01*
X90331833Y-72748580D01*
X90347873Y-72734682D01*
X90382510Y-72709517D01*
X90549517Y-72542510D01*
X90592547Y-72483283D01*
X90647877Y-72440618D01*
X90702594Y-72432551D01*
X90722340Y-72434105D01*
X91462037Y-71694408D01*
X91479075Y-71757993D01*
G37*
%TD.AperFunction*%
%TA.AperFunction,Conductor*%
G36*
X93167657Y-72434104D02*
G01*
X93187404Y-72432550D01*
X93255781Y-72446914D01*
X93297451Y-72483282D01*
X93340483Y-72542510D01*
X93507490Y-72709517D01*
X93542127Y-72734683D01*
X93584792Y-72790013D01*
X93590771Y-72859626D01*
X93558165Y-72921421D01*
X93542130Y-72935315D01*
X93524365Y-72948222D01*
X93507488Y-72960484D01*
X93340484Y-73127488D01*
X93315318Y-73162127D01*
X93259987Y-73204792D01*
X93190374Y-73210771D01*
X93128579Y-73178165D01*
X93114682Y-73162127D01*
X93089519Y-73127493D01*
X93089517Y-73127490D01*
X92922510Y-72960483D01*
X92863282Y-72917451D01*
X92820617Y-72862122D01*
X92812550Y-72807404D01*
X92814104Y-72787657D01*
X92074408Y-72047962D01*
X92137993Y-72030925D01*
X92252007Y-71965099D01*
X92345099Y-71872007D01*
X92410925Y-71757993D01*
X92427962Y-71694409D01*
X93167657Y-72434104D01*
G37*
%TD.AperFunction*%
%TA.AperFunction,Conductor*%
G36*
X211302539Y-56060185D02*
G01*
X211348294Y-56112989D01*
X211359500Y-56164500D01*
X211359500Y-150835500D01*
X211339815Y-150902539D01*
X211287011Y-150948294D01*
X211235500Y-150959500D01*
X144664500Y-150959500D01*
X144597461Y-150939815D01*
X144551706Y-150887011D01*
X144540500Y-150835500D01*
X144540500Y-143152135D01*
X150999500Y-143152135D01*
X150999500Y-145247870D01*
X150999501Y-145247876D01*
X151005908Y-145307483D01*
X151056202Y-145442328D01*
X151056206Y-145442335D01*
X151142452Y-145557544D01*
X151142455Y-145557547D01*
X151257664Y-145643793D01*
X151257671Y-145643797D01*
X151392517Y-145694091D01*
X151392516Y-145694091D01*
X151399444Y-145694835D01*
X151452127Y-145700500D01*
X153547872Y-145700499D01*
X153607483Y-145694091D01*
X153742331Y-145643796D01*
X153857546Y-145557546D01*
X153943796Y-145442331D01*
X153943797Y-145442326D01*
X153948047Y-145434546D01*
X153951380Y-145436366D01*
X153982292Y-145394766D01*
X154047669Y-145370116D01*
X154115994Y-145384725D01*
X154129835Y-145393446D01*
X154253567Y-145483343D01*
X154352991Y-145534002D01*
X154464003Y-145590566D01*
X154464005Y-145590566D01*
X154464008Y-145590568D01*
X154584412Y-145629689D01*
X154688631Y-145663553D01*
X154921903Y-145700500D01*
X154921908Y-145700500D01*
X155158097Y-145700500D01*
X155391368Y-145663553D01*
X155392870Y-145663065D01*
X155615992Y-145590568D01*
X155826433Y-145483343D01*
X156017510Y-145344517D01*
X156184517Y-145177510D01*
X156231370Y-145113022D01*
X156235713Y-145108199D01*
X156260150Y-145093142D01*
X156282877Y-145075618D01*
X156290393Y-145074509D01*
X156295199Y-145071549D01*
X156308730Y-145071806D01*
X156337594Y-145067551D01*
X156357340Y-145069105D01*
X157097037Y-144329408D01*
X157114075Y-144392993D01*
X157179901Y-144507007D01*
X157272993Y-144600099D01*
X157387007Y-144665925D01*
X157450590Y-144682962D01*
X156710893Y-145422658D01*
X156793828Y-145482914D01*
X157004197Y-145590102D01*
X157228752Y-145663065D01*
X157228751Y-145663065D01*
X157461948Y-145700000D01*
X157698052Y-145700000D01*
X157931247Y-145663065D01*
X158155802Y-145590102D01*
X158366163Y-145482918D01*
X158366169Y-145482914D01*
X158449104Y-145422658D01*
X158449105Y-145422658D01*
X157709408Y-144682962D01*
X157772993Y-144665925D01*
X157887007Y-144600099D01*
X157980099Y-144507007D01*
X158045925Y-144392993D01*
X158062962Y-144329409D01*
X158802658Y-145069105D01*
X158802658Y-145069104D01*
X158862914Y-144986169D01*
X158862918Y-144986163D01*
X158970102Y-144775802D01*
X159043065Y-144551247D01*
X159080000Y-144318052D01*
X159080000Y-144081947D01*
X159043065Y-143848752D01*
X158970102Y-143624197D01*
X158862914Y-143413828D01*
X158802658Y-143330894D01*
X158802658Y-143330893D01*
X158062962Y-144070590D01*
X158045925Y-144007007D01*
X157980099Y-143892993D01*
X157887007Y-143799901D01*
X157772993Y-143734075D01*
X157709409Y-143717037D01*
X158449105Y-142977340D01*
X158449104Y-142977338D01*
X158366174Y-142917087D01*
X158155802Y-142809897D01*
X157931247Y-142736934D01*
X157931248Y-142736934D01*
X157698052Y-142700000D01*
X157461948Y-142700000D01*
X157228752Y-142736934D01*
X157004197Y-142809897D01*
X156793830Y-142917084D01*
X156710894Y-142977340D01*
X157450591Y-143717037D01*
X157387007Y-143734075D01*
X157272993Y-143799901D01*
X157179901Y-143892993D01*
X157114075Y-144007007D01*
X157097037Y-144070590D01*
X156357340Y-143330893D01*
X156337593Y-143332448D01*
X156333860Y-143331663D01*
X156330222Y-143332808D01*
X156299936Y-143324537D01*
X156269215Y-143318084D01*
X156265429Y-143315114D01*
X156262821Y-143314402D01*
X156253431Y-143305701D01*
X156235712Y-143291800D01*
X156231370Y-143286978D01*
X156184517Y-143222490D01*
X156017510Y-143055483D01*
X155826433Y-142916657D01*
X155615996Y-142809433D01*
X155391368Y-142736446D01*
X155158097Y-142699500D01*
X155158092Y-142699500D01*
X154921908Y-142699500D01*
X154921903Y-142699500D01*
X154688631Y-142736446D01*
X154464003Y-142809433D01*
X154253563Y-142916659D01*
X154129840Y-143006549D01*
X154064034Y-143030029D01*
X153995980Y-143014203D01*
X153948410Y-142965255D01*
X153948047Y-142965454D01*
X153947334Y-142964148D01*
X153947285Y-142964098D01*
X153947187Y-142963880D01*
X153943793Y-142957664D01*
X153857547Y-142842455D01*
X153857544Y-142842452D01*
X153742335Y-142756206D01*
X153742328Y-142756202D01*
X153607482Y-142705908D01*
X153607483Y-142705908D01*
X153547883Y-142699501D01*
X153547881Y-142699500D01*
X153547873Y-142699500D01*
X153547864Y-142699500D01*
X151452129Y-142699500D01*
X151452123Y-142699501D01*
X151392516Y-142705908D01*
X151257671Y-142756202D01*
X151257664Y-142756206D01*
X151142455Y-142842452D01*
X151142452Y-142842455D01*
X151056206Y-142957664D01*
X151056202Y-142957671D01*
X151005908Y-143092517D01*
X150999501Y-143152116D01*
X150999500Y-143152135D01*
X144540500Y-143152135D01*
X144540500Y-142452486D01*
X204749500Y-142452486D01*
X204749500Y-142747513D01*
X204771826Y-142917087D01*
X204788007Y-143039993D01*
X204836907Y-143222490D01*
X204864361Y-143324951D01*
X204864364Y-143324961D01*
X204977254Y-143597500D01*
X204977258Y-143597510D01*
X205124761Y-143852993D01*
X205304352Y-144087040D01*
X205304358Y-144087047D01*
X205512952Y-144295641D01*
X205512959Y-144295647D01*
X205747006Y-144475238D01*
X206002489Y-144622741D01*
X206002490Y-144622741D01*
X206002493Y-144622743D01*
X206275048Y-144735639D01*
X206560007Y-144811993D01*
X206852494Y-144850500D01*
X206852501Y-144850500D01*
X207147499Y-144850500D01*
X207147506Y-144850500D01*
X207439993Y-144811993D01*
X207724952Y-144735639D01*
X207997507Y-144622743D01*
X208252994Y-144475238D01*
X208487042Y-144295646D01*
X208695646Y-144087042D01*
X208875238Y-143852994D01*
X209022743Y-143597507D01*
X209135639Y-143324952D01*
X209211993Y-143039993D01*
X209250500Y-142747506D01*
X209250500Y-142452494D01*
X209211993Y-142160007D01*
X209135639Y-141875048D01*
X209022743Y-141602493D01*
X208875238Y-141347006D01*
X208695646Y-141112958D01*
X208695641Y-141112952D01*
X208487047Y-140904358D01*
X208487040Y-140904352D01*
X208252993Y-140724761D01*
X207997510Y-140577258D01*
X207997500Y-140577254D01*
X207724961Y-140464364D01*
X207724954Y-140464362D01*
X207724952Y-140464361D01*
X207439993Y-140388007D01*
X207391113Y-140381571D01*
X207147513Y-140349500D01*
X207147506Y-140349500D01*
X206852494Y-140349500D01*
X206852486Y-140349500D01*
X206574085Y-140386153D01*
X206560007Y-140388007D01*
X206275048Y-140464361D01*
X206275038Y-140464364D01*
X206002499Y-140577254D01*
X206002489Y-140577258D01*
X205747006Y-140724761D01*
X205512959Y-140904352D01*
X205512952Y-140904358D01*
X205304358Y-141112952D01*
X205304352Y-141112959D01*
X205124761Y-141347006D01*
X204977258Y-141602489D01*
X204977254Y-141602499D01*
X204864364Y-141875038D01*
X204864361Y-141875048D01*
X204788008Y-142160004D01*
X204788006Y-142160015D01*
X204749500Y-142452486D01*
X144540500Y-142452486D01*
X144540500Y-132379775D01*
X158352700Y-132379775D01*
X158352700Y-132661824D01*
X158389512Y-132941434D01*
X158462510Y-133213865D01*
X158570436Y-133474422D01*
X158570441Y-133474433D01*
X158711450Y-133718666D01*
X158711461Y-133718682D01*
X158883144Y-133942424D01*
X158883150Y-133942431D01*
X159082568Y-134141849D01*
X159082574Y-134141854D01*
X159306326Y-134313545D01*
X159306333Y-134313549D01*
X159550566Y-134454558D01*
X159550571Y-134454560D01*
X159550574Y-134454562D01*
X159811139Y-134562491D01*
X160083563Y-134635487D01*
X160363183Y-134672300D01*
X160363190Y-134672300D01*
X160645210Y-134672300D01*
X160645217Y-134672300D01*
X160924837Y-134635487D01*
X161197261Y-134562491D01*
X161457826Y-134454562D01*
X161702074Y-134313545D01*
X161925826Y-134141854D01*
X162125254Y-133942426D01*
X162296945Y-133718674D01*
X162437962Y-133474426D01*
X162545891Y-133213861D01*
X162618887Y-132941437D01*
X162655700Y-132661817D01*
X162655700Y-132379783D01*
X162655699Y-132379775D01*
X185022700Y-132379775D01*
X185022700Y-132661824D01*
X185059512Y-132941434D01*
X185132510Y-133213865D01*
X185240436Y-133474422D01*
X185240441Y-133474433D01*
X185381450Y-133718666D01*
X185381461Y-133718682D01*
X185553144Y-133942424D01*
X185553150Y-133942431D01*
X185752568Y-134141849D01*
X185752574Y-134141854D01*
X185976326Y-134313545D01*
X185976333Y-134313549D01*
X186220566Y-134454558D01*
X186220571Y-134454560D01*
X186220574Y-134454562D01*
X186481139Y-134562491D01*
X186753563Y-134635487D01*
X187033183Y-134672300D01*
X187033190Y-134672300D01*
X187315210Y-134672300D01*
X187315217Y-134672300D01*
X187594837Y-134635487D01*
X187867261Y-134562491D01*
X188127826Y-134454562D01*
X188372074Y-134313545D01*
X188595826Y-134141854D01*
X188795254Y-133942426D01*
X188966945Y-133718674D01*
X189107962Y-133474426D01*
X189215891Y-133213861D01*
X189288887Y-132941437D01*
X189325700Y-132661817D01*
X189325700Y-132379783D01*
X189288887Y-132100163D01*
X189215891Y-131827739D01*
X189107962Y-131567174D01*
X189107960Y-131567171D01*
X189107958Y-131567166D01*
X188966949Y-131322933D01*
X188966945Y-131322926D01*
X188795254Y-131099174D01*
X188795249Y-131099168D01*
X188595831Y-130899750D01*
X188595824Y-130899744D01*
X188372082Y-130728061D01*
X188372080Y-130728059D01*
X188372074Y-130728055D01*
X188372069Y-130728052D01*
X188372066Y-130728050D01*
X188127833Y-130587041D01*
X188127822Y-130587036D01*
X187867265Y-130479110D01*
X187594834Y-130406112D01*
X187315224Y-130369300D01*
X187315217Y-130369300D01*
X187033183Y-130369300D01*
X187033175Y-130369300D01*
X186753565Y-130406112D01*
X186481134Y-130479110D01*
X186220577Y-130587036D01*
X186220566Y-130587041D01*
X185976333Y-130728050D01*
X185976317Y-130728061D01*
X185752575Y-130899744D01*
X185752568Y-130899750D01*
X185553150Y-131099168D01*
X185553144Y-131099175D01*
X185381461Y-131322917D01*
X185381450Y-131322933D01*
X185240441Y-131567166D01*
X185240436Y-131567177D01*
X185132510Y-131827734D01*
X185059512Y-132100165D01*
X185022700Y-132379775D01*
X162655699Y-132379775D01*
X162618887Y-132100163D01*
X162545891Y-131827739D01*
X162437962Y-131567174D01*
X162437960Y-131567171D01*
X162437958Y-131567166D01*
X162296949Y-131322933D01*
X162296945Y-131322926D01*
X162125254Y-131099174D01*
X162125249Y-131099168D01*
X161925831Y-130899750D01*
X161925824Y-130899744D01*
X161702082Y-130728061D01*
X161702080Y-130728059D01*
X161702074Y-130728055D01*
X161702069Y-130728052D01*
X161702066Y-130728050D01*
X161457833Y-130587041D01*
X161457822Y-130587036D01*
X161197265Y-130479110D01*
X160924834Y-130406112D01*
X160645224Y-130369300D01*
X160645217Y-130369300D01*
X160363183Y-130369300D01*
X160363175Y-130369300D01*
X160083565Y-130406112D01*
X159811134Y-130479110D01*
X159550577Y-130587036D01*
X159550566Y-130587041D01*
X159306333Y-130728050D01*
X159306317Y-130728061D01*
X159082575Y-130899744D01*
X159082568Y-130899750D01*
X158883150Y-131099168D01*
X158883144Y-131099175D01*
X158711461Y-131322917D01*
X158711450Y-131322933D01*
X158570441Y-131567166D01*
X158570436Y-131567177D01*
X158462510Y-131827734D01*
X158389512Y-132100165D01*
X158352700Y-132379775D01*
X144540500Y-132379775D01*
X144540500Y-129952486D01*
X204749500Y-129952486D01*
X204749500Y-130247513D01*
X204781571Y-130491113D01*
X204788007Y-130539993D01*
X204864361Y-130824951D01*
X204864364Y-130824961D01*
X204977254Y-131097500D01*
X204977258Y-131097510D01*
X205124761Y-131352993D01*
X205304352Y-131587040D01*
X205304358Y-131587047D01*
X205512952Y-131795641D01*
X205512959Y-131795647D01*
X205747006Y-131975238D01*
X206002489Y-132122741D01*
X206002490Y-132122741D01*
X206002493Y-132122743D01*
X206275048Y-132235639D01*
X206560007Y-132311993D01*
X206852494Y-132350500D01*
X206852501Y-132350500D01*
X207147499Y-132350500D01*
X207147506Y-132350500D01*
X207439993Y-132311993D01*
X207724952Y-132235639D01*
X207997507Y-132122743D01*
X208252994Y-131975238D01*
X208487042Y-131795646D01*
X208695646Y-131587042D01*
X208875238Y-131352994D01*
X209022743Y-131097507D01*
X209135639Y-130824952D01*
X209211993Y-130539993D01*
X209250500Y-130247506D01*
X209250500Y-129952494D01*
X209211993Y-129660007D01*
X209135639Y-129375048D01*
X209022743Y-129102493D01*
X208875238Y-128847006D01*
X208741982Y-128673344D01*
X208695647Y-128612959D01*
X208695641Y-128612952D01*
X208487047Y-128404358D01*
X208487040Y-128404352D01*
X208252993Y-128224761D01*
X207997510Y-128077258D01*
X207997500Y-128077254D01*
X207724961Y-127964364D01*
X207724954Y-127964362D01*
X207724952Y-127964361D01*
X207439993Y-127888007D01*
X207391113Y-127881571D01*
X207147513Y-127849500D01*
X207147506Y-127849500D01*
X206852494Y-127849500D01*
X206852486Y-127849500D01*
X206574085Y-127886153D01*
X206560007Y-127888007D01*
X206301318Y-127957322D01*
X206275048Y-127964361D01*
X206275038Y-127964364D01*
X206002499Y-128077254D01*
X206002489Y-128077258D01*
X205747006Y-128224761D01*
X205512959Y-128404352D01*
X205512952Y-128404358D01*
X205304358Y-128612952D01*
X205304352Y-128612959D01*
X205124761Y-128847006D01*
X204977258Y-129102489D01*
X204977254Y-129102499D01*
X204864364Y-129375038D01*
X204864361Y-129375048D01*
X204788008Y-129660004D01*
X204788006Y-129660015D01*
X204749500Y-129952486D01*
X144540500Y-129952486D01*
X144540500Y-127957326D01*
X144540499Y-127957322D01*
X144508554Y-127673794D01*
X144508553Y-127673789D01*
X144508552Y-127673780D01*
X144445057Y-127395591D01*
X144350814Y-127126261D01*
X144350810Y-127126254D01*
X144350807Y-127126245D01*
X144306870Y-127035008D01*
X144282912Y-126985258D01*
X154449500Y-126985258D01*
X154449500Y-127214741D01*
X154467374Y-127350499D01*
X154479452Y-127442238D01*
X154479453Y-127442240D01*
X154538842Y-127663887D01*
X154626650Y-127875876D01*
X154626657Y-127875890D01*
X154741392Y-128074617D01*
X154881081Y-128256661D01*
X154881089Y-128256670D01*
X155043330Y-128418911D01*
X155043338Y-128418918D01*
X155225382Y-128558607D01*
X155225385Y-128558608D01*
X155225388Y-128558611D01*
X155424112Y-128673344D01*
X155424117Y-128673346D01*
X155424123Y-128673349D01*
X155515480Y-128711190D01*
X155636113Y-128761158D01*
X155857762Y-128820548D01*
X156085266Y-128850500D01*
X156085273Y-128850500D01*
X156314727Y-128850500D01*
X156314734Y-128850500D01*
X156542238Y-128820548D01*
X156763887Y-128761158D01*
X156975888Y-128673344D01*
X157174612Y-128558611D01*
X157356661Y-128418919D01*
X157356665Y-128418914D01*
X157356670Y-128418911D01*
X157518911Y-128256670D01*
X157518914Y-128256665D01*
X157518919Y-128256661D01*
X157658611Y-128074612D01*
X157773344Y-127875888D01*
X157861158Y-127663887D01*
X157920548Y-127442238D01*
X157950500Y-127214734D01*
X157950500Y-126985266D01*
X157920548Y-126757762D01*
X157861158Y-126536113D01*
X157806633Y-126404479D01*
X157773349Y-126324123D01*
X157773346Y-126324117D01*
X157773344Y-126324112D01*
X157658611Y-126125388D01*
X157658608Y-126125385D01*
X157658607Y-126125382D01*
X157518918Y-125943338D01*
X157518911Y-125943330D01*
X157356670Y-125781089D01*
X157356661Y-125781081D01*
X157174617Y-125641392D01*
X156975890Y-125526657D01*
X156975876Y-125526650D01*
X156763887Y-125438842D01*
X156542238Y-125379452D01*
X156504215Y-125374446D01*
X156314741Y-125349500D01*
X156314734Y-125349500D01*
X156085266Y-125349500D01*
X156085258Y-125349500D01*
X155868715Y-125378009D01*
X155857762Y-125379452D01*
X155764076Y-125404554D01*
X155636112Y-125438842D01*
X155424123Y-125526650D01*
X155424109Y-125526657D01*
X155225382Y-125641392D01*
X155043338Y-125781081D01*
X154881081Y-125943338D01*
X154741392Y-126125382D01*
X154626657Y-126324109D01*
X154626650Y-126324123D01*
X154538842Y-126536112D01*
X154479453Y-126757759D01*
X154479451Y-126757770D01*
X154449500Y-126985258D01*
X144282912Y-126985258D01*
X144227012Y-126869181D01*
X144227009Y-126869176D01*
X144075197Y-126627569D01*
X143897289Y-126404479D01*
X143695521Y-126202711D01*
X143472431Y-126024803D01*
X143230824Y-125872991D01*
X143230825Y-125872991D01*
X143230818Y-125872987D01*
X142973754Y-125749192D01*
X142973732Y-125749183D01*
X142704420Y-125654946D01*
X142704408Y-125654942D01*
X142489714Y-125605940D01*
X142426220Y-125591448D01*
X142426217Y-125591447D01*
X142426205Y-125591445D01*
X142142677Y-125559500D01*
X142142671Y-125559500D01*
X42142671Y-125559500D01*
X41857329Y-125559500D01*
X41857322Y-125559500D01*
X41573794Y-125591445D01*
X41573780Y-125591448D01*
X41295591Y-125654942D01*
X41295579Y-125654946D01*
X41026267Y-125749183D01*
X41026245Y-125749192D01*
X40769181Y-125872987D01*
X40527570Y-126024802D01*
X40304479Y-126202710D01*
X40102710Y-126404479D01*
X39924802Y-126627570D01*
X39772987Y-126869181D01*
X39649192Y-127126245D01*
X39649183Y-127126267D01*
X39554946Y-127395579D01*
X39554942Y-127395591D01*
X39491448Y-127673780D01*
X39491445Y-127673794D01*
X39459500Y-127957322D01*
X39459500Y-150835500D01*
X39439815Y-150902539D01*
X39387011Y-150948294D01*
X39335500Y-150959500D01*
X38964500Y-150959500D01*
X38897461Y-150939815D01*
X38851706Y-150887011D01*
X38840500Y-150835500D01*
X38840500Y-121559568D01*
X43124500Y-121559568D01*
X43124500Y-121840431D01*
X43155942Y-122119494D01*
X43155945Y-122119512D01*
X43218439Y-122393317D01*
X43218443Y-122393329D01*
X43311200Y-122658411D01*
X43433053Y-122911442D01*
X43433055Y-122911445D01*
X43582477Y-123149248D01*
X43757584Y-123368825D01*
X43956175Y-123567416D01*
X44175752Y-123742523D01*
X44413555Y-123891945D01*
X44666592Y-124013801D01*
X44865680Y-124083465D01*
X44931670Y-124106556D01*
X44931682Y-124106560D01*
X45205491Y-124169055D01*
X45205497Y-124169055D01*
X45205505Y-124169057D01*
X45391547Y-124190018D01*
X45484569Y-124200499D01*
X45484572Y-124200500D01*
X45484575Y-124200500D01*
X45765428Y-124200500D01*
X45765429Y-124200499D01*
X45908055Y-124184429D01*
X46044494Y-124169057D01*
X46044499Y-124169056D01*
X46044509Y-124169055D01*
X46318318Y-124106560D01*
X46583408Y-124013801D01*
X46836445Y-123891945D01*
X47074248Y-123742523D01*
X47293825Y-123567416D01*
X47492416Y-123368825D01*
X47667523Y-123149248D01*
X47816945Y-122911445D01*
X47938801Y-122658408D01*
X48031560Y-122393318D01*
X48094055Y-122119509D01*
X48125500Y-121840425D01*
X48125500Y-121559575D01*
X48115018Y-121466547D01*
X48094057Y-121280505D01*
X48094054Y-121280487D01*
X48031560Y-121006682D01*
X48031556Y-121006670D01*
X48008221Y-120939984D01*
X47938801Y-120741592D01*
X47816945Y-120488555D01*
X47731447Y-120352486D01*
X58249500Y-120352486D01*
X58249500Y-120647513D01*
X58281571Y-120891113D01*
X58288007Y-120939993D01*
X58337837Y-121125961D01*
X58364361Y-121224951D01*
X58364364Y-121224961D01*
X58477254Y-121497500D01*
X58477258Y-121497510D01*
X58624761Y-121752993D01*
X58804352Y-121987040D01*
X58804358Y-121987047D01*
X59012952Y-122195641D01*
X59012959Y-122195647D01*
X59247006Y-122375238D01*
X59502489Y-122522741D01*
X59502490Y-122522741D01*
X59502493Y-122522743D01*
X59775048Y-122635639D01*
X60060007Y-122711993D01*
X60352494Y-122750500D01*
X60352501Y-122750500D01*
X60647499Y-122750500D01*
X60647506Y-122750500D01*
X60939993Y-122711993D01*
X61224952Y-122635639D01*
X61497507Y-122522743D01*
X61752994Y-122375238D01*
X61987042Y-122195646D01*
X62195646Y-121987042D01*
X62375238Y-121752994D01*
X62486912Y-121559568D01*
X136974500Y-121559568D01*
X136974500Y-121840431D01*
X137005942Y-122119494D01*
X137005945Y-122119512D01*
X137068439Y-122393317D01*
X137068443Y-122393329D01*
X137161200Y-122658411D01*
X137283053Y-122911442D01*
X137283055Y-122911445D01*
X137432477Y-123149248D01*
X137607584Y-123368825D01*
X137806175Y-123567416D01*
X138025752Y-123742523D01*
X138263555Y-123891945D01*
X138516592Y-124013801D01*
X138715680Y-124083465D01*
X138781670Y-124106556D01*
X138781682Y-124106560D01*
X139055491Y-124169055D01*
X139055497Y-124169055D01*
X139055505Y-124169057D01*
X139241547Y-124190018D01*
X139334569Y-124200499D01*
X139334572Y-124200500D01*
X139334575Y-124200500D01*
X139615428Y-124200500D01*
X139615429Y-124200499D01*
X139758055Y-124184429D01*
X139894494Y-124169057D01*
X139894499Y-124169056D01*
X139894509Y-124169055D01*
X140168318Y-124106560D01*
X140433408Y-124013801D01*
X140686445Y-123891945D01*
X140924248Y-123742523D01*
X141143825Y-123567416D01*
X141342416Y-123368825D01*
X141517523Y-123149248D01*
X141666945Y-122911445D01*
X141788801Y-122658408D01*
X141881560Y-122393318D01*
X141944055Y-122119509D01*
X141975500Y-121840425D01*
X141975500Y-121559575D01*
X141965018Y-121466547D01*
X141944057Y-121280505D01*
X141944054Y-121280487D01*
X141881560Y-121006682D01*
X141881556Y-121006670D01*
X141858221Y-120939984D01*
X141788801Y-120741592D01*
X141666945Y-120488555D01*
X141581447Y-120352486D01*
X150249500Y-120352486D01*
X150249500Y-120647513D01*
X150281571Y-120891113D01*
X150288007Y-120939993D01*
X150337837Y-121125961D01*
X150364361Y-121224951D01*
X150364364Y-121224961D01*
X150477254Y-121497500D01*
X150477258Y-121497510D01*
X150624761Y-121752993D01*
X150804352Y-121987040D01*
X150804358Y-121987047D01*
X151012952Y-122195641D01*
X151012959Y-122195647D01*
X151247006Y-122375238D01*
X151502489Y-122522741D01*
X151502490Y-122522741D01*
X151502493Y-122522743D01*
X151775048Y-122635639D01*
X152060007Y-122711993D01*
X152352494Y-122750500D01*
X152352501Y-122750500D01*
X152647499Y-122750500D01*
X152647506Y-122750500D01*
X152939993Y-122711993D01*
X153224952Y-122635639D01*
X153497507Y-122522743D01*
X153752994Y-122375238D01*
X153987042Y-122195646D01*
X154195646Y-121987042D01*
X154375238Y-121752994D01*
X154522743Y-121497507D01*
X154635639Y-121224952D01*
X154711993Y-120939993D01*
X154750500Y-120647506D01*
X154750500Y-120352494D01*
X154711993Y-120060007D01*
X154635639Y-119775048D01*
X154522743Y-119502493D01*
X154455601Y-119386200D01*
X154375238Y-119247006D01*
X154195647Y-119012959D01*
X154195641Y-119012952D01*
X153987047Y-118804358D01*
X153987040Y-118804352D01*
X153752993Y-118624761D01*
X153497510Y-118477258D01*
X153497500Y-118477254D01*
X153224961Y-118364364D01*
X153224954Y-118364362D01*
X153224952Y-118364361D01*
X152939993Y-118288007D01*
X152891113Y-118281571D01*
X152647513Y-118249500D01*
X152647506Y-118249500D01*
X152352494Y-118249500D01*
X152352486Y-118249500D01*
X152074085Y-118286153D01*
X152060007Y-118288007D01*
X151775048Y-118364361D01*
X151775038Y-118364364D01*
X151502499Y-118477254D01*
X151502489Y-118477258D01*
X151247006Y-118624761D01*
X151012959Y-118804352D01*
X151012952Y-118804358D01*
X150804358Y-119012952D01*
X150804352Y-119012959D01*
X150624761Y-119247006D01*
X150477258Y-119502489D01*
X150477254Y-119502499D01*
X150364364Y-119775038D01*
X150364361Y-119775048D01*
X150295733Y-120031175D01*
X150288008Y-120060004D01*
X150288006Y-120060015D01*
X150249500Y-120352486D01*
X141581447Y-120352486D01*
X141517523Y-120250752D01*
X141342416Y-120031175D01*
X141143825Y-119832584D01*
X140924248Y-119657477D01*
X140686445Y-119508055D01*
X140686442Y-119508053D01*
X140433411Y-119386200D01*
X140168329Y-119293443D01*
X140168317Y-119293439D01*
X139894512Y-119230945D01*
X139894494Y-119230942D01*
X139615431Y-119199500D01*
X139615425Y-119199500D01*
X139334575Y-119199500D01*
X139334568Y-119199500D01*
X139055505Y-119230942D01*
X139055487Y-119230945D01*
X138781682Y-119293439D01*
X138781670Y-119293443D01*
X138516588Y-119386200D01*
X138263557Y-119508053D01*
X138025753Y-119657476D01*
X137806175Y-119832583D01*
X137607583Y-120031175D01*
X137432476Y-120250753D01*
X137283053Y-120488557D01*
X137161200Y-120741588D01*
X137068443Y-121006670D01*
X137068439Y-121006682D01*
X137005945Y-121280487D01*
X137005942Y-121280505D01*
X136974500Y-121559568D01*
X62486912Y-121559568D01*
X62522743Y-121497507D01*
X62635639Y-121224952D01*
X62711993Y-120939993D01*
X62750500Y-120647506D01*
X62750500Y-120352494D01*
X62711993Y-120060007D01*
X62635639Y-119775048D01*
X62522743Y-119502493D01*
X62455601Y-119386200D01*
X62375238Y-119247006D01*
X62195647Y-119012959D01*
X62195641Y-119012952D01*
X61987047Y-118804358D01*
X61987040Y-118804352D01*
X61752993Y-118624761D01*
X61497510Y-118477258D01*
X61497500Y-118477254D01*
X61224961Y-118364364D01*
X61224954Y-118364362D01*
X61224952Y-118364361D01*
X60939993Y-118288007D01*
X60891113Y-118281571D01*
X60647513Y-118249500D01*
X60647506Y-118249500D01*
X60352494Y-118249500D01*
X60352486Y-118249500D01*
X60074085Y-118286153D01*
X60060007Y-118288007D01*
X59775048Y-118364361D01*
X59775038Y-118364364D01*
X59502499Y-118477254D01*
X59502489Y-118477258D01*
X59247006Y-118624761D01*
X59012959Y-118804352D01*
X59012952Y-118804358D01*
X58804358Y-119012952D01*
X58804352Y-119012959D01*
X58624761Y-119247006D01*
X58477258Y-119502489D01*
X58477254Y-119502499D01*
X58364364Y-119775038D01*
X58364361Y-119775048D01*
X58295733Y-120031175D01*
X58288008Y-120060004D01*
X58288006Y-120060015D01*
X58249500Y-120352486D01*
X47731447Y-120352486D01*
X47667523Y-120250752D01*
X47492416Y-120031175D01*
X47293825Y-119832584D01*
X47074248Y-119657477D01*
X46836445Y-119508055D01*
X46836442Y-119508053D01*
X46583411Y-119386200D01*
X46318329Y-119293443D01*
X46318317Y-119293439D01*
X46044512Y-119230945D01*
X46044494Y-119230942D01*
X45765431Y-119199500D01*
X45765425Y-119199500D01*
X45484575Y-119199500D01*
X45484568Y-119199500D01*
X45205505Y-119230942D01*
X45205487Y-119230945D01*
X44931682Y-119293439D01*
X44931670Y-119293443D01*
X44666588Y-119386200D01*
X44413557Y-119508053D01*
X44175753Y-119657476D01*
X43956175Y-119832583D01*
X43757583Y-120031175D01*
X43582476Y-120250753D01*
X43433053Y-120488557D01*
X43311200Y-120741588D01*
X43218443Y-121006670D01*
X43218439Y-121006682D01*
X43155945Y-121280487D01*
X43155942Y-121280505D01*
X43124500Y-121559568D01*
X38840500Y-121559568D01*
X38840500Y-113904135D01*
X187749500Y-113904135D01*
X187749500Y-117499870D01*
X187749501Y-117499876D01*
X187755908Y-117559483D01*
X187806202Y-117694328D01*
X187806206Y-117694335D01*
X187892452Y-117809544D01*
X187892455Y-117809547D01*
X188007664Y-117895793D01*
X188007671Y-117895797D01*
X188142517Y-117946091D01*
X188142516Y-117946091D01*
X188149444Y-117946835D01*
X188202127Y-117952500D01*
X189500794Y-117952499D01*
X189567831Y-117972184D01*
X189613586Y-118024987D01*
X189623530Y-118094146D01*
X189594505Y-118157702D01*
X189535727Y-118195476D01*
X189532886Y-118196273D01*
X189275048Y-118265361D01*
X189275046Y-118265361D01*
X189275045Y-118265362D01*
X189275038Y-118265364D01*
X189002499Y-118378254D01*
X189002489Y-118378258D01*
X188747006Y-118525761D01*
X188512959Y-118705352D01*
X188512952Y-118705358D01*
X188304358Y-118913952D01*
X188304352Y-118913959D01*
X188124761Y-119148006D01*
X187977258Y-119403489D01*
X187977254Y-119403499D01*
X187864364Y-119676038D01*
X187864361Y-119676048D01*
X187788008Y-119961004D01*
X187788006Y-119961015D01*
X187749500Y-120253486D01*
X187749500Y-120548513D01*
X187774920Y-120741588D01*
X187788007Y-120840993D01*
X187832400Y-121006670D01*
X187864361Y-121125951D01*
X187864364Y-121125961D01*
X187977254Y-121398500D01*
X187977258Y-121398510D01*
X188124761Y-121653993D01*
X188304352Y-121888040D01*
X188304358Y-121888047D01*
X188512952Y-122096641D01*
X188512959Y-122096647D01*
X188747006Y-122276238D01*
X189002489Y-122423741D01*
X189002490Y-122423741D01*
X189002493Y-122423743D01*
X189275048Y-122536639D01*
X189560007Y-122612993D01*
X189670661Y-122627561D01*
X189734557Y-122655828D01*
X189773028Y-122714152D01*
X189773859Y-122784017D01*
X189736787Y-122843240D01*
X189673581Y-122873019D01*
X189670661Y-122873438D01*
X189560007Y-122888007D01*
X189472546Y-122911442D01*
X189275048Y-122964361D01*
X189275038Y-122964364D01*
X189002499Y-123077254D01*
X189002489Y-123077258D01*
X188747006Y-123224761D01*
X188512959Y-123404352D01*
X188512952Y-123404358D01*
X188304358Y-123612952D01*
X188304352Y-123612959D01*
X188124761Y-123847006D01*
X187977258Y-124102489D01*
X187977254Y-124102499D01*
X187864364Y-124375038D01*
X187864361Y-124375048D01*
X187788008Y-124660004D01*
X187788006Y-124660015D01*
X187749500Y-124952486D01*
X187749500Y-125247513D01*
X187766871Y-125379451D01*
X187788007Y-125539993D01*
X187852606Y-125781081D01*
X187864361Y-125824951D01*
X187864364Y-125824961D01*
X187977254Y-126097500D01*
X187977258Y-126097510D01*
X188124761Y-126352993D01*
X188304352Y-126587040D01*
X188304358Y-126587047D01*
X188512952Y-126795641D01*
X188512959Y-126795647D01*
X188747006Y-126975238D01*
X189002489Y-127122741D01*
X189002490Y-127122741D01*
X189002493Y-127122743D01*
X189275048Y-127235639D01*
X189560007Y-127311993D01*
X189852494Y-127350500D01*
X189852501Y-127350500D01*
X190147499Y-127350500D01*
X190147506Y-127350500D01*
X190439993Y-127311993D01*
X190724952Y-127235639D01*
X190997507Y-127122743D01*
X191235639Y-126985258D01*
X197449500Y-126985258D01*
X197449500Y-127214741D01*
X197467374Y-127350499D01*
X197479452Y-127442238D01*
X197479453Y-127442240D01*
X197538842Y-127663887D01*
X197626650Y-127875876D01*
X197626657Y-127875890D01*
X197741392Y-128074617D01*
X197881081Y-128256661D01*
X197881089Y-128256670D01*
X198043330Y-128418911D01*
X198043338Y-128418918D01*
X198225382Y-128558607D01*
X198225385Y-128558608D01*
X198225388Y-128558611D01*
X198424112Y-128673344D01*
X198424117Y-128673346D01*
X198424123Y-128673349D01*
X198515480Y-128711190D01*
X198636113Y-128761158D01*
X198857762Y-128820548D01*
X199085266Y-128850500D01*
X199085273Y-128850500D01*
X199314727Y-128850500D01*
X199314734Y-128850500D01*
X199542238Y-128820548D01*
X199763887Y-128761158D01*
X199975888Y-128673344D01*
X200174612Y-128558611D01*
X200356661Y-128418919D01*
X200356665Y-128418914D01*
X200356670Y-128418911D01*
X200518911Y-128256670D01*
X200518914Y-128256665D01*
X200518919Y-128256661D01*
X200658611Y-128074612D01*
X200773344Y-127875888D01*
X200861158Y-127663887D01*
X200920548Y-127442238D01*
X200950500Y-127214734D01*
X200950500Y-126985266D01*
X200920548Y-126757762D01*
X200861158Y-126536113D01*
X200806633Y-126404479D01*
X200773349Y-126324123D01*
X200773346Y-126324117D01*
X200773344Y-126324112D01*
X200658611Y-126125388D01*
X200658608Y-126125385D01*
X200658607Y-126125382D01*
X200518918Y-125943338D01*
X200518911Y-125943330D01*
X200356670Y-125781089D01*
X200356661Y-125781081D01*
X200174617Y-125641392D01*
X199975890Y-125526657D01*
X199975876Y-125526650D01*
X199763887Y-125438842D01*
X199542238Y-125379452D01*
X199504215Y-125374446D01*
X199314741Y-125349500D01*
X199314734Y-125349500D01*
X199085266Y-125349500D01*
X199085258Y-125349500D01*
X198868715Y-125378009D01*
X198857762Y-125379452D01*
X198764076Y-125404554D01*
X198636112Y-125438842D01*
X198424123Y-125526650D01*
X198424109Y-125526657D01*
X198225382Y-125641392D01*
X198043338Y-125781081D01*
X197881081Y-125943338D01*
X197741392Y-126125382D01*
X197626657Y-126324109D01*
X197626650Y-126324123D01*
X197538842Y-126536112D01*
X197479453Y-126757759D01*
X197479451Y-126757770D01*
X197449500Y-126985258D01*
X191235639Y-126985258D01*
X191252994Y-126975238D01*
X191487042Y-126795646D01*
X191695646Y-126587042D01*
X191875238Y-126352994D01*
X192022743Y-126097507D01*
X192135639Y-125824952D01*
X192211993Y-125539993D01*
X192250500Y-125247506D01*
X192250500Y-124952494D01*
X192211993Y-124660007D01*
X192135639Y-124375048D01*
X192022743Y-124102493D01*
X191901183Y-123891945D01*
X191875238Y-123847006D01*
X191695647Y-123612959D01*
X191695641Y-123612952D01*
X191487047Y-123404358D01*
X191487040Y-123404352D01*
X191252993Y-123224761D01*
X190997510Y-123077258D01*
X190997500Y-123077254D01*
X190724961Y-122964364D01*
X190724954Y-122964362D01*
X190724952Y-122964361D01*
X190439993Y-122888007D01*
X190439987Y-122888006D01*
X190439982Y-122888005D01*
X190329339Y-122873439D01*
X190265442Y-122845172D01*
X190226971Y-122786848D01*
X190226140Y-122716983D01*
X190263212Y-122657760D01*
X190326418Y-122627981D01*
X190329339Y-122627561D01*
X190439993Y-122612993D01*
X190724952Y-122536639D01*
X190997507Y-122423743D01*
X191252994Y-122276238D01*
X191487042Y-122096646D01*
X191695646Y-121888042D01*
X191875238Y-121653994D01*
X192022743Y-121398507D01*
X192135639Y-121125952D01*
X192211993Y-120840993D01*
X192250500Y-120548506D01*
X192250500Y-120253494D01*
X192211993Y-119961007D01*
X192135639Y-119676048D01*
X192022743Y-119403493D01*
X192012758Y-119386199D01*
X191875238Y-119148006D01*
X191695647Y-118913959D01*
X191695641Y-118913952D01*
X191487047Y-118705358D01*
X191487040Y-118705352D01*
X191252993Y-118525761D01*
X190997510Y-118378258D01*
X190997500Y-118378254D01*
X190724961Y-118265364D01*
X190724954Y-118265362D01*
X190724952Y-118265361D01*
X190467112Y-118196273D01*
X190407452Y-118159909D01*
X190376923Y-118097062D01*
X190385218Y-118027687D01*
X190429703Y-117973809D01*
X190496255Y-117952534D01*
X190499175Y-117952499D01*
X191797872Y-117952499D01*
X191857483Y-117946091D01*
X191992331Y-117895796D01*
X192107546Y-117809546D01*
X192193796Y-117694331D01*
X192244091Y-117559483D01*
X192250500Y-117499873D01*
X192250499Y-113904128D01*
X192244091Y-113844517D01*
X192193796Y-113709669D01*
X192193795Y-113709668D01*
X192193793Y-113709664D01*
X192107547Y-113594455D01*
X192107544Y-113594452D01*
X191992335Y-113508206D01*
X191992328Y-113508202D01*
X191857482Y-113457908D01*
X191857483Y-113457908D01*
X191797883Y-113451501D01*
X191797881Y-113451500D01*
X191797873Y-113451500D01*
X191797864Y-113451500D01*
X188202129Y-113451500D01*
X188202123Y-113451501D01*
X188142516Y-113457908D01*
X188007671Y-113508202D01*
X188007664Y-113508206D01*
X187892455Y-113594452D01*
X187892452Y-113594455D01*
X187806206Y-113709664D01*
X187806202Y-113709671D01*
X187755908Y-113844517D01*
X187749501Y-113904116D01*
X187749501Y-113904123D01*
X187749500Y-113904135D01*
X38840500Y-113904135D01*
X38840500Y-99392135D01*
X143819500Y-99392135D01*
X143819500Y-101487870D01*
X143819501Y-101487876D01*
X143825908Y-101547483D01*
X143876202Y-101682328D01*
X143876206Y-101682335D01*
X143962452Y-101797544D01*
X143962455Y-101797547D01*
X144077664Y-101883793D01*
X144085454Y-101888047D01*
X144083646Y-101891357D01*
X144125351Y-101922449D01*
X144149897Y-101987865D01*
X144135180Y-102056167D01*
X144126549Y-102069840D01*
X144036659Y-102193563D01*
X143929433Y-102404003D01*
X143856446Y-102628631D01*
X143819500Y-102861902D01*
X143819500Y-103098097D01*
X143856446Y-103331368D01*
X143929433Y-103555996D01*
X144036657Y-103766433D01*
X144175483Y-103957510D01*
X144342490Y-104124517D01*
X144377127Y-104149683D01*
X144419792Y-104205013D01*
X144425771Y-104274626D01*
X144393165Y-104336421D01*
X144377130Y-104350315D01*
X144359365Y-104363222D01*
X144342488Y-104375484D01*
X144175485Y-104542487D01*
X144175485Y-104542488D01*
X144175483Y-104542490D01*
X144115862Y-104624550D01*
X144036657Y-104733566D01*
X143929433Y-104944003D01*
X143856446Y-105168631D01*
X143819500Y-105401902D01*
X143819500Y-105638097D01*
X143856446Y-105871368D01*
X143929433Y-106095996D01*
X144036657Y-106306433D01*
X144175483Y-106497510D01*
X144342490Y-106664517D01*
X144401716Y-106707547D01*
X144444381Y-106762875D01*
X144452448Y-106817593D01*
X144450893Y-106837340D01*
X145190591Y-107577037D01*
X145127007Y-107594075D01*
X145012993Y-107659901D01*
X144919901Y-107752993D01*
X144854075Y-107867007D01*
X144837037Y-107930591D01*
X144097340Y-107190894D01*
X144037084Y-107273830D01*
X143929897Y-107484197D01*
X143856934Y-107708752D01*
X143820000Y-107941947D01*
X143820000Y-108178052D01*
X143856934Y-108411247D01*
X143929897Y-108635802D01*
X144037087Y-108846174D01*
X144097338Y-108929104D01*
X144097340Y-108929105D01*
X144837037Y-108189408D01*
X144854075Y-108252993D01*
X144919901Y-108367007D01*
X145012993Y-108460099D01*
X145127007Y-108525925D01*
X145190590Y-108542962D01*
X144450893Y-109282658D01*
X144452448Y-109302405D01*
X144438084Y-109370783D01*
X144401717Y-109412451D01*
X144342490Y-109455482D01*
X144175485Y-109622487D01*
X144175485Y-109622488D01*
X144175483Y-109622490D01*
X144115862Y-109704550D01*
X144036657Y-109813566D01*
X143929433Y-110024003D01*
X143856446Y-110248631D01*
X143819500Y-110481902D01*
X143819500Y-110718097D01*
X143856446Y-110951368D01*
X143929433Y-111175996D01*
X144036657Y-111386433D01*
X144175483Y-111577510D01*
X144342490Y-111744517D01*
X144533567Y-111883343D01*
X144632991Y-111934002D01*
X144744003Y-111990566D01*
X144744005Y-111990566D01*
X144744008Y-111990568D01*
X144864412Y-112029689D01*
X144968631Y-112063553D01*
X145201903Y-112100500D01*
X145201908Y-112100500D01*
X145438097Y-112100500D01*
X145671368Y-112063553D01*
X145895992Y-111990568D01*
X146106433Y-111883343D01*
X146297510Y-111744517D01*
X146464517Y-111577510D01*
X146603343Y-111386433D01*
X146710568Y-111175992D01*
X146783553Y-110951368D01*
X146820500Y-110718097D01*
X146820500Y-110481902D01*
X146783553Y-110248631D01*
X146710566Y-110024003D01*
X146603342Y-109813566D01*
X146464517Y-109622490D01*
X146297510Y-109455483D01*
X146238282Y-109412451D01*
X146195617Y-109357122D01*
X146187550Y-109302404D01*
X146189104Y-109282657D01*
X145449408Y-108542962D01*
X145512993Y-108525925D01*
X145627007Y-108460099D01*
X145720099Y-108367007D01*
X145785925Y-108252993D01*
X145802962Y-108189409D01*
X146542658Y-108929105D01*
X146542658Y-108929104D01*
X146602914Y-108846169D01*
X146602918Y-108846163D01*
X146710102Y-108635802D01*
X146783065Y-108411247D01*
X146820000Y-108178052D01*
X146820000Y-107941947D01*
X146783065Y-107708752D01*
X146710102Y-107484197D01*
X146602914Y-107273828D01*
X146542658Y-107190894D01*
X146542658Y-107190893D01*
X145802962Y-107930590D01*
X145785925Y-107867007D01*
X145720099Y-107752993D01*
X145627007Y-107659901D01*
X145512993Y-107594075D01*
X145449409Y-107577037D01*
X146189105Y-106837340D01*
X146187551Y-106817594D01*
X146201915Y-106749216D01*
X146238284Y-106707547D01*
X146297510Y-106664517D01*
X146464517Y-106497510D01*
X146603343Y-106306433D01*
X146710568Y-106095992D01*
X146783553Y-105871368D01*
X146820500Y-105638097D01*
X146820500Y-105401902D01*
X146783553Y-105168631D01*
X146710566Y-104944003D01*
X146603342Y-104733566D01*
X146464517Y-104542490D01*
X146297510Y-104375483D01*
X146262872Y-104350317D01*
X146220207Y-104294989D01*
X146214228Y-104225375D01*
X146246833Y-104163580D01*
X146262873Y-104149682D01*
X146297510Y-104124517D01*
X146464517Y-103957510D01*
X146603343Y-103766433D01*
X146710568Y-103555992D01*
X146783553Y-103331368D01*
X146809147Y-103169775D01*
X158352700Y-103169775D01*
X158352700Y-103451824D01*
X158389512Y-103731434D01*
X158462510Y-104003865D01*
X158570436Y-104264422D01*
X158570441Y-104264433D01*
X158711450Y-104508666D01*
X158711461Y-104508682D01*
X158883144Y-104732424D01*
X158883150Y-104732431D01*
X159082568Y-104931849D01*
X159082574Y-104931854D01*
X159306326Y-105103545D01*
X159306333Y-105103549D01*
X159550566Y-105244558D01*
X159550571Y-105244560D01*
X159550574Y-105244562D01*
X159811139Y-105352491D01*
X160083563Y-105425487D01*
X160363183Y-105462300D01*
X160363190Y-105462300D01*
X160645210Y-105462300D01*
X160645217Y-105462300D01*
X160924837Y-105425487D01*
X161197261Y-105352491D01*
X161457826Y-105244562D01*
X161702074Y-105103545D01*
X161925826Y-104931854D01*
X162125254Y-104732426D01*
X162296945Y-104508674D01*
X162437962Y-104264426D01*
X162545891Y-104003861D01*
X162618887Y-103731437D01*
X162655700Y-103451817D01*
X162655700Y-103169783D01*
X162618887Y-102890163D01*
X162545891Y-102617739D01*
X162437962Y-102357174D01*
X162437960Y-102357171D01*
X162437958Y-102357166D01*
X162296949Y-102112933D01*
X162296945Y-102112926D01*
X162296941Y-102112921D01*
X162296938Y-102112916D01*
X162268015Y-102075223D01*
X162125255Y-101889175D01*
X162125249Y-101889168D01*
X161925831Y-101689750D01*
X161925824Y-101689744D01*
X161903011Y-101672239D01*
X161726503Y-101536800D01*
X171151049Y-101536800D01*
X172126949Y-101536800D01*
X172095819Y-101590719D01*
X172061200Y-101719920D01*
X172061200Y-101853680D01*
X172095819Y-101982881D01*
X172126949Y-102036800D01*
X171151049Y-102036800D01*
X171164853Y-102123955D01*
X171164853Y-102123958D01*
X171234883Y-102339488D01*
X171337775Y-102541423D01*
X171470976Y-102724760D01*
X171470980Y-102724765D01*
X171631234Y-102885019D01*
X171631239Y-102885023D01*
X171814576Y-103018224D01*
X172016511Y-103121116D01*
X172232038Y-103191144D01*
X172319200Y-103204949D01*
X172319200Y-102229051D01*
X172373119Y-102260181D01*
X172502320Y-102294800D01*
X172636080Y-102294800D01*
X172765281Y-102260181D01*
X172819200Y-102229051D01*
X172819200Y-103204948D01*
X172906361Y-103191144D01*
X173121888Y-103121116D01*
X173323823Y-103018224D01*
X173507160Y-102885023D01*
X173507165Y-102885019D01*
X173667421Y-102724763D01*
X173738571Y-102626832D01*
X173793901Y-102584165D01*
X173863514Y-102578185D01*
X173925309Y-102610791D01*
X173939208Y-102626831D01*
X174010594Y-102725086D01*
X174010598Y-102725091D01*
X174170908Y-102885401D01*
X174170913Y-102885405D01*
X174330884Y-103001629D01*
X174354318Y-103018655D01*
X174486366Y-103085937D01*
X174556316Y-103121579D01*
X174556319Y-103121580D01*
X174632478Y-103146325D01*
X174771929Y-103191635D01*
X174995846Y-103227100D01*
X174995847Y-103227100D01*
X175222553Y-103227100D01*
X175222554Y-103227100D01*
X175446471Y-103191635D01*
X175513750Y-103169775D01*
X185022700Y-103169775D01*
X185022700Y-103451824D01*
X185059512Y-103731434D01*
X185132510Y-104003865D01*
X185240436Y-104264422D01*
X185240441Y-104264433D01*
X185381450Y-104508666D01*
X185381461Y-104508682D01*
X185553144Y-104732424D01*
X185553150Y-104732431D01*
X185752568Y-104931849D01*
X185752574Y-104931854D01*
X185976326Y-105103545D01*
X185976333Y-105103549D01*
X186220566Y-105244558D01*
X186220571Y-105244560D01*
X186220574Y-105244562D01*
X186481139Y-105352491D01*
X186753563Y-105425487D01*
X187033183Y-105462300D01*
X187033190Y-105462300D01*
X187315210Y-105462300D01*
X187315217Y-105462300D01*
X187594837Y-105425487D01*
X187867261Y-105352491D01*
X188127826Y-105244562D01*
X188372074Y-105103545D01*
X188595826Y-104931854D01*
X188795254Y-104732426D01*
X188966945Y-104508674D01*
X189107962Y-104264426D01*
X189215891Y-104003861D01*
X189288887Y-103731437D01*
X189325700Y-103451817D01*
X189325700Y-103169783D01*
X189288887Y-102890163D01*
X189215891Y-102617739D01*
X189107962Y-102357174D01*
X189107960Y-102357171D01*
X189107958Y-102357166D01*
X188966949Y-102112933D01*
X188966945Y-102112926D01*
X188883390Y-102004035D01*
X188795255Y-101889175D01*
X188795249Y-101889168D01*
X188595831Y-101689750D01*
X188595824Y-101689744D01*
X188372082Y-101518061D01*
X188372080Y-101518059D01*
X188372074Y-101518055D01*
X188372069Y-101518052D01*
X188372066Y-101518050D01*
X188127833Y-101377041D01*
X188127822Y-101377036D01*
X187867265Y-101269110D01*
X187594834Y-101196112D01*
X187315224Y-101159300D01*
X187315217Y-101159300D01*
X187033183Y-101159300D01*
X187033175Y-101159300D01*
X186753565Y-101196112D01*
X186481134Y-101269110D01*
X186220577Y-101377036D01*
X186220566Y-101377041D01*
X185976333Y-101518050D01*
X185976317Y-101518061D01*
X185752575Y-101689744D01*
X185752568Y-101689750D01*
X185553150Y-101889168D01*
X185553144Y-101889175D01*
X185381461Y-102112917D01*
X185381450Y-102112933D01*
X185240441Y-102357166D01*
X185240436Y-102357177D01*
X185132510Y-102617734D01*
X185059512Y-102890165D01*
X185022700Y-103169775D01*
X175513750Y-103169775D01*
X175662083Y-103121579D01*
X175864082Y-103018655D01*
X176047493Y-102885400D01*
X176207800Y-102725093D01*
X176341055Y-102541682D01*
X176443979Y-102339683D01*
X176514035Y-102124071D01*
X176549500Y-101900154D01*
X176549500Y-101673446D01*
X176514035Y-101449529D01*
X176455414Y-101269110D01*
X176443980Y-101233919D01*
X176443979Y-101233916D01*
X176405960Y-101159300D01*
X176341055Y-101031918D01*
X176290843Y-100962807D01*
X176207805Y-100848513D01*
X176207801Y-100848508D01*
X176047491Y-100688198D01*
X176047486Y-100688194D01*
X175864085Y-100554947D01*
X175864084Y-100554946D01*
X175864082Y-100554945D01*
X175799366Y-100521970D01*
X175662083Y-100452020D01*
X175662080Y-100452019D01*
X175446472Y-100381965D01*
X175334512Y-100364232D01*
X175222554Y-100346500D01*
X174995846Y-100346500D01*
X174921207Y-100358321D01*
X174771927Y-100381965D01*
X174556319Y-100452019D01*
X174556316Y-100452020D01*
X174354314Y-100554947D01*
X174170913Y-100688194D01*
X174170908Y-100688198D01*
X174010598Y-100848508D01*
X174010594Y-100848513D01*
X173939208Y-100946768D01*
X173883878Y-100989434D01*
X173814265Y-100995413D01*
X173752470Y-100962807D01*
X173738571Y-100946768D01*
X173667417Y-100848832D01*
X173507165Y-100688580D01*
X173507160Y-100688576D01*
X173323823Y-100555375D01*
X173121888Y-100452483D01*
X172906356Y-100382453D01*
X172819200Y-100368648D01*
X172819200Y-101344548D01*
X172765281Y-101313419D01*
X172636080Y-101278800D01*
X172502320Y-101278800D01*
X172373119Y-101313419D01*
X172319200Y-101344548D01*
X172319200Y-100368648D01*
X172232044Y-100382453D01*
X172232041Y-100382453D01*
X172016511Y-100452483D01*
X171814576Y-100555375D01*
X171631239Y-100688576D01*
X171631234Y-100688580D01*
X171470980Y-100848834D01*
X171470976Y-100848839D01*
X171337775Y-101032176D01*
X171234883Y-101234111D01*
X171164853Y-101449641D01*
X171164853Y-101449644D01*
X171151049Y-101536800D01*
X161726503Y-101536800D01*
X161702082Y-101518061D01*
X161702080Y-101518059D01*
X161702074Y-101518055D01*
X161702069Y-101518052D01*
X161702066Y-101518050D01*
X161457833Y-101377041D01*
X161457822Y-101377036D01*
X161197265Y-101269110D01*
X160924834Y-101196112D01*
X160645224Y-101159300D01*
X160645217Y-101159300D01*
X160363183Y-101159300D01*
X160363175Y-101159300D01*
X160083565Y-101196112D01*
X159811134Y-101269110D01*
X159550577Y-101377036D01*
X159550566Y-101377041D01*
X159306333Y-101518050D01*
X159306317Y-101518061D01*
X159082575Y-101689744D01*
X159082568Y-101689750D01*
X158883150Y-101889168D01*
X158883144Y-101889175D01*
X158711461Y-102112917D01*
X158711450Y-102112933D01*
X158570441Y-102357166D01*
X158570436Y-102357177D01*
X158462510Y-102617734D01*
X158389512Y-102890165D01*
X158352700Y-103169775D01*
X146809147Y-103169775D01*
X146812861Y-103146326D01*
X146812861Y-103146325D01*
X146820500Y-103098096D01*
X146820500Y-102861902D01*
X146783553Y-102628631D01*
X146710566Y-102404003D01*
X146654002Y-102292991D01*
X146603343Y-102193567D01*
X146513449Y-102069839D01*
X146489970Y-102004035D01*
X146505795Y-101935981D01*
X146554744Y-101888410D01*
X146554546Y-101888047D01*
X146555851Y-101887334D01*
X146555901Y-101887286D01*
X146556111Y-101887192D01*
X146562326Y-101883797D01*
X146562331Y-101883796D01*
X146677546Y-101797546D01*
X146763796Y-101682331D01*
X146814091Y-101547483D01*
X146820500Y-101487873D01*
X146820499Y-99392128D01*
X146814091Y-99332517D01*
X146763796Y-99197669D01*
X146763795Y-99197668D01*
X146763793Y-99197664D01*
X146677547Y-99082455D01*
X146677544Y-99082452D01*
X146562335Y-98996206D01*
X146562328Y-98996202D01*
X146427482Y-98945908D01*
X146427483Y-98945908D01*
X146367883Y-98939501D01*
X146367881Y-98939500D01*
X146367873Y-98939500D01*
X146367864Y-98939500D01*
X144272129Y-98939500D01*
X144272123Y-98939501D01*
X144212516Y-98945908D01*
X144077671Y-98996202D01*
X144077664Y-98996206D01*
X143962455Y-99082452D01*
X143962452Y-99082455D01*
X143876206Y-99197664D01*
X143876202Y-99197671D01*
X143825908Y-99332517D01*
X143819501Y-99392116D01*
X143819501Y-99392123D01*
X143819500Y-99392135D01*
X38840500Y-99392135D01*
X38840500Y-94264616D01*
X160200000Y-94264616D01*
X160200000Y-94487465D01*
X160229085Y-94708395D01*
X160229088Y-94708408D01*
X160286763Y-94923659D01*
X160372045Y-95129543D01*
X160372054Y-95129561D01*
X160483464Y-95322532D01*
X160483473Y-95322545D01*
X160534040Y-95388444D01*
X160534043Y-95388444D01*
X161335387Y-94587100D01*
X161340889Y-94607632D01*
X161419881Y-94744449D01*
X161531592Y-94856160D01*
X161668409Y-94935152D01*
X161688940Y-94940653D01*
X160887595Y-95741996D01*
X160887595Y-95741997D01*
X160953507Y-95792574D01*
X161146485Y-95903990D01*
X161146497Y-95903995D01*
X161352381Y-95989277D01*
X161567632Y-96046952D01*
X161567645Y-96046955D01*
X161788575Y-96076041D01*
X162011425Y-96076041D01*
X162232354Y-96046955D01*
X162232367Y-96046952D01*
X162447618Y-95989277D01*
X162653502Y-95903995D01*
X162653514Y-95903990D01*
X162846498Y-95792571D01*
X162912403Y-95741998D01*
X162912404Y-95741997D01*
X162111059Y-94940653D01*
X162131591Y-94935152D01*
X162268408Y-94856160D01*
X162380119Y-94744449D01*
X162459111Y-94607632D01*
X162464612Y-94587100D01*
X163265956Y-95388445D01*
X163265957Y-95388444D01*
X163316530Y-95322539D01*
X163427949Y-95129555D01*
X163427954Y-95129543D01*
X163513236Y-94923659D01*
X163570911Y-94708408D01*
X163570914Y-94708395D01*
X163600000Y-94487465D01*
X163600000Y-94264616D01*
X163570914Y-94043686D01*
X163570911Y-94043673D01*
X163513236Y-93828422D01*
X163427954Y-93622538D01*
X163427949Y-93622526D01*
X163316533Y-93429548D01*
X163265956Y-93363636D01*
X163265955Y-93363636D01*
X162464612Y-94164980D01*
X162459111Y-94144450D01*
X162380119Y-94007633D01*
X162268408Y-93895922D01*
X162131591Y-93816930D01*
X162111058Y-93811428D01*
X162653615Y-93268872D01*
X169399500Y-93268872D01*
X169399500Y-93531127D01*
X169426123Y-93733339D01*
X169433730Y-93791116D01*
X169501402Y-94043673D01*
X169501602Y-94044418D01*
X169501605Y-94044428D01*
X169601953Y-94286690D01*
X169601958Y-94286700D01*
X169733075Y-94513803D01*
X169892718Y-94721851D01*
X169892726Y-94721860D01*
X170078140Y-94907274D01*
X170078148Y-94907281D01*
X170286196Y-95066924D01*
X170513299Y-95198041D01*
X170513309Y-95198046D01*
X170755571Y-95298394D01*
X170755581Y-95298398D01*
X171008884Y-95366270D01*
X171268880Y-95400500D01*
X171268887Y-95400500D01*
X171531113Y-95400500D01*
X171531120Y-95400500D01*
X171791116Y-95366270D01*
X172044419Y-95298398D01*
X172286697Y-95198043D01*
X172513803Y-95066924D01*
X172721851Y-94907282D01*
X172721855Y-94907277D01*
X172721860Y-94907274D01*
X172907274Y-94721860D01*
X172907277Y-94721855D01*
X172907282Y-94721851D01*
X173066924Y-94513803D01*
X173198043Y-94286697D01*
X173298398Y-94044419D01*
X173366270Y-93791116D01*
X173400500Y-93531120D01*
X173400500Y-93268880D01*
X173400499Y-93268872D01*
X180649500Y-93268872D01*
X180649500Y-93531127D01*
X180676123Y-93733339D01*
X180683730Y-93791116D01*
X180751402Y-94043673D01*
X180751602Y-94044418D01*
X180751605Y-94044428D01*
X180851953Y-94286690D01*
X180851958Y-94286700D01*
X180983075Y-94513803D01*
X181142718Y-94721851D01*
X181142726Y-94721860D01*
X181328140Y-94907274D01*
X181328148Y-94907281D01*
X181536196Y-95066924D01*
X181763299Y-95198041D01*
X181763309Y-95198046D01*
X182005571Y-95298394D01*
X182005581Y-95298398D01*
X182258884Y-95366270D01*
X182518880Y-95400500D01*
X182518887Y-95400500D01*
X182781113Y-95400500D01*
X182781120Y-95400500D01*
X183041116Y-95366270D01*
X183294419Y-95298398D01*
X183536697Y-95198043D01*
X183763803Y-95066924D01*
X183971851Y-94907282D01*
X183971855Y-94907277D01*
X183971860Y-94907274D01*
X184157274Y-94721860D01*
X184157277Y-94721855D01*
X184157282Y-94721851D01*
X184316924Y-94513803D01*
X184448043Y-94286697D01*
X184548398Y-94044419D01*
X184616270Y-93791116D01*
X184650500Y-93531120D01*
X184650500Y-93268880D01*
X184650499Y-93268872D01*
X191899500Y-93268872D01*
X191899500Y-93531127D01*
X191926123Y-93733339D01*
X191933730Y-93791116D01*
X192001402Y-94043673D01*
X192001602Y-94044418D01*
X192001605Y-94044428D01*
X192101953Y-94286690D01*
X192101958Y-94286700D01*
X192233075Y-94513803D01*
X192392718Y-94721851D01*
X192392726Y-94721860D01*
X192578140Y-94907274D01*
X192578148Y-94907281D01*
X192786196Y-95066924D01*
X193013299Y-95198041D01*
X193013309Y-95198046D01*
X193255571Y-95298394D01*
X193255581Y-95298398D01*
X193508884Y-95366270D01*
X193768880Y-95400500D01*
X193768887Y-95400500D01*
X194031113Y-95400500D01*
X194031120Y-95400500D01*
X194291116Y-95366270D01*
X194544419Y-95298398D01*
X194786697Y-95198043D01*
X195013803Y-95066924D01*
X195221851Y-94907282D01*
X195221855Y-94907277D01*
X195221860Y-94907274D01*
X195407274Y-94721860D01*
X195407277Y-94721855D01*
X195407282Y-94721851D01*
X195566924Y-94513803D01*
X195698043Y-94286697D01*
X195798398Y-94044419D01*
X195866270Y-93791116D01*
X195900500Y-93531120D01*
X195900500Y-93268880D01*
X195866270Y-93008884D01*
X195798398Y-92755581D01*
X195777499Y-92705126D01*
X195698046Y-92513309D01*
X195698041Y-92513299D01*
X195566924Y-92286196D01*
X195407281Y-92078148D01*
X195407274Y-92078140D01*
X195221860Y-91892726D01*
X195221851Y-91892718D01*
X195013803Y-91733075D01*
X194786700Y-91601958D01*
X194786690Y-91601953D01*
X194544428Y-91501605D01*
X194544421Y-91501603D01*
X194544419Y-91501602D01*
X194291116Y-91433730D01*
X194233339Y-91426123D01*
X194031127Y-91399500D01*
X194031120Y-91399500D01*
X193768880Y-91399500D01*
X193768872Y-91399500D01*
X193537772Y-91429926D01*
X193508884Y-91433730D01*
X193255581Y-91501602D01*
X193255571Y-91501605D01*
X193013309Y-91601953D01*
X193013299Y-91601958D01*
X192786196Y-91733075D01*
X192578148Y-91892718D01*
X192392718Y-92078148D01*
X192233075Y-92286196D01*
X192101958Y-92513299D01*
X192101953Y-92513309D01*
X192001605Y-92755571D01*
X192001602Y-92755581D01*
X191933730Y-93008884D01*
X191933572Y-93010083D01*
X191899500Y-93268872D01*
X184650499Y-93268872D01*
X184616270Y-93008884D01*
X184548398Y-92755581D01*
X184527499Y-92705126D01*
X184448046Y-92513309D01*
X184448041Y-92513299D01*
X184316924Y-92286196D01*
X184157281Y-92078148D01*
X184157274Y-92078140D01*
X183971860Y-91892726D01*
X183971851Y-91892718D01*
X183763803Y-91733075D01*
X183536700Y-91601958D01*
X183536690Y-91601953D01*
X183294428Y-91501605D01*
X183294421Y-91501603D01*
X183294419Y-91501602D01*
X183041116Y-91433730D01*
X182983339Y-91426123D01*
X182781127Y-91399500D01*
X182781120Y-91399500D01*
X182518880Y-91399500D01*
X182518872Y-91399500D01*
X182287772Y-91429926D01*
X182258884Y-91433730D01*
X182005581Y-91501602D01*
X182005571Y-91501605D01*
X181763309Y-91601953D01*
X181763299Y-91601958D01*
X181536196Y-91733075D01*
X181328148Y-91892718D01*
X181142718Y-92078148D01*
X180983075Y-92286196D01*
X180851958Y-92513299D01*
X180851953Y-92513309D01*
X180751605Y-92755571D01*
X180751602Y-92755581D01*
X180683730Y-93008884D01*
X180683572Y-93010083D01*
X180649500Y-93268872D01*
X173400499Y-93268872D01*
X173366270Y-93008884D01*
X173298398Y-92755581D01*
X173277499Y-92705126D01*
X173198046Y-92513309D01*
X173198041Y-92513299D01*
X173066924Y-92286196D01*
X172907281Y-92078148D01*
X172907274Y-92078140D01*
X172721860Y-91892726D01*
X172721851Y-91892718D01*
X172513803Y-91733075D01*
X172286700Y-91601958D01*
X172286690Y-91601953D01*
X172044428Y-91501605D01*
X172044421Y-91501603D01*
X172044419Y-91501602D01*
X171791116Y-91433730D01*
X171733339Y-91426123D01*
X171531127Y-91399500D01*
X171531120Y-91399500D01*
X171268880Y-91399500D01*
X171268872Y-91399500D01*
X171037772Y-91429926D01*
X171008884Y-91433730D01*
X170755581Y-91501602D01*
X170755571Y-91501605D01*
X170513309Y-91601953D01*
X170513299Y-91601958D01*
X170286196Y-91733075D01*
X170078148Y-91892718D01*
X169892718Y-92078148D01*
X169733075Y-92286196D01*
X169601958Y-92513299D01*
X169601953Y-92513309D01*
X169501605Y-92755571D01*
X169501602Y-92755581D01*
X169433730Y-93008884D01*
X169433572Y-93010083D01*
X169399500Y-93268872D01*
X162653615Y-93268872D01*
X162912403Y-93010084D01*
X162912403Y-93010081D01*
X162846504Y-92959514D01*
X162846491Y-92959505D01*
X162653520Y-92848095D01*
X162653502Y-92848086D01*
X162447618Y-92762804D01*
X162232367Y-92705129D01*
X162232354Y-92705126D01*
X162011425Y-92676041D01*
X161788575Y-92676041D01*
X161567645Y-92705126D01*
X161567632Y-92705129D01*
X161352381Y-92762804D01*
X161146497Y-92848086D01*
X161146479Y-92848095D01*
X160953511Y-92959503D01*
X160887595Y-93010083D01*
X161688941Y-93811428D01*
X161668409Y-93816930D01*
X161531592Y-93895922D01*
X161419881Y-94007633D01*
X161340889Y-94144450D01*
X161335387Y-94164981D01*
X160534042Y-93363636D01*
X160483462Y-93429552D01*
X160372054Y-93622520D01*
X160372045Y-93622538D01*
X160286763Y-93828422D01*
X160229088Y-94043673D01*
X160229085Y-94043686D01*
X160200000Y-94264616D01*
X38840500Y-94264616D01*
X38840500Y-88376025D01*
X160199500Y-88376025D01*
X160199500Y-90376056D01*
X160210000Y-90478836D01*
X160210001Y-90478837D01*
X160265186Y-90645376D01*
X160265187Y-90645378D01*
X160357286Y-90794692D01*
X160357289Y-90794696D01*
X160481344Y-90918751D01*
X160481348Y-90918754D01*
X160630662Y-91010853D01*
X160630664Y-91010854D01*
X160630666Y-91010855D01*
X160797203Y-91066040D01*
X160899992Y-91076541D01*
X160899997Y-91076541D01*
X162900003Y-91076541D01*
X162900008Y-91076541D01*
X163002797Y-91066040D01*
X163169334Y-91010855D01*
X163318655Y-90918752D01*
X163442711Y-90794696D01*
X163534814Y-90645375D01*
X163589999Y-90478838D01*
X163600500Y-90376049D01*
X163600500Y-88376033D01*
X163589999Y-88273244D01*
X163534814Y-88106707D01*
X163442711Y-87957386D01*
X163318655Y-87833330D01*
X163318651Y-87833327D01*
X163169337Y-87741228D01*
X163169335Y-87741227D01*
X163086065Y-87713634D01*
X163002797Y-87686042D01*
X163002795Y-87686041D01*
X162900015Y-87675541D01*
X162900008Y-87675541D01*
X160899992Y-87675541D01*
X160899984Y-87675541D01*
X160797204Y-87686041D01*
X160797203Y-87686042D01*
X160630664Y-87741227D01*
X160630662Y-87741228D01*
X160481348Y-87833327D01*
X160481344Y-87833330D01*
X160357289Y-87957385D01*
X160357286Y-87957389D01*
X160265187Y-88106703D01*
X160265186Y-88106705D01*
X160210001Y-88273244D01*
X160210000Y-88273245D01*
X160199500Y-88376025D01*
X38840500Y-88376025D01*
X38840500Y-83985258D01*
X154449500Y-83985258D01*
X154449500Y-84214741D01*
X154474446Y-84404215D01*
X154479452Y-84442238D01*
X154479453Y-84442240D01*
X154538842Y-84663887D01*
X154626650Y-84875876D01*
X154626657Y-84875890D01*
X154741392Y-85074617D01*
X154881081Y-85256661D01*
X154881089Y-85256670D01*
X155043330Y-85418911D01*
X155043338Y-85418918D01*
X155225382Y-85558607D01*
X155225385Y-85558608D01*
X155225388Y-85558611D01*
X155424112Y-85673344D01*
X155424117Y-85673346D01*
X155424123Y-85673349D01*
X155515480Y-85711190D01*
X155636113Y-85761158D01*
X155857762Y-85820548D01*
X156085266Y-85850500D01*
X156085273Y-85850500D01*
X156314727Y-85850500D01*
X156314734Y-85850500D01*
X156542238Y-85820548D01*
X156763887Y-85761158D01*
X156975888Y-85673344D01*
X157174612Y-85558611D01*
X157356661Y-85418919D01*
X157356665Y-85418914D01*
X157356670Y-85418911D01*
X157518911Y-85256670D01*
X157518914Y-85256665D01*
X157518919Y-85256661D01*
X157658611Y-85074612D01*
X157773344Y-84875888D01*
X157861158Y-84663887D01*
X157920548Y-84442238D01*
X157950500Y-84214734D01*
X157950500Y-83985266D01*
X157950499Y-83985258D01*
X197449500Y-83985258D01*
X197449500Y-84214741D01*
X197474446Y-84404215D01*
X197479452Y-84442238D01*
X197479453Y-84442240D01*
X197538842Y-84663887D01*
X197626650Y-84875876D01*
X197626657Y-84875890D01*
X197741392Y-85074617D01*
X197881081Y-85256661D01*
X197881089Y-85256670D01*
X198043330Y-85418911D01*
X198043338Y-85418918D01*
X198225382Y-85558607D01*
X198225385Y-85558608D01*
X198225388Y-85558611D01*
X198424112Y-85673344D01*
X198424117Y-85673346D01*
X198424123Y-85673349D01*
X198515480Y-85711190D01*
X198636113Y-85761158D01*
X198857762Y-85820548D01*
X199085266Y-85850500D01*
X199085273Y-85850500D01*
X199314727Y-85850500D01*
X199314734Y-85850500D01*
X199542238Y-85820548D01*
X199763887Y-85761158D01*
X199975888Y-85673344D01*
X200174612Y-85558611D01*
X200356661Y-85418919D01*
X200356665Y-85418914D01*
X200356670Y-85418911D01*
X200518911Y-85256670D01*
X200518914Y-85256665D01*
X200518919Y-85256661D01*
X200658611Y-85074612D01*
X200773344Y-84875888D01*
X200861158Y-84663887D01*
X200920548Y-84442238D01*
X200950500Y-84214734D01*
X200950500Y-83985266D01*
X200920548Y-83757762D01*
X200861158Y-83536113D01*
X200773344Y-83324112D01*
X200658611Y-83125388D01*
X200658608Y-83125385D01*
X200658607Y-83125382D01*
X200518918Y-82943338D01*
X200518911Y-82943330D01*
X200356670Y-82781089D01*
X200356661Y-82781081D01*
X200174617Y-82641392D01*
X199975890Y-82526657D01*
X199975876Y-82526650D01*
X199763887Y-82438842D01*
X199542238Y-82379452D01*
X199504215Y-82374446D01*
X199314741Y-82349500D01*
X199314734Y-82349500D01*
X199085266Y-82349500D01*
X199085258Y-82349500D01*
X198868715Y-82378009D01*
X198857762Y-82379452D01*
X198764076Y-82404554D01*
X198636112Y-82438842D01*
X198424123Y-82526650D01*
X198424109Y-82526657D01*
X198225382Y-82641392D01*
X198043338Y-82781081D01*
X197881081Y-82943338D01*
X197741392Y-83125382D01*
X197626657Y-83324109D01*
X197626650Y-83324123D01*
X197538842Y-83536112D01*
X197479453Y-83757759D01*
X197479451Y-83757770D01*
X197449500Y-83985258D01*
X157950499Y-83985258D01*
X157920548Y-83757762D01*
X157861158Y-83536113D01*
X157773344Y-83324112D01*
X157658611Y-83125388D01*
X157658608Y-83125385D01*
X157658607Y-83125382D01*
X157518918Y-82943338D01*
X157518911Y-82943330D01*
X157356670Y-82781089D01*
X157356661Y-82781081D01*
X157174617Y-82641392D01*
X156975890Y-82526657D01*
X156975876Y-82526650D01*
X156763887Y-82438842D01*
X156542238Y-82379452D01*
X156504215Y-82374446D01*
X156314741Y-82349500D01*
X156314734Y-82349500D01*
X156085266Y-82349500D01*
X156085258Y-82349500D01*
X155868715Y-82378009D01*
X155857762Y-82379452D01*
X155764076Y-82404554D01*
X155636112Y-82438842D01*
X155424123Y-82526650D01*
X155424109Y-82526657D01*
X155225382Y-82641392D01*
X155043338Y-82781081D01*
X154881081Y-82943338D01*
X154741392Y-83125382D01*
X154626657Y-83324109D01*
X154626650Y-83324123D01*
X154538842Y-83536112D01*
X154479453Y-83757759D01*
X154479451Y-83757770D01*
X154449500Y-83985258D01*
X38840500Y-83985258D01*
X38840500Y-78352486D01*
X204749500Y-78352486D01*
X204749500Y-78647513D01*
X204781571Y-78891113D01*
X204788007Y-78939993D01*
X204788008Y-78939995D01*
X204864361Y-79224951D01*
X204864364Y-79224961D01*
X204977254Y-79497500D01*
X204977258Y-79497510D01*
X205124761Y-79752993D01*
X205304352Y-79987040D01*
X205304358Y-79987047D01*
X205512952Y-80195641D01*
X205512959Y-80195647D01*
X205747006Y-80375238D01*
X206002489Y-80522741D01*
X206002490Y-80522741D01*
X206002493Y-80522743D01*
X206275048Y-80635639D01*
X206560007Y-80711993D01*
X206852494Y-80750500D01*
X206852501Y-80750500D01*
X207147499Y-80750500D01*
X207147506Y-80750500D01*
X207439993Y-80711993D01*
X207724952Y-80635639D01*
X207997507Y-80522743D01*
X208252994Y-80375238D01*
X208487042Y-80195646D01*
X208695646Y-79987042D01*
X208875238Y-79752994D01*
X209022743Y-79497507D01*
X209135639Y-79224952D01*
X209211993Y-78939993D01*
X209250500Y-78647506D01*
X209250500Y-78352494D01*
X209211993Y-78060007D01*
X209135639Y-77775048D01*
X209022743Y-77502493D01*
X208875238Y-77247006D01*
X208695646Y-77012958D01*
X208695641Y-77012952D01*
X208487047Y-76804358D01*
X208487040Y-76804352D01*
X208252993Y-76624761D01*
X207997510Y-76477258D01*
X207997500Y-76477254D01*
X207724961Y-76364364D01*
X207724954Y-76364362D01*
X207724952Y-76364361D01*
X207439993Y-76288007D01*
X207391113Y-76281571D01*
X207147513Y-76249500D01*
X207147506Y-76249500D01*
X206852494Y-76249500D01*
X206852486Y-76249500D01*
X206574085Y-76286153D01*
X206560007Y-76288007D01*
X206275048Y-76364361D01*
X206275038Y-76364364D01*
X206002499Y-76477254D01*
X206002489Y-76477258D01*
X205747006Y-76624761D01*
X205512959Y-76804352D01*
X205512952Y-76804358D01*
X205304358Y-77012952D01*
X205304352Y-77012959D01*
X205124761Y-77247006D01*
X204977258Y-77502489D01*
X204977254Y-77502499D01*
X204864364Y-77775038D01*
X204864361Y-77775048D01*
X204788008Y-78060004D01*
X204788006Y-78060015D01*
X204749500Y-78352486D01*
X38840500Y-78352486D01*
X38840500Y-72559568D01*
X43124500Y-72559568D01*
X43124500Y-72840431D01*
X43155942Y-73119494D01*
X43155945Y-73119512D01*
X43218439Y-73393317D01*
X43218443Y-73393329D01*
X43311200Y-73658411D01*
X43433053Y-73911442D01*
X43433055Y-73911445D01*
X43582477Y-74149248D01*
X43757584Y-74368825D01*
X43956175Y-74567416D01*
X44175752Y-74742523D01*
X44413555Y-74891945D01*
X44666592Y-75013801D01*
X44862940Y-75082506D01*
X44931670Y-75106556D01*
X44931682Y-75106560D01*
X45205491Y-75169055D01*
X45205497Y-75169055D01*
X45205505Y-75169057D01*
X45391547Y-75190018D01*
X45484569Y-75200499D01*
X45484572Y-75200500D01*
X45484575Y-75200500D01*
X45765428Y-75200500D01*
X45765429Y-75200499D01*
X45910430Y-75184162D01*
X46044494Y-75169057D01*
X46044499Y-75169056D01*
X46044509Y-75169055D01*
X46318318Y-75106560D01*
X46583408Y-75013801D01*
X46836445Y-74891945D01*
X47074248Y-74742523D01*
X47293825Y-74567416D01*
X47492416Y-74368825D01*
X47667523Y-74149248D01*
X47816945Y-73911445D01*
X47938801Y-73658408D01*
X48031560Y-73393318D01*
X48094055Y-73119509D01*
X48125500Y-72840425D01*
X48125500Y-72559575D01*
X48111188Y-72432550D01*
X48094057Y-72280505D01*
X48094054Y-72280487D01*
X48031560Y-72006682D01*
X48031556Y-72006670D01*
X47984435Y-71872007D01*
X47938801Y-71741592D01*
X47938798Y-71741587D01*
X47938796Y-71741580D01*
X47820453Y-71495837D01*
X47820452Y-71495836D01*
X47816950Y-71488563D01*
X47816948Y-71488560D01*
X47810028Y-71477547D01*
X47790772Y-71446902D01*
X49804500Y-71446902D01*
X49804500Y-71683097D01*
X49841446Y-71916368D01*
X49914433Y-72140996D01*
X50021657Y-72351433D01*
X50111549Y-72475158D01*
X50135029Y-72540965D01*
X50119204Y-72609019D01*
X50070255Y-72656589D01*
X50070454Y-72656953D01*
X50069146Y-72657667D01*
X50069098Y-72657714D01*
X50068885Y-72657809D01*
X50062664Y-72661206D01*
X49947455Y-72747452D01*
X49947452Y-72747455D01*
X49861206Y-72862664D01*
X49861202Y-72862671D01*
X49810908Y-72997517D01*
X49804501Y-73057116D01*
X49804500Y-73057135D01*
X49804500Y-75152870D01*
X49804501Y-75152876D01*
X49810908Y-75212483D01*
X49861202Y-75347328D01*
X49861206Y-75347335D01*
X49947452Y-75462544D01*
X49947455Y-75462547D01*
X50062664Y-75548793D01*
X50062671Y-75548797D01*
X50197517Y-75599091D01*
X50197516Y-75599091D01*
X50204444Y-75599835D01*
X50257127Y-75605500D01*
X52352872Y-75605499D01*
X52412483Y-75599091D01*
X52547331Y-75548796D01*
X52662546Y-75462546D01*
X52748796Y-75347331D01*
X52748797Y-75347326D01*
X52753047Y-75339546D01*
X52756380Y-75341366D01*
X52787292Y-75299766D01*
X52852669Y-75275116D01*
X52920994Y-75289725D01*
X52934835Y-75298446D01*
X53058567Y-75388343D01*
X53157991Y-75439002D01*
X53269003Y-75495566D01*
X53269005Y-75495566D01*
X53269008Y-75495568D01*
X53389412Y-75534689D01*
X53493631Y-75568553D01*
X53726903Y-75605500D01*
X53726908Y-75605500D01*
X53963097Y-75605500D01*
X54196368Y-75568553D01*
X54197870Y-75568065D01*
X54420992Y-75495568D01*
X54631433Y-75388343D01*
X54822510Y-75249517D01*
X54989517Y-75082510D01*
X55014682Y-75047872D01*
X55070011Y-75005207D01*
X55139625Y-74999228D01*
X55201420Y-75031833D01*
X55215315Y-75047870D01*
X55240483Y-75082510D01*
X55407490Y-75249517D01*
X55598567Y-75388343D01*
X55697991Y-75439002D01*
X55809003Y-75495566D01*
X55809005Y-75495566D01*
X55809008Y-75495568D01*
X55929412Y-75534689D01*
X56033631Y-75568553D01*
X56266903Y-75605500D01*
X56266908Y-75605500D01*
X56503097Y-75605500D01*
X56736368Y-75568553D01*
X56737870Y-75568065D01*
X56960992Y-75495568D01*
X57171433Y-75388343D01*
X57362510Y-75249517D01*
X57529517Y-75082510D01*
X57554682Y-75047872D01*
X57610011Y-75005207D01*
X57679625Y-74999228D01*
X57741420Y-75031833D01*
X57755315Y-75047870D01*
X57780483Y-75082510D01*
X57947490Y-75249517D01*
X58138567Y-75388343D01*
X58237991Y-75439002D01*
X58349003Y-75495566D01*
X58349005Y-75495566D01*
X58349008Y-75495568D01*
X58469412Y-75534689D01*
X58573631Y-75568553D01*
X58806903Y-75605500D01*
X58806908Y-75605500D01*
X59043097Y-75605500D01*
X59276368Y-75568553D01*
X59277870Y-75568065D01*
X59500992Y-75495568D01*
X59711433Y-75388343D01*
X59902510Y-75249517D01*
X60069517Y-75082510D01*
X60116370Y-75018022D01*
X60120713Y-75013199D01*
X60145150Y-74998142D01*
X60167877Y-74980618D01*
X60175393Y-74979509D01*
X60180199Y-74976549D01*
X60193730Y-74976806D01*
X60222594Y-74972551D01*
X60242340Y-74974105D01*
X60982037Y-74234408D01*
X60999075Y-74297993D01*
X61064901Y-74412007D01*
X61157993Y-74505099D01*
X61272007Y-74570925D01*
X61335590Y-74587962D01*
X60595893Y-75327658D01*
X60678828Y-75387914D01*
X60889197Y-75495102D01*
X61113752Y-75568065D01*
X61113751Y-75568065D01*
X61346948Y-75605000D01*
X61583052Y-75605000D01*
X61816247Y-75568065D01*
X62040802Y-75495102D01*
X62251163Y-75387918D01*
X62251169Y-75387914D01*
X62334104Y-75327658D01*
X62334105Y-75327658D01*
X61594408Y-74587962D01*
X61657993Y-74570925D01*
X61772007Y-74505099D01*
X61865099Y-74412007D01*
X61930925Y-74297993D01*
X61947962Y-74234409D01*
X62687657Y-74974104D01*
X62707404Y-74972550D01*
X62775781Y-74986914D01*
X62817451Y-75023282D01*
X62860483Y-75082510D01*
X63027490Y-75249517D01*
X63218567Y-75388343D01*
X63317991Y-75439002D01*
X63429003Y-75495566D01*
X63429005Y-75495566D01*
X63429008Y-75495568D01*
X63549412Y-75534689D01*
X63653631Y-75568553D01*
X63886903Y-75605500D01*
X63886908Y-75605500D01*
X64123097Y-75605500D01*
X64356368Y-75568553D01*
X64357870Y-75568065D01*
X64580992Y-75495568D01*
X64791433Y-75388343D01*
X64982510Y-75249517D01*
X65149517Y-75082510D01*
X65174682Y-75047872D01*
X65230011Y-75005207D01*
X65299625Y-74999228D01*
X65361420Y-75031833D01*
X65375315Y-75047870D01*
X65400483Y-75082510D01*
X65567490Y-75249517D01*
X65758567Y-75388343D01*
X65857991Y-75439002D01*
X65969003Y-75495566D01*
X65969005Y-75495566D01*
X65969008Y-75495568D01*
X66089412Y-75534689D01*
X66193631Y-75568553D01*
X66426903Y-75605500D01*
X66426908Y-75605500D01*
X66663097Y-75605500D01*
X66896368Y-75568553D01*
X66897870Y-75568065D01*
X67120992Y-75495568D01*
X67331433Y-75388343D01*
X67522510Y-75249517D01*
X67689517Y-75082510D01*
X67714682Y-75047872D01*
X67770011Y-75005207D01*
X67839625Y-74999228D01*
X67901420Y-75031833D01*
X67915315Y-75047870D01*
X67940483Y-75082510D01*
X68107490Y-75249517D01*
X68298567Y-75388343D01*
X68397991Y-75439002D01*
X68509003Y-75495566D01*
X68509005Y-75495566D01*
X68509008Y-75495568D01*
X68629412Y-75534689D01*
X68733631Y-75568553D01*
X68966903Y-75605500D01*
X68966908Y-75605500D01*
X69203097Y-75605500D01*
X69436368Y-75568553D01*
X69437870Y-75568065D01*
X69660992Y-75495568D01*
X69871433Y-75388343D01*
X70062510Y-75249517D01*
X70229517Y-75082510D01*
X70254682Y-75047872D01*
X70310011Y-75005207D01*
X70379625Y-74999228D01*
X70441420Y-75031833D01*
X70455315Y-75047870D01*
X70480483Y-75082510D01*
X70647490Y-75249517D01*
X70838567Y-75388343D01*
X70937991Y-75439002D01*
X71049003Y-75495566D01*
X71049005Y-75495566D01*
X71049008Y-75495568D01*
X71169412Y-75534689D01*
X71273631Y-75568553D01*
X71506903Y-75605500D01*
X71506908Y-75605500D01*
X71743097Y-75605500D01*
X71976368Y-75568553D01*
X71977870Y-75568065D01*
X72200992Y-75495568D01*
X72411433Y-75388343D01*
X72602510Y-75249517D01*
X72769517Y-75082510D01*
X72794682Y-75047872D01*
X72850011Y-75005207D01*
X72919625Y-74999228D01*
X72981420Y-75031833D01*
X72995315Y-75047870D01*
X73020483Y-75082510D01*
X73187490Y-75249517D01*
X73378567Y-75388343D01*
X73477991Y-75439002D01*
X73589003Y-75495566D01*
X73589005Y-75495566D01*
X73589008Y-75495568D01*
X73709412Y-75534689D01*
X73813631Y-75568553D01*
X74046903Y-75605500D01*
X74046908Y-75605500D01*
X74283097Y-75605500D01*
X74516368Y-75568553D01*
X74517870Y-75568065D01*
X74740992Y-75495568D01*
X74951433Y-75388343D01*
X75142510Y-75249517D01*
X75309517Y-75082510D01*
X75334682Y-75047872D01*
X75390011Y-75005207D01*
X75459625Y-74999228D01*
X75521420Y-75031833D01*
X75535315Y-75047870D01*
X75560483Y-75082510D01*
X75727490Y-75249517D01*
X75918567Y-75388343D01*
X76017991Y-75439002D01*
X76129003Y-75495566D01*
X76129005Y-75495566D01*
X76129008Y-75495568D01*
X76249412Y-75534689D01*
X76353631Y-75568553D01*
X76586903Y-75605500D01*
X76586908Y-75605500D01*
X76823097Y-75605500D01*
X77056368Y-75568553D01*
X77057870Y-75568065D01*
X77280992Y-75495568D01*
X77491433Y-75388343D01*
X77682510Y-75249517D01*
X77849517Y-75082510D01*
X77874682Y-75047872D01*
X77930011Y-75005207D01*
X77999625Y-74999228D01*
X78061420Y-75031833D01*
X78075315Y-75047870D01*
X78100483Y-75082510D01*
X78267490Y-75249517D01*
X78458567Y-75388343D01*
X78557991Y-75439002D01*
X78669003Y-75495566D01*
X78669005Y-75495566D01*
X78669008Y-75495568D01*
X78789412Y-75534689D01*
X78893631Y-75568553D01*
X79126903Y-75605500D01*
X79126908Y-75605500D01*
X79363097Y-75605500D01*
X79596368Y-75568553D01*
X79597870Y-75568065D01*
X79820992Y-75495568D01*
X80031433Y-75388343D01*
X80222510Y-75249517D01*
X80389517Y-75082510D01*
X80436370Y-75018022D01*
X80440713Y-75013199D01*
X80465150Y-74998142D01*
X80487877Y-74980618D01*
X80495393Y-74979509D01*
X80500199Y-74976549D01*
X80513730Y-74976806D01*
X80542594Y-74972551D01*
X80562340Y-74974105D01*
X81302037Y-74234408D01*
X81319075Y-74297993D01*
X81384901Y-74412007D01*
X81477993Y-74505099D01*
X81592007Y-74570925D01*
X81655590Y-74587962D01*
X80915893Y-75327658D01*
X80998828Y-75387914D01*
X81209197Y-75495102D01*
X81433752Y-75568065D01*
X81433751Y-75568065D01*
X81666948Y-75605000D01*
X81903052Y-75605000D01*
X82136247Y-75568065D01*
X82360802Y-75495102D01*
X82571163Y-75387918D01*
X82571169Y-75387914D01*
X82654104Y-75327658D01*
X82654105Y-75327658D01*
X81914408Y-74587962D01*
X81977993Y-74570925D01*
X82092007Y-74505099D01*
X82185099Y-74412007D01*
X82250925Y-74297993D01*
X82267962Y-74234409D01*
X83007657Y-74974104D01*
X83027404Y-74972550D01*
X83095781Y-74986914D01*
X83137451Y-75023282D01*
X83180483Y-75082510D01*
X83347490Y-75249517D01*
X83538567Y-75388343D01*
X83637991Y-75439002D01*
X83749003Y-75495566D01*
X83749005Y-75495566D01*
X83749008Y-75495568D01*
X83869412Y-75534689D01*
X83973631Y-75568553D01*
X84206903Y-75605500D01*
X84206908Y-75605500D01*
X84443097Y-75605500D01*
X84676368Y-75568553D01*
X84677870Y-75568065D01*
X84900992Y-75495568D01*
X85111433Y-75388343D01*
X85302510Y-75249517D01*
X85469517Y-75082510D01*
X85494682Y-75047872D01*
X85550011Y-75005207D01*
X85619625Y-74999228D01*
X85681420Y-75031833D01*
X85695315Y-75047870D01*
X85720483Y-75082510D01*
X85887490Y-75249517D01*
X86078567Y-75388343D01*
X86177991Y-75439002D01*
X86289003Y-75495566D01*
X86289005Y-75495566D01*
X86289008Y-75495568D01*
X86409412Y-75534689D01*
X86513631Y-75568553D01*
X86746903Y-75605500D01*
X86746908Y-75605500D01*
X86983097Y-75605500D01*
X87216368Y-75568553D01*
X87217870Y-75568065D01*
X87440992Y-75495568D01*
X87651433Y-75388343D01*
X87842510Y-75249517D01*
X88009517Y-75082510D01*
X88034682Y-75047872D01*
X88090011Y-75005207D01*
X88159625Y-74999228D01*
X88221420Y-75031833D01*
X88235315Y-75047870D01*
X88260483Y-75082510D01*
X88427490Y-75249517D01*
X88618567Y-75388343D01*
X88717991Y-75439002D01*
X88829003Y-75495566D01*
X88829005Y-75495566D01*
X88829008Y-75495568D01*
X88949412Y-75534689D01*
X89053631Y-75568553D01*
X89286903Y-75605500D01*
X89286908Y-75605500D01*
X89523097Y-75605500D01*
X89756368Y-75568553D01*
X89757870Y-75568065D01*
X89980992Y-75495568D01*
X90191433Y-75388343D01*
X90382510Y-75249517D01*
X90549517Y-75082510D01*
X90574682Y-75047872D01*
X90630011Y-75005207D01*
X90699625Y-74999228D01*
X90761420Y-75031833D01*
X90775315Y-75047870D01*
X90800483Y-75082510D01*
X90967490Y-75249517D01*
X91158567Y-75388343D01*
X91257991Y-75439002D01*
X91369003Y-75495566D01*
X91369005Y-75495566D01*
X91369008Y-75495568D01*
X91489412Y-75534689D01*
X91593631Y-75568553D01*
X91826903Y-75605500D01*
X91826908Y-75605500D01*
X92063097Y-75605500D01*
X92296368Y-75568553D01*
X92297870Y-75568065D01*
X92520992Y-75495568D01*
X92731433Y-75388343D01*
X92922510Y-75249517D01*
X93089517Y-75082510D01*
X93114682Y-75047872D01*
X93170011Y-75005207D01*
X93239625Y-74999228D01*
X93301420Y-75031833D01*
X93315315Y-75047870D01*
X93340483Y-75082510D01*
X93507490Y-75249517D01*
X93698567Y-75388343D01*
X93797991Y-75439002D01*
X93909003Y-75495566D01*
X93909005Y-75495566D01*
X93909008Y-75495568D01*
X94029412Y-75534689D01*
X94133631Y-75568553D01*
X94366903Y-75605500D01*
X94366908Y-75605500D01*
X94603097Y-75605500D01*
X94836368Y-75568553D01*
X94837870Y-75568065D01*
X95060992Y-75495568D01*
X95271433Y-75388343D01*
X95462510Y-75249517D01*
X95629517Y-75082510D01*
X95654682Y-75047872D01*
X95710011Y-75005207D01*
X95779625Y-74999228D01*
X95841420Y-75031833D01*
X95855315Y-75047870D01*
X95880483Y-75082510D01*
X96047490Y-75249517D01*
X96238567Y-75388343D01*
X96337991Y-75439002D01*
X96449003Y-75495566D01*
X96449005Y-75495566D01*
X96449008Y-75495568D01*
X96569412Y-75534689D01*
X96673631Y-75568553D01*
X96906903Y-75605500D01*
X96906908Y-75605500D01*
X97143097Y-75605500D01*
X97376368Y-75568553D01*
X97377870Y-75568065D01*
X97600992Y-75495568D01*
X97811433Y-75388343D01*
X98002510Y-75249517D01*
X98169517Y-75082510D01*
X98216370Y-75018022D01*
X98220713Y-75013199D01*
X98245150Y-74998142D01*
X98267877Y-74980618D01*
X98275393Y-74979509D01*
X98280199Y-74976549D01*
X98293730Y-74976806D01*
X98322594Y-74972551D01*
X98342340Y-74974105D01*
X99082037Y-74234408D01*
X99099075Y-74297993D01*
X99164901Y-74412007D01*
X99257993Y-74505099D01*
X99372007Y-74570925D01*
X99435590Y-74587962D01*
X98695893Y-75327658D01*
X98778828Y-75387914D01*
X98989197Y-75495102D01*
X99213752Y-75568065D01*
X99213751Y-75568065D01*
X99446948Y-75605000D01*
X99683052Y-75605000D01*
X99916247Y-75568065D01*
X100140802Y-75495102D01*
X100351163Y-75387918D01*
X100351169Y-75387914D01*
X100434104Y-75327658D01*
X100434105Y-75327658D01*
X99694408Y-74587962D01*
X99757993Y-74570925D01*
X99872007Y-74505099D01*
X99965099Y-74412007D01*
X100030925Y-74297993D01*
X100047962Y-74234409D01*
X100787658Y-74974105D01*
X100787658Y-74974104D01*
X100847914Y-74891169D01*
X100847918Y-74891163D01*
X100955102Y-74680802D01*
X101028065Y-74456247D01*
X101065000Y-74223052D01*
X101065000Y-73986947D01*
X101028065Y-73753752D01*
X100955102Y-73529197D01*
X100847914Y-73318828D01*
X100787658Y-73235894D01*
X100787658Y-73235893D01*
X100047962Y-73975590D01*
X100030925Y-73912007D01*
X99965099Y-73797993D01*
X99872007Y-73704901D01*
X99757993Y-73639075D01*
X99694409Y-73622037D01*
X100434105Y-72882340D01*
X100432551Y-72862594D01*
X100446915Y-72794216D01*
X100483284Y-72752547D01*
X100542510Y-72709517D01*
X100692459Y-72559568D01*
X136974500Y-72559568D01*
X136974500Y-72840431D01*
X137005942Y-73119494D01*
X137005945Y-73119512D01*
X137068439Y-73393317D01*
X137068443Y-73393329D01*
X137161200Y-73658411D01*
X137283053Y-73911442D01*
X137283055Y-73911445D01*
X137432477Y-74149248D01*
X137607584Y-74368825D01*
X137806175Y-74567416D01*
X138025752Y-74742523D01*
X138263555Y-74891945D01*
X138516592Y-75013801D01*
X138712940Y-75082506D01*
X138781670Y-75106556D01*
X138781682Y-75106560D01*
X139055491Y-75169055D01*
X139055497Y-75169055D01*
X139055505Y-75169057D01*
X139241547Y-75190018D01*
X139334569Y-75200499D01*
X139334572Y-75200500D01*
X139334575Y-75200500D01*
X139615428Y-75200500D01*
X139615429Y-75200499D01*
X139760430Y-75184162D01*
X139894494Y-75169057D01*
X139894499Y-75169056D01*
X139894509Y-75169055D01*
X140168318Y-75106560D01*
X140433408Y-75013801D01*
X140686445Y-74891945D01*
X140924248Y-74742523D01*
X141143825Y-74567416D01*
X141342416Y-74368825D01*
X141517523Y-74149248D01*
X141666945Y-73911445D01*
X141788801Y-73658408D01*
X141881560Y-73393318D01*
X141944055Y-73119509D01*
X141975500Y-72840425D01*
X141975500Y-72559575D01*
X141961188Y-72432550D01*
X141944057Y-72280505D01*
X141944054Y-72280487D01*
X141881560Y-72006682D01*
X141881556Y-72006670D01*
X141834435Y-71872007D01*
X141788801Y-71741592D01*
X141666945Y-71488555D01*
X141517523Y-71250752D01*
X141342416Y-71031175D01*
X141143825Y-70832584D01*
X140924248Y-70657477D01*
X140686445Y-70508055D01*
X140686442Y-70508053D01*
X140433411Y-70386200D01*
X140168329Y-70293443D01*
X140168317Y-70293439D01*
X139894512Y-70230945D01*
X139894494Y-70230942D01*
X139615431Y-70199500D01*
X139615425Y-70199500D01*
X139334575Y-70199500D01*
X139334568Y-70199500D01*
X139055505Y-70230942D01*
X139055487Y-70230945D01*
X138781682Y-70293439D01*
X138781670Y-70293443D01*
X138516588Y-70386200D01*
X138263557Y-70508053D01*
X138025753Y-70657476D01*
X137806175Y-70832583D01*
X137607583Y-71031175D01*
X137432476Y-71250753D01*
X137283053Y-71488557D01*
X137161200Y-71741588D01*
X137068443Y-72006670D01*
X137068439Y-72006682D01*
X137005945Y-72280487D01*
X137005942Y-72280505D01*
X136974500Y-72559568D01*
X100692459Y-72559568D01*
X100709517Y-72542510D01*
X100848343Y-72351433D01*
X100955568Y-72140992D01*
X101028553Y-71916368D01*
X101056235Y-71741592D01*
X101065500Y-71683097D01*
X101065500Y-71446902D01*
X101028553Y-71213631D01*
X100968302Y-71028199D01*
X100955568Y-70989008D01*
X100955566Y-70989005D01*
X100955566Y-70989003D01*
X100875866Y-70832584D01*
X100848343Y-70778567D01*
X100709517Y-70587490D01*
X100542510Y-70420483D01*
X100351433Y-70281657D01*
X100140996Y-70174433D01*
X99916368Y-70101446D01*
X99683097Y-70064500D01*
X99683092Y-70064500D01*
X99446908Y-70064500D01*
X99446903Y-70064500D01*
X99213631Y-70101446D01*
X98989003Y-70174433D01*
X98778566Y-70281657D01*
X98695047Y-70342338D01*
X98587490Y-70420483D01*
X98587488Y-70420485D01*
X98587487Y-70420485D01*
X98420484Y-70587488D01*
X98395318Y-70622127D01*
X98339987Y-70664792D01*
X98270374Y-70670771D01*
X98208579Y-70638165D01*
X98194682Y-70622127D01*
X98193137Y-70620000D01*
X98169517Y-70587490D01*
X98002510Y-70420483D01*
X97811433Y-70281657D01*
X97600996Y-70174433D01*
X97376368Y-70101446D01*
X97143097Y-70064500D01*
X97143092Y-70064500D01*
X96906908Y-70064500D01*
X96906903Y-70064500D01*
X96673631Y-70101446D01*
X96449003Y-70174433D01*
X96238566Y-70281657D01*
X96155047Y-70342338D01*
X96047490Y-70420483D01*
X96047488Y-70420485D01*
X96047487Y-70420485D01*
X95880484Y-70587488D01*
X95855318Y-70622127D01*
X95799987Y-70664792D01*
X95730374Y-70670771D01*
X95668579Y-70638165D01*
X95654682Y-70622127D01*
X95653137Y-70620000D01*
X95629517Y-70587490D01*
X95462510Y-70420483D01*
X95271433Y-70281657D01*
X95060996Y-70174433D01*
X94836368Y-70101446D01*
X94603097Y-70064500D01*
X94603092Y-70064500D01*
X94366908Y-70064500D01*
X94366903Y-70064500D01*
X94133631Y-70101446D01*
X93909003Y-70174433D01*
X93698566Y-70281657D01*
X93615047Y-70342338D01*
X93507490Y-70420483D01*
X93507488Y-70420485D01*
X93507487Y-70420485D01*
X93340482Y-70587490D01*
X93297451Y-70646717D01*
X93242120Y-70689382D01*
X93187405Y-70697448D01*
X93167658Y-70695893D01*
X92427962Y-71435590D01*
X92410925Y-71372007D01*
X92345099Y-71257993D01*
X92252007Y-71164901D01*
X92137993Y-71099075D01*
X92074409Y-71082037D01*
X92814105Y-70342340D01*
X92814104Y-70342338D01*
X92731174Y-70282087D01*
X92520802Y-70174897D01*
X92296247Y-70101934D01*
X92296248Y-70101934D01*
X92063052Y-70065000D01*
X91826948Y-70065000D01*
X91593752Y-70101934D01*
X91369197Y-70174897D01*
X91158830Y-70282084D01*
X91075894Y-70342340D01*
X91815591Y-71082037D01*
X91752007Y-71099075D01*
X91637993Y-71164901D01*
X91544901Y-71257993D01*
X91479075Y-71372007D01*
X91462037Y-71435590D01*
X90722340Y-70695893D01*
X90702593Y-70697448D01*
X90698860Y-70696663D01*
X90695222Y-70697808D01*
X90664936Y-70689537D01*
X90634215Y-70683084D01*
X90630429Y-70680114D01*
X90627821Y-70679402D01*
X90618431Y-70670701D01*
X90600712Y-70656800D01*
X90596370Y-70651978D01*
X90549517Y-70587490D01*
X90382510Y-70420483D01*
X90191433Y-70281657D01*
X89980996Y-70174433D01*
X89756368Y-70101446D01*
X89523097Y-70064500D01*
X89523092Y-70064500D01*
X89286908Y-70064500D01*
X89286903Y-70064500D01*
X89053631Y-70101446D01*
X88829003Y-70174433D01*
X88618566Y-70281657D01*
X88535047Y-70342338D01*
X88427490Y-70420483D01*
X88427488Y-70420485D01*
X88427487Y-70420485D01*
X88260482Y-70587490D01*
X88217451Y-70646717D01*
X88162120Y-70689382D01*
X88107405Y-70697448D01*
X88087658Y-70695893D01*
X87347962Y-71435590D01*
X87330925Y-71372007D01*
X87265099Y-71257993D01*
X87172007Y-71164901D01*
X87057993Y-71099075D01*
X86994409Y-71082037D01*
X87734105Y-70342340D01*
X87734104Y-70342338D01*
X87651174Y-70282087D01*
X87440802Y-70174897D01*
X87216247Y-70101934D01*
X87216248Y-70101934D01*
X86983052Y-70065000D01*
X86746948Y-70065000D01*
X86513752Y-70101934D01*
X86289197Y-70174897D01*
X86078830Y-70282084D01*
X85995894Y-70342340D01*
X86735591Y-71082037D01*
X86672007Y-71099075D01*
X86557993Y-71164901D01*
X86464901Y-71257993D01*
X86399075Y-71372007D01*
X86382037Y-71435590D01*
X85642340Y-70695893D01*
X85622593Y-70697448D01*
X85618860Y-70696663D01*
X85615222Y-70697808D01*
X85584936Y-70689537D01*
X85554215Y-70683084D01*
X85550429Y-70680114D01*
X85547821Y-70679402D01*
X85538431Y-70670701D01*
X85520712Y-70656800D01*
X85516370Y-70651978D01*
X85469517Y-70587490D01*
X85302510Y-70420483D01*
X85111433Y-70281657D01*
X84900996Y-70174433D01*
X84676368Y-70101446D01*
X84443097Y-70064500D01*
X84443092Y-70064500D01*
X84206908Y-70064500D01*
X84206903Y-70064500D01*
X83973631Y-70101446D01*
X83749003Y-70174433D01*
X83538566Y-70281657D01*
X83455047Y-70342338D01*
X83347490Y-70420483D01*
X83347488Y-70420485D01*
X83347487Y-70420485D01*
X83180484Y-70587488D01*
X83155318Y-70622127D01*
X83099987Y-70664792D01*
X83030374Y-70670771D01*
X82968579Y-70638165D01*
X82954682Y-70622127D01*
X82953137Y-70620000D01*
X82929517Y-70587490D01*
X82762510Y-70420483D01*
X82571433Y-70281657D01*
X82360996Y-70174433D01*
X82136368Y-70101446D01*
X81903097Y-70064500D01*
X81903092Y-70064500D01*
X81666908Y-70064500D01*
X81666903Y-70064500D01*
X81433631Y-70101446D01*
X81209003Y-70174433D01*
X80998566Y-70281657D01*
X80915047Y-70342338D01*
X80807490Y-70420483D01*
X80807488Y-70420485D01*
X80807487Y-70420485D01*
X80640484Y-70587488D01*
X80615318Y-70622127D01*
X80559987Y-70664792D01*
X80490374Y-70670771D01*
X80428579Y-70638165D01*
X80414682Y-70622127D01*
X80413137Y-70620000D01*
X80389517Y-70587490D01*
X80222510Y-70420483D01*
X80031433Y-70281657D01*
X79820996Y-70174433D01*
X79596368Y-70101446D01*
X79363097Y-70064500D01*
X79363092Y-70064500D01*
X79126908Y-70064500D01*
X79126903Y-70064500D01*
X78893631Y-70101446D01*
X78669003Y-70174433D01*
X78458566Y-70281657D01*
X78375047Y-70342338D01*
X78267490Y-70420483D01*
X78267488Y-70420485D01*
X78267487Y-70420485D01*
X78100484Y-70587488D01*
X78075318Y-70622127D01*
X78019987Y-70664792D01*
X77950374Y-70670771D01*
X77888579Y-70638165D01*
X77874682Y-70622127D01*
X77873137Y-70620000D01*
X77849517Y-70587490D01*
X77682510Y-70420483D01*
X77491433Y-70281657D01*
X77280996Y-70174433D01*
X77056368Y-70101446D01*
X76823097Y-70064500D01*
X76823092Y-70064500D01*
X76586908Y-70064500D01*
X76586903Y-70064500D01*
X76353631Y-70101446D01*
X76129003Y-70174433D01*
X75918566Y-70281657D01*
X75835047Y-70342338D01*
X75727490Y-70420483D01*
X75727488Y-70420485D01*
X75727487Y-70420485D01*
X75560482Y-70587490D01*
X75517451Y-70646717D01*
X75462120Y-70689382D01*
X75407405Y-70697448D01*
X75387658Y-70695893D01*
X74647962Y-71435590D01*
X74630925Y-71372007D01*
X74565099Y-71257993D01*
X74472007Y-71164901D01*
X74357993Y-71099075D01*
X74294409Y-71082037D01*
X75034105Y-70342340D01*
X75034104Y-70342338D01*
X74951174Y-70282087D01*
X74740802Y-70174897D01*
X74516247Y-70101934D01*
X74516248Y-70101934D01*
X74283052Y-70065000D01*
X74046948Y-70065000D01*
X73813752Y-70101934D01*
X73589197Y-70174897D01*
X73378830Y-70282084D01*
X73295894Y-70342340D01*
X74035591Y-71082037D01*
X73972007Y-71099075D01*
X73857993Y-71164901D01*
X73764901Y-71257993D01*
X73699075Y-71372007D01*
X73682037Y-71435590D01*
X72942340Y-70695893D01*
X72922593Y-70697448D01*
X72918860Y-70696663D01*
X72915222Y-70697808D01*
X72884936Y-70689537D01*
X72854215Y-70683084D01*
X72850429Y-70680114D01*
X72847821Y-70679402D01*
X72838431Y-70670701D01*
X72820712Y-70656800D01*
X72816370Y-70651978D01*
X72769517Y-70587490D01*
X72602510Y-70420483D01*
X72411433Y-70281657D01*
X72200996Y-70174433D01*
X71976368Y-70101446D01*
X71743097Y-70064500D01*
X71743092Y-70064500D01*
X71506908Y-70064500D01*
X71506903Y-70064500D01*
X71273631Y-70101446D01*
X71049003Y-70174433D01*
X70838566Y-70281657D01*
X70755047Y-70342338D01*
X70647490Y-70420483D01*
X70647488Y-70420485D01*
X70647487Y-70420485D01*
X70480484Y-70587488D01*
X70455318Y-70622127D01*
X70399987Y-70664792D01*
X70330374Y-70670771D01*
X70268579Y-70638165D01*
X70254682Y-70622127D01*
X70253137Y-70620000D01*
X70229517Y-70587490D01*
X70062510Y-70420483D01*
X69871433Y-70281657D01*
X69660996Y-70174433D01*
X69436368Y-70101446D01*
X69203097Y-70064500D01*
X69203092Y-70064500D01*
X68966908Y-70064500D01*
X68966903Y-70064500D01*
X68733631Y-70101446D01*
X68509003Y-70174433D01*
X68298566Y-70281657D01*
X68215047Y-70342338D01*
X68107490Y-70420483D01*
X68107488Y-70420485D01*
X68107487Y-70420485D01*
X67940482Y-70587490D01*
X67897451Y-70646717D01*
X67842120Y-70689382D01*
X67787405Y-70697448D01*
X67767658Y-70695893D01*
X67027962Y-71435590D01*
X67010925Y-71372007D01*
X66945099Y-71257993D01*
X66852007Y-71164901D01*
X66737993Y-71099075D01*
X66674409Y-71082037D01*
X67414105Y-70342340D01*
X67414104Y-70342338D01*
X67331174Y-70282087D01*
X67120802Y-70174897D01*
X66896247Y-70101934D01*
X66896248Y-70101934D01*
X66663052Y-70065000D01*
X66426948Y-70065000D01*
X66193752Y-70101934D01*
X65969197Y-70174897D01*
X65758830Y-70282084D01*
X65675894Y-70342340D01*
X66415591Y-71082037D01*
X66352007Y-71099075D01*
X66237993Y-71164901D01*
X66144901Y-71257993D01*
X66079075Y-71372007D01*
X66062037Y-71435590D01*
X65322340Y-70695893D01*
X65302593Y-70697448D01*
X65298860Y-70696663D01*
X65295222Y-70697808D01*
X65264936Y-70689537D01*
X65234215Y-70683084D01*
X65230429Y-70680114D01*
X65227821Y-70679402D01*
X65218431Y-70670701D01*
X65200712Y-70656800D01*
X65196370Y-70651978D01*
X65149517Y-70587490D01*
X64982510Y-70420483D01*
X64791433Y-70281657D01*
X64580996Y-70174433D01*
X64356368Y-70101446D01*
X64123097Y-70064500D01*
X64123092Y-70064500D01*
X63886908Y-70064500D01*
X63886903Y-70064500D01*
X63653631Y-70101446D01*
X63429003Y-70174433D01*
X63218566Y-70281657D01*
X63135047Y-70342338D01*
X63027490Y-70420483D01*
X63027488Y-70420485D01*
X63027487Y-70420485D01*
X62860484Y-70587488D01*
X62835318Y-70622127D01*
X62779987Y-70664792D01*
X62710374Y-70670771D01*
X62648579Y-70638165D01*
X62634682Y-70622127D01*
X62633137Y-70620000D01*
X62609517Y-70587490D01*
X62442510Y-70420483D01*
X62251433Y-70281657D01*
X62040996Y-70174433D01*
X61816368Y-70101446D01*
X61583097Y-70064500D01*
X61583092Y-70064500D01*
X61346908Y-70064500D01*
X61346903Y-70064500D01*
X61113631Y-70101446D01*
X60889003Y-70174433D01*
X60678566Y-70281657D01*
X60595047Y-70342338D01*
X60487490Y-70420483D01*
X60487488Y-70420485D01*
X60487487Y-70420485D01*
X60320484Y-70587488D01*
X60295318Y-70622127D01*
X60239987Y-70664792D01*
X60170374Y-70670771D01*
X60108579Y-70638165D01*
X60094682Y-70622127D01*
X60093137Y-70620000D01*
X60069517Y-70587490D01*
X59902510Y-70420483D01*
X59711433Y-70281657D01*
X59500996Y-70174433D01*
X59276368Y-70101446D01*
X59043097Y-70064500D01*
X59043092Y-70064500D01*
X58806908Y-70064500D01*
X58806903Y-70064500D01*
X58573631Y-70101446D01*
X58349003Y-70174433D01*
X58138566Y-70281657D01*
X58055047Y-70342338D01*
X57947490Y-70420483D01*
X57947488Y-70420485D01*
X57947487Y-70420485D01*
X57780482Y-70587490D01*
X57737451Y-70646717D01*
X57682120Y-70689382D01*
X57627405Y-70697448D01*
X57607658Y-70695893D01*
X56867962Y-71435590D01*
X56850925Y-71372007D01*
X56785099Y-71257993D01*
X56692007Y-71164901D01*
X56577993Y-71099075D01*
X56514409Y-71082037D01*
X57254105Y-70342340D01*
X57254104Y-70342338D01*
X57171174Y-70282087D01*
X56960802Y-70174897D01*
X56736247Y-70101934D01*
X56736248Y-70101934D01*
X56503052Y-70065000D01*
X56266948Y-70065000D01*
X56033752Y-70101934D01*
X55809197Y-70174897D01*
X55598830Y-70282084D01*
X55515894Y-70342340D01*
X56255591Y-71082037D01*
X56192007Y-71099075D01*
X56077993Y-71164901D01*
X55984901Y-71257993D01*
X55919075Y-71372007D01*
X55902037Y-71435590D01*
X55162340Y-70695893D01*
X55142593Y-70697448D01*
X55138860Y-70696663D01*
X55135222Y-70697808D01*
X55104936Y-70689537D01*
X55074215Y-70683084D01*
X55070429Y-70680114D01*
X55067821Y-70679402D01*
X55058431Y-70670701D01*
X55040712Y-70656800D01*
X55036370Y-70651978D01*
X54989517Y-70587490D01*
X54822510Y-70420483D01*
X54631433Y-70281657D01*
X54420996Y-70174433D01*
X54196368Y-70101446D01*
X53963097Y-70064500D01*
X53963092Y-70064500D01*
X53726908Y-70064500D01*
X53726903Y-70064500D01*
X53493631Y-70101446D01*
X53269003Y-70174433D01*
X53058566Y-70281657D01*
X52975047Y-70342338D01*
X52867490Y-70420483D01*
X52867488Y-70420485D01*
X52867487Y-70420485D01*
X52700484Y-70587488D01*
X52675318Y-70622127D01*
X52619987Y-70664792D01*
X52550374Y-70670771D01*
X52488579Y-70638165D01*
X52474682Y-70622127D01*
X52473137Y-70620000D01*
X52449517Y-70587490D01*
X52282510Y-70420483D01*
X52091433Y-70281657D01*
X51880996Y-70174433D01*
X51656368Y-70101446D01*
X51423097Y-70064500D01*
X51423092Y-70064500D01*
X51186908Y-70064500D01*
X51186903Y-70064500D01*
X50953631Y-70101446D01*
X50729003Y-70174433D01*
X50518566Y-70281657D01*
X50435047Y-70342338D01*
X50327490Y-70420483D01*
X50327488Y-70420485D01*
X50327487Y-70420485D01*
X50160485Y-70587487D01*
X50160485Y-70587488D01*
X50160483Y-70587490D01*
X50117452Y-70646717D01*
X50021657Y-70778566D01*
X49914433Y-70989003D01*
X49841446Y-71213631D01*
X49804500Y-71446902D01*
X47790772Y-71446902D01*
X47667523Y-71250752D01*
X47492416Y-71031175D01*
X47293825Y-70832584D01*
X47074248Y-70657477D01*
X46836445Y-70508055D01*
X46836442Y-70508053D01*
X46583411Y-70386200D01*
X46318329Y-70293443D01*
X46318317Y-70293439D01*
X46044512Y-70230945D01*
X46044494Y-70230942D01*
X45765431Y-70199500D01*
X45765425Y-70199500D01*
X45484575Y-70199500D01*
X45484568Y-70199500D01*
X45205505Y-70230942D01*
X45205487Y-70230945D01*
X44931682Y-70293439D01*
X44931670Y-70293443D01*
X44666588Y-70386200D01*
X44413557Y-70508053D01*
X44175753Y-70657476D01*
X43956175Y-70832583D01*
X43757583Y-71031175D01*
X43582476Y-71250753D01*
X43433053Y-71488557D01*
X43311200Y-71741588D01*
X43218443Y-72006670D01*
X43218439Y-72006682D01*
X43155945Y-72280487D01*
X43155942Y-72280505D01*
X43124500Y-72559568D01*
X38840500Y-72559568D01*
X38840500Y-69072135D01*
X154019500Y-69072135D01*
X154019500Y-71167870D01*
X154019501Y-71167876D01*
X154025908Y-71227483D01*
X154076202Y-71362328D01*
X154076206Y-71362335D01*
X154162452Y-71477544D01*
X154162455Y-71477547D01*
X154277664Y-71563793D01*
X154277671Y-71563797D01*
X154412517Y-71614091D01*
X154412516Y-71614091D01*
X154419444Y-71614835D01*
X154472127Y-71620500D01*
X156567872Y-71620499D01*
X156627483Y-71614091D01*
X156762331Y-71563796D01*
X156877546Y-71477546D01*
X156963796Y-71362331D01*
X156963797Y-71362326D01*
X156968047Y-71354546D01*
X156971380Y-71356366D01*
X157002292Y-71314766D01*
X157067669Y-71290116D01*
X157135994Y-71304725D01*
X157149835Y-71313446D01*
X157273567Y-71403343D01*
X157359068Y-71446908D01*
X157484003Y-71510566D01*
X157484005Y-71510566D01*
X157484008Y-71510568D01*
X157604412Y-71549689D01*
X157708631Y-71583553D01*
X157941903Y-71620500D01*
X157941908Y-71620500D01*
X158178097Y-71620500D01*
X158411368Y-71583553D01*
X158412870Y-71583065D01*
X158635992Y-71510568D01*
X158846433Y-71403343D01*
X159037510Y-71264517D01*
X159204517Y-71097510D01*
X159251370Y-71033022D01*
X159255713Y-71028199D01*
X159280150Y-71013142D01*
X159302877Y-70995618D01*
X159310393Y-70994509D01*
X159315199Y-70991549D01*
X159328730Y-70991806D01*
X159357594Y-70987551D01*
X159377340Y-70989105D01*
X160117037Y-70249408D01*
X160134075Y-70312993D01*
X160199901Y-70427007D01*
X160292993Y-70520099D01*
X160407007Y-70585925D01*
X160470590Y-70602962D01*
X159730893Y-71342658D01*
X159813828Y-71402914D01*
X160024197Y-71510102D01*
X160248752Y-71583065D01*
X160248751Y-71583065D01*
X160481948Y-71620000D01*
X160718052Y-71620000D01*
X160951247Y-71583065D01*
X161175802Y-71510102D01*
X161386163Y-71402918D01*
X161386169Y-71402914D01*
X161469104Y-71342658D01*
X161469105Y-71342658D01*
X160729408Y-70602962D01*
X160792993Y-70585925D01*
X160907007Y-70520099D01*
X161000099Y-70427007D01*
X161065925Y-70312993D01*
X161082962Y-70249409D01*
X161822658Y-70989105D01*
X161822658Y-70989104D01*
X161882914Y-70906169D01*
X161882918Y-70906163D01*
X161990102Y-70695802D01*
X162063065Y-70471247D01*
X162100000Y-70238052D01*
X162100000Y-70001947D01*
X162063065Y-69768752D01*
X161990102Y-69544197D01*
X161882914Y-69333828D01*
X161822658Y-69250894D01*
X161822658Y-69250893D01*
X161082962Y-69990590D01*
X161065925Y-69927007D01*
X161000099Y-69812993D01*
X160907007Y-69719901D01*
X160792993Y-69654075D01*
X160729409Y-69637037D01*
X161469105Y-68897340D01*
X161469104Y-68897338D01*
X161386174Y-68837087D01*
X161175802Y-68729897D01*
X160951247Y-68656934D01*
X160951248Y-68656934D01*
X160718052Y-68620000D01*
X160481948Y-68620000D01*
X160248752Y-68656934D01*
X160024197Y-68729897D01*
X159813830Y-68837084D01*
X159730894Y-68897340D01*
X160470591Y-69637037D01*
X160407007Y-69654075D01*
X160292993Y-69719901D01*
X160199901Y-69812993D01*
X160134075Y-69927007D01*
X160117037Y-69990590D01*
X159377340Y-69250893D01*
X159357593Y-69252448D01*
X159353860Y-69251663D01*
X159350222Y-69252808D01*
X159319936Y-69244537D01*
X159289215Y-69238084D01*
X159285429Y-69235114D01*
X159282821Y-69234402D01*
X159273431Y-69225701D01*
X159255712Y-69211800D01*
X159251370Y-69206978D01*
X159204517Y-69142490D01*
X159037510Y-68975483D01*
X158846433Y-68836657D01*
X158635996Y-68729433D01*
X158411368Y-68656446D01*
X158178097Y-68619500D01*
X158178092Y-68619500D01*
X157941908Y-68619500D01*
X157941903Y-68619500D01*
X157708631Y-68656446D01*
X157484003Y-68729433D01*
X157273563Y-68836659D01*
X157149840Y-68926549D01*
X157084034Y-68950029D01*
X157015980Y-68934203D01*
X156968410Y-68885255D01*
X156968047Y-68885454D01*
X156967334Y-68884148D01*
X156967285Y-68884098D01*
X156967187Y-68883880D01*
X156963793Y-68877664D01*
X156877547Y-68762455D01*
X156877544Y-68762452D01*
X156762335Y-68676206D01*
X156762328Y-68676202D01*
X156627482Y-68625908D01*
X156627483Y-68625908D01*
X156567883Y-68619501D01*
X156567881Y-68619500D01*
X156567873Y-68619500D01*
X156567864Y-68619500D01*
X154472129Y-68619500D01*
X154472123Y-68619501D01*
X154412516Y-68625908D01*
X154277671Y-68676202D01*
X154277664Y-68676206D01*
X154162455Y-68762452D01*
X154162452Y-68762455D01*
X154076206Y-68877664D01*
X154076202Y-68877671D01*
X154025908Y-69012517D01*
X154019501Y-69072116D01*
X154019500Y-69072135D01*
X38840500Y-69072135D01*
X38840500Y-65852486D01*
X204749500Y-65852486D01*
X204749500Y-66147513D01*
X204781571Y-66391113D01*
X204788007Y-66439993D01*
X204788008Y-66439995D01*
X204864361Y-66724951D01*
X204864364Y-66724961D01*
X204977254Y-66997500D01*
X204977258Y-66997510D01*
X205124761Y-67252993D01*
X205304352Y-67487040D01*
X205304358Y-67487047D01*
X205512952Y-67695641D01*
X205512959Y-67695647D01*
X205747006Y-67875238D01*
X206002489Y-68022741D01*
X206002490Y-68022741D01*
X206002493Y-68022743D01*
X206275048Y-68135639D01*
X206560007Y-68211993D01*
X206852494Y-68250500D01*
X206852501Y-68250500D01*
X207147499Y-68250500D01*
X207147506Y-68250500D01*
X207439993Y-68211993D01*
X207724952Y-68135639D01*
X207997507Y-68022743D01*
X208252994Y-67875238D01*
X208487042Y-67695646D01*
X208695646Y-67487042D01*
X208875238Y-67252994D01*
X209022743Y-66997507D01*
X209135639Y-66724952D01*
X209211993Y-66439993D01*
X209250500Y-66147506D01*
X209250500Y-65852494D01*
X209211993Y-65560007D01*
X209135639Y-65275048D01*
X209022743Y-65002493D01*
X208875238Y-64747006D01*
X208695646Y-64512958D01*
X208695641Y-64512952D01*
X208487047Y-64304358D01*
X208487040Y-64304352D01*
X208252993Y-64124761D01*
X207997510Y-63977258D01*
X207997500Y-63977254D01*
X207724961Y-63864364D01*
X207724954Y-63864362D01*
X207724952Y-63864361D01*
X207439993Y-63788007D01*
X207391113Y-63781571D01*
X207147513Y-63749500D01*
X207147506Y-63749500D01*
X206852494Y-63749500D01*
X206852486Y-63749500D01*
X206574085Y-63786153D01*
X206560007Y-63788007D01*
X206275048Y-63864361D01*
X206275038Y-63864364D01*
X206002499Y-63977254D01*
X206002489Y-63977258D01*
X205747006Y-64124761D01*
X205512959Y-64304352D01*
X205512952Y-64304358D01*
X205304358Y-64512952D01*
X205304352Y-64512959D01*
X205124761Y-64747006D01*
X204977258Y-65002489D01*
X204977254Y-65002499D01*
X204864364Y-65275038D01*
X204864361Y-65275048D01*
X204788008Y-65560004D01*
X204788006Y-65560015D01*
X204749500Y-65852486D01*
X38840500Y-65852486D01*
X38840500Y-59852486D01*
X58249500Y-59852486D01*
X58249500Y-60147513D01*
X58273822Y-60332248D01*
X58288007Y-60439993D01*
X58364361Y-60724951D01*
X58364364Y-60724961D01*
X58477254Y-60997500D01*
X58477258Y-60997510D01*
X58624761Y-61252993D01*
X58804352Y-61487040D01*
X58804358Y-61487047D01*
X59012952Y-61695641D01*
X59012959Y-61695647D01*
X59247006Y-61875238D01*
X59502489Y-62022741D01*
X59502490Y-62022741D01*
X59502493Y-62022743D01*
X59775048Y-62135639D01*
X60060007Y-62211993D01*
X60352494Y-62250500D01*
X60352501Y-62250500D01*
X60647499Y-62250500D01*
X60647506Y-62250500D01*
X60939993Y-62211993D01*
X61224952Y-62135639D01*
X61497507Y-62022743D01*
X61752994Y-61875238D01*
X61987042Y-61695646D01*
X62195646Y-61487042D01*
X62375238Y-61252994D01*
X62522743Y-60997507D01*
X62635639Y-60724952D01*
X62711993Y-60439993D01*
X62723514Y-60352486D01*
X150249500Y-60352486D01*
X150249500Y-60647513D01*
X150259697Y-60724961D01*
X150288007Y-60939993D01*
X150288008Y-60939995D01*
X150364361Y-61224951D01*
X150364364Y-61224961D01*
X150477254Y-61497500D01*
X150477258Y-61497510D01*
X150624761Y-61752993D01*
X150804352Y-61987040D01*
X150804358Y-61987047D01*
X151012952Y-62195641D01*
X151012959Y-62195647D01*
X151247006Y-62375238D01*
X151502489Y-62522741D01*
X151502490Y-62522741D01*
X151502493Y-62522743D01*
X151775048Y-62635639D01*
X152060007Y-62711993D01*
X152352494Y-62750500D01*
X152352501Y-62750500D01*
X152647499Y-62750500D01*
X152647506Y-62750500D01*
X152939993Y-62711993D01*
X153224952Y-62635639D01*
X153497507Y-62522743D01*
X153752994Y-62375238D01*
X153987042Y-62195646D01*
X154195646Y-61987042D01*
X154375238Y-61752994D01*
X154522743Y-61497507D01*
X154635639Y-61224952D01*
X154711993Y-60939993D01*
X154750500Y-60647506D01*
X154750500Y-60352494D01*
X154711993Y-60060007D01*
X154635639Y-59775048D01*
X154522743Y-59502493D01*
X154375238Y-59247006D01*
X154195646Y-59012958D01*
X154195641Y-59012952D01*
X153987047Y-58804358D01*
X153987040Y-58804352D01*
X153752993Y-58624761D01*
X153497510Y-58477258D01*
X153497500Y-58477254D01*
X153224961Y-58364364D01*
X153224954Y-58364362D01*
X153224952Y-58364361D01*
X152939993Y-58288007D01*
X152891113Y-58281571D01*
X152647513Y-58249500D01*
X152647506Y-58249500D01*
X152352494Y-58249500D01*
X152352486Y-58249500D01*
X152074085Y-58286153D01*
X152060007Y-58288007D01*
X151998999Y-58304354D01*
X151775048Y-58364361D01*
X151775038Y-58364364D01*
X151502499Y-58477254D01*
X151502489Y-58477258D01*
X151247006Y-58624761D01*
X151012959Y-58804352D01*
X151012952Y-58804358D01*
X150804358Y-59012952D01*
X150804352Y-59012959D01*
X150624761Y-59247006D01*
X150477258Y-59502489D01*
X150477254Y-59502499D01*
X150364364Y-59775038D01*
X150364361Y-59775048D01*
X150288008Y-60060004D01*
X150288006Y-60060015D01*
X150249500Y-60352486D01*
X62723514Y-60352486D01*
X62750500Y-60147506D01*
X62750500Y-59852494D01*
X62711993Y-59560007D01*
X62635639Y-59275048D01*
X62522743Y-59002493D01*
X62375238Y-58747006D01*
X62195646Y-58512958D01*
X62195641Y-58512952D01*
X61987047Y-58304358D01*
X61987040Y-58304352D01*
X61752993Y-58124761D01*
X61497510Y-57977258D01*
X61497500Y-57977254D01*
X61224961Y-57864364D01*
X61224954Y-57864362D01*
X61224952Y-57864361D01*
X60939993Y-57788007D01*
X60891113Y-57781571D01*
X60647513Y-57749500D01*
X60647506Y-57749500D01*
X60352494Y-57749500D01*
X60352486Y-57749500D01*
X60074085Y-57786153D01*
X60060007Y-57788007D01*
X59775048Y-57864361D01*
X59775038Y-57864364D01*
X59502499Y-57977254D01*
X59502489Y-57977258D01*
X59247006Y-58124761D01*
X59012959Y-58304352D01*
X59012952Y-58304358D01*
X58804358Y-58512952D01*
X58804352Y-58512959D01*
X58624761Y-58747006D01*
X58477258Y-59002489D01*
X58477254Y-59002499D01*
X58364364Y-59275038D01*
X58364361Y-59275048D01*
X58288008Y-59560004D01*
X58288006Y-59560015D01*
X58249500Y-59852486D01*
X38840500Y-59852486D01*
X38840500Y-56164500D01*
X38860185Y-56097461D01*
X38912989Y-56051706D01*
X38964500Y-56040500D01*
X211235500Y-56040500D01*
X211302539Y-56060185D01*
G37*
%TD.AperFunction*%
%TD*%
D19*
X42000000Y-128100000D02*
X142000000Y-128100000D01*
X142000000Y-153500000D01*
X42000000Y-153500000D01*
X42000000Y-128100000D01*
X36300000Y-53500000D02*
X213900000Y-53500000D01*
X213900000Y-153500000D01*
X36300000Y-153500000D01*
X36300000Y-53500000D01*
M02*
