M48
; DRILL file {KiCad 9.0.7} date 2026-01-12T11:14:28+0000
; FORMAT={-:-/ absolute / metric / decimal}
; #@! TF.CreationDate,2026-01-12T11:14:28+00:00
; #@! TF.GenerationSoftware,Kicad,Pcbnew,9.0.7
; #@! TF.FileFunction,Plated,1,2,PTH
FMAT,2
METRIC
; #@! TA.AperFunction,Plated,PTH,ViaDrill
T1C1.000
; #@! TA.AperFunction,Plated,PTH,ComponentDrill
T2C1.000
; #@! TA.AperFunction,Plated,PTH,ComponentDrill
T3C1.016
; #@! TA.AperFunction,Plated,PTH,ComponentDrill
T4C1.200
; #@! TA.AperFunction,Plated,PTH,ComponentDrill
T5C1.300
; #@! TA.AperFunction,Plated,PTH,ComponentDrill
T6C2.500
%
G90
G05
T1
X56.0Y-65.0
X142.5Y-108.0
X148.5Y-108.0
X169.0Y-102.0
X183.5Y-81.5
X194.5Y-81.5
T2
X51.305Y-71.565
X51.305Y-74.105
X53.845Y-71.565
X53.845Y-74.105
X56.385Y-71.565
X56.385Y-74.105
X58.925Y-71.565
X58.925Y-74.105
X61.465Y-71.565
X61.465Y-74.105
X64.005Y-71.565
X64.005Y-74.105
X66.545Y-71.565
X66.545Y-74.105
X69.085Y-71.565
X69.085Y-74.105
X71.625Y-71.565
X71.625Y-74.105
X74.165Y-71.565
X74.165Y-74.105
X76.705Y-71.565
X76.705Y-74.105
X79.245Y-71.565
X79.245Y-74.105
X81.785Y-71.565
X81.785Y-74.105
X84.325Y-71.565
X84.325Y-74.105
X86.865Y-71.565
X86.865Y-74.105
X89.405Y-71.565
X89.405Y-74.105
X91.945Y-71.565
X91.945Y-74.105
X94.485Y-71.565
X94.485Y-74.105
X97.025Y-71.565
X97.025Y-74.105
X99.565Y-71.565
X99.565Y-74.105
X145.32Y-100.44
X145.32Y-102.98
X145.32Y-105.52
X145.32Y-108.06
X145.32Y-110.6
X152.5Y-144.2
X155.04Y-144.2
X155.52Y-70.12
X157.58Y-144.2
X158.06Y-70.12
X160.6Y-70.12
T3
X172.569Y-101.787
X175.109Y-101.787
T4
X161.9Y-89.376
X161.9Y-94.376
T5
X171.4Y-93.4
X193.9Y-93.4
T6
X190.0Y-115.702
X190.0Y-120.401
X190.0Y-125.1
M30
