%TF.GenerationSoftware,KiCad,Pcbnew,9.0.7*%
%TF.CreationDate,2026-01-12T11:14:28+00:00*%
%TF.ProjectId,DeltaBot,44656c74-6142-46f7-942e-6b696361645f,rev?*%
%TF.SameCoordinates,Original*%
%TF.FileFunction,Drillmap*%
%TF.FilePolarity,Positive*%
%FSLAX45Y45*%
G04 Gerber Fmt 4.5, Leading zero omitted, Abs format (unit mm)*
G04 Created by KiCad (PCBNEW 9.0.7) date 2026-01-12 11:14:28*
%MOMM*%
%LPD*%
G01*
G04 APERTURE LIST*
%ADD10C,0.050000*%
%ADD11C,0.200000*%
%ADD12C,0.100000*%
%ADD13C,0.101600*%
%ADD14C,0.120000*%
%ADD15C,0.130000*%
%ADD16C,0.250000*%
G04 APERTURE END LIST*
D10*
X4200000Y-12810000D02*
X14200000Y-12810000D01*
X14200000Y-15350000D01*
X4200000Y-15350000D01*
X4200000Y-12810000D01*
X3630000Y-5350000D02*
X21390000Y-5350000D01*
X21390000Y-15350000D01*
X3630000Y-15350000D01*
X3630000Y-5350000D01*
D11*
D12*
X5550000Y-6450000D02*
X5650000Y-6550000D01*
X5650000Y-6450000D02*
X5550000Y-6550000D01*
X14200000Y-10750000D02*
X14300000Y-10850000D01*
X14300000Y-10750000D02*
X14200000Y-10850000D01*
X14800000Y-10750000D02*
X14900000Y-10850000D01*
X14900000Y-10750000D02*
X14800000Y-10850000D01*
X16850000Y-10150000D02*
X16950000Y-10250000D01*
X16950000Y-10150000D02*
X16850000Y-10250000D01*
X18300000Y-8100000D02*
X18400000Y-8200000D01*
X18400000Y-8100000D02*
X18300000Y-8200000D01*
X19400000Y-8100000D02*
X19500000Y-8200000D01*
X19500000Y-8100000D02*
X19400000Y-8200000D01*
X5180500Y-7156500D02*
G75*
G02*
X5080500Y-7156500I-50000J0D01*
G01*
X5080500Y-7156500D02*
G75*
G02*
X5180500Y-7156500I50000J0D01*
G01*
X5180500Y-7410500D02*
G75*
G02*
X5080500Y-7410500I-50000J0D01*
G01*
X5080500Y-7410500D02*
G75*
G02*
X5180500Y-7410500I50000J0D01*
G01*
X5434500Y-7156500D02*
G75*
G02*
X5334500Y-7156500I-50000J0D01*
G01*
X5334500Y-7156500D02*
G75*
G02*
X5434500Y-7156500I50000J0D01*
G01*
X5434500Y-7410500D02*
G75*
G02*
X5334500Y-7410500I-50000J0D01*
G01*
X5334500Y-7410500D02*
G75*
G02*
X5434500Y-7410500I50000J0D01*
G01*
X5688500Y-7156500D02*
G75*
G02*
X5588500Y-7156500I-50000J0D01*
G01*
X5588500Y-7156500D02*
G75*
G02*
X5688500Y-7156500I50000J0D01*
G01*
X5688500Y-7410500D02*
G75*
G02*
X5588500Y-7410500I-50000J0D01*
G01*
X5588500Y-7410500D02*
G75*
G02*
X5688500Y-7410500I50000J0D01*
G01*
X5942500Y-7156500D02*
G75*
G02*
X5842500Y-7156500I-50000J0D01*
G01*
X5842500Y-7156500D02*
G75*
G02*
X5942500Y-7156500I50000J0D01*
G01*
X5942500Y-7410500D02*
G75*
G02*
X5842500Y-7410500I-50000J0D01*
G01*
X5842500Y-7410500D02*
G75*
G02*
X5942500Y-7410500I50000J0D01*
G01*
X6196500Y-7156500D02*
G75*
G02*
X6096500Y-7156500I-50000J0D01*
G01*
X6096500Y-7156500D02*
G75*
G02*
X6196500Y-7156500I50000J0D01*
G01*
X6196500Y-7410500D02*
G75*
G02*
X6096500Y-7410500I-50000J0D01*
G01*
X6096500Y-7410500D02*
G75*
G02*
X6196500Y-7410500I50000J0D01*
G01*
X6450500Y-7156500D02*
G75*
G02*
X6350500Y-7156500I-50000J0D01*
G01*
X6350500Y-7156500D02*
G75*
G02*
X6450500Y-7156500I50000J0D01*
G01*
X6450500Y-7410500D02*
G75*
G02*
X6350500Y-7410500I-50000J0D01*
G01*
X6350500Y-7410500D02*
G75*
G02*
X6450500Y-7410500I50000J0D01*
G01*
X6704500Y-7156500D02*
G75*
G02*
X6604500Y-7156500I-50000J0D01*
G01*
X6604500Y-7156500D02*
G75*
G02*
X6704500Y-7156500I50000J0D01*
G01*
X6704500Y-7410500D02*
G75*
G02*
X6604500Y-7410500I-50000J0D01*
G01*
X6604500Y-7410500D02*
G75*
G02*
X6704500Y-7410500I50000J0D01*
G01*
X6958500Y-7156500D02*
G75*
G02*
X6858500Y-7156500I-50000J0D01*
G01*
X6858500Y-7156500D02*
G75*
G02*
X6958500Y-7156500I50000J0D01*
G01*
X6958500Y-7410500D02*
G75*
G02*
X6858500Y-7410500I-50000J0D01*
G01*
X6858500Y-7410500D02*
G75*
G02*
X6958500Y-7410500I50000J0D01*
G01*
X7212500Y-7156500D02*
G75*
G02*
X7112500Y-7156500I-50000J0D01*
G01*
X7112500Y-7156500D02*
G75*
G02*
X7212500Y-7156500I50000J0D01*
G01*
X7212500Y-7410500D02*
G75*
G02*
X7112500Y-7410500I-50000J0D01*
G01*
X7112500Y-7410500D02*
G75*
G02*
X7212500Y-7410500I50000J0D01*
G01*
X7466500Y-7156500D02*
G75*
G02*
X7366500Y-7156500I-50000J0D01*
G01*
X7366500Y-7156500D02*
G75*
G02*
X7466500Y-7156500I50000J0D01*
G01*
X7466500Y-7410500D02*
G75*
G02*
X7366500Y-7410500I-50000J0D01*
G01*
X7366500Y-7410500D02*
G75*
G02*
X7466500Y-7410500I50000J0D01*
G01*
X7720500Y-7156500D02*
G75*
G02*
X7620500Y-7156500I-50000J0D01*
G01*
X7620500Y-7156500D02*
G75*
G02*
X7720500Y-7156500I50000J0D01*
G01*
X7720500Y-7410500D02*
G75*
G02*
X7620500Y-7410500I-50000J0D01*
G01*
X7620500Y-7410500D02*
G75*
G02*
X7720500Y-7410500I50000J0D01*
G01*
X7974500Y-7156500D02*
G75*
G02*
X7874500Y-7156500I-50000J0D01*
G01*
X7874500Y-7156500D02*
G75*
G02*
X7974500Y-7156500I50000J0D01*
G01*
X7974500Y-7410500D02*
G75*
G02*
X7874500Y-7410500I-50000J0D01*
G01*
X7874500Y-7410500D02*
G75*
G02*
X7974500Y-7410500I50000J0D01*
G01*
X8228500Y-7156500D02*
G75*
G02*
X8128500Y-7156500I-50000J0D01*
G01*
X8128500Y-7156500D02*
G75*
G02*
X8228500Y-7156500I50000J0D01*
G01*
X8228500Y-7410500D02*
G75*
G02*
X8128500Y-7410500I-50000J0D01*
G01*
X8128500Y-7410500D02*
G75*
G02*
X8228500Y-7410500I50000J0D01*
G01*
X8482500Y-7156500D02*
G75*
G02*
X8382500Y-7156500I-50000J0D01*
G01*
X8382500Y-7156500D02*
G75*
G02*
X8482500Y-7156500I50000J0D01*
G01*
X8482500Y-7410500D02*
G75*
G02*
X8382500Y-7410500I-50000J0D01*
G01*
X8382500Y-7410500D02*
G75*
G02*
X8482500Y-7410500I50000J0D01*
G01*
X8736500Y-7156500D02*
G75*
G02*
X8636500Y-7156500I-50000J0D01*
G01*
X8636500Y-7156500D02*
G75*
G02*
X8736500Y-7156500I50000J0D01*
G01*
X8736500Y-7410500D02*
G75*
G02*
X8636500Y-7410500I-50000J0D01*
G01*
X8636500Y-7410500D02*
G75*
G02*
X8736500Y-7410500I50000J0D01*
G01*
X8990500Y-7156500D02*
G75*
G02*
X8890500Y-7156500I-50000J0D01*
G01*
X8890500Y-7156500D02*
G75*
G02*
X8990500Y-7156500I50000J0D01*
G01*
X8990500Y-7410500D02*
G75*
G02*
X8890500Y-7410500I-50000J0D01*
G01*
X8890500Y-7410500D02*
G75*
G02*
X8990500Y-7410500I50000J0D01*
G01*
X9244500Y-7156500D02*
G75*
G02*
X9144500Y-7156500I-50000J0D01*
G01*
X9144500Y-7156500D02*
G75*
G02*
X9244500Y-7156500I50000J0D01*
G01*
X9244500Y-7410500D02*
G75*
G02*
X9144500Y-7410500I-50000J0D01*
G01*
X9144500Y-7410500D02*
G75*
G02*
X9244500Y-7410500I50000J0D01*
G01*
X9498500Y-7156500D02*
G75*
G02*
X9398500Y-7156500I-50000J0D01*
G01*
X9398500Y-7156500D02*
G75*
G02*
X9498500Y-7156500I50000J0D01*
G01*
X9498500Y-7410500D02*
G75*
G02*
X9398500Y-7410500I-50000J0D01*
G01*
X9398500Y-7410500D02*
G75*
G02*
X9498500Y-7410500I50000J0D01*
G01*
X9752500Y-7156500D02*
G75*
G02*
X9652500Y-7156500I-50000J0D01*
G01*
X9652500Y-7156500D02*
G75*
G02*
X9752500Y-7156500I50000J0D01*
G01*
X9752500Y-7410500D02*
G75*
G02*
X9652500Y-7410500I-50000J0D01*
G01*
X9652500Y-7410500D02*
G75*
G02*
X9752500Y-7410500I50000J0D01*
G01*
X10006500Y-7156500D02*
G75*
G02*
X9906500Y-7156500I-50000J0D01*
G01*
X9906500Y-7156500D02*
G75*
G02*
X10006500Y-7156500I50000J0D01*
G01*
X10006500Y-7410500D02*
G75*
G02*
X9906500Y-7410500I-50000J0D01*
G01*
X9906500Y-7410500D02*
G75*
G02*
X10006500Y-7410500I50000J0D01*
G01*
X14582000Y-10044000D02*
G75*
G02*
X14482000Y-10044000I-50000J0D01*
G01*
X14482000Y-10044000D02*
G75*
G02*
X14582000Y-10044000I50000J0D01*
G01*
X14582000Y-10298000D02*
G75*
G02*
X14482000Y-10298000I-50000J0D01*
G01*
X14482000Y-10298000D02*
G75*
G02*
X14582000Y-10298000I50000J0D01*
G01*
X14582000Y-10552000D02*
G75*
G02*
X14482000Y-10552000I-50000J0D01*
G01*
X14482000Y-10552000D02*
G75*
G02*
X14582000Y-10552000I50000J0D01*
G01*
X14582000Y-10806000D02*
G75*
G02*
X14482000Y-10806000I-50000J0D01*
G01*
X14482000Y-10806000D02*
G75*
G02*
X14582000Y-10806000I50000J0D01*
G01*
X14582000Y-11060000D02*
G75*
G02*
X14482000Y-11060000I-50000J0D01*
G01*
X14482000Y-11060000D02*
G75*
G02*
X14582000Y-11060000I50000J0D01*
G01*
X15300000Y-14420000D02*
G75*
G02*
X15200000Y-14420000I-50000J0D01*
G01*
X15200000Y-14420000D02*
G75*
G02*
X15300000Y-14420000I50000J0D01*
G01*
X15554000Y-14420000D02*
G75*
G02*
X15454000Y-14420000I-50000J0D01*
G01*
X15454000Y-14420000D02*
G75*
G02*
X15554000Y-14420000I50000J0D01*
G01*
X15602000Y-7012000D02*
G75*
G02*
X15502000Y-7012000I-50000J0D01*
G01*
X15502000Y-7012000D02*
G75*
G02*
X15602000Y-7012000I50000J0D01*
G01*
X15808000Y-14420000D02*
G75*
G02*
X15708000Y-14420000I-50000J0D01*
G01*
X15708000Y-14420000D02*
G75*
G02*
X15808000Y-14420000I50000J0D01*
G01*
X15856000Y-7012000D02*
G75*
G02*
X15756000Y-7012000I-50000J0D01*
G01*
X15756000Y-7012000D02*
G75*
G02*
X15856000Y-7012000I50000J0D01*
G01*
X16110000Y-7012000D02*
G75*
G02*
X16010000Y-7012000I-50000J0D01*
G01*
X16010000Y-7012000D02*
G75*
G02*
X16110000Y-7012000I50000J0D01*
G01*
D13*
X17256920Y-10127880D02*
X17256920Y-10229480D01*
X17206120Y-10178680D02*
X17307720Y-10178680D01*
X17510920Y-10127880D02*
X17510920Y-10229480D01*
X17460120Y-10178680D02*
X17561720Y-10178680D01*
D14*
X16232427Y-8980031D02*
X16232427Y-8895177D01*
X16147573Y-8895177D01*
X16147573Y-8980031D01*
X16232427Y-8980031D01*
X16232427Y-9480031D02*
X16232427Y-9395177D01*
X16147573Y-9395177D01*
X16147573Y-9480031D01*
X16232427Y-9480031D01*
D15*
X17140000Y-9405000D02*
X17205000Y-9340000D01*
X17140000Y-9275000D01*
X17075000Y-9340000D01*
X17140000Y-9405000D01*
X19390000Y-9405000D02*
X19455000Y-9340000D01*
X19390000Y-9275000D01*
X19325000Y-9340000D01*
X19390000Y-9405000D01*
D16*
X18875000Y-11445200D02*
X19125000Y-11695200D01*
X19125000Y-11445200D02*
X18875000Y-11695200D01*
X19125000Y-11570200D02*
G75*
G02*
X18875000Y-11570200I-125000J0D01*
G01*
X18875000Y-11570200D02*
G75*
G02*
X19125000Y-11570200I125000J0D01*
G01*
X18875000Y-11915100D02*
X19125000Y-12165100D01*
X19125000Y-11915100D02*
X18875000Y-12165100D01*
X19125000Y-12040100D02*
G75*
G02*
X18875000Y-12040100I-125000J0D01*
G01*
X18875000Y-12040100D02*
G75*
G02*
X19125000Y-12040100I125000J0D01*
G01*
X18875000Y-12385000D02*
X19125000Y-12635000D01*
X19125000Y-12385000D02*
X18875000Y-12635000D01*
X19125000Y-12510000D02*
G75*
G02*
X18875000Y-12510000I-125000J0D01*
G01*
X18875000Y-12510000D02*
G75*
G02*
X19125000Y-12510000I125000J0D01*
G01*
D11*
X3888277Y-15663984D02*
X3888277Y-15463984D01*
X3888277Y-15463984D02*
X3935896Y-15463984D01*
X3935896Y-15463984D02*
X3964467Y-15473508D01*
X3964467Y-15473508D02*
X3983515Y-15492555D01*
X3983515Y-15492555D02*
X3993039Y-15511603D01*
X3993039Y-15511603D02*
X4002562Y-15549698D01*
X4002562Y-15549698D02*
X4002562Y-15578269D01*
X4002562Y-15578269D02*
X3993039Y-15616365D01*
X3993039Y-15616365D02*
X3983515Y-15635412D01*
X3983515Y-15635412D02*
X3964467Y-15654460D01*
X3964467Y-15654460D02*
X3935896Y-15663984D01*
X3935896Y-15663984D02*
X3888277Y-15663984D01*
X4088277Y-15663984D02*
X4088277Y-15530650D01*
X4088277Y-15568746D02*
X4097801Y-15549698D01*
X4097801Y-15549698D02*
X4107324Y-15540174D01*
X4107324Y-15540174D02*
X4126372Y-15530650D01*
X4126372Y-15530650D02*
X4145420Y-15530650D01*
X4212086Y-15663984D02*
X4212086Y-15530650D01*
X4212086Y-15463984D02*
X4202563Y-15473508D01*
X4202563Y-15473508D02*
X4212086Y-15483031D01*
X4212086Y-15483031D02*
X4221610Y-15473508D01*
X4221610Y-15473508D02*
X4212086Y-15463984D01*
X4212086Y-15463984D02*
X4212086Y-15483031D01*
X4335896Y-15663984D02*
X4316848Y-15654460D01*
X4316848Y-15654460D02*
X4307324Y-15635412D01*
X4307324Y-15635412D02*
X4307324Y-15463984D01*
X4440658Y-15663984D02*
X4421610Y-15654460D01*
X4421610Y-15654460D02*
X4412086Y-15635412D01*
X4412086Y-15635412D02*
X4412086Y-15463984D01*
X4669229Y-15663984D02*
X4669229Y-15463984D01*
X4669229Y-15463984D02*
X4735896Y-15606841D01*
X4735896Y-15606841D02*
X4802563Y-15463984D01*
X4802563Y-15463984D02*
X4802563Y-15663984D01*
X4983515Y-15663984D02*
X4983515Y-15559222D01*
X4983515Y-15559222D02*
X4973991Y-15540174D01*
X4973991Y-15540174D02*
X4954944Y-15530650D01*
X4954944Y-15530650D02*
X4916848Y-15530650D01*
X4916848Y-15530650D02*
X4897801Y-15540174D01*
X4983515Y-15654460D02*
X4964467Y-15663984D01*
X4964467Y-15663984D02*
X4916848Y-15663984D01*
X4916848Y-15663984D02*
X4897801Y-15654460D01*
X4897801Y-15654460D02*
X4888277Y-15635412D01*
X4888277Y-15635412D02*
X4888277Y-15616365D01*
X4888277Y-15616365D02*
X4897801Y-15597317D01*
X4897801Y-15597317D02*
X4916848Y-15587793D01*
X4916848Y-15587793D02*
X4964467Y-15587793D01*
X4964467Y-15587793D02*
X4983515Y-15578269D01*
X5078753Y-15530650D02*
X5078753Y-15730650D01*
X5078753Y-15540174D02*
X5097801Y-15530650D01*
X5097801Y-15530650D02*
X5135896Y-15530650D01*
X5135896Y-15530650D02*
X5154944Y-15540174D01*
X5154944Y-15540174D02*
X5164467Y-15549698D01*
X5164467Y-15549698D02*
X5173991Y-15568746D01*
X5173991Y-15568746D02*
X5173991Y-15625888D01*
X5173991Y-15625888D02*
X5164467Y-15644936D01*
X5164467Y-15644936D02*
X5154944Y-15654460D01*
X5154944Y-15654460D02*
X5135896Y-15663984D01*
X5135896Y-15663984D02*
X5097801Y-15663984D01*
X5097801Y-15663984D02*
X5078753Y-15654460D01*
X5259705Y-15644936D02*
X5269229Y-15654460D01*
X5269229Y-15654460D02*
X5259705Y-15663984D01*
X5259705Y-15663984D02*
X5250182Y-15654460D01*
X5250182Y-15654460D02*
X5259705Y-15644936D01*
X5259705Y-15644936D02*
X5259705Y-15663984D01*
X5259705Y-15540174D02*
X5269229Y-15549698D01*
X5269229Y-15549698D02*
X5259705Y-15559222D01*
X5259705Y-15559222D02*
X5250182Y-15549698D01*
X5250182Y-15549698D02*
X5259705Y-15540174D01*
X5259705Y-15540174D02*
X5259705Y-15559222D01*
D12*
X3527500Y-15942500D02*
X3627500Y-16042500D01*
X3627500Y-15942500D02*
X3527500Y-16042500D01*
D11*
X3993039Y-16083984D02*
X3878753Y-16083984D01*
X3935896Y-16083984D02*
X3935896Y-15883984D01*
X3935896Y-15883984D02*
X3916848Y-15912555D01*
X3916848Y-15912555D02*
X3897801Y-15931603D01*
X3897801Y-15931603D02*
X3878753Y-15941127D01*
X4078753Y-16064936D02*
X4088277Y-16074460D01*
X4088277Y-16074460D02*
X4078753Y-16083984D01*
X4078753Y-16083984D02*
X4069229Y-16074460D01*
X4069229Y-16074460D02*
X4078753Y-16064936D01*
X4078753Y-16064936D02*
X4078753Y-16083984D01*
X4212086Y-15883984D02*
X4231134Y-15883984D01*
X4231134Y-15883984D02*
X4250182Y-15893508D01*
X4250182Y-15893508D02*
X4259705Y-15903031D01*
X4259705Y-15903031D02*
X4269229Y-15922079D01*
X4269229Y-15922079D02*
X4278753Y-15960174D01*
X4278753Y-15960174D02*
X4278753Y-16007793D01*
X4278753Y-16007793D02*
X4269229Y-16045888D01*
X4269229Y-16045888D02*
X4259705Y-16064936D01*
X4259705Y-16064936D02*
X4250182Y-16074460D01*
X4250182Y-16074460D02*
X4231134Y-16083984D01*
X4231134Y-16083984D02*
X4212086Y-16083984D01*
X4212086Y-16083984D02*
X4193039Y-16074460D01*
X4193039Y-16074460D02*
X4183515Y-16064936D01*
X4183515Y-16064936D02*
X4173991Y-16045888D01*
X4173991Y-16045888D02*
X4164467Y-16007793D01*
X4164467Y-16007793D02*
X4164467Y-15960174D01*
X4164467Y-15960174D02*
X4173991Y-15922079D01*
X4173991Y-15922079D02*
X4183515Y-15903031D01*
X4183515Y-15903031D02*
X4193039Y-15893508D01*
X4193039Y-15893508D02*
X4212086Y-15883984D01*
X4402563Y-15883984D02*
X4421610Y-15883984D01*
X4421610Y-15883984D02*
X4440658Y-15893508D01*
X4440658Y-15893508D02*
X4450182Y-15903031D01*
X4450182Y-15903031D02*
X4459705Y-15922079D01*
X4459705Y-15922079D02*
X4469229Y-15960174D01*
X4469229Y-15960174D02*
X4469229Y-16007793D01*
X4469229Y-16007793D02*
X4459705Y-16045888D01*
X4459705Y-16045888D02*
X4450182Y-16064936D01*
X4450182Y-16064936D02*
X4440658Y-16074460D01*
X4440658Y-16074460D02*
X4421610Y-16083984D01*
X4421610Y-16083984D02*
X4402563Y-16083984D01*
X4402563Y-16083984D02*
X4383515Y-16074460D01*
X4383515Y-16074460D02*
X4373991Y-16064936D01*
X4373991Y-16064936D02*
X4364467Y-16045888D01*
X4364467Y-16045888D02*
X4354944Y-16007793D01*
X4354944Y-16007793D02*
X4354944Y-15960174D01*
X4354944Y-15960174D02*
X4364467Y-15922079D01*
X4364467Y-15922079D02*
X4373991Y-15903031D01*
X4373991Y-15903031D02*
X4383515Y-15893508D01*
X4383515Y-15893508D02*
X4402563Y-15883984D01*
X4593039Y-15883984D02*
X4612086Y-15883984D01*
X4612086Y-15883984D02*
X4631134Y-15893508D01*
X4631134Y-15893508D02*
X4640658Y-15903031D01*
X4640658Y-15903031D02*
X4650182Y-15922079D01*
X4650182Y-15922079D02*
X4659705Y-15960174D01*
X4659705Y-15960174D02*
X4659705Y-16007793D01*
X4659705Y-16007793D02*
X4650182Y-16045888D01*
X4650182Y-16045888D02*
X4640658Y-16064936D01*
X4640658Y-16064936D02*
X4631134Y-16074460D01*
X4631134Y-16074460D02*
X4612086Y-16083984D01*
X4612086Y-16083984D02*
X4593039Y-16083984D01*
X4593039Y-16083984D02*
X4573991Y-16074460D01*
X4573991Y-16074460D02*
X4564467Y-16064936D01*
X4564467Y-16064936D02*
X4554944Y-16045888D01*
X4554944Y-16045888D02*
X4545420Y-16007793D01*
X4545420Y-16007793D02*
X4545420Y-15960174D01*
X4545420Y-15960174D02*
X4554944Y-15922079D01*
X4554944Y-15922079D02*
X4564467Y-15903031D01*
X4564467Y-15903031D02*
X4573991Y-15893508D01*
X4573991Y-15893508D02*
X4593039Y-15883984D01*
X4745420Y-16083984D02*
X4745420Y-15950650D01*
X4745420Y-15969698D02*
X4754944Y-15960174D01*
X4754944Y-15960174D02*
X4773991Y-15950650D01*
X4773991Y-15950650D02*
X4802563Y-15950650D01*
X4802563Y-15950650D02*
X4821610Y-15960174D01*
X4821610Y-15960174D02*
X4831134Y-15979222D01*
X4831134Y-15979222D02*
X4831134Y-16083984D01*
X4831134Y-15979222D02*
X4840658Y-15960174D01*
X4840658Y-15960174D02*
X4859705Y-15950650D01*
X4859705Y-15950650D02*
X4888277Y-15950650D01*
X4888277Y-15950650D02*
X4907325Y-15960174D01*
X4907325Y-15960174D02*
X4916848Y-15979222D01*
X4916848Y-15979222D02*
X4916848Y-16083984D01*
X5012086Y-16083984D02*
X5012086Y-15950650D01*
X5012086Y-15969698D02*
X5021610Y-15960174D01*
X5021610Y-15960174D02*
X5040658Y-15950650D01*
X5040658Y-15950650D02*
X5069229Y-15950650D01*
X5069229Y-15950650D02*
X5088277Y-15960174D01*
X5088277Y-15960174D02*
X5097801Y-15979222D01*
X5097801Y-15979222D02*
X5097801Y-16083984D01*
X5097801Y-15979222D02*
X5107325Y-15960174D01*
X5107325Y-15960174D02*
X5126372Y-15950650D01*
X5126372Y-15950650D02*
X5154944Y-15950650D01*
X5154944Y-15950650D02*
X5173991Y-15960174D01*
X5173991Y-15960174D02*
X5183515Y-15979222D01*
X5183515Y-15979222D02*
X5183515Y-16083984D01*
X5573991Y-15874460D02*
X5402563Y-16131603D01*
X5831134Y-15883984D02*
X5850182Y-15883984D01*
X5850182Y-15883984D02*
X5869229Y-15893508D01*
X5869229Y-15893508D02*
X5878753Y-15903031D01*
X5878753Y-15903031D02*
X5888277Y-15922079D01*
X5888277Y-15922079D02*
X5897801Y-15960174D01*
X5897801Y-15960174D02*
X5897801Y-16007793D01*
X5897801Y-16007793D02*
X5888277Y-16045888D01*
X5888277Y-16045888D02*
X5878753Y-16064936D01*
X5878753Y-16064936D02*
X5869229Y-16074460D01*
X5869229Y-16074460D02*
X5850182Y-16083984D01*
X5850182Y-16083984D02*
X5831134Y-16083984D01*
X5831134Y-16083984D02*
X5812086Y-16074460D01*
X5812086Y-16074460D02*
X5802563Y-16064936D01*
X5802563Y-16064936D02*
X5793039Y-16045888D01*
X5793039Y-16045888D02*
X5783515Y-16007793D01*
X5783515Y-16007793D02*
X5783515Y-15960174D01*
X5783515Y-15960174D02*
X5793039Y-15922079D01*
X5793039Y-15922079D02*
X5802563Y-15903031D01*
X5802563Y-15903031D02*
X5812086Y-15893508D01*
X5812086Y-15893508D02*
X5831134Y-15883984D01*
X5983515Y-16064936D02*
X5993039Y-16074460D01*
X5993039Y-16074460D02*
X5983515Y-16083984D01*
X5983515Y-16083984D02*
X5973991Y-16074460D01*
X5973991Y-16074460D02*
X5983515Y-16064936D01*
X5983515Y-16064936D02*
X5983515Y-16083984D01*
X6116848Y-15883984D02*
X6135896Y-15883984D01*
X6135896Y-15883984D02*
X6154944Y-15893508D01*
X6154944Y-15893508D02*
X6164467Y-15903031D01*
X6164467Y-15903031D02*
X6173991Y-15922079D01*
X6173991Y-15922079D02*
X6183515Y-15960174D01*
X6183515Y-15960174D02*
X6183515Y-16007793D01*
X6183515Y-16007793D02*
X6173991Y-16045888D01*
X6173991Y-16045888D02*
X6164467Y-16064936D01*
X6164467Y-16064936D02*
X6154944Y-16074460D01*
X6154944Y-16074460D02*
X6135896Y-16083984D01*
X6135896Y-16083984D02*
X6116848Y-16083984D01*
X6116848Y-16083984D02*
X6097801Y-16074460D01*
X6097801Y-16074460D02*
X6088277Y-16064936D01*
X6088277Y-16064936D02*
X6078753Y-16045888D01*
X6078753Y-16045888D02*
X6069229Y-16007793D01*
X6069229Y-16007793D02*
X6069229Y-15960174D01*
X6069229Y-15960174D02*
X6078753Y-15922079D01*
X6078753Y-15922079D02*
X6088277Y-15903031D01*
X6088277Y-15903031D02*
X6097801Y-15893508D01*
X6097801Y-15893508D02*
X6116848Y-15883984D01*
X6250182Y-15883984D02*
X6373991Y-15883984D01*
X6373991Y-15883984D02*
X6307325Y-15960174D01*
X6307325Y-15960174D02*
X6335896Y-15960174D01*
X6335896Y-15960174D02*
X6354944Y-15969698D01*
X6354944Y-15969698D02*
X6364467Y-15979222D01*
X6364467Y-15979222D02*
X6373991Y-15998269D01*
X6373991Y-15998269D02*
X6373991Y-16045888D01*
X6373991Y-16045888D02*
X6364467Y-16064936D01*
X6364467Y-16064936D02*
X6354944Y-16074460D01*
X6354944Y-16074460D02*
X6335896Y-16083984D01*
X6335896Y-16083984D02*
X6278753Y-16083984D01*
X6278753Y-16083984D02*
X6259706Y-16074460D01*
X6259706Y-16074460D02*
X6250182Y-16064936D01*
X6469229Y-16083984D02*
X6507325Y-16083984D01*
X6507325Y-16083984D02*
X6526372Y-16074460D01*
X6526372Y-16074460D02*
X6535896Y-16064936D01*
X6535896Y-16064936D02*
X6554944Y-16036365D01*
X6554944Y-16036365D02*
X6564467Y-15998269D01*
X6564467Y-15998269D02*
X6564467Y-15922079D01*
X6564467Y-15922079D02*
X6554944Y-15903031D01*
X6554944Y-15903031D02*
X6545420Y-15893508D01*
X6545420Y-15893508D02*
X6526372Y-15883984D01*
X6526372Y-15883984D02*
X6488277Y-15883984D01*
X6488277Y-15883984D02*
X6469229Y-15893508D01*
X6469229Y-15893508D02*
X6459706Y-15903031D01*
X6459706Y-15903031D02*
X6450182Y-15922079D01*
X6450182Y-15922079D02*
X6450182Y-15969698D01*
X6450182Y-15969698D02*
X6459706Y-15988746D01*
X6459706Y-15988746D02*
X6469229Y-15998269D01*
X6469229Y-15998269D02*
X6488277Y-16007793D01*
X6488277Y-16007793D02*
X6526372Y-16007793D01*
X6526372Y-16007793D02*
X6545420Y-15998269D01*
X6545420Y-15998269D02*
X6554944Y-15988746D01*
X6554944Y-15988746D02*
X6564467Y-15969698D01*
X6735896Y-15950650D02*
X6735896Y-16083984D01*
X6688277Y-15874460D02*
X6640658Y-16017317D01*
X6640658Y-16017317D02*
X6764467Y-16017317D01*
X6831134Y-15883984D02*
X6831134Y-15922079D01*
X6907325Y-15883984D02*
X6907325Y-15922079D01*
X7202563Y-16160174D02*
X7193039Y-16150650D01*
X7193039Y-16150650D02*
X7173991Y-16122079D01*
X7173991Y-16122079D02*
X7164468Y-16103031D01*
X7164468Y-16103031D02*
X7154944Y-16074460D01*
X7154944Y-16074460D02*
X7145420Y-16026841D01*
X7145420Y-16026841D02*
X7145420Y-15988746D01*
X7145420Y-15988746D02*
X7154944Y-15941127D01*
X7154944Y-15941127D02*
X7164468Y-15912555D01*
X7164468Y-15912555D02*
X7173991Y-15893508D01*
X7173991Y-15893508D02*
X7193039Y-15864936D01*
X7193039Y-15864936D02*
X7202563Y-15855412D01*
X7364468Y-15883984D02*
X7326372Y-15883984D01*
X7326372Y-15883984D02*
X7307325Y-15893508D01*
X7307325Y-15893508D02*
X7297801Y-15903031D01*
X7297801Y-15903031D02*
X7278753Y-15931603D01*
X7278753Y-15931603D02*
X7269229Y-15969698D01*
X7269229Y-15969698D02*
X7269229Y-16045888D01*
X7269229Y-16045888D02*
X7278753Y-16064936D01*
X7278753Y-16064936D02*
X7288277Y-16074460D01*
X7288277Y-16074460D02*
X7307325Y-16083984D01*
X7307325Y-16083984D02*
X7345420Y-16083984D01*
X7345420Y-16083984D02*
X7364468Y-16074460D01*
X7364468Y-16074460D02*
X7373991Y-16064936D01*
X7373991Y-16064936D02*
X7383515Y-16045888D01*
X7383515Y-16045888D02*
X7383515Y-15998269D01*
X7383515Y-15998269D02*
X7373991Y-15979222D01*
X7373991Y-15979222D02*
X7364468Y-15969698D01*
X7364468Y-15969698D02*
X7345420Y-15960174D01*
X7345420Y-15960174D02*
X7307325Y-15960174D01*
X7307325Y-15960174D02*
X7288277Y-15969698D01*
X7288277Y-15969698D02*
X7278753Y-15979222D01*
X7278753Y-15979222D02*
X7269229Y-15998269D01*
X7621610Y-16083984D02*
X7621610Y-15883984D01*
X7707325Y-16083984D02*
X7707325Y-15979222D01*
X7707325Y-15979222D02*
X7697801Y-15960174D01*
X7697801Y-15960174D02*
X7678753Y-15950650D01*
X7678753Y-15950650D02*
X7650182Y-15950650D01*
X7650182Y-15950650D02*
X7631134Y-15960174D01*
X7631134Y-15960174D02*
X7621610Y-15969698D01*
X7831134Y-16083984D02*
X7812087Y-16074460D01*
X7812087Y-16074460D02*
X7802563Y-16064936D01*
X7802563Y-16064936D02*
X7793039Y-16045888D01*
X7793039Y-16045888D02*
X7793039Y-15988746D01*
X7793039Y-15988746D02*
X7802563Y-15969698D01*
X7802563Y-15969698D02*
X7812087Y-15960174D01*
X7812087Y-15960174D02*
X7831134Y-15950650D01*
X7831134Y-15950650D02*
X7859706Y-15950650D01*
X7859706Y-15950650D02*
X7878753Y-15960174D01*
X7878753Y-15960174D02*
X7888277Y-15969698D01*
X7888277Y-15969698D02*
X7897801Y-15988746D01*
X7897801Y-15988746D02*
X7897801Y-16045888D01*
X7897801Y-16045888D02*
X7888277Y-16064936D01*
X7888277Y-16064936D02*
X7878753Y-16074460D01*
X7878753Y-16074460D02*
X7859706Y-16083984D01*
X7859706Y-16083984D02*
X7831134Y-16083984D01*
X8012087Y-16083984D02*
X7993039Y-16074460D01*
X7993039Y-16074460D02*
X7983515Y-16055412D01*
X7983515Y-16055412D02*
X7983515Y-15883984D01*
X8164468Y-16074460D02*
X8145420Y-16083984D01*
X8145420Y-16083984D02*
X8107325Y-16083984D01*
X8107325Y-16083984D02*
X8088277Y-16074460D01*
X8088277Y-16074460D02*
X8078753Y-16055412D01*
X8078753Y-16055412D02*
X8078753Y-15979222D01*
X8078753Y-15979222D02*
X8088277Y-15960174D01*
X8088277Y-15960174D02*
X8107325Y-15950650D01*
X8107325Y-15950650D02*
X8145420Y-15950650D01*
X8145420Y-15950650D02*
X8164468Y-15960174D01*
X8164468Y-15960174D02*
X8173991Y-15979222D01*
X8173991Y-15979222D02*
X8173991Y-15998269D01*
X8173991Y-15998269D02*
X8078753Y-16017317D01*
X8250182Y-16074460D02*
X8269230Y-16083984D01*
X8269230Y-16083984D02*
X8307325Y-16083984D01*
X8307325Y-16083984D02*
X8326372Y-16074460D01*
X8326372Y-16074460D02*
X8335896Y-16055412D01*
X8335896Y-16055412D02*
X8335896Y-16045888D01*
X8335896Y-16045888D02*
X8326372Y-16026841D01*
X8326372Y-16026841D02*
X8307325Y-16017317D01*
X8307325Y-16017317D02*
X8278753Y-16017317D01*
X8278753Y-16017317D02*
X8259706Y-16007793D01*
X8259706Y-16007793D02*
X8250182Y-15988746D01*
X8250182Y-15988746D02*
X8250182Y-15979222D01*
X8250182Y-15979222D02*
X8259706Y-15960174D01*
X8259706Y-15960174D02*
X8278753Y-15950650D01*
X8278753Y-15950650D02*
X8307325Y-15950650D01*
X8307325Y-15950650D02*
X8326372Y-15960174D01*
X8402563Y-16160174D02*
X8412087Y-16150650D01*
X8412087Y-16150650D02*
X8431134Y-16122079D01*
X8431134Y-16122079D02*
X8440658Y-16103031D01*
X8440658Y-16103031D02*
X8450182Y-16074460D01*
X8450182Y-16074460D02*
X8459706Y-16026841D01*
X8459706Y-16026841D02*
X8459706Y-15988746D01*
X8459706Y-15988746D02*
X8450182Y-15941127D01*
X8450182Y-15941127D02*
X8440658Y-15912555D01*
X8440658Y-15912555D02*
X8431134Y-15893508D01*
X8431134Y-15893508D02*
X8412087Y-15864936D01*
X8412087Y-15864936D02*
X8402563Y-15855412D01*
D12*
X3627500Y-16256500D02*
G75*
G02*
X3527500Y-16256500I-50000J0D01*
G01*
X3527500Y-16256500D02*
G75*
G02*
X3627500Y-16256500I50000J0D01*
G01*
D11*
X3993039Y-16347984D02*
X3878753Y-16347984D01*
X3935896Y-16347984D02*
X3935896Y-16147984D01*
X3935896Y-16147984D02*
X3916848Y-16176555D01*
X3916848Y-16176555D02*
X3897801Y-16195603D01*
X3897801Y-16195603D02*
X3878753Y-16205127D01*
X4078753Y-16328936D02*
X4088277Y-16338460D01*
X4088277Y-16338460D02*
X4078753Y-16347984D01*
X4078753Y-16347984D02*
X4069229Y-16338460D01*
X4069229Y-16338460D02*
X4078753Y-16328936D01*
X4078753Y-16328936D02*
X4078753Y-16347984D01*
X4212086Y-16147984D02*
X4231134Y-16147984D01*
X4231134Y-16147984D02*
X4250182Y-16157508D01*
X4250182Y-16157508D02*
X4259705Y-16167031D01*
X4259705Y-16167031D02*
X4269229Y-16186079D01*
X4269229Y-16186079D02*
X4278753Y-16224174D01*
X4278753Y-16224174D02*
X4278753Y-16271793D01*
X4278753Y-16271793D02*
X4269229Y-16309888D01*
X4269229Y-16309888D02*
X4259705Y-16328936D01*
X4259705Y-16328936D02*
X4250182Y-16338460D01*
X4250182Y-16338460D02*
X4231134Y-16347984D01*
X4231134Y-16347984D02*
X4212086Y-16347984D01*
X4212086Y-16347984D02*
X4193039Y-16338460D01*
X4193039Y-16338460D02*
X4183515Y-16328936D01*
X4183515Y-16328936D02*
X4173991Y-16309888D01*
X4173991Y-16309888D02*
X4164467Y-16271793D01*
X4164467Y-16271793D02*
X4164467Y-16224174D01*
X4164467Y-16224174D02*
X4173991Y-16186079D01*
X4173991Y-16186079D02*
X4183515Y-16167031D01*
X4183515Y-16167031D02*
X4193039Y-16157508D01*
X4193039Y-16157508D02*
X4212086Y-16147984D01*
X4402563Y-16147984D02*
X4421610Y-16147984D01*
X4421610Y-16147984D02*
X4440658Y-16157508D01*
X4440658Y-16157508D02*
X4450182Y-16167031D01*
X4450182Y-16167031D02*
X4459705Y-16186079D01*
X4459705Y-16186079D02*
X4469229Y-16224174D01*
X4469229Y-16224174D02*
X4469229Y-16271793D01*
X4469229Y-16271793D02*
X4459705Y-16309888D01*
X4459705Y-16309888D02*
X4450182Y-16328936D01*
X4450182Y-16328936D02*
X4440658Y-16338460D01*
X4440658Y-16338460D02*
X4421610Y-16347984D01*
X4421610Y-16347984D02*
X4402563Y-16347984D01*
X4402563Y-16347984D02*
X4383515Y-16338460D01*
X4383515Y-16338460D02*
X4373991Y-16328936D01*
X4373991Y-16328936D02*
X4364467Y-16309888D01*
X4364467Y-16309888D02*
X4354944Y-16271793D01*
X4354944Y-16271793D02*
X4354944Y-16224174D01*
X4354944Y-16224174D02*
X4364467Y-16186079D01*
X4364467Y-16186079D02*
X4373991Y-16167031D01*
X4373991Y-16167031D02*
X4383515Y-16157508D01*
X4383515Y-16157508D02*
X4402563Y-16147984D01*
X4593039Y-16147984D02*
X4612086Y-16147984D01*
X4612086Y-16147984D02*
X4631134Y-16157508D01*
X4631134Y-16157508D02*
X4640658Y-16167031D01*
X4640658Y-16167031D02*
X4650182Y-16186079D01*
X4650182Y-16186079D02*
X4659705Y-16224174D01*
X4659705Y-16224174D02*
X4659705Y-16271793D01*
X4659705Y-16271793D02*
X4650182Y-16309888D01*
X4650182Y-16309888D02*
X4640658Y-16328936D01*
X4640658Y-16328936D02*
X4631134Y-16338460D01*
X4631134Y-16338460D02*
X4612086Y-16347984D01*
X4612086Y-16347984D02*
X4593039Y-16347984D01*
X4593039Y-16347984D02*
X4573991Y-16338460D01*
X4573991Y-16338460D02*
X4564467Y-16328936D01*
X4564467Y-16328936D02*
X4554944Y-16309888D01*
X4554944Y-16309888D02*
X4545420Y-16271793D01*
X4545420Y-16271793D02*
X4545420Y-16224174D01*
X4545420Y-16224174D02*
X4554944Y-16186079D01*
X4554944Y-16186079D02*
X4564467Y-16167031D01*
X4564467Y-16167031D02*
X4573991Y-16157508D01*
X4573991Y-16157508D02*
X4593039Y-16147984D01*
X4745420Y-16347984D02*
X4745420Y-16214650D01*
X4745420Y-16233698D02*
X4754944Y-16224174D01*
X4754944Y-16224174D02*
X4773991Y-16214650D01*
X4773991Y-16214650D02*
X4802563Y-16214650D01*
X4802563Y-16214650D02*
X4821610Y-16224174D01*
X4821610Y-16224174D02*
X4831134Y-16243222D01*
X4831134Y-16243222D02*
X4831134Y-16347984D01*
X4831134Y-16243222D02*
X4840658Y-16224174D01*
X4840658Y-16224174D02*
X4859705Y-16214650D01*
X4859705Y-16214650D02*
X4888277Y-16214650D01*
X4888277Y-16214650D02*
X4907325Y-16224174D01*
X4907325Y-16224174D02*
X4916848Y-16243222D01*
X4916848Y-16243222D02*
X4916848Y-16347984D01*
X5012086Y-16347984D02*
X5012086Y-16214650D01*
X5012086Y-16233698D02*
X5021610Y-16224174D01*
X5021610Y-16224174D02*
X5040658Y-16214650D01*
X5040658Y-16214650D02*
X5069229Y-16214650D01*
X5069229Y-16214650D02*
X5088277Y-16224174D01*
X5088277Y-16224174D02*
X5097801Y-16243222D01*
X5097801Y-16243222D02*
X5097801Y-16347984D01*
X5097801Y-16243222D02*
X5107325Y-16224174D01*
X5107325Y-16224174D02*
X5126372Y-16214650D01*
X5126372Y-16214650D02*
X5154944Y-16214650D01*
X5154944Y-16214650D02*
X5173991Y-16224174D01*
X5173991Y-16224174D02*
X5183515Y-16243222D01*
X5183515Y-16243222D02*
X5183515Y-16347984D01*
X5573991Y-16138460D02*
X5402563Y-16395603D01*
X5831134Y-16147984D02*
X5850182Y-16147984D01*
X5850182Y-16147984D02*
X5869229Y-16157508D01*
X5869229Y-16157508D02*
X5878753Y-16167031D01*
X5878753Y-16167031D02*
X5888277Y-16186079D01*
X5888277Y-16186079D02*
X5897801Y-16224174D01*
X5897801Y-16224174D02*
X5897801Y-16271793D01*
X5897801Y-16271793D02*
X5888277Y-16309888D01*
X5888277Y-16309888D02*
X5878753Y-16328936D01*
X5878753Y-16328936D02*
X5869229Y-16338460D01*
X5869229Y-16338460D02*
X5850182Y-16347984D01*
X5850182Y-16347984D02*
X5831134Y-16347984D01*
X5831134Y-16347984D02*
X5812086Y-16338460D01*
X5812086Y-16338460D02*
X5802563Y-16328936D01*
X5802563Y-16328936D02*
X5793039Y-16309888D01*
X5793039Y-16309888D02*
X5783515Y-16271793D01*
X5783515Y-16271793D02*
X5783515Y-16224174D01*
X5783515Y-16224174D02*
X5793039Y-16186079D01*
X5793039Y-16186079D02*
X5802563Y-16167031D01*
X5802563Y-16167031D02*
X5812086Y-16157508D01*
X5812086Y-16157508D02*
X5831134Y-16147984D01*
X5983515Y-16328936D02*
X5993039Y-16338460D01*
X5993039Y-16338460D02*
X5983515Y-16347984D01*
X5983515Y-16347984D02*
X5973991Y-16338460D01*
X5973991Y-16338460D02*
X5983515Y-16328936D01*
X5983515Y-16328936D02*
X5983515Y-16347984D01*
X6116848Y-16147984D02*
X6135896Y-16147984D01*
X6135896Y-16147984D02*
X6154944Y-16157508D01*
X6154944Y-16157508D02*
X6164467Y-16167031D01*
X6164467Y-16167031D02*
X6173991Y-16186079D01*
X6173991Y-16186079D02*
X6183515Y-16224174D01*
X6183515Y-16224174D02*
X6183515Y-16271793D01*
X6183515Y-16271793D02*
X6173991Y-16309888D01*
X6173991Y-16309888D02*
X6164467Y-16328936D01*
X6164467Y-16328936D02*
X6154944Y-16338460D01*
X6154944Y-16338460D02*
X6135896Y-16347984D01*
X6135896Y-16347984D02*
X6116848Y-16347984D01*
X6116848Y-16347984D02*
X6097801Y-16338460D01*
X6097801Y-16338460D02*
X6088277Y-16328936D01*
X6088277Y-16328936D02*
X6078753Y-16309888D01*
X6078753Y-16309888D02*
X6069229Y-16271793D01*
X6069229Y-16271793D02*
X6069229Y-16224174D01*
X6069229Y-16224174D02*
X6078753Y-16186079D01*
X6078753Y-16186079D02*
X6088277Y-16167031D01*
X6088277Y-16167031D02*
X6097801Y-16157508D01*
X6097801Y-16157508D02*
X6116848Y-16147984D01*
X6250182Y-16147984D02*
X6373991Y-16147984D01*
X6373991Y-16147984D02*
X6307325Y-16224174D01*
X6307325Y-16224174D02*
X6335896Y-16224174D01*
X6335896Y-16224174D02*
X6354944Y-16233698D01*
X6354944Y-16233698D02*
X6364467Y-16243222D01*
X6364467Y-16243222D02*
X6373991Y-16262269D01*
X6373991Y-16262269D02*
X6373991Y-16309888D01*
X6373991Y-16309888D02*
X6364467Y-16328936D01*
X6364467Y-16328936D02*
X6354944Y-16338460D01*
X6354944Y-16338460D02*
X6335896Y-16347984D01*
X6335896Y-16347984D02*
X6278753Y-16347984D01*
X6278753Y-16347984D02*
X6259706Y-16338460D01*
X6259706Y-16338460D02*
X6250182Y-16328936D01*
X6469229Y-16347984D02*
X6507325Y-16347984D01*
X6507325Y-16347984D02*
X6526372Y-16338460D01*
X6526372Y-16338460D02*
X6535896Y-16328936D01*
X6535896Y-16328936D02*
X6554944Y-16300365D01*
X6554944Y-16300365D02*
X6564467Y-16262269D01*
X6564467Y-16262269D02*
X6564467Y-16186079D01*
X6564467Y-16186079D02*
X6554944Y-16167031D01*
X6554944Y-16167031D02*
X6545420Y-16157508D01*
X6545420Y-16157508D02*
X6526372Y-16147984D01*
X6526372Y-16147984D02*
X6488277Y-16147984D01*
X6488277Y-16147984D02*
X6469229Y-16157508D01*
X6469229Y-16157508D02*
X6459706Y-16167031D01*
X6459706Y-16167031D02*
X6450182Y-16186079D01*
X6450182Y-16186079D02*
X6450182Y-16233698D01*
X6450182Y-16233698D02*
X6459706Y-16252746D01*
X6459706Y-16252746D02*
X6469229Y-16262269D01*
X6469229Y-16262269D02*
X6488277Y-16271793D01*
X6488277Y-16271793D02*
X6526372Y-16271793D01*
X6526372Y-16271793D02*
X6545420Y-16262269D01*
X6545420Y-16262269D02*
X6554944Y-16252746D01*
X6554944Y-16252746D02*
X6564467Y-16233698D01*
X6735896Y-16214650D02*
X6735896Y-16347984D01*
X6688277Y-16138460D02*
X6640658Y-16281317D01*
X6640658Y-16281317D02*
X6764467Y-16281317D01*
X6831134Y-16147984D02*
X6831134Y-16186079D01*
X6907325Y-16147984D02*
X6907325Y-16186079D01*
X7202563Y-16424174D02*
X7193039Y-16414650D01*
X7193039Y-16414650D02*
X7173991Y-16386079D01*
X7173991Y-16386079D02*
X7164468Y-16367031D01*
X7164468Y-16367031D02*
X7154944Y-16338460D01*
X7154944Y-16338460D02*
X7145420Y-16290841D01*
X7145420Y-16290841D02*
X7145420Y-16252746D01*
X7145420Y-16252746D02*
X7154944Y-16205127D01*
X7154944Y-16205127D02*
X7164468Y-16176555D01*
X7164468Y-16176555D02*
X7173991Y-16157508D01*
X7173991Y-16157508D02*
X7193039Y-16128936D01*
X7193039Y-16128936D02*
X7202563Y-16119412D01*
X7373991Y-16147984D02*
X7278753Y-16147984D01*
X7278753Y-16147984D02*
X7269229Y-16243222D01*
X7269229Y-16243222D02*
X7278753Y-16233698D01*
X7278753Y-16233698D02*
X7297801Y-16224174D01*
X7297801Y-16224174D02*
X7345420Y-16224174D01*
X7345420Y-16224174D02*
X7364468Y-16233698D01*
X7364468Y-16233698D02*
X7373991Y-16243222D01*
X7373991Y-16243222D02*
X7383515Y-16262269D01*
X7383515Y-16262269D02*
X7383515Y-16309888D01*
X7383515Y-16309888D02*
X7373991Y-16328936D01*
X7373991Y-16328936D02*
X7364468Y-16338460D01*
X7364468Y-16338460D02*
X7345420Y-16347984D01*
X7345420Y-16347984D02*
X7297801Y-16347984D01*
X7297801Y-16347984D02*
X7278753Y-16338460D01*
X7278753Y-16338460D02*
X7269229Y-16328936D01*
X7573991Y-16347984D02*
X7459706Y-16347984D01*
X7516848Y-16347984D02*
X7516848Y-16147984D01*
X7516848Y-16147984D02*
X7497801Y-16176555D01*
X7497801Y-16176555D02*
X7478753Y-16195603D01*
X7478753Y-16195603D02*
X7459706Y-16205127D01*
X7812087Y-16347984D02*
X7812087Y-16147984D01*
X7897801Y-16347984D02*
X7897801Y-16243222D01*
X7897801Y-16243222D02*
X7888277Y-16224174D01*
X7888277Y-16224174D02*
X7869230Y-16214650D01*
X7869230Y-16214650D02*
X7840658Y-16214650D01*
X7840658Y-16214650D02*
X7821610Y-16224174D01*
X7821610Y-16224174D02*
X7812087Y-16233698D01*
X8021610Y-16347984D02*
X8002563Y-16338460D01*
X8002563Y-16338460D02*
X7993039Y-16328936D01*
X7993039Y-16328936D02*
X7983515Y-16309888D01*
X7983515Y-16309888D02*
X7983515Y-16252746D01*
X7983515Y-16252746D02*
X7993039Y-16233698D01*
X7993039Y-16233698D02*
X8002563Y-16224174D01*
X8002563Y-16224174D02*
X8021610Y-16214650D01*
X8021610Y-16214650D02*
X8050182Y-16214650D01*
X8050182Y-16214650D02*
X8069230Y-16224174D01*
X8069230Y-16224174D02*
X8078753Y-16233698D01*
X8078753Y-16233698D02*
X8088277Y-16252746D01*
X8088277Y-16252746D02*
X8088277Y-16309888D01*
X8088277Y-16309888D02*
X8078753Y-16328936D01*
X8078753Y-16328936D02*
X8069230Y-16338460D01*
X8069230Y-16338460D02*
X8050182Y-16347984D01*
X8050182Y-16347984D02*
X8021610Y-16347984D01*
X8202563Y-16347984D02*
X8183515Y-16338460D01*
X8183515Y-16338460D02*
X8173991Y-16319412D01*
X8173991Y-16319412D02*
X8173991Y-16147984D01*
X8354944Y-16338460D02*
X8335896Y-16347984D01*
X8335896Y-16347984D02*
X8297801Y-16347984D01*
X8297801Y-16347984D02*
X8278753Y-16338460D01*
X8278753Y-16338460D02*
X8269230Y-16319412D01*
X8269230Y-16319412D02*
X8269230Y-16243222D01*
X8269230Y-16243222D02*
X8278753Y-16224174D01*
X8278753Y-16224174D02*
X8297801Y-16214650D01*
X8297801Y-16214650D02*
X8335896Y-16214650D01*
X8335896Y-16214650D02*
X8354944Y-16224174D01*
X8354944Y-16224174D02*
X8364468Y-16243222D01*
X8364468Y-16243222D02*
X8364468Y-16262269D01*
X8364468Y-16262269D02*
X8269230Y-16281317D01*
X8440658Y-16338460D02*
X8459706Y-16347984D01*
X8459706Y-16347984D02*
X8497801Y-16347984D01*
X8497801Y-16347984D02*
X8516849Y-16338460D01*
X8516849Y-16338460D02*
X8526373Y-16319412D01*
X8526373Y-16319412D02*
X8526373Y-16309888D01*
X8526373Y-16309888D02*
X8516849Y-16290841D01*
X8516849Y-16290841D02*
X8497801Y-16281317D01*
X8497801Y-16281317D02*
X8469230Y-16281317D01*
X8469230Y-16281317D02*
X8450182Y-16271793D01*
X8450182Y-16271793D02*
X8440658Y-16252746D01*
X8440658Y-16252746D02*
X8440658Y-16243222D01*
X8440658Y-16243222D02*
X8450182Y-16224174D01*
X8450182Y-16224174D02*
X8469230Y-16214650D01*
X8469230Y-16214650D02*
X8497801Y-16214650D01*
X8497801Y-16214650D02*
X8516849Y-16224174D01*
X8593039Y-16424174D02*
X8602563Y-16414650D01*
X8602563Y-16414650D02*
X8621611Y-16386079D01*
X8621611Y-16386079D02*
X8631134Y-16367031D01*
X8631134Y-16367031D02*
X8640658Y-16338460D01*
X8640658Y-16338460D02*
X8650182Y-16290841D01*
X8650182Y-16290841D02*
X8650182Y-16252746D01*
X8650182Y-16252746D02*
X8640658Y-16205127D01*
X8640658Y-16205127D02*
X8631134Y-16176555D01*
X8631134Y-16176555D02*
X8621611Y-16157508D01*
X8621611Y-16157508D02*
X8602563Y-16128936D01*
X8602563Y-16128936D02*
X8593039Y-16119412D01*
D13*
X3576700Y-16469700D02*
X3576700Y-16571300D01*
X3525900Y-16520500D02*
X3627500Y-16520500D01*
D11*
X3993039Y-16611984D02*
X3878753Y-16611984D01*
X3935896Y-16611984D02*
X3935896Y-16411984D01*
X3935896Y-16411984D02*
X3916848Y-16440555D01*
X3916848Y-16440555D02*
X3897801Y-16459603D01*
X3897801Y-16459603D02*
X3878753Y-16469127D01*
X4078753Y-16592936D02*
X4088277Y-16602460D01*
X4088277Y-16602460D02*
X4078753Y-16611984D01*
X4078753Y-16611984D02*
X4069229Y-16602460D01*
X4069229Y-16602460D02*
X4078753Y-16592936D01*
X4078753Y-16592936D02*
X4078753Y-16611984D01*
X4212086Y-16411984D02*
X4231134Y-16411984D01*
X4231134Y-16411984D02*
X4250182Y-16421508D01*
X4250182Y-16421508D02*
X4259705Y-16431031D01*
X4259705Y-16431031D02*
X4269229Y-16450079D01*
X4269229Y-16450079D02*
X4278753Y-16488174D01*
X4278753Y-16488174D02*
X4278753Y-16535793D01*
X4278753Y-16535793D02*
X4269229Y-16573888D01*
X4269229Y-16573888D02*
X4259705Y-16592936D01*
X4259705Y-16592936D02*
X4250182Y-16602460D01*
X4250182Y-16602460D02*
X4231134Y-16611984D01*
X4231134Y-16611984D02*
X4212086Y-16611984D01*
X4212086Y-16611984D02*
X4193039Y-16602460D01*
X4193039Y-16602460D02*
X4183515Y-16592936D01*
X4183515Y-16592936D02*
X4173991Y-16573888D01*
X4173991Y-16573888D02*
X4164467Y-16535793D01*
X4164467Y-16535793D02*
X4164467Y-16488174D01*
X4164467Y-16488174D02*
X4173991Y-16450079D01*
X4173991Y-16450079D02*
X4183515Y-16431031D01*
X4183515Y-16431031D02*
X4193039Y-16421508D01*
X4193039Y-16421508D02*
X4212086Y-16411984D01*
X4469229Y-16611984D02*
X4354944Y-16611984D01*
X4412086Y-16611984D02*
X4412086Y-16411984D01*
X4412086Y-16411984D02*
X4393039Y-16440555D01*
X4393039Y-16440555D02*
X4373991Y-16459603D01*
X4373991Y-16459603D02*
X4354944Y-16469127D01*
X4640658Y-16411984D02*
X4602563Y-16411984D01*
X4602563Y-16411984D02*
X4583515Y-16421508D01*
X4583515Y-16421508D02*
X4573991Y-16431031D01*
X4573991Y-16431031D02*
X4554944Y-16459603D01*
X4554944Y-16459603D02*
X4545420Y-16497698D01*
X4545420Y-16497698D02*
X4545420Y-16573888D01*
X4545420Y-16573888D02*
X4554944Y-16592936D01*
X4554944Y-16592936D02*
X4564467Y-16602460D01*
X4564467Y-16602460D02*
X4583515Y-16611984D01*
X4583515Y-16611984D02*
X4621610Y-16611984D01*
X4621610Y-16611984D02*
X4640658Y-16602460D01*
X4640658Y-16602460D02*
X4650182Y-16592936D01*
X4650182Y-16592936D02*
X4659705Y-16573888D01*
X4659705Y-16573888D02*
X4659705Y-16526269D01*
X4659705Y-16526269D02*
X4650182Y-16507222D01*
X4650182Y-16507222D02*
X4640658Y-16497698D01*
X4640658Y-16497698D02*
X4621610Y-16488174D01*
X4621610Y-16488174D02*
X4583515Y-16488174D01*
X4583515Y-16488174D02*
X4564467Y-16497698D01*
X4564467Y-16497698D02*
X4554944Y-16507222D01*
X4554944Y-16507222D02*
X4545420Y-16526269D01*
X4745420Y-16611984D02*
X4745420Y-16478650D01*
X4745420Y-16497698D02*
X4754944Y-16488174D01*
X4754944Y-16488174D02*
X4773991Y-16478650D01*
X4773991Y-16478650D02*
X4802563Y-16478650D01*
X4802563Y-16478650D02*
X4821610Y-16488174D01*
X4821610Y-16488174D02*
X4831134Y-16507222D01*
X4831134Y-16507222D02*
X4831134Y-16611984D01*
X4831134Y-16507222D02*
X4840658Y-16488174D01*
X4840658Y-16488174D02*
X4859705Y-16478650D01*
X4859705Y-16478650D02*
X4888277Y-16478650D01*
X4888277Y-16478650D02*
X4907325Y-16488174D01*
X4907325Y-16488174D02*
X4916848Y-16507222D01*
X4916848Y-16507222D02*
X4916848Y-16611984D01*
X5012086Y-16611984D02*
X5012086Y-16478650D01*
X5012086Y-16497698D02*
X5021610Y-16488174D01*
X5021610Y-16488174D02*
X5040658Y-16478650D01*
X5040658Y-16478650D02*
X5069229Y-16478650D01*
X5069229Y-16478650D02*
X5088277Y-16488174D01*
X5088277Y-16488174D02*
X5097801Y-16507222D01*
X5097801Y-16507222D02*
X5097801Y-16611984D01*
X5097801Y-16507222D02*
X5107325Y-16488174D01*
X5107325Y-16488174D02*
X5126372Y-16478650D01*
X5126372Y-16478650D02*
X5154944Y-16478650D01*
X5154944Y-16478650D02*
X5173991Y-16488174D01*
X5173991Y-16488174D02*
X5183515Y-16507222D01*
X5183515Y-16507222D02*
X5183515Y-16611984D01*
X5573991Y-16402460D02*
X5402563Y-16659603D01*
X5831134Y-16411984D02*
X5850182Y-16411984D01*
X5850182Y-16411984D02*
X5869229Y-16421508D01*
X5869229Y-16421508D02*
X5878753Y-16431031D01*
X5878753Y-16431031D02*
X5888277Y-16450079D01*
X5888277Y-16450079D02*
X5897801Y-16488174D01*
X5897801Y-16488174D02*
X5897801Y-16535793D01*
X5897801Y-16535793D02*
X5888277Y-16573888D01*
X5888277Y-16573888D02*
X5878753Y-16592936D01*
X5878753Y-16592936D02*
X5869229Y-16602460D01*
X5869229Y-16602460D02*
X5850182Y-16611984D01*
X5850182Y-16611984D02*
X5831134Y-16611984D01*
X5831134Y-16611984D02*
X5812086Y-16602460D01*
X5812086Y-16602460D02*
X5802563Y-16592936D01*
X5802563Y-16592936D02*
X5793039Y-16573888D01*
X5793039Y-16573888D02*
X5783515Y-16535793D01*
X5783515Y-16535793D02*
X5783515Y-16488174D01*
X5783515Y-16488174D02*
X5793039Y-16450079D01*
X5793039Y-16450079D02*
X5802563Y-16431031D01*
X5802563Y-16431031D02*
X5812086Y-16421508D01*
X5812086Y-16421508D02*
X5831134Y-16411984D01*
X5983515Y-16592936D02*
X5993039Y-16602460D01*
X5993039Y-16602460D02*
X5983515Y-16611984D01*
X5983515Y-16611984D02*
X5973991Y-16602460D01*
X5973991Y-16602460D02*
X5983515Y-16592936D01*
X5983515Y-16592936D02*
X5983515Y-16611984D01*
X6116848Y-16411984D02*
X6135896Y-16411984D01*
X6135896Y-16411984D02*
X6154944Y-16421508D01*
X6154944Y-16421508D02*
X6164467Y-16431031D01*
X6164467Y-16431031D02*
X6173991Y-16450079D01*
X6173991Y-16450079D02*
X6183515Y-16488174D01*
X6183515Y-16488174D02*
X6183515Y-16535793D01*
X6183515Y-16535793D02*
X6173991Y-16573888D01*
X6173991Y-16573888D02*
X6164467Y-16592936D01*
X6164467Y-16592936D02*
X6154944Y-16602460D01*
X6154944Y-16602460D02*
X6135896Y-16611984D01*
X6135896Y-16611984D02*
X6116848Y-16611984D01*
X6116848Y-16611984D02*
X6097801Y-16602460D01*
X6097801Y-16602460D02*
X6088277Y-16592936D01*
X6088277Y-16592936D02*
X6078753Y-16573888D01*
X6078753Y-16573888D02*
X6069229Y-16535793D01*
X6069229Y-16535793D02*
X6069229Y-16488174D01*
X6069229Y-16488174D02*
X6078753Y-16450079D01*
X6078753Y-16450079D02*
X6088277Y-16431031D01*
X6088277Y-16431031D02*
X6097801Y-16421508D01*
X6097801Y-16421508D02*
X6116848Y-16411984D01*
X6354944Y-16478650D02*
X6354944Y-16611984D01*
X6307325Y-16402460D02*
X6259706Y-16545317D01*
X6259706Y-16545317D02*
X6383515Y-16545317D01*
X6497801Y-16411984D02*
X6516848Y-16411984D01*
X6516848Y-16411984D02*
X6535896Y-16421508D01*
X6535896Y-16421508D02*
X6545420Y-16431031D01*
X6545420Y-16431031D02*
X6554944Y-16450079D01*
X6554944Y-16450079D02*
X6564467Y-16488174D01*
X6564467Y-16488174D02*
X6564467Y-16535793D01*
X6564467Y-16535793D02*
X6554944Y-16573888D01*
X6554944Y-16573888D02*
X6545420Y-16592936D01*
X6545420Y-16592936D02*
X6535896Y-16602460D01*
X6535896Y-16602460D02*
X6516848Y-16611984D01*
X6516848Y-16611984D02*
X6497801Y-16611984D01*
X6497801Y-16611984D02*
X6478753Y-16602460D01*
X6478753Y-16602460D02*
X6469229Y-16592936D01*
X6469229Y-16592936D02*
X6459706Y-16573888D01*
X6459706Y-16573888D02*
X6450182Y-16535793D01*
X6450182Y-16535793D02*
X6450182Y-16488174D01*
X6450182Y-16488174D02*
X6459706Y-16450079D01*
X6459706Y-16450079D02*
X6469229Y-16431031D01*
X6469229Y-16431031D02*
X6478753Y-16421508D01*
X6478753Y-16421508D02*
X6497801Y-16411984D01*
X6688277Y-16411984D02*
X6707325Y-16411984D01*
X6707325Y-16411984D02*
X6726372Y-16421508D01*
X6726372Y-16421508D02*
X6735896Y-16431031D01*
X6735896Y-16431031D02*
X6745420Y-16450079D01*
X6745420Y-16450079D02*
X6754944Y-16488174D01*
X6754944Y-16488174D02*
X6754944Y-16535793D01*
X6754944Y-16535793D02*
X6745420Y-16573888D01*
X6745420Y-16573888D02*
X6735896Y-16592936D01*
X6735896Y-16592936D02*
X6726372Y-16602460D01*
X6726372Y-16602460D02*
X6707325Y-16611984D01*
X6707325Y-16611984D02*
X6688277Y-16611984D01*
X6688277Y-16611984D02*
X6669229Y-16602460D01*
X6669229Y-16602460D02*
X6659706Y-16592936D01*
X6659706Y-16592936D02*
X6650182Y-16573888D01*
X6650182Y-16573888D02*
X6640658Y-16535793D01*
X6640658Y-16535793D02*
X6640658Y-16488174D01*
X6640658Y-16488174D02*
X6650182Y-16450079D01*
X6650182Y-16450079D02*
X6659706Y-16431031D01*
X6659706Y-16431031D02*
X6669229Y-16421508D01*
X6669229Y-16421508D02*
X6688277Y-16411984D01*
X6831134Y-16411984D02*
X6831134Y-16450079D01*
X6907325Y-16411984D02*
X6907325Y-16450079D01*
X7202563Y-16688174D02*
X7193039Y-16678650D01*
X7193039Y-16678650D02*
X7173991Y-16650079D01*
X7173991Y-16650079D02*
X7164468Y-16631031D01*
X7164468Y-16631031D02*
X7154944Y-16602460D01*
X7154944Y-16602460D02*
X7145420Y-16554841D01*
X7145420Y-16554841D02*
X7145420Y-16516746D01*
X7145420Y-16516746D02*
X7154944Y-16469127D01*
X7154944Y-16469127D02*
X7164468Y-16440555D01*
X7164468Y-16440555D02*
X7173991Y-16421508D01*
X7173991Y-16421508D02*
X7193039Y-16392936D01*
X7193039Y-16392936D02*
X7202563Y-16383412D01*
X7269229Y-16431031D02*
X7278753Y-16421508D01*
X7278753Y-16421508D02*
X7297801Y-16411984D01*
X7297801Y-16411984D02*
X7345420Y-16411984D01*
X7345420Y-16411984D02*
X7364468Y-16421508D01*
X7364468Y-16421508D02*
X7373991Y-16431031D01*
X7373991Y-16431031D02*
X7383515Y-16450079D01*
X7383515Y-16450079D02*
X7383515Y-16469127D01*
X7383515Y-16469127D02*
X7373991Y-16497698D01*
X7373991Y-16497698D02*
X7259706Y-16611984D01*
X7259706Y-16611984D02*
X7383515Y-16611984D01*
X7621610Y-16611984D02*
X7621610Y-16411984D01*
X7707325Y-16611984D02*
X7707325Y-16507222D01*
X7707325Y-16507222D02*
X7697801Y-16488174D01*
X7697801Y-16488174D02*
X7678753Y-16478650D01*
X7678753Y-16478650D02*
X7650182Y-16478650D01*
X7650182Y-16478650D02*
X7631134Y-16488174D01*
X7631134Y-16488174D02*
X7621610Y-16497698D01*
X7831134Y-16611984D02*
X7812087Y-16602460D01*
X7812087Y-16602460D02*
X7802563Y-16592936D01*
X7802563Y-16592936D02*
X7793039Y-16573888D01*
X7793039Y-16573888D02*
X7793039Y-16516746D01*
X7793039Y-16516746D02*
X7802563Y-16497698D01*
X7802563Y-16497698D02*
X7812087Y-16488174D01*
X7812087Y-16488174D02*
X7831134Y-16478650D01*
X7831134Y-16478650D02*
X7859706Y-16478650D01*
X7859706Y-16478650D02*
X7878753Y-16488174D01*
X7878753Y-16488174D02*
X7888277Y-16497698D01*
X7888277Y-16497698D02*
X7897801Y-16516746D01*
X7897801Y-16516746D02*
X7897801Y-16573888D01*
X7897801Y-16573888D02*
X7888277Y-16592936D01*
X7888277Y-16592936D02*
X7878753Y-16602460D01*
X7878753Y-16602460D02*
X7859706Y-16611984D01*
X7859706Y-16611984D02*
X7831134Y-16611984D01*
X8012087Y-16611984D02*
X7993039Y-16602460D01*
X7993039Y-16602460D02*
X7983515Y-16583412D01*
X7983515Y-16583412D02*
X7983515Y-16411984D01*
X8164468Y-16602460D02*
X8145420Y-16611984D01*
X8145420Y-16611984D02*
X8107325Y-16611984D01*
X8107325Y-16611984D02*
X8088277Y-16602460D01*
X8088277Y-16602460D02*
X8078753Y-16583412D01*
X8078753Y-16583412D02*
X8078753Y-16507222D01*
X8078753Y-16507222D02*
X8088277Y-16488174D01*
X8088277Y-16488174D02*
X8107325Y-16478650D01*
X8107325Y-16478650D02*
X8145420Y-16478650D01*
X8145420Y-16478650D02*
X8164468Y-16488174D01*
X8164468Y-16488174D02*
X8173991Y-16507222D01*
X8173991Y-16507222D02*
X8173991Y-16526269D01*
X8173991Y-16526269D02*
X8078753Y-16545317D01*
X8250182Y-16602460D02*
X8269230Y-16611984D01*
X8269230Y-16611984D02*
X8307325Y-16611984D01*
X8307325Y-16611984D02*
X8326372Y-16602460D01*
X8326372Y-16602460D02*
X8335896Y-16583412D01*
X8335896Y-16583412D02*
X8335896Y-16573888D01*
X8335896Y-16573888D02*
X8326372Y-16554841D01*
X8326372Y-16554841D02*
X8307325Y-16545317D01*
X8307325Y-16545317D02*
X8278753Y-16545317D01*
X8278753Y-16545317D02*
X8259706Y-16535793D01*
X8259706Y-16535793D02*
X8250182Y-16516746D01*
X8250182Y-16516746D02*
X8250182Y-16507222D01*
X8250182Y-16507222D02*
X8259706Y-16488174D01*
X8259706Y-16488174D02*
X8278753Y-16478650D01*
X8278753Y-16478650D02*
X8307325Y-16478650D01*
X8307325Y-16478650D02*
X8326372Y-16488174D01*
X8402563Y-16688174D02*
X8412087Y-16678650D01*
X8412087Y-16678650D02*
X8431134Y-16650079D01*
X8431134Y-16650079D02*
X8440658Y-16631031D01*
X8440658Y-16631031D02*
X8450182Y-16602460D01*
X8450182Y-16602460D02*
X8459706Y-16554841D01*
X8459706Y-16554841D02*
X8459706Y-16516746D01*
X8459706Y-16516746D02*
X8450182Y-16469127D01*
X8450182Y-16469127D02*
X8440658Y-16440555D01*
X8440658Y-16440555D02*
X8431134Y-16421508D01*
X8431134Y-16421508D02*
X8412087Y-16392936D01*
X8412087Y-16392936D02*
X8402563Y-16383412D01*
D14*
X3609927Y-16826927D02*
X3609927Y-16742073D01*
X3525073Y-16742073D01*
X3525073Y-16826927D01*
X3609927Y-16826927D01*
D11*
X3993039Y-16875984D02*
X3878753Y-16875984D01*
X3935896Y-16875984D02*
X3935896Y-16675984D01*
X3935896Y-16675984D02*
X3916848Y-16704555D01*
X3916848Y-16704555D02*
X3897801Y-16723603D01*
X3897801Y-16723603D02*
X3878753Y-16733127D01*
X4078753Y-16856936D02*
X4088277Y-16866460D01*
X4088277Y-16866460D02*
X4078753Y-16875984D01*
X4078753Y-16875984D02*
X4069229Y-16866460D01*
X4069229Y-16866460D02*
X4078753Y-16856936D01*
X4078753Y-16856936D02*
X4078753Y-16875984D01*
X4164467Y-16695031D02*
X4173991Y-16685508D01*
X4173991Y-16685508D02*
X4193039Y-16675984D01*
X4193039Y-16675984D02*
X4240658Y-16675984D01*
X4240658Y-16675984D02*
X4259705Y-16685508D01*
X4259705Y-16685508D02*
X4269229Y-16695031D01*
X4269229Y-16695031D02*
X4278753Y-16714079D01*
X4278753Y-16714079D02*
X4278753Y-16733127D01*
X4278753Y-16733127D02*
X4269229Y-16761698D01*
X4269229Y-16761698D02*
X4154943Y-16875984D01*
X4154943Y-16875984D02*
X4278753Y-16875984D01*
X4402563Y-16675984D02*
X4421610Y-16675984D01*
X4421610Y-16675984D02*
X4440658Y-16685508D01*
X4440658Y-16685508D02*
X4450182Y-16695031D01*
X4450182Y-16695031D02*
X4459705Y-16714079D01*
X4459705Y-16714079D02*
X4469229Y-16752174D01*
X4469229Y-16752174D02*
X4469229Y-16799793D01*
X4469229Y-16799793D02*
X4459705Y-16837889D01*
X4459705Y-16837889D02*
X4450182Y-16856936D01*
X4450182Y-16856936D02*
X4440658Y-16866460D01*
X4440658Y-16866460D02*
X4421610Y-16875984D01*
X4421610Y-16875984D02*
X4402563Y-16875984D01*
X4402563Y-16875984D02*
X4383515Y-16866460D01*
X4383515Y-16866460D02*
X4373991Y-16856936D01*
X4373991Y-16856936D02*
X4364467Y-16837889D01*
X4364467Y-16837889D02*
X4354944Y-16799793D01*
X4354944Y-16799793D02*
X4354944Y-16752174D01*
X4354944Y-16752174D02*
X4364467Y-16714079D01*
X4364467Y-16714079D02*
X4373991Y-16695031D01*
X4373991Y-16695031D02*
X4383515Y-16685508D01*
X4383515Y-16685508D02*
X4402563Y-16675984D01*
X4593039Y-16675984D02*
X4612086Y-16675984D01*
X4612086Y-16675984D02*
X4631134Y-16685508D01*
X4631134Y-16685508D02*
X4640658Y-16695031D01*
X4640658Y-16695031D02*
X4650182Y-16714079D01*
X4650182Y-16714079D02*
X4659705Y-16752174D01*
X4659705Y-16752174D02*
X4659705Y-16799793D01*
X4659705Y-16799793D02*
X4650182Y-16837889D01*
X4650182Y-16837889D02*
X4640658Y-16856936D01*
X4640658Y-16856936D02*
X4631134Y-16866460D01*
X4631134Y-16866460D02*
X4612086Y-16875984D01*
X4612086Y-16875984D02*
X4593039Y-16875984D01*
X4593039Y-16875984D02*
X4573991Y-16866460D01*
X4573991Y-16866460D02*
X4564467Y-16856936D01*
X4564467Y-16856936D02*
X4554944Y-16837889D01*
X4554944Y-16837889D02*
X4545420Y-16799793D01*
X4545420Y-16799793D02*
X4545420Y-16752174D01*
X4545420Y-16752174D02*
X4554944Y-16714079D01*
X4554944Y-16714079D02*
X4564467Y-16695031D01*
X4564467Y-16695031D02*
X4573991Y-16685508D01*
X4573991Y-16685508D02*
X4593039Y-16675984D01*
X4745420Y-16875984D02*
X4745420Y-16742650D01*
X4745420Y-16761698D02*
X4754944Y-16752174D01*
X4754944Y-16752174D02*
X4773991Y-16742650D01*
X4773991Y-16742650D02*
X4802563Y-16742650D01*
X4802563Y-16742650D02*
X4821610Y-16752174D01*
X4821610Y-16752174D02*
X4831134Y-16771222D01*
X4831134Y-16771222D02*
X4831134Y-16875984D01*
X4831134Y-16771222D02*
X4840658Y-16752174D01*
X4840658Y-16752174D02*
X4859705Y-16742650D01*
X4859705Y-16742650D02*
X4888277Y-16742650D01*
X4888277Y-16742650D02*
X4907325Y-16752174D01*
X4907325Y-16752174D02*
X4916848Y-16771222D01*
X4916848Y-16771222D02*
X4916848Y-16875984D01*
X5012086Y-16875984D02*
X5012086Y-16742650D01*
X5012086Y-16761698D02*
X5021610Y-16752174D01*
X5021610Y-16752174D02*
X5040658Y-16742650D01*
X5040658Y-16742650D02*
X5069229Y-16742650D01*
X5069229Y-16742650D02*
X5088277Y-16752174D01*
X5088277Y-16752174D02*
X5097801Y-16771222D01*
X5097801Y-16771222D02*
X5097801Y-16875984D01*
X5097801Y-16771222D02*
X5107325Y-16752174D01*
X5107325Y-16752174D02*
X5126372Y-16742650D01*
X5126372Y-16742650D02*
X5154944Y-16742650D01*
X5154944Y-16742650D02*
X5173991Y-16752174D01*
X5173991Y-16752174D02*
X5183515Y-16771222D01*
X5183515Y-16771222D02*
X5183515Y-16875984D01*
X5573991Y-16666460D02*
X5402563Y-16923603D01*
X5831134Y-16675984D02*
X5850182Y-16675984D01*
X5850182Y-16675984D02*
X5869229Y-16685508D01*
X5869229Y-16685508D02*
X5878753Y-16695031D01*
X5878753Y-16695031D02*
X5888277Y-16714079D01*
X5888277Y-16714079D02*
X5897801Y-16752174D01*
X5897801Y-16752174D02*
X5897801Y-16799793D01*
X5897801Y-16799793D02*
X5888277Y-16837889D01*
X5888277Y-16837889D02*
X5878753Y-16856936D01*
X5878753Y-16856936D02*
X5869229Y-16866460D01*
X5869229Y-16866460D02*
X5850182Y-16875984D01*
X5850182Y-16875984D02*
X5831134Y-16875984D01*
X5831134Y-16875984D02*
X5812086Y-16866460D01*
X5812086Y-16866460D02*
X5802563Y-16856936D01*
X5802563Y-16856936D02*
X5793039Y-16837889D01*
X5793039Y-16837889D02*
X5783515Y-16799793D01*
X5783515Y-16799793D02*
X5783515Y-16752174D01*
X5783515Y-16752174D02*
X5793039Y-16714079D01*
X5793039Y-16714079D02*
X5802563Y-16695031D01*
X5802563Y-16695031D02*
X5812086Y-16685508D01*
X5812086Y-16685508D02*
X5831134Y-16675984D01*
X5983515Y-16856936D02*
X5993039Y-16866460D01*
X5993039Y-16866460D02*
X5983515Y-16875984D01*
X5983515Y-16875984D02*
X5973991Y-16866460D01*
X5973991Y-16866460D02*
X5983515Y-16856936D01*
X5983515Y-16856936D02*
X5983515Y-16875984D01*
X6116848Y-16675984D02*
X6135896Y-16675984D01*
X6135896Y-16675984D02*
X6154944Y-16685508D01*
X6154944Y-16685508D02*
X6164467Y-16695031D01*
X6164467Y-16695031D02*
X6173991Y-16714079D01*
X6173991Y-16714079D02*
X6183515Y-16752174D01*
X6183515Y-16752174D02*
X6183515Y-16799793D01*
X6183515Y-16799793D02*
X6173991Y-16837889D01*
X6173991Y-16837889D02*
X6164467Y-16856936D01*
X6164467Y-16856936D02*
X6154944Y-16866460D01*
X6154944Y-16866460D02*
X6135896Y-16875984D01*
X6135896Y-16875984D02*
X6116848Y-16875984D01*
X6116848Y-16875984D02*
X6097801Y-16866460D01*
X6097801Y-16866460D02*
X6088277Y-16856936D01*
X6088277Y-16856936D02*
X6078753Y-16837889D01*
X6078753Y-16837889D02*
X6069229Y-16799793D01*
X6069229Y-16799793D02*
X6069229Y-16752174D01*
X6069229Y-16752174D02*
X6078753Y-16714079D01*
X6078753Y-16714079D02*
X6088277Y-16695031D01*
X6088277Y-16695031D02*
X6097801Y-16685508D01*
X6097801Y-16685508D02*
X6116848Y-16675984D01*
X6354944Y-16742650D02*
X6354944Y-16875984D01*
X6307325Y-16666460D02*
X6259706Y-16809317D01*
X6259706Y-16809317D02*
X6383515Y-16809317D01*
X6440658Y-16675984D02*
X6573991Y-16675984D01*
X6573991Y-16675984D02*
X6488277Y-16875984D01*
X6640658Y-16695031D02*
X6650182Y-16685508D01*
X6650182Y-16685508D02*
X6669229Y-16675984D01*
X6669229Y-16675984D02*
X6716848Y-16675984D01*
X6716848Y-16675984D02*
X6735896Y-16685508D01*
X6735896Y-16685508D02*
X6745420Y-16695031D01*
X6745420Y-16695031D02*
X6754944Y-16714079D01*
X6754944Y-16714079D02*
X6754944Y-16733127D01*
X6754944Y-16733127D02*
X6745420Y-16761698D01*
X6745420Y-16761698D02*
X6631134Y-16875984D01*
X6631134Y-16875984D02*
X6754944Y-16875984D01*
X6831134Y-16675984D02*
X6831134Y-16714079D01*
X6907325Y-16675984D02*
X6907325Y-16714079D01*
X7202563Y-16952174D02*
X7193039Y-16942650D01*
X7193039Y-16942650D02*
X7173991Y-16914079D01*
X7173991Y-16914079D02*
X7164468Y-16895031D01*
X7164468Y-16895031D02*
X7154944Y-16866460D01*
X7154944Y-16866460D02*
X7145420Y-16818841D01*
X7145420Y-16818841D02*
X7145420Y-16780746D01*
X7145420Y-16780746D02*
X7154944Y-16733127D01*
X7154944Y-16733127D02*
X7164468Y-16704555D01*
X7164468Y-16704555D02*
X7173991Y-16685508D01*
X7173991Y-16685508D02*
X7193039Y-16656936D01*
X7193039Y-16656936D02*
X7202563Y-16647412D01*
X7269229Y-16695031D02*
X7278753Y-16685508D01*
X7278753Y-16685508D02*
X7297801Y-16675984D01*
X7297801Y-16675984D02*
X7345420Y-16675984D01*
X7345420Y-16675984D02*
X7364468Y-16685508D01*
X7364468Y-16685508D02*
X7373991Y-16695031D01*
X7373991Y-16695031D02*
X7383515Y-16714079D01*
X7383515Y-16714079D02*
X7383515Y-16733127D01*
X7383515Y-16733127D02*
X7373991Y-16761698D01*
X7373991Y-16761698D02*
X7259706Y-16875984D01*
X7259706Y-16875984D02*
X7383515Y-16875984D01*
X7621610Y-16875984D02*
X7621610Y-16675984D01*
X7707325Y-16875984D02*
X7707325Y-16771222D01*
X7707325Y-16771222D02*
X7697801Y-16752174D01*
X7697801Y-16752174D02*
X7678753Y-16742650D01*
X7678753Y-16742650D02*
X7650182Y-16742650D01*
X7650182Y-16742650D02*
X7631134Y-16752174D01*
X7631134Y-16752174D02*
X7621610Y-16761698D01*
X7831134Y-16875984D02*
X7812087Y-16866460D01*
X7812087Y-16866460D02*
X7802563Y-16856936D01*
X7802563Y-16856936D02*
X7793039Y-16837889D01*
X7793039Y-16837889D02*
X7793039Y-16780746D01*
X7793039Y-16780746D02*
X7802563Y-16761698D01*
X7802563Y-16761698D02*
X7812087Y-16752174D01*
X7812087Y-16752174D02*
X7831134Y-16742650D01*
X7831134Y-16742650D02*
X7859706Y-16742650D01*
X7859706Y-16742650D02*
X7878753Y-16752174D01*
X7878753Y-16752174D02*
X7888277Y-16761698D01*
X7888277Y-16761698D02*
X7897801Y-16780746D01*
X7897801Y-16780746D02*
X7897801Y-16837889D01*
X7897801Y-16837889D02*
X7888277Y-16856936D01*
X7888277Y-16856936D02*
X7878753Y-16866460D01*
X7878753Y-16866460D02*
X7859706Y-16875984D01*
X7859706Y-16875984D02*
X7831134Y-16875984D01*
X8012087Y-16875984D02*
X7993039Y-16866460D01*
X7993039Y-16866460D02*
X7983515Y-16847412D01*
X7983515Y-16847412D02*
X7983515Y-16675984D01*
X8164468Y-16866460D02*
X8145420Y-16875984D01*
X8145420Y-16875984D02*
X8107325Y-16875984D01*
X8107325Y-16875984D02*
X8088277Y-16866460D01*
X8088277Y-16866460D02*
X8078753Y-16847412D01*
X8078753Y-16847412D02*
X8078753Y-16771222D01*
X8078753Y-16771222D02*
X8088277Y-16752174D01*
X8088277Y-16752174D02*
X8107325Y-16742650D01*
X8107325Y-16742650D02*
X8145420Y-16742650D01*
X8145420Y-16742650D02*
X8164468Y-16752174D01*
X8164468Y-16752174D02*
X8173991Y-16771222D01*
X8173991Y-16771222D02*
X8173991Y-16790270D01*
X8173991Y-16790270D02*
X8078753Y-16809317D01*
X8250182Y-16866460D02*
X8269230Y-16875984D01*
X8269230Y-16875984D02*
X8307325Y-16875984D01*
X8307325Y-16875984D02*
X8326372Y-16866460D01*
X8326372Y-16866460D02*
X8335896Y-16847412D01*
X8335896Y-16847412D02*
X8335896Y-16837889D01*
X8335896Y-16837889D02*
X8326372Y-16818841D01*
X8326372Y-16818841D02*
X8307325Y-16809317D01*
X8307325Y-16809317D02*
X8278753Y-16809317D01*
X8278753Y-16809317D02*
X8259706Y-16799793D01*
X8259706Y-16799793D02*
X8250182Y-16780746D01*
X8250182Y-16780746D02*
X8250182Y-16771222D01*
X8250182Y-16771222D02*
X8259706Y-16752174D01*
X8259706Y-16752174D02*
X8278753Y-16742650D01*
X8278753Y-16742650D02*
X8307325Y-16742650D01*
X8307325Y-16742650D02*
X8326372Y-16752174D01*
X8402563Y-16952174D02*
X8412087Y-16942650D01*
X8412087Y-16942650D02*
X8431134Y-16914079D01*
X8431134Y-16914079D02*
X8440658Y-16895031D01*
X8440658Y-16895031D02*
X8450182Y-16866460D01*
X8450182Y-16866460D02*
X8459706Y-16818841D01*
X8459706Y-16818841D02*
X8459706Y-16780746D01*
X8459706Y-16780746D02*
X8450182Y-16733127D01*
X8450182Y-16733127D02*
X8440658Y-16704555D01*
X8440658Y-16704555D02*
X8431134Y-16685508D01*
X8431134Y-16685508D02*
X8412087Y-16656936D01*
X8412087Y-16656936D02*
X8402563Y-16647412D01*
D15*
X3562500Y-17113500D02*
X3627500Y-17048500D01*
X3562500Y-16983500D01*
X3497500Y-17048500D01*
X3562500Y-17113500D01*
D11*
X3993039Y-17139984D02*
X3878753Y-17139984D01*
X3935896Y-17139984D02*
X3935896Y-16939984D01*
X3935896Y-16939984D02*
X3916848Y-16968555D01*
X3916848Y-16968555D02*
X3897801Y-16987603D01*
X3897801Y-16987603D02*
X3878753Y-16997127D01*
X4078753Y-17120936D02*
X4088277Y-17130460D01*
X4088277Y-17130460D02*
X4078753Y-17139984D01*
X4078753Y-17139984D02*
X4069229Y-17130460D01*
X4069229Y-17130460D02*
X4078753Y-17120936D01*
X4078753Y-17120936D02*
X4078753Y-17139984D01*
X4154943Y-16939984D02*
X4278753Y-16939984D01*
X4278753Y-16939984D02*
X4212086Y-17016174D01*
X4212086Y-17016174D02*
X4240658Y-17016174D01*
X4240658Y-17016174D02*
X4259705Y-17025698D01*
X4259705Y-17025698D02*
X4269229Y-17035222D01*
X4269229Y-17035222D02*
X4278753Y-17054270D01*
X4278753Y-17054270D02*
X4278753Y-17101889D01*
X4278753Y-17101889D02*
X4269229Y-17120936D01*
X4269229Y-17120936D02*
X4259705Y-17130460D01*
X4259705Y-17130460D02*
X4240658Y-17139984D01*
X4240658Y-17139984D02*
X4183515Y-17139984D01*
X4183515Y-17139984D02*
X4164467Y-17130460D01*
X4164467Y-17130460D02*
X4154943Y-17120936D01*
X4402563Y-16939984D02*
X4421610Y-16939984D01*
X4421610Y-16939984D02*
X4440658Y-16949508D01*
X4440658Y-16949508D02*
X4450182Y-16959031D01*
X4450182Y-16959031D02*
X4459705Y-16978079D01*
X4459705Y-16978079D02*
X4469229Y-17016174D01*
X4469229Y-17016174D02*
X4469229Y-17063793D01*
X4469229Y-17063793D02*
X4459705Y-17101889D01*
X4459705Y-17101889D02*
X4450182Y-17120936D01*
X4450182Y-17120936D02*
X4440658Y-17130460D01*
X4440658Y-17130460D02*
X4421610Y-17139984D01*
X4421610Y-17139984D02*
X4402563Y-17139984D01*
X4402563Y-17139984D02*
X4383515Y-17130460D01*
X4383515Y-17130460D02*
X4373991Y-17120936D01*
X4373991Y-17120936D02*
X4364467Y-17101889D01*
X4364467Y-17101889D02*
X4354944Y-17063793D01*
X4354944Y-17063793D02*
X4354944Y-17016174D01*
X4354944Y-17016174D02*
X4364467Y-16978079D01*
X4364467Y-16978079D02*
X4373991Y-16959031D01*
X4373991Y-16959031D02*
X4383515Y-16949508D01*
X4383515Y-16949508D02*
X4402563Y-16939984D01*
X4593039Y-16939984D02*
X4612086Y-16939984D01*
X4612086Y-16939984D02*
X4631134Y-16949508D01*
X4631134Y-16949508D02*
X4640658Y-16959031D01*
X4640658Y-16959031D02*
X4650182Y-16978079D01*
X4650182Y-16978079D02*
X4659705Y-17016174D01*
X4659705Y-17016174D02*
X4659705Y-17063793D01*
X4659705Y-17063793D02*
X4650182Y-17101889D01*
X4650182Y-17101889D02*
X4640658Y-17120936D01*
X4640658Y-17120936D02*
X4631134Y-17130460D01*
X4631134Y-17130460D02*
X4612086Y-17139984D01*
X4612086Y-17139984D02*
X4593039Y-17139984D01*
X4593039Y-17139984D02*
X4573991Y-17130460D01*
X4573991Y-17130460D02*
X4564467Y-17120936D01*
X4564467Y-17120936D02*
X4554944Y-17101889D01*
X4554944Y-17101889D02*
X4545420Y-17063793D01*
X4545420Y-17063793D02*
X4545420Y-17016174D01*
X4545420Y-17016174D02*
X4554944Y-16978079D01*
X4554944Y-16978079D02*
X4564467Y-16959031D01*
X4564467Y-16959031D02*
X4573991Y-16949508D01*
X4573991Y-16949508D02*
X4593039Y-16939984D01*
X4745420Y-17139984D02*
X4745420Y-17006650D01*
X4745420Y-17025698D02*
X4754944Y-17016174D01*
X4754944Y-17016174D02*
X4773991Y-17006650D01*
X4773991Y-17006650D02*
X4802563Y-17006650D01*
X4802563Y-17006650D02*
X4821610Y-17016174D01*
X4821610Y-17016174D02*
X4831134Y-17035222D01*
X4831134Y-17035222D02*
X4831134Y-17139984D01*
X4831134Y-17035222D02*
X4840658Y-17016174D01*
X4840658Y-17016174D02*
X4859705Y-17006650D01*
X4859705Y-17006650D02*
X4888277Y-17006650D01*
X4888277Y-17006650D02*
X4907325Y-17016174D01*
X4907325Y-17016174D02*
X4916848Y-17035222D01*
X4916848Y-17035222D02*
X4916848Y-17139984D01*
X5012086Y-17139984D02*
X5012086Y-17006650D01*
X5012086Y-17025698D02*
X5021610Y-17016174D01*
X5021610Y-17016174D02*
X5040658Y-17006650D01*
X5040658Y-17006650D02*
X5069229Y-17006650D01*
X5069229Y-17006650D02*
X5088277Y-17016174D01*
X5088277Y-17016174D02*
X5097801Y-17035222D01*
X5097801Y-17035222D02*
X5097801Y-17139984D01*
X5097801Y-17035222D02*
X5107325Y-17016174D01*
X5107325Y-17016174D02*
X5126372Y-17006650D01*
X5126372Y-17006650D02*
X5154944Y-17006650D01*
X5154944Y-17006650D02*
X5173991Y-17016174D01*
X5173991Y-17016174D02*
X5183515Y-17035222D01*
X5183515Y-17035222D02*
X5183515Y-17139984D01*
X5573991Y-16930460D02*
X5402563Y-17187603D01*
X5831134Y-16939984D02*
X5850182Y-16939984D01*
X5850182Y-16939984D02*
X5869229Y-16949508D01*
X5869229Y-16949508D02*
X5878753Y-16959031D01*
X5878753Y-16959031D02*
X5888277Y-16978079D01*
X5888277Y-16978079D02*
X5897801Y-17016174D01*
X5897801Y-17016174D02*
X5897801Y-17063793D01*
X5897801Y-17063793D02*
X5888277Y-17101889D01*
X5888277Y-17101889D02*
X5878753Y-17120936D01*
X5878753Y-17120936D02*
X5869229Y-17130460D01*
X5869229Y-17130460D02*
X5850182Y-17139984D01*
X5850182Y-17139984D02*
X5831134Y-17139984D01*
X5831134Y-17139984D02*
X5812086Y-17130460D01*
X5812086Y-17130460D02*
X5802563Y-17120936D01*
X5802563Y-17120936D02*
X5793039Y-17101889D01*
X5793039Y-17101889D02*
X5783515Y-17063793D01*
X5783515Y-17063793D02*
X5783515Y-17016174D01*
X5783515Y-17016174D02*
X5793039Y-16978079D01*
X5793039Y-16978079D02*
X5802563Y-16959031D01*
X5802563Y-16959031D02*
X5812086Y-16949508D01*
X5812086Y-16949508D02*
X5831134Y-16939984D01*
X5983515Y-17120936D02*
X5993039Y-17130460D01*
X5993039Y-17130460D02*
X5983515Y-17139984D01*
X5983515Y-17139984D02*
X5973991Y-17130460D01*
X5973991Y-17130460D02*
X5983515Y-17120936D01*
X5983515Y-17120936D02*
X5983515Y-17139984D01*
X6116848Y-16939984D02*
X6135896Y-16939984D01*
X6135896Y-16939984D02*
X6154944Y-16949508D01*
X6154944Y-16949508D02*
X6164467Y-16959031D01*
X6164467Y-16959031D02*
X6173991Y-16978079D01*
X6173991Y-16978079D02*
X6183515Y-17016174D01*
X6183515Y-17016174D02*
X6183515Y-17063793D01*
X6183515Y-17063793D02*
X6173991Y-17101889D01*
X6173991Y-17101889D02*
X6164467Y-17120936D01*
X6164467Y-17120936D02*
X6154944Y-17130460D01*
X6154944Y-17130460D02*
X6135896Y-17139984D01*
X6135896Y-17139984D02*
X6116848Y-17139984D01*
X6116848Y-17139984D02*
X6097801Y-17130460D01*
X6097801Y-17130460D02*
X6088277Y-17120936D01*
X6088277Y-17120936D02*
X6078753Y-17101889D01*
X6078753Y-17101889D02*
X6069229Y-17063793D01*
X6069229Y-17063793D02*
X6069229Y-17016174D01*
X6069229Y-17016174D02*
X6078753Y-16978079D01*
X6078753Y-16978079D02*
X6088277Y-16959031D01*
X6088277Y-16959031D02*
X6097801Y-16949508D01*
X6097801Y-16949508D02*
X6116848Y-16939984D01*
X6364467Y-16939984D02*
X6269229Y-16939984D01*
X6269229Y-16939984D02*
X6259706Y-17035222D01*
X6259706Y-17035222D02*
X6269229Y-17025698D01*
X6269229Y-17025698D02*
X6288277Y-17016174D01*
X6288277Y-17016174D02*
X6335896Y-17016174D01*
X6335896Y-17016174D02*
X6354944Y-17025698D01*
X6354944Y-17025698D02*
X6364467Y-17035222D01*
X6364467Y-17035222D02*
X6373991Y-17054270D01*
X6373991Y-17054270D02*
X6373991Y-17101889D01*
X6373991Y-17101889D02*
X6364467Y-17120936D01*
X6364467Y-17120936D02*
X6354944Y-17130460D01*
X6354944Y-17130460D02*
X6335896Y-17139984D01*
X6335896Y-17139984D02*
X6288277Y-17139984D01*
X6288277Y-17139984D02*
X6269229Y-17130460D01*
X6269229Y-17130460D02*
X6259706Y-17120936D01*
X6564467Y-17139984D02*
X6450182Y-17139984D01*
X6507325Y-17139984D02*
X6507325Y-16939984D01*
X6507325Y-16939984D02*
X6488277Y-16968555D01*
X6488277Y-16968555D02*
X6469229Y-16987603D01*
X6469229Y-16987603D02*
X6450182Y-16997127D01*
X6640658Y-16959031D02*
X6650182Y-16949508D01*
X6650182Y-16949508D02*
X6669229Y-16939984D01*
X6669229Y-16939984D02*
X6716848Y-16939984D01*
X6716848Y-16939984D02*
X6735896Y-16949508D01*
X6735896Y-16949508D02*
X6745420Y-16959031D01*
X6745420Y-16959031D02*
X6754944Y-16978079D01*
X6754944Y-16978079D02*
X6754944Y-16997127D01*
X6754944Y-16997127D02*
X6745420Y-17025698D01*
X6745420Y-17025698D02*
X6631134Y-17139984D01*
X6631134Y-17139984D02*
X6754944Y-17139984D01*
X6831134Y-16939984D02*
X6831134Y-16978079D01*
X6907325Y-16939984D02*
X6907325Y-16978079D01*
X7202563Y-17216174D02*
X7193039Y-17206650D01*
X7193039Y-17206650D02*
X7173991Y-17178079D01*
X7173991Y-17178079D02*
X7164468Y-17159031D01*
X7164468Y-17159031D02*
X7154944Y-17130460D01*
X7154944Y-17130460D02*
X7145420Y-17082841D01*
X7145420Y-17082841D02*
X7145420Y-17044746D01*
X7145420Y-17044746D02*
X7154944Y-16997127D01*
X7154944Y-16997127D02*
X7164468Y-16968555D01*
X7164468Y-16968555D02*
X7173991Y-16949508D01*
X7173991Y-16949508D02*
X7193039Y-16920936D01*
X7193039Y-16920936D02*
X7202563Y-16911412D01*
X7269229Y-16959031D02*
X7278753Y-16949508D01*
X7278753Y-16949508D02*
X7297801Y-16939984D01*
X7297801Y-16939984D02*
X7345420Y-16939984D01*
X7345420Y-16939984D02*
X7364468Y-16949508D01*
X7364468Y-16949508D02*
X7373991Y-16959031D01*
X7373991Y-16959031D02*
X7383515Y-16978079D01*
X7383515Y-16978079D02*
X7383515Y-16997127D01*
X7383515Y-16997127D02*
X7373991Y-17025698D01*
X7373991Y-17025698D02*
X7259706Y-17139984D01*
X7259706Y-17139984D02*
X7383515Y-17139984D01*
X7621610Y-17139984D02*
X7621610Y-16939984D01*
X7707325Y-17139984D02*
X7707325Y-17035222D01*
X7707325Y-17035222D02*
X7697801Y-17016174D01*
X7697801Y-17016174D02*
X7678753Y-17006650D01*
X7678753Y-17006650D02*
X7650182Y-17006650D01*
X7650182Y-17006650D02*
X7631134Y-17016174D01*
X7631134Y-17016174D02*
X7621610Y-17025698D01*
X7831134Y-17139984D02*
X7812087Y-17130460D01*
X7812087Y-17130460D02*
X7802563Y-17120936D01*
X7802563Y-17120936D02*
X7793039Y-17101889D01*
X7793039Y-17101889D02*
X7793039Y-17044746D01*
X7793039Y-17044746D02*
X7802563Y-17025698D01*
X7802563Y-17025698D02*
X7812087Y-17016174D01*
X7812087Y-17016174D02*
X7831134Y-17006650D01*
X7831134Y-17006650D02*
X7859706Y-17006650D01*
X7859706Y-17006650D02*
X7878753Y-17016174D01*
X7878753Y-17016174D02*
X7888277Y-17025698D01*
X7888277Y-17025698D02*
X7897801Y-17044746D01*
X7897801Y-17044746D02*
X7897801Y-17101889D01*
X7897801Y-17101889D02*
X7888277Y-17120936D01*
X7888277Y-17120936D02*
X7878753Y-17130460D01*
X7878753Y-17130460D02*
X7859706Y-17139984D01*
X7859706Y-17139984D02*
X7831134Y-17139984D01*
X8012087Y-17139984D02*
X7993039Y-17130460D01*
X7993039Y-17130460D02*
X7983515Y-17111412D01*
X7983515Y-17111412D02*
X7983515Y-16939984D01*
X8164468Y-17130460D02*
X8145420Y-17139984D01*
X8145420Y-17139984D02*
X8107325Y-17139984D01*
X8107325Y-17139984D02*
X8088277Y-17130460D01*
X8088277Y-17130460D02*
X8078753Y-17111412D01*
X8078753Y-17111412D02*
X8078753Y-17035222D01*
X8078753Y-17035222D02*
X8088277Y-17016174D01*
X8088277Y-17016174D02*
X8107325Y-17006650D01*
X8107325Y-17006650D02*
X8145420Y-17006650D01*
X8145420Y-17006650D02*
X8164468Y-17016174D01*
X8164468Y-17016174D02*
X8173991Y-17035222D01*
X8173991Y-17035222D02*
X8173991Y-17054270D01*
X8173991Y-17054270D02*
X8078753Y-17073317D01*
X8250182Y-17130460D02*
X8269230Y-17139984D01*
X8269230Y-17139984D02*
X8307325Y-17139984D01*
X8307325Y-17139984D02*
X8326372Y-17130460D01*
X8326372Y-17130460D02*
X8335896Y-17111412D01*
X8335896Y-17111412D02*
X8335896Y-17101889D01*
X8335896Y-17101889D02*
X8326372Y-17082841D01*
X8326372Y-17082841D02*
X8307325Y-17073317D01*
X8307325Y-17073317D02*
X8278753Y-17073317D01*
X8278753Y-17073317D02*
X8259706Y-17063793D01*
X8259706Y-17063793D02*
X8250182Y-17044746D01*
X8250182Y-17044746D02*
X8250182Y-17035222D01*
X8250182Y-17035222D02*
X8259706Y-17016174D01*
X8259706Y-17016174D02*
X8278753Y-17006650D01*
X8278753Y-17006650D02*
X8307325Y-17006650D01*
X8307325Y-17006650D02*
X8326372Y-17016174D01*
X8402563Y-17216174D02*
X8412087Y-17206650D01*
X8412087Y-17206650D02*
X8431134Y-17178079D01*
X8431134Y-17178079D02*
X8440658Y-17159031D01*
X8440658Y-17159031D02*
X8450182Y-17130460D01*
X8450182Y-17130460D02*
X8459706Y-17082841D01*
X8459706Y-17082841D02*
X8459706Y-17044746D01*
X8459706Y-17044746D02*
X8450182Y-16997127D01*
X8450182Y-16997127D02*
X8440658Y-16968555D01*
X8440658Y-16968555D02*
X8431134Y-16949508D01*
X8431134Y-16949508D02*
X8412087Y-16920936D01*
X8412087Y-16920936D02*
X8402563Y-16911412D01*
X3427500Y-17212500D02*
X3627500Y-17412500D01*
X3627500Y-17212500D02*
X3427500Y-17412500D01*
X3627500Y-17312500D02*
G75*
G02*
X3427500Y-17312500I-100000J0D01*
G01*
X3427500Y-17312500D02*
G75*
G02*
X3627500Y-17312500I100000J0D01*
G01*
X3878753Y-17223031D02*
X3888277Y-17213508D01*
X3888277Y-17213508D02*
X3907324Y-17203984D01*
X3907324Y-17203984D02*
X3954943Y-17203984D01*
X3954943Y-17203984D02*
X3973991Y-17213508D01*
X3973991Y-17213508D02*
X3983515Y-17223031D01*
X3983515Y-17223031D02*
X3993039Y-17242079D01*
X3993039Y-17242079D02*
X3993039Y-17261127D01*
X3993039Y-17261127D02*
X3983515Y-17289698D01*
X3983515Y-17289698D02*
X3869229Y-17403984D01*
X3869229Y-17403984D02*
X3993039Y-17403984D01*
X4078753Y-17384936D02*
X4088277Y-17394460D01*
X4088277Y-17394460D02*
X4078753Y-17403984D01*
X4078753Y-17403984D02*
X4069229Y-17394460D01*
X4069229Y-17394460D02*
X4078753Y-17384936D01*
X4078753Y-17384936D02*
X4078753Y-17403984D01*
X4269229Y-17203984D02*
X4173991Y-17203984D01*
X4173991Y-17203984D02*
X4164467Y-17299222D01*
X4164467Y-17299222D02*
X4173991Y-17289698D01*
X4173991Y-17289698D02*
X4193039Y-17280174D01*
X4193039Y-17280174D02*
X4240658Y-17280174D01*
X4240658Y-17280174D02*
X4259705Y-17289698D01*
X4259705Y-17289698D02*
X4269229Y-17299222D01*
X4269229Y-17299222D02*
X4278753Y-17318270D01*
X4278753Y-17318270D02*
X4278753Y-17365889D01*
X4278753Y-17365889D02*
X4269229Y-17384936D01*
X4269229Y-17384936D02*
X4259705Y-17394460D01*
X4259705Y-17394460D02*
X4240658Y-17403984D01*
X4240658Y-17403984D02*
X4193039Y-17403984D01*
X4193039Y-17403984D02*
X4173991Y-17394460D01*
X4173991Y-17394460D02*
X4164467Y-17384936D01*
X4402563Y-17203984D02*
X4421610Y-17203984D01*
X4421610Y-17203984D02*
X4440658Y-17213508D01*
X4440658Y-17213508D02*
X4450182Y-17223031D01*
X4450182Y-17223031D02*
X4459705Y-17242079D01*
X4459705Y-17242079D02*
X4469229Y-17280174D01*
X4469229Y-17280174D02*
X4469229Y-17327793D01*
X4469229Y-17327793D02*
X4459705Y-17365889D01*
X4459705Y-17365889D02*
X4450182Y-17384936D01*
X4450182Y-17384936D02*
X4440658Y-17394460D01*
X4440658Y-17394460D02*
X4421610Y-17403984D01*
X4421610Y-17403984D02*
X4402563Y-17403984D01*
X4402563Y-17403984D02*
X4383515Y-17394460D01*
X4383515Y-17394460D02*
X4373991Y-17384936D01*
X4373991Y-17384936D02*
X4364467Y-17365889D01*
X4364467Y-17365889D02*
X4354944Y-17327793D01*
X4354944Y-17327793D02*
X4354944Y-17280174D01*
X4354944Y-17280174D02*
X4364467Y-17242079D01*
X4364467Y-17242079D02*
X4373991Y-17223031D01*
X4373991Y-17223031D02*
X4383515Y-17213508D01*
X4383515Y-17213508D02*
X4402563Y-17203984D01*
X4593039Y-17203984D02*
X4612086Y-17203984D01*
X4612086Y-17203984D02*
X4631134Y-17213508D01*
X4631134Y-17213508D02*
X4640658Y-17223031D01*
X4640658Y-17223031D02*
X4650182Y-17242079D01*
X4650182Y-17242079D02*
X4659705Y-17280174D01*
X4659705Y-17280174D02*
X4659705Y-17327793D01*
X4659705Y-17327793D02*
X4650182Y-17365889D01*
X4650182Y-17365889D02*
X4640658Y-17384936D01*
X4640658Y-17384936D02*
X4631134Y-17394460D01*
X4631134Y-17394460D02*
X4612086Y-17403984D01*
X4612086Y-17403984D02*
X4593039Y-17403984D01*
X4593039Y-17403984D02*
X4573991Y-17394460D01*
X4573991Y-17394460D02*
X4564467Y-17384936D01*
X4564467Y-17384936D02*
X4554944Y-17365889D01*
X4554944Y-17365889D02*
X4545420Y-17327793D01*
X4545420Y-17327793D02*
X4545420Y-17280174D01*
X4545420Y-17280174D02*
X4554944Y-17242079D01*
X4554944Y-17242079D02*
X4564467Y-17223031D01*
X4564467Y-17223031D02*
X4573991Y-17213508D01*
X4573991Y-17213508D02*
X4593039Y-17203984D01*
X4745420Y-17403984D02*
X4745420Y-17270650D01*
X4745420Y-17289698D02*
X4754944Y-17280174D01*
X4754944Y-17280174D02*
X4773991Y-17270650D01*
X4773991Y-17270650D02*
X4802563Y-17270650D01*
X4802563Y-17270650D02*
X4821610Y-17280174D01*
X4821610Y-17280174D02*
X4831134Y-17299222D01*
X4831134Y-17299222D02*
X4831134Y-17403984D01*
X4831134Y-17299222D02*
X4840658Y-17280174D01*
X4840658Y-17280174D02*
X4859705Y-17270650D01*
X4859705Y-17270650D02*
X4888277Y-17270650D01*
X4888277Y-17270650D02*
X4907325Y-17280174D01*
X4907325Y-17280174D02*
X4916848Y-17299222D01*
X4916848Y-17299222D02*
X4916848Y-17403984D01*
X5012086Y-17403984D02*
X5012086Y-17270650D01*
X5012086Y-17289698D02*
X5021610Y-17280174D01*
X5021610Y-17280174D02*
X5040658Y-17270650D01*
X5040658Y-17270650D02*
X5069229Y-17270650D01*
X5069229Y-17270650D02*
X5088277Y-17280174D01*
X5088277Y-17280174D02*
X5097801Y-17299222D01*
X5097801Y-17299222D02*
X5097801Y-17403984D01*
X5097801Y-17299222D02*
X5107325Y-17280174D01*
X5107325Y-17280174D02*
X5126372Y-17270650D01*
X5126372Y-17270650D02*
X5154944Y-17270650D01*
X5154944Y-17270650D02*
X5173991Y-17280174D01*
X5173991Y-17280174D02*
X5183515Y-17299222D01*
X5183515Y-17299222D02*
X5183515Y-17403984D01*
X5573991Y-17194460D02*
X5402563Y-17451603D01*
X5831134Y-17203984D02*
X5850182Y-17203984D01*
X5850182Y-17203984D02*
X5869229Y-17213508D01*
X5869229Y-17213508D02*
X5878753Y-17223031D01*
X5878753Y-17223031D02*
X5888277Y-17242079D01*
X5888277Y-17242079D02*
X5897801Y-17280174D01*
X5897801Y-17280174D02*
X5897801Y-17327793D01*
X5897801Y-17327793D02*
X5888277Y-17365889D01*
X5888277Y-17365889D02*
X5878753Y-17384936D01*
X5878753Y-17384936D02*
X5869229Y-17394460D01*
X5869229Y-17394460D02*
X5850182Y-17403984D01*
X5850182Y-17403984D02*
X5831134Y-17403984D01*
X5831134Y-17403984D02*
X5812086Y-17394460D01*
X5812086Y-17394460D02*
X5802563Y-17384936D01*
X5802563Y-17384936D02*
X5793039Y-17365889D01*
X5793039Y-17365889D02*
X5783515Y-17327793D01*
X5783515Y-17327793D02*
X5783515Y-17280174D01*
X5783515Y-17280174D02*
X5793039Y-17242079D01*
X5793039Y-17242079D02*
X5802563Y-17223031D01*
X5802563Y-17223031D02*
X5812086Y-17213508D01*
X5812086Y-17213508D02*
X5831134Y-17203984D01*
X5983515Y-17384936D02*
X5993039Y-17394460D01*
X5993039Y-17394460D02*
X5983515Y-17403984D01*
X5983515Y-17403984D02*
X5973991Y-17394460D01*
X5973991Y-17394460D02*
X5983515Y-17384936D01*
X5983515Y-17384936D02*
X5983515Y-17403984D01*
X6116848Y-17203984D02*
X6135896Y-17203984D01*
X6135896Y-17203984D02*
X6154944Y-17213508D01*
X6154944Y-17213508D02*
X6164467Y-17223031D01*
X6164467Y-17223031D02*
X6173991Y-17242079D01*
X6173991Y-17242079D02*
X6183515Y-17280174D01*
X6183515Y-17280174D02*
X6183515Y-17327793D01*
X6183515Y-17327793D02*
X6173991Y-17365889D01*
X6173991Y-17365889D02*
X6164467Y-17384936D01*
X6164467Y-17384936D02*
X6154944Y-17394460D01*
X6154944Y-17394460D02*
X6135896Y-17403984D01*
X6135896Y-17403984D02*
X6116848Y-17403984D01*
X6116848Y-17403984D02*
X6097801Y-17394460D01*
X6097801Y-17394460D02*
X6088277Y-17384936D01*
X6088277Y-17384936D02*
X6078753Y-17365889D01*
X6078753Y-17365889D02*
X6069229Y-17327793D01*
X6069229Y-17327793D02*
X6069229Y-17280174D01*
X6069229Y-17280174D02*
X6078753Y-17242079D01*
X6078753Y-17242079D02*
X6088277Y-17223031D01*
X6088277Y-17223031D02*
X6097801Y-17213508D01*
X6097801Y-17213508D02*
X6116848Y-17203984D01*
X6278753Y-17403984D02*
X6316848Y-17403984D01*
X6316848Y-17403984D02*
X6335896Y-17394460D01*
X6335896Y-17394460D02*
X6345420Y-17384936D01*
X6345420Y-17384936D02*
X6364467Y-17356365D01*
X6364467Y-17356365D02*
X6373991Y-17318270D01*
X6373991Y-17318270D02*
X6373991Y-17242079D01*
X6373991Y-17242079D02*
X6364467Y-17223031D01*
X6364467Y-17223031D02*
X6354944Y-17213508D01*
X6354944Y-17213508D02*
X6335896Y-17203984D01*
X6335896Y-17203984D02*
X6297801Y-17203984D01*
X6297801Y-17203984D02*
X6278753Y-17213508D01*
X6278753Y-17213508D02*
X6269229Y-17223031D01*
X6269229Y-17223031D02*
X6259706Y-17242079D01*
X6259706Y-17242079D02*
X6259706Y-17289698D01*
X6259706Y-17289698D02*
X6269229Y-17308746D01*
X6269229Y-17308746D02*
X6278753Y-17318270D01*
X6278753Y-17318270D02*
X6297801Y-17327793D01*
X6297801Y-17327793D02*
X6335896Y-17327793D01*
X6335896Y-17327793D02*
X6354944Y-17318270D01*
X6354944Y-17318270D02*
X6364467Y-17308746D01*
X6364467Y-17308746D02*
X6373991Y-17289698D01*
X6488277Y-17289698D02*
X6469229Y-17280174D01*
X6469229Y-17280174D02*
X6459706Y-17270650D01*
X6459706Y-17270650D02*
X6450182Y-17251603D01*
X6450182Y-17251603D02*
X6450182Y-17242079D01*
X6450182Y-17242079D02*
X6459706Y-17223031D01*
X6459706Y-17223031D02*
X6469229Y-17213508D01*
X6469229Y-17213508D02*
X6488277Y-17203984D01*
X6488277Y-17203984D02*
X6526372Y-17203984D01*
X6526372Y-17203984D02*
X6545420Y-17213508D01*
X6545420Y-17213508D02*
X6554944Y-17223031D01*
X6554944Y-17223031D02*
X6564467Y-17242079D01*
X6564467Y-17242079D02*
X6564467Y-17251603D01*
X6564467Y-17251603D02*
X6554944Y-17270650D01*
X6554944Y-17270650D02*
X6545420Y-17280174D01*
X6545420Y-17280174D02*
X6526372Y-17289698D01*
X6526372Y-17289698D02*
X6488277Y-17289698D01*
X6488277Y-17289698D02*
X6469229Y-17299222D01*
X6469229Y-17299222D02*
X6459706Y-17308746D01*
X6459706Y-17308746D02*
X6450182Y-17327793D01*
X6450182Y-17327793D02*
X6450182Y-17365889D01*
X6450182Y-17365889D02*
X6459706Y-17384936D01*
X6459706Y-17384936D02*
X6469229Y-17394460D01*
X6469229Y-17394460D02*
X6488277Y-17403984D01*
X6488277Y-17403984D02*
X6526372Y-17403984D01*
X6526372Y-17403984D02*
X6545420Y-17394460D01*
X6545420Y-17394460D02*
X6554944Y-17384936D01*
X6554944Y-17384936D02*
X6564467Y-17365889D01*
X6564467Y-17365889D02*
X6564467Y-17327793D01*
X6564467Y-17327793D02*
X6554944Y-17308746D01*
X6554944Y-17308746D02*
X6545420Y-17299222D01*
X6545420Y-17299222D02*
X6526372Y-17289698D01*
X6735896Y-17270650D02*
X6735896Y-17403984D01*
X6688277Y-17194460D02*
X6640658Y-17337317D01*
X6640658Y-17337317D02*
X6764467Y-17337317D01*
X6831134Y-17203984D02*
X6831134Y-17242079D01*
X6907325Y-17203984D02*
X6907325Y-17242079D01*
X7202563Y-17480174D02*
X7193039Y-17470650D01*
X7193039Y-17470650D02*
X7173991Y-17442079D01*
X7173991Y-17442079D02*
X7164468Y-17423031D01*
X7164468Y-17423031D02*
X7154944Y-17394460D01*
X7154944Y-17394460D02*
X7145420Y-17346841D01*
X7145420Y-17346841D02*
X7145420Y-17308746D01*
X7145420Y-17308746D02*
X7154944Y-17261127D01*
X7154944Y-17261127D02*
X7164468Y-17232555D01*
X7164468Y-17232555D02*
X7173991Y-17213508D01*
X7173991Y-17213508D02*
X7193039Y-17184936D01*
X7193039Y-17184936D02*
X7202563Y-17175412D01*
X7259706Y-17203984D02*
X7383515Y-17203984D01*
X7383515Y-17203984D02*
X7316848Y-17280174D01*
X7316848Y-17280174D02*
X7345420Y-17280174D01*
X7345420Y-17280174D02*
X7364468Y-17289698D01*
X7364468Y-17289698D02*
X7373991Y-17299222D01*
X7373991Y-17299222D02*
X7383515Y-17318270D01*
X7383515Y-17318270D02*
X7383515Y-17365889D01*
X7383515Y-17365889D02*
X7373991Y-17384936D01*
X7373991Y-17384936D02*
X7364468Y-17394460D01*
X7364468Y-17394460D02*
X7345420Y-17403984D01*
X7345420Y-17403984D02*
X7288277Y-17403984D01*
X7288277Y-17403984D02*
X7269229Y-17394460D01*
X7269229Y-17394460D02*
X7259706Y-17384936D01*
X7621610Y-17403984D02*
X7621610Y-17203984D01*
X7707325Y-17403984D02*
X7707325Y-17299222D01*
X7707325Y-17299222D02*
X7697801Y-17280174D01*
X7697801Y-17280174D02*
X7678753Y-17270650D01*
X7678753Y-17270650D02*
X7650182Y-17270650D01*
X7650182Y-17270650D02*
X7631134Y-17280174D01*
X7631134Y-17280174D02*
X7621610Y-17289698D01*
X7831134Y-17403984D02*
X7812087Y-17394460D01*
X7812087Y-17394460D02*
X7802563Y-17384936D01*
X7802563Y-17384936D02*
X7793039Y-17365889D01*
X7793039Y-17365889D02*
X7793039Y-17308746D01*
X7793039Y-17308746D02*
X7802563Y-17289698D01*
X7802563Y-17289698D02*
X7812087Y-17280174D01*
X7812087Y-17280174D02*
X7831134Y-17270650D01*
X7831134Y-17270650D02*
X7859706Y-17270650D01*
X7859706Y-17270650D02*
X7878753Y-17280174D01*
X7878753Y-17280174D02*
X7888277Y-17289698D01*
X7888277Y-17289698D02*
X7897801Y-17308746D01*
X7897801Y-17308746D02*
X7897801Y-17365889D01*
X7897801Y-17365889D02*
X7888277Y-17384936D01*
X7888277Y-17384936D02*
X7878753Y-17394460D01*
X7878753Y-17394460D02*
X7859706Y-17403984D01*
X7859706Y-17403984D02*
X7831134Y-17403984D01*
X8012087Y-17403984D02*
X7993039Y-17394460D01*
X7993039Y-17394460D02*
X7983515Y-17375412D01*
X7983515Y-17375412D02*
X7983515Y-17203984D01*
X8164468Y-17394460D02*
X8145420Y-17403984D01*
X8145420Y-17403984D02*
X8107325Y-17403984D01*
X8107325Y-17403984D02*
X8088277Y-17394460D01*
X8088277Y-17394460D02*
X8078753Y-17375412D01*
X8078753Y-17375412D02*
X8078753Y-17299222D01*
X8078753Y-17299222D02*
X8088277Y-17280174D01*
X8088277Y-17280174D02*
X8107325Y-17270650D01*
X8107325Y-17270650D02*
X8145420Y-17270650D01*
X8145420Y-17270650D02*
X8164468Y-17280174D01*
X8164468Y-17280174D02*
X8173991Y-17299222D01*
X8173991Y-17299222D02*
X8173991Y-17318270D01*
X8173991Y-17318270D02*
X8078753Y-17337317D01*
X8250182Y-17394460D02*
X8269230Y-17403984D01*
X8269230Y-17403984D02*
X8307325Y-17403984D01*
X8307325Y-17403984D02*
X8326372Y-17394460D01*
X8326372Y-17394460D02*
X8335896Y-17375412D01*
X8335896Y-17375412D02*
X8335896Y-17365889D01*
X8335896Y-17365889D02*
X8326372Y-17346841D01*
X8326372Y-17346841D02*
X8307325Y-17337317D01*
X8307325Y-17337317D02*
X8278753Y-17337317D01*
X8278753Y-17337317D02*
X8259706Y-17327793D01*
X8259706Y-17327793D02*
X8250182Y-17308746D01*
X8250182Y-17308746D02*
X8250182Y-17299222D01*
X8250182Y-17299222D02*
X8259706Y-17280174D01*
X8259706Y-17280174D02*
X8278753Y-17270650D01*
X8278753Y-17270650D02*
X8307325Y-17270650D01*
X8307325Y-17270650D02*
X8326372Y-17280174D01*
X8402563Y-17480174D02*
X8412087Y-17470650D01*
X8412087Y-17470650D02*
X8431134Y-17442079D01*
X8431134Y-17442079D02*
X8440658Y-17423031D01*
X8440658Y-17423031D02*
X8450182Y-17394460D01*
X8450182Y-17394460D02*
X8459706Y-17346841D01*
X8459706Y-17346841D02*
X8459706Y-17308746D01*
X8459706Y-17308746D02*
X8450182Y-17261127D01*
X8450182Y-17261127D02*
X8440658Y-17232555D01*
X8440658Y-17232555D02*
X8431134Y-17213508D01*
X8431134Y-17213508D02*
X8412087Y-17184936D01*
X8412087Y-17184936D02*
X8402563Y-17175412D01*
M02*
